<svg width="16" height="16" viewBox="0 0 16 16" fill="none" xmlns="http://www.w3.org/2000/svg">
<path d="M8.16024 6.82951C7.43116 7.35632 6.8341 8.04496 6.41595 8.84136C5.9978 9.63775 5.76993 10.5202 5.75024 11.4195L0.750244 11.2895C0.332975 10.692 0.0868957 9.99177 0.0385842 9.26455C-0.00972733 8.53734 0.141565 7.81075 0.476121 7.16325C0.810677 6.51576 1.31578 5.97197 1.93687 5.59063C2.55797 5.2093 3.27145 5.0049 4.00024 4.99951C4.75984 4.98751 5.50663 5.19592 6.15024 5.59951L8.16024 6.82951Z" fill="#0078D4"/>
<path d="M5.75021 11.5002C5.76143 12.0095 5.84562 12.5147 6.00021 13.0002H4.00021C3.35622 13.0002 2.72173 12.8448 2.15068 12.5471C1.57963 12.2494 1.0889 11.8182 0.720215 11.2902L6.38021 8.91016C5.97782 9.68642 5.7621 10.5459 5.75021 11.4202V11.5002Z" fill="#28A8EA"/>
<path d="M12.77 5.90005C12.3542 5.79917 11.9278 5.7488 11.5 5.75005C10.3007 5.74905 9.13169 6.12705 8.16 6.83005L6.1 5.60005C5.47075 5.20565 4.74263 4.99762 4 5.00005C4.50282 4.2369 5.20519 3.62615 6.03078 3.23419C6.85636 2.84222 7.77359 2.68403 8.68278 2.77681C9.59197 2.86958 10.4583 3.20977 11.1877 3.76041C11.9171 4.31105 12.4817 5.05107 12.82 5.90005H12.77Z" fill="#0364B8"/>
<path d="M11.5 16C13.9853 16 16 13.9853 16 11.5C16 9.01472 13.9853 7 11.5 7C9.01472 7 7 9.01472 7 11.5C7 13.9853 9.01472 16 11.5 16Z" fill="#C42B1C"/>
<rect x="14.4985" y="11" width="1" height="5.99749" rx="0.5" transform="rotate(90 14.4985 11)" fill="white"/>
</svg>
