<svg width="16" height="16" viewBox="0 0 16 16" fill="none" xmlns="http://www.w3.org/2000/svg">
<path d="M8.15976 6.83002C7.43067 7.35683 6.83361 8.04546 6.41546 8.84186C5.99731 9.63826 5.76944 10.5207 5.74976 11.42L0.749756 11.29C0.332487 10.6924 0.0864075 9.99223 0.0380959 9.26502C-0.0102156 8.5378 0.141077 7.81125 0.475633 7.16376C0.810189 6.51627 1.31529 5.97247 1.93639 5.59113C2.55748 5.20979 3.27096 5.00539 3.99976 5C4.75935 4.988 5.50614 5.19638 6.14976 5.59998L8.15976 6.83002Z" fill="#0078D4"/>
<path d="M5.75021 11.4999C5.76143 12.0093 5.84562 12.5145 6.00021 12.9999H4.00021C3.35622 13 2.72173 12.8446 2.15068 12.5469C1.57963 12.2492 1.0889 11.8179 0.720215 11.2899L6.38021 8.90991C5.97782 9.68618 5.7621 10.5456 5.75021 11.4199V11.4999Z" fill="#28A8EA"/>
<path d="M12.77 5.9001C12.3542 5.79921 11.9278 5.74883 11.5 5.75007C10.3007 5.74908 9.13169 6.12709 8.16 6.83009L6.1 5.60005C5.47075 5.20565 4.74263 4.99764 4 5.00007C4.50282 4.23692 5.20519 3.62617 6.03078 3.2342C6.85636 2.84224 7.77359 2.68403 8.68278 2.77681C9.59197 2.86958 10.4583 3.20981 11.1877 3.76045C11.9171 4.31109 12.4817 5.05111 12.82 5.9001H12.77Z" fill="#0364B8"/>
<path d="M11.5 16C13.9853 16 16 13.9853 16 11.5C16 9.01472 13.9853 7 11.5 7C9.01472 7 7 9.01472 7 11.5C7 13.9853 9.01472 16 11.5 16Z" fill="#D72329"/>
<path d="M9.25 13.75L13.75 9.25" stroke="#FEFEFE" stroke-miterlimit="10"/>
<path d="M9.25 9.25L13.75 13.75" stroke="#FEFEFE" stroke-miterlimit="10"/>
</svg>
