<svg width="16" height="16" viewBox="0 0 16 16" fill="none" xmlns="http://www.w3.org/2000/svg">
<g clip-path="url(#clip0_936_455)">
<path d="M8.16 6.82951C7.43091 7.35632 6.83386 8.04496 6.4157 8.84136C5.99755 9.63775 5.76969 10.5202 5.75 11.4195L0.75 11.2895C0.332731 10.692 0.0866516 9.99177 0.0383401 9.26455C-0.00997147 8.53734 0.141321 7.81075 0.475877 7.16325C0.810433 6.51576 1.31554 5.97197 1.93663 5.59063C2.55772 5.2093 3.2712 5.0049 4 4.99951C4.75959 4.98751 5.50639 5.19592 6.15 5.59951L8.16 6.82951Z" fill="#0078D4"/>
<path d="M5.74994 11.5002C5.76115 12.0095 5.84534 12.5147 5.99994 13.0002H3.99994C3.35594 13.0002 2.72145 12.8448 2.1504 12.5471C1.57935 12.2494 1.08863 11.8182 0.71994 11.2902L6.37994 8.91016C5.97755 9.68642 5.76183 10.5459 5.74994 11.4202V11.5002Z" fill="#28A8EA"/>
<path d="M12.77 5.89981C12.3542 5.79892 11.9278 5.74856 11.5 5.74981C10.3007 5.74881 9.13169 6.1268 8.16 6.82981L6.1 5.59981C5.47075 5.20541 4.74263 4.99738 4 4.99981C4.50282 4.23665 5.20519 3.62591 6.03078 3.23394C6.85636 2.84198 7.77359 2.68379 8.68278 2.77656C9.59197 2.86934 10.4583 3.20953 11.1877 3.76017C11.9171 4.3108 12.4817 5.05082 12.82 5.89981H12.77Z" fill="#0364B8"/>
<rect x="7.28125" y="7.28125" width="8.4375" height="8.4375" rx="4.21875" fill="#FCE100" stroke="#FCE100" stroke-width="0.5625"/>
<rect x="11" y="9" width="1" height="3" rx="0.5" fill="black"/>
<circle cx="11.5" cy="13.5" r="0.5" fill="black"/>
</g>
<defs>
<clipPath id="clip0_936_455">
<rect width="16" height="16" fill="white"/>
</clipPath>
</defs>
</svg>
