<?xml version="1.0" encoding="utf-8"?>
<!-- Generator: Adobe Illustrator 23.0.2, SVG Export Plug-In . SVG Version: 6.00 Build 0)  -->
<svg version="1.1" id="Layer_1" xmlns="http://www.w3.org/2000/svg" xmlns:xlink="http://www.w3.org/1999/xlink" x="0px" y="0px"
	 width="48px" height="48px" viewBox="0 0 48 48" style="enable-background:new 0 0 48 48;" xml:space="preserve">
<style type="text/css">
	.st0{opacity:0.7;fill:#FFFFFF;}
	.st1{fill:#FFFFFF;}
	.st2{opacity:0.85;fill:#FFFFFF;}
	.st3{opacity:0.5;fill:#FFFFFF;}
	.st4{fill:none;}
</style>
<g>
	<path class="st0" d="M18.3,16.79L18.3,16.79c-1.87-1.16-4.07-1.81-6.46-1.78C5.29,15.09,0,20.42,0,27c0,2.55,0.8,4.91,2.16,6.86
		l17.08,0.46l9.14-11.49L18.3,16.79z"/>
	<path class="st1" d="M28.38,22.82c0,0-26.8,11.28-26.22,11.04C4.32,36.97,7.92,39,12,39h26.25c3.71,0,6.94-2.07,8.58-5.12
		C46.48,33.66,28.38,22.82,28.38,22.82z"/>
	<path class="st2" d="M38.91,19.52c-1.61-0.11-3.14,0.17-4.52,0.77l0,0l-6,2.53c0,0,18.1,10.84,18.45,11.05
		C47.58,32.5,48,30.92,48,29.25C48,24.09,43.99,19.86,38.91,19.52z"/>
	<path class="st3" d="M34.39,20.3c1.39-0.6,2.91-0.88,4.52-0.77c-1.66-6.48-7.53-11.27-14.53-11.27c-5.24,0-9.85,2.69-12.53,6.75
		c2.38-0.03,4.58,0.63,6.46,1.79l0,0l10.08,6.04L34.39,20.3L34.39,20.3z"/>
	<rect y="0" class="st4" width="48" height="48"/>
	<rect y="0" class="st4" width="48" height="48"/>
	<rect y="0" class="st4" width="48" height="48"/>
</g>
</svg>
