<svg viewBox="0 0 16 16" fill="none" xmlns="http://www.w3.org/2000/svg">
<g clip-path="url(#clip0_1537:41719)">
<path d="M8.16 6.83C7.43091 7.35681 6.83386 8.04545 6.4157 8.84184C5.99755 9.63824 5.76969 10.5207 5.75 11.42L0.75 11.29C0.332731 10.6925 0.0866516 9.99226 0.0383401 9.26504C-0.00997147 8.53783 0.141321 7.81123 0.475877 7.16374C0.810433 6.51625 1.31554 5.97246 1.93663 5.59112C2.55772 5.20978 3.2712 5.00539 4 5C4.75959 4.988 5.50639 5.1964 6.15 5.6L8.16 6.83Z" fill="#0078D4"/>
<path d="M5.75 11.4999C5.76121 12.0093 5.8454 12.5144 6 12.9999H4C3.35601 13 2.72151 12.8445 2.15046 12.5468C1.57941 12.2491 1.08869 11.8179 0.720001 11.2899L6.38 8.90991C5.97761 9.68618 5.76189 10.5456 5.75 11.4199V11.4999Z" fill="#28A8EA"/>
<path d="M12.77 5.90005C12.3542 5.79917 11.9278 5.7488 11.5 5.75005C10.3007 5.74905 9.13169 6.12705 8.16 6.83005L6.1 5.60005C5.47075 5.20565 4.74263 4.99762 4 5.00005C4.50282 4.2369 5.20519 3.62615 6.03078 3.23419C6.85636 2.84222 7.77359 2.68403 8.68278 2.77681C9.59197 2.86958 10.4583 3.20977 11.1877 3.76041C11.9171 4.31105 12.4817 5.05107 12.82 5.90005H12.77Z" fill="#0364B8"/>
<path d="M11.5 16C13.9853 16 16 13.9853 16 11.5C16 9.01472 13.9853 7 11.5 7C9.01472 7 7 9.01472 7 11.5C7 13.9853 9.01472 16 11.5 16Z" fill="white"/>
<path d="M7.00013 11.5C7.00013 11.0844 7.05326 10.6859 7.15951 10.3047C7.26576 9.92344 7.41576 9.56406 7.60951 9.22656C7.80326 8.88906 8.03763 8.58594 8.31263 8.31719C8.58763 8.04844 8.89232 7.81406 9.22669 7.61406C9.56107 7.41406 9.91888 7.2625 10.3001 7.15938C10.6814 7.05625 11.0814 7.00313 11.5001 7C11.9158 7 12.3142 7.05313 12.6954 7.15938C13.0767 7.26563 13.4361 7.41563 13.7736 7.60938C14.1111 7.80313 14.4142 8.0375 14.6829 8.3125C14.9517 8.5875 15.1861 8.89219 15.3861 9.22656C15.5861 9.56094 15.7376 9.91875 15.8408 10.3C15.9439 10.6813 15.997 11.0813 16.0001 11.5C16.0001 11.9156 15.947 12.3141 15.8408 12.6953C15.7345 13.0766 15.5845 13.4359 15.3908 13.7734C15.197 14.1109 14.9626 14.4141 14.6876 14.6828C14.4126 14.9516 14.1079 15.1859 13.7736 15.3859C13.4392 15.5859 13.0814 15.7375 12.7001 15.8406C12.3189 15.9438 11.9189 15.9969 11.5001 16C11.0845 16 10.6845 15.9469 10.3001 15.8406C9.91576 15.7344 9.55794 15.5844 9.22669 15.3906C8.89544 15.1969 8.59232 14.9625 8.31732 14.6875C8.04232 14.4125 7.80794 14.1094 7.61419 13.7781C7.42044 13.4469 7.26888 13.0875 7.15951 12.7C7.05013 12.3125 6.99701 11.9125 7.00013 11.5ZM13.8814 11.2C13.9626 11.2 14.0329 11.1703 14.0923 11.1109C14.1517 11.0516 14.1814 10.9813 14.1814 10.9V9.4C14.1814 9.31875 14.1517 9.24844 14.0923 9.18906C14.0329 9.12969 13.9626 9.1 13.8814 9.1C13.8001 9.1 13.7298 9.12969 13.6704 9.18906C13.6111 9.24844 13.5814 9.31875 13.5814 9.4V9.925C13.4564 9.75938 13.3158 9.6125 13.1595 9.48438C13.0033 9.35625 12.8361 9.24531 12.6579 9.15156C12.4798 9.05781 12.2908 8.98906 12.0908 8.94531C11.8908 8.90156 11.6876 8.87813 11.4814 8.875C11.2189 8.875 10.9658 8.9125 10.722 8.9875C10.4783 9.0625 10.2533 9.16875 10.047 9.30625C9.84076 9.44375 9.65326 9.60938 9.48451 9.80313C9.31576 9.99688 9.17982 10.2125 9.07669 10.45C9.06419 10.4781 9.05638 10.5016 9.05326 10.5203C9.05013 10.5391 9.04701 10.5656 9.04388 10.6C9.04388 10.7031 9.07982 10.7906 9.15169 10.8625C9.22357 10.9344 9.31263 10.9719 9.41888 10.975C9.50013 10.975 9.56888 10.9547 9.62513 10.9141C9.68138 10.8734 9.72669 10.8188 9.76107 10.75C9.84544 10.5813 9.94544 10.4281 10.0611 10.2906C10.1767 10.1531 10.3079 10.0344 10.4548 9.93438C10.6017 9.83438 10.7595 9.75781 10.9283 9.70469C11.097 9.65156 11.2814 9.625 11.4814 9.625C11.6533 9.625 11.8204 9.64688 11.9829 9.69063C12.1454 9.73438 12.297 9.8 12.4376 9.8875C12.5783 9.975 12.7064 10.0766 12.822 10.1922C12.9376 10.3078 13.0392 10.4438 13.1267 10.6H12.3814C12.3001 10.6 12.2298 10.6297 12.1704 10.6891C12.1111 10.7484 12.0814 10.8188 12.0814 10.9C12.0814 10.9813 12.1111 11.0516 12.1704 11.1109C12.2298 11.1703 12.3001 11.2 12.3814 11.2H13.8814ZM13.9189 12.4C13.9189 12.2969 13.8829 12.2094 13.8111 12.1375C13.7392 12.0656 13.6501 12.0281 13.5439 12.025C13.4658 12.025 13.3986 12.0453 13.3423 12.0859C13.2861 12.1266 13.2392 12.1813 13.2017 12.25C13.1173 12.4188 13.0173 12.5719 12.9017 12.7094C12.7861 12.8469 12.6548 12.9656 12.5079 13.0656C12.3611 13.1656 12.2017 13.2422 12.0298 13.2953C11.8579 13.3484 11.6751 13.375 11.4814 13.375C11.1314 13.375 10.8126 13.2891 10.5251 13.1172C10.2376 12.9453 10.0079 12.7063 9.83607 12.4H10.5814C10.6626 12.4 10.7329 12.3703 10.7923 12.3109C10.8517 12.2516 10.8814 12.1813 10.8814 12.1C10.8814 12.0188 10.8517 11.9484 10.7923 11.8891C10.7329 11.8297 10.6626 11.8 10.5814 11.8H9.08138C9.00013 11.8 8.92982 11.8297 8.87044 11.8891C8.81107 11.9484 8.78138 12.0188 8.78138 12.1V13.6C8.78138 13.6813 8.81107 13.7516 8.87044 13.8109C8.92982 13.8703 9.00013 13.9 9.08138 13.9C9.16263 13.9 9.23294 13.8703 9.29232 13.8109C9.35169 13.7516 9.38138 13.6813 9.38138 13.6V13.075C9.63451 13.4094 9.94232 13.6672 10.3048 13.8484C10.6673 14.0297 11.0595 14.1219 11.4814 14.125C11.7439 14.125 11.997 14.0875 12.2408 14.0125C12.4845 13.9375 12.7095 13.8313 12.9158 13.6938C13.122 13.5563 13.3095 13.3906 13.4783 13.1969C13.647 13.0031 13.7829 12.7875 13.8861 12.55C13.8986 12.5219 13.9064 12.4984 13.9095 12.4797C13.9126 12.4609 13.9158 12.4344 13.9189 12.4Z" fill="#005FB7"/>
</g>
<defs>
<clipPath id="clip0_1537:41719">
<rect width="16" height="16" fill="white"/>
</clipPath>
</defs>
</svg>
