<svg viewBox="0 0 16 16" fill="none" xmlns="http://www.w3.org/2000/svg">
<g clip-path="url(#clip0_1537:41678)">
<path d="M8.55 8.76012L6.41 11.4401L0.720001 11.2901C0.301305 10.6905 0.0550183 9.98754 0.00792221 9.25771C-0.0391739 8.52788 0.114723 7.7991 0.452878 7.15063C0.791034 6.50215 1.3005 5.9588 1.92589 5.57964C2.55128 5.20049 3.26865 5.00005 4 5.00012C4.31611 4.99772 4.63147 5.03127 4.94 5.10012L8 8.22012L8.55 8.76012Z" fill="#0078D4"/>
<path d="M8.55 8.75997L12.79 13H4C3.35601 13 2.72151 12.8446 2.15046 12.5469C1.57941 12.2492 1.08869 11.818 0.720001 11.29L8 8.21997L8.55 8.75997Z" fill="#28A8EA"/>
<path d="M15.61 11.29C15.397 11.6744 15.1118 12.0139 14.77 12.29L11 8.54004L15.61 11.29Z" fill="#28A8EA"/>
<path d="M16 9.75007C16.0015 10.288 15.8674 10.8177 15.61 11.2901L11 8.54007L9.89999 7.43007L11.46 6.77007C11.9436 6.55633 12.473 6.46695 13 6.51007C13.8162 6.57304 14.5785 6.9417 15.1347 7.54237C15.6909 8.14303 15.9999 8.93146 16 9.75007V9.75007Z" fill="#1490DF"/>
<path d="M4.31 4.52002L4.89 5.10002C4.59778 5.03483 4.2994 5.00131 4 5.00002C4.09255 4.83331 4.19611 4.67295 4.31 4.52002V4.52002Z" fill="#0364B8"/>
<path d="M13 6.50989C12.483 6.47178 11.9645 6.56105 11.49 6.76989L9.9 7.42989L5.8 3.32989C6.51342 2.94752 7.31059 2.74823 8.12 2.74989C9.23644 2.74181 10.3235 3.10763 11.2079 3.78905C12.0923 4.47047 12.7231 5.42829 13 6.50989Z" fill="#0364B8"/>
<path d="M3.00417 2.29757C2.80891 2.10231 2.49233 2.10231 2.29707 2.29757C2.1018 2.49283 2.1018 2.80941 2.29707 3.00468L13.7946 14.5022C13.9899 14.6975 14.3065 14.6975 14.5017 14.5022C14.697 14.307 14.697 13.9904 14.5017 13.7951L3.00417 2.29757Z" fill="#8A8A8A"/>
</g>
<defs>
<clipPath id="clip0_1537:41678">
<rect width="16" height="16" fill="white"/>
</clipPath>
</defs>
</svg>
