<svg viewBox="0 0 16 16" fill="none" xmlns="http://www.w3.org/2000/svg">
<path d="M8.16 6.83C7.43091 7.35681 6.83386 8.04545 6.4157 8.84184C5.99755 9.63824 5.76969 10.5207 5.75 11.42L0.75 11.29C0.332731 10.6925 0.0866516 9.99226 0.0383401 9.26504C-0.00997147 8.53783 0.141321 7.81123 0.475877 7.16374C0.810433 6.51625 1.31554 5.97246 1.93663 5.59112C2.55772 5.20978 3.2712 5.00539 4 5C4.75959 4.988 5.50639 5.1964 6.15 5.6L8.16 6.83Z" fill="#0078D4"/>
<path d="M5.75 11.4999C5.76121 12.0093 5.8454 12.5144 6 12.9999H4C3.35601 13 2.72151 12.8445 2.15046 12.5468C1.57941 12.2491 1.08869 11.8179 0.720001 11.2899L6.38 8.90991C5.97761 9.68618 5.76189 10.5456 5.75 11.4199V11.4999Z" fill="#28A8EA"/>
<path d="M12.77 5.90005C12.3542 5.79917 11.9278 5.7488 11.5 5.75005C10.3007 5.74905 9.13169 6.12705 8.16 6.83005L6.1 5.60005C5.47075 5.20565 4.74263 4.99762 4 5.00005C4.50282 4.2369 5.20519 3.62615 6.03078 3.23419C6.85636 2.84222 7.77359 2.68403 8.68278 2.77681C9.59197 2.86958 10.4583 3.20977 11.1877 3.76041C11.9171 4.31105 12.4817 5.05107 12.82 5.90005H12.77Z" fill="#0364B8"/>
<rect x="7.28125" y="7.28125" width="8.4375" height="8.4375" rx="4.21875" fill="#9D5D00" stroke="#9D5D00" stroke-width="0.5625"/>
<rect x="11" y="9" width="1" height="3" rx="0.5" fill="white"/>
<circle cx="11.5" cy="13.5" r="0.5" fill="white"/>
</svg>
