<svg viewBox="0 0 16 16" fill="none" xmlns="http://www.w3.org/2000/svg">
<g clip-path="url(#clip0_1538:41745)">
<path d="M6.1 5.60002C5.47075 5.20562 4.74263 4.99759 4 5.00002C3.26865 4.99995 2.55128 5.20039 1.92589 5.57954C1.3005 5.9587 0.791033 6.50205 0.452877 7.15053C0.114722 7.799 -0.0391748 8.52778 0.00792126 9.25761C0.0550174 9.98744 0.301304 10.6904 0.72 11.29L6.41 11.44L9.46 7.61002L6.1 5.60002Z" fill="#0078D4"/>
<path d="M9.46 7.61011L0.72 11.2901C1.08869 11.8181 1.57941 12.2493 2.15046 12.547C2.72151 12.8447 3.356 13.0002 4 13.0001H12.75C13.3369 13.0008 13.913 12.8421 14.4167 12.541C14.9204 12.2398 15.3329 11.8074 15.61 11.2901L9.46 7.61011Z" fill="#28A8EA"/>
<path d="M13 6.50997C12.483 6.47186 11.9784 6.54116 11.5039 6.75L9.45703 7.60931L15.6133 11.2929C15.8602 10.8178 16.0107 10.2853 16 9.74997C15.9999 8.93136 15.6909 8.14293 15.1347 7.54227C14.5785 6.9416 13.8162 6.57294 13 6.50997Z" fill="#1490DF"/>
<path d="M11.51 6.75993C11.9936 6.54618 12.473 6.4668 13 6.50993C12.7567 5.57652 12.2485 4.73342 11.5369 4.08229C10.8252 3.43115 9.94034 2.99977 8.98903 2.84016C8.03772 2.68056 7.06055 2.79953 6.17534 3.18274C5.29012 3.56596 4.53465 4.19705 4 4.99993C4.75959 4.98792 5.52826 5.24093 6.17188 5.64453L9.46585 7.61391L11.51 6.75993Z" fill="#0364B8"/>
</g>
<defs>
<clipPath id="clip0_1538:41745">
<rect width="16" height="16" fill="white"/>
</clipPath>
</defs>
</svg>
