<svg id="Layer_1" data-name="Layer 1" xmlns="http://www.w3.org/2000/svg" viewBox="0 0 48 48"><title>1Artboard 1</title><path d="M24.13.1A23.83,23.83,0,0,1,30.47,1a24.29,24.29,0,0,1,5.71,2.4A24,24,0,0,1,41,7.08a23.85,23.85,0,0,1,6.13,10.55,24.07,24.07,0,0,1,0,12.68A24.29,24.29,0,0,1,44.75,36a23.79,23.79,0,0,1-8.57,8.57A24.29,24.29,0,0,1,30.47,47a24.07,24.07,0,0,1-12.68,0,24.29,24.29,0,0,1-5.71-2.4A23.79,23.79,0,0,1,3.51,36a24.39,24.39,0,0,1-2.4-5.7,24.11,24.11,0,0,1,0-12.69A23.85,23.85,0,0,1,7.24,7.08,23.89,23.89,0,0,1,17.78,1,23.74,23.74,0,0,1,24.13.1Zm0,44.76a20.41,20.41,0,0,0,5.54-.75,20.63,20.63,0,0,0,5-2.11,21.06,21.06,0,0,0,7.5-7.5,21.13,21.13,0,0,0,2.11-5,20.84,20.84,0,0,0,0-11.08,20.92,20.92,0,0,0-5.38-9.22,20.81,20.81,0,0,0-9.22-5.39A20.94,20.94,0,0,0,4,18.44,20.8,20.8,0,0,0,4,29.51,21.06,21.06,0,0,0,13.61,42a20.65,20.65,0,0,0,10.52,2.86ZM35,14l2.09,2.1L19.66,33.53,11.15,25l2.09-2.1,6.42,6.41Z" style="fill:#107c10"/></svg>