<svg width="16" height="16" viewBox="0 0 16 16" fill="none" xmlns="http://www.w3.org/2000/svg">
<path d="M7.5237 9.57536C8.30813 9.57536 8.94408 10.2113 8.94408 10.9957V11.9439L8.93909 12.0124C8.74295 13.3546 7.53727 14 5.5142 14C3.49841 14 2.27353 13.362 2.00913 12.0352L2 11.9427V10.9957C2 10.2113 2.63593 9.57536 3.42038 9.57536H7.5237ZM7.5237 10.5223H3.42038C3.1589 10.5223 2.94692 10.7343 2.94692 10.9957V11.8924C3.12355 12.6502 3.9258 13.0531 5.5142 13.0531C7.10257 13.0531 7.86876 12.6546 7.99716 11.9068V10.9957C7.99716 10.7343 7.78518 10.5223 7.5237 10.5223ZM5.47204 4.52512C6.6923 4.52512 7.68152 5.51434 7.68152 6.7346C7.68152 7.95486 6.6923 8.94408 5.47204 8.94408C4.25178 8.94408 3.26256 7.95486 3.26256 6.7346C3.26256 5.51434 4.25178 4.52512 5.47204 4.52512ZM13.2052 2C13.9896 2 14.6256 2.63593 14.6256 3.42038V5.62986C14.6256 6.41431 13.9896 7.05024 13.2052 7.05024H12.2868L10.9191 8.40206C10.6091 8.70836 10.1094 8.70539 9.80312 8.39537C9.65717 8.24765 9.57536 8.04842 9.57536 7.84098L9.57498 7.04153C8.86498 6.96284 8.3128 6.36083 8.3128 5.62986V3.42038C8.3128 2.63593 8.94875 2 9.73318 2H13.2052ZM5.47204 5.47204C4.77475 5.47204 4.20948 6.03731 4.20948 6.7346C4.20948 7.43191 4.77475 7.99716 5.47204 7.99716C6.16933 7.99716 6.7346 7.43191 6.7346 6.7346C6.7346 6.03731 6.16933 5.47204 5.47204 5.47204ZM13.2052 2.94692H9.73318C9.4717 2.94692 9.25972 3.1589 9.25972 3.42038V5.62986C9.25972 5.89134 9.4717 6.10332 9.73318 6.10332H10.5214L10.5221 7.46303L11.8978 6.10332H13.2052C13.4667 6.10332 13.6787 5.89134 13.6787 5.62986V3.42038C13.6787 3.1589 13.4667 2.94692 13.2052 2.94692Z" fill="#1A1A1A"/>
</svg>
