<?xml version="1.0" encoding="utf-8"?>
<!-- Generator: Adobe Illustrator 23.0.4, SVG Export Plug-In . SVG Version: 6.00 Build 0)  -->
<svg version="1.1" id="Layer_1" xmlns="http://www.w3.org/2000/svg" xmlns:xlink="http://www.w3.org/1999/xlink" x="0px" y="0px"
	 viewBox="0 0 105 77" style="enable-background:new 0 0 105 77;" xml:space="preserve">
<style type="text/css">
	.st0{opacity:5.000000e-02;fill:#141414;enable-background:new    ;}
	.st1{fill:url(#SVGID_1_);}
	.st2{fill:#106EBE;}
	.st3{fill:#1A9BF5;}
	.st4{opacity:0.1;fill:#FFFFFF;enable-background:new    ;}
	.st5{opacity:0.5;fill:#106EBE;enable-background:new    ;}
	.st6{fill:#FFE490;}
</style>
<g>
	<path class="st0" d="M102.9,77H33.5L0,66.7h83.6l19.8,6.1C105.8,73.6,105.3,77,102.9,77z"/>
	
		<linearGradient id="SVGID_1_" gradientUnits="userSpaceOnUse" x1="0" y1="-8360.5693" x2="49.4" y2="-8360.5693" gradientTransform="matrix(1 0 0 -1 0 -8326.8193)">
		<stop  offset="0" style="stop-color:#DBB558"/>
		<stop  offset="0.57" style="stop-color:#DDB759"/>
		<stop  offset="0.67" style="stop-color:#E9C25C"/>
		<stop  offset="0.82" style="stop-color:#F3CB5F"/>
		<stop  offset="1" style="stop-color:#F6CE60"/>
	</linearGradient>
	<path class="st1" d="M2.9,0h43.6c1.6,0,2.9,1.3,2.9,2.9v61.7c0,1.6-1.3,2.9-2.9,2.9H2.9c-1.6,0-2.9-1.3-2.9-2.9V2.9
		C0,1.3,1.3,0,2.9,0z"/>
	<g>
		<path class="st2" d="M95.7,69.2c0.1,1.3-0.8,2.4-2.1,2.6L34,71.3c-1.2,0-2-1.1-2-2.6l0.3-43.3c0-1.6,0.8-2.5,2.1-2.5L94,23.3
			c1.3,0.2,2.1,1.3,2,2.6L95.7,69.2z"/>
		<path class="st3" d="M93.7,66.6c0,0.5-0.3,0.9-0.8,1.1l-58.3-0.5c-0.6,0-1.1-0.5-1.1-1.1l0.3-39.9c0-0.8,0.4-1.3,1.1-1.3l58.3,0.5
			c0.4,0,0.8,0.5,0.8,1.3L93.7,66.6z"/>
		<path class="st4" d="M95.6,66.5c0,0.5-0.3,0.9-0.8,1.1l-58.3-0.5c-0.6,0-1.2-0.5-1.1-1.1C47.7,31.4,95,25.3,95,25.3
			c0.4,0,0.8,0.5,0.8,1.3L95.6,66.5z"/>
		<path class="st5" d="M93.7,67.5c-0.3,0-0.5,0.1-0.8,0L34.6,67c-0.4,0-0.7,0-1.1-0.1v-2.4c0.3-0.1,0.7-0.1,1.1-0.1L92.9,65
			c0.3,0,0.5,0,0.8,0.1L93.7,67.5z"/>
		<path class="st3" d="M35.7,65h6.1c0.5,0,0.9,0.4,0.8,0.9l0,0c0,0.5-0.4,0.9-0.9,0.8h-6.1c-0.5,0-0.9-0.4-0.8-0.9l0,0
			C34.8,65.4,35.2,65,35.7,65z"/>
		<path class="st3" d="M81.4,65.4h1c0.5,0,0.9,0.4,0.8,0.9l0,0c0,0.5-0.4,0.9-0.9,0.8h-1c-0.5,0-0.9-0.4-0.8-0.9l0,0
			C80.6,65.8,81,65.3,81.4,65.4z"/>
		<path class="st3" d="M85.3,65.4h1c0.5,0,0.9,0.4,0.8,0.9l0,0c0,0.5-0.4,0.9-0.9,0.8h-1c-0.5,0-0.9-0.4-0.8-0.9l0,0
			C84.4,65.8,84.8,65.4,85.3,65.4z"/>
		<path class="st3" d="M89.1,65.4h1c0.5,0,0.9,0.4,0.8,0.9l0,0c0,0.5-0.4,0.9-0.9,0.8h-1c-0.5,0-0.9-0.4-0.8-0.9l0,0
			C88.2,65.8,88.6,65.4,89.1,65.4z"/>
	</g>
	<path class="st6" d="M21.1,73.1L2,67.6c-1.2-0.3-2-1.4-2-2.7v-62C0,1.3,1.2,0,2.8,0C3,0,3.2,0,3.4,0l21.7,3.8
		c1.4,0.2,2.3,1.4,2.3,2.8V51c0,0.9-0.5,1.8-1.2,2.3L26,53.5c-0.8,0.5-1.2,1.4-1.2,2.4l0.1,14.5c0,1.6-1.3,2.9-2.8,2.9
		C21.7,73.3,21.4,73.2,21.1,73.1z"/>
</g>
</svg>
