<svg width="93" height="68" viewBox="0 0 93 68" fill="none" xmlns="http://www.w3.org/2000/svg">
<path d="M0 6C0 2.68629 2.68629 0 6 0H32.3477C35.6614 0 38.3477 2.68629 38.3477 6V18H0V6Z" fill="#58A0D1"/>
<path d="M38 7.18628H87C90.3137 7.18628 93 9.87257 93 13.1863V17.9999H44C40.6863 17.9999 38 15.3136 38 11.9999V7.18628Z" fill="#58A0D1"/>
<path fill-rule="evenodd" clip-rule="evenodd" d="M41.6719 7.18551C41.6457 7.18607 41.6195 7.18635 41.5932 7.18635C39.7729 7.18635 38.2687 5.83273 38.0323 4.07715H38V7.43618H41.6719V7.18551Z" fill="#58A0D1"/>
<rect y="12" width="93" height="56" rx="6" fill="#88CFF7"/>
<path d="M38.2031 56.4844H54.7969C58.0312 56.4844 59.6406 54.8438 59.6406 51.5938V37.4062C59.6406 35.3906 59.4062 34.5156 58.1562 33.2344L49.5469 24.4688C48.3594 23.25 47.375 22.9844 45.625 22.9844H38.2031C34.9844 22.9844 33.3594 24.6406 33.3594 27.8906V51.5938C33.3594 54.8594 34.9688 56.4844 38.2031 56.4844ZM38.3125 53.9688C36.7031 53.9688 35.875 53.1094 35.875 51.5469V27.9375C35.875 26.3906 36.7031 25.5 38.3281 25.5H45.2812V34.5781C45.2812 36.5469 46.2656 37.5156 48.2188 37.5156H57.125V51.5469C57.125 53.1094 56.2969 53.9688 54.6719 53.9688H38.3125ZM48.5 35.1562C47.875 35.1562 47.6406 34.9062 47.6406 34.2812V25.9844L56.6406 35.1562H48.5Z" fill="#58A0D1"/>
</svg>
