<svg id="Layer_1" data-name="Layer 1" xmlns="http://www.w3.org/2000/svg" viewBox="0 0 16 16">
<path d="M2.45,15a2.3,2.3,0,0,1-.94-.2,2.35,2.35,0,0,1-.78-.53,2.9,2.9,0,0,1-.53-.78,2.3,2.3,0,0,1-.2-.94V3.45a2.3,2.3,0,0,1,.2-.94,2.35,2.35,0,0,1,.53-.78,2.9,2.9,0,0,1,.78-.53A2.3,2.3,0,0,1,2.45,1H5.5a2.18,2.18,0,0,1,1.62.62,3.53,3.53,0,0,1,.58.64c.18.23.36.48.55.74h5.3a2.3,2.3,0,0,1,.94.2,2.35,2.35,0,0,1,.78.53,2.9,2.9,0,0,1,.53.78,2.3,2.3,0,0,1,.2.94v7.1a2.3,2.3,0,0,1-.2.94,2.35,2.35,0,0,1-.53.78,2.9,2.9,0,0,1-.78.53,2.3,2.3,0,0,1-.94.2ZM5.89,4a1.6,1.6,0,0,0,.39,0,2.17,2.17,0,0,0,.35-.15A1.38,1.38,0,0,0,7,3.6l.32-.22-.35-.49a2.67,2.67,0,0,0-.38-.44,1.45,1.45,0,0,0-.45-.33A1.78,1.78,0,0,0,5.5,2h-3a1.43,1.43,0,0,0-.58.12,1.4,1.4,0,0,0-.47.32,1.37,1.37,0,0,0-.33.48A1.19,1.19,0,0,0,1,3.5V4ZM13.5,14a1.43,1.43,0,0,0,.58-.12,1.4,1.4,0,0,0,.47-.32,1.37,1.37,0,0,0,.33-.48A1.19,1.19,0,0,0,15,12.5v-7a1.43,1.43,0,0,0-.12-.58,1.4,1.4,0,0,0-.32-.47,1.37,1.37,0,0,0-.48-.33A1.19,1.19,0,0,0,13.5,4H8.15l-.53.37a4.52,4.52,0,0,1-.52.32,2.8,2.8,0,0,1-.57.22A2.2,2.2,0,0,1,5.89,5H1v7.5a1.43,1.43,0,0,0,.12.58,1.4,1.4,0,0,0,.32.47,1.37,1.37,0,0,0,.48.33A1.19,1.19,0,0,0,2.5,14Z" fill="black"/>
</svg>