<svg id="IMG_1" data-name="IMG 1" xmlns="http://www.w3.org/2000/svg" xmlns:xlink="http://www.w3.org/1999/xlink" viewBox="0 0 470 220"><defs><linearGradient id="linear-gradient" x1="351.206" y1="249.28" x2="356.669" y2="117.537" gradientUnits="userSpaceOnUse"><stop offset="0" stop-color="#22a4b0"/><stop offset="0.61" stop-color="#26bac8"/><stop offset="0.811" stop-color="#28c2d1"/></linearGradient><radialGradient id="radial-gradient" cx="1192.541" cy="-1220.171" r="9.966" gradientTransform="matrix(-1.198, -0.107, 0.156, -1.75, 1973.263, -1913.932)" gradientUnits="userSpaceOnUse"><stop offset="0" stop-color="#9a653d"/><stop offset="0.999" stop-color="#b5855e"/></radialGradient><radialGradient id="radial-gradient-2" cx="-706.48" cy="646.711" r="0.109" gradientTransform="matrix(-0.973, 0.231, -0.244, -1.026, -178.428, 903.286)" gradientUnits="userSpaceOnUse"><stop offset="0" stop-color="#9a653d"/><stop offset="0.271" stop-color="#a36f47" stop-opacity="0.754"/><stop offset="0.873" stop-color="#b88861" stop-opacity="0.136"/><stop offset="1" stop-color="#bd8e67" stop-opacity="0"/></radialGradient></defs><title>FRE-OneDrive-page1</title><g style="opacity:0.8"><path d="M228.73,154.405a30.079,30.079,0,0,0,3.345-3.708" style="fill:none;stroke:#0078d4;stroke-linecap:round;stroke-linejoin:round;stroke-width:2px"/><path d="M236.929,141.8a23.724,23.724,0,0,0,1.1-11c-1.474-10.535-9.641-16.42-13.115-18.908-8.7-6.234-17.893-6.8-23.9-7.094-18.289-.892-21.1,6.74-41.473,7.847-1.942.106-16.246,1.7-30.781-5.7-4.92-2.5-10.956-5.684-14.322-12.7a22.648,22.648,0,0,1-1.38-3.668" style="fill:none;stroke:#0078d4;stroke-linecap:round;stroke-linejoin:round;stroke-width:2px;stroke-dasharray:10.179015159606934,10.179015159606934"/><path d="M112.211,85.574a27.086,27.086,0,0,1,.152-4.99" style="fill:none;stroke:#0078d4;stroke-linecap:round;stroke-linejoin:round;stroke-width:2px"/></g><circle cx="355.68" cy="119.273" r="82.546" style="fill:#3cc1f4;opacity:0.7000000000000001"/><path d="M355.68,201.819a82.58,82.58,0,0,0,78.863-58.1c-5.022-4.168-13.72-4.936-15.571-11.336-2.4-8.322,2.861-14.91-1.268-22.639s-13.6-7.984-19.225-15.3-6.847-23.1-6.847-23.1L364.221,58.768l-1.532,7.413L360.7,58,332.781,73.834s1.5,17.745-3.861,25.247-15.845,6.944-19.7,14.813,6.126,15.274,4.012,23.674-18.17,8.27-21.707,17.033a35.569,35.569,0,0,0-2.259,13.682A82.418,82.418,0,0,0,355.68,201.819Z" style="fill:#f9f9f8"/><path d="M391.7,71.673a32.811,32.811,0,0,1-.215,3.852,31.317,31.317,0,0,1-8.271,17.93,28.386,28.386,0,0,1-20.624,9.081l-.5,0c-14.972.049-27.356-11.778-29.1-27.064a31.821,31.821,0,0,1-.212-3.608,27.357,27.357,0,0,1,7.373-18.924,25.337,25.337,0,0,1,7.776-5.633,24.208,24.208,0,0,1,10.142-2.258l8.161-.027a24.159,24.159,0,0,1,10.38,2.3A26.832,26.832,0,0,1,391.7,71.673Z" style="fill:#f9f9f8"/><circle cx="363.517" cy="143.152" r="15.562" style="fill:#8a8bc3"/><path d="M372.477,119.9a17.048,17.048,0,0,0-11.653-3.459c-4.429.28-8.565.315-11.456,2.5-7.2,5.452-13.7,12.2-18.171,22.261-4.415,9.958-5.538,35.113-5.688,54.9a82.526,82.526,0,0,0,56.057,1.55c-.595-5.056-1.1-9.631-1.1-9.631a83.642,83.642,0,0,1,1.183-29.541C384.9,140.711,380.873,126.247,372.477,119.9Z" style="fill:url(#linear-gradient)"/><path d="M372.137,119.631h0a29.74,29.74,0,0,1-2.623-15.11l1.419-15.907-14.2-1.267-1.2,23.31A8.551,8.551,0,0,1,352,117.148a.759.759,0,0,0,.391,1.381Z" style="fill:url(#radial-gradient)"/><path d="M349.633,59.15h4.473A11.852,11.852,0,0,1,365.958,71V89.886a15.985,15.985,0,0,1-15.985,15.985h0A12.474,12.474,0,0,1,337.5,93.4V71.284A12.134,12.134,0,0,1,349.633,59.15Z" transform="translate(-3.907 18.916) rotate(-3.064)" style="fill:#b5855e"/><ellipse cx="343.469" cy="82.482" rx="1.525" ry="3.003" transform="translate(-2.924 13.298) rotate(-2.209)" style="fill:#3a312e"/><path d="M337.682,81.04a11.833,11.833,0,0,1-3.126,7.743,2.5,2.5,0,0,0,.03,3.8c.6.533,3.778,1.716,3.9,3.395" style="fill:#b5855e"/><rect x="351.213" y="76.455" width="0.237" height="0.237" transform="translate(-3.59 18.886) rotate(-3.064)" style="fill:url(#radial-gradient-2)"/><path d="M341.819,96.173a3.849,3.849,0,0,0,1.37-.165c.337-.1.639-.214.96-.34s.644-.266.985-.421a4.574,4.574,0,0,0,1.165-.7l.151-.128a.626.626,0,0,1,.881.073.657.657,0,0,1,.084.128,2.6,2.6,0,0,1-.254,2.44,3.776,3.776,0,0,1-1.89,1.538,3.722,3.722,0,0,1-2.486.072,2.637,2.637,0,0,1-1.738-1.683.643.643,0,0,1,.452-.791.61.61,0,0,1,.188-.023Z" style="fill:#9a653d"/><path d="M372.477,119.9c-4.312-.621-8.023.119-13.518.809-5.315.668-9.041-.766-9.591-1.764a20.666,20.666,0,0,1,12.014-4.253C365.811,114.407,369.2,117.405,372.477,119.9Z" style="fill:#b5855e"/><path d="M337.769,67.133l6.383-.044a14.741,14.741,0,0,0,14.739,13.747l17.742-.278.921-22.27-39.862.13.077,8.715" style="fill:#f9f9f8"/><path d="M340.861,62.435h0a3.291,3.291,0,0,1,3.291,3.291V67.25a0,0,0,0,1,0,0H337.57a0,0,0,0,1,0,0V65.726a3.291,3.291,0,0,1,3.291-3.291Z" style="fill:#e1dfdd"/><path d="M367.045,80.7h6.771a0,0,0,0,1,0,0V91.144a0,0,0,0,1,0,0h-6.771a5.222,5.222,0,0,1-5.222-5.222v0a5.222,5.222,0,0,1,5.222-5.222Z" transform="translate(737.126 165.205) rotate(178.968)" style="fill:#b5855e"/><circle cx="355.68" cy="119.273" r="82.546" style="fill:none"/><path d="M346.807,144.179c-1.8,13.83-3.527,29.265-13.719,37.256-11.833,9.278-31.583,2.649-31.583,2.649l-15.146-1.4a4.364,4.364,0,0,0-3.963,1.533l-6.024,6.721c-.73.817-1.1,2.062-.447,2.626s1.694-.15,2.054-.467l6.459-5.7,6.944,3.157c2.447,1.113,5.123.461,7.807-.453,12.893,12.408,30.423,17.985,45.439,13.045,29.515-9.708,27.859-52.986,27.75-55.068-.421-8.044-2.869-22.007-8.7-23.045C357.051,123.86,347.422,139.46,346.807,144.179Z" style="fill:#b5855e"/><path d="M343.122,145.033c-1.787,13.71-.761,27.881-9.781,35.349,1.552,6.559,1.985,18.347-.5,24.978,34.689,1.209,42.686-42.945,43.229-56.137C377.489,114.811,346.517,118.982,343.122,145.033Z" style="fill:#28c2d1"/><path d="M24.982,67.1c.105-6.759,6.068-12.21,13.419-12.21a14.176,14.176,0,0,1,7.37,2.038,13.931,13.931,0,0,1,1.766-2.694,16.018,16.018,0,0,1,24.2,0,13.323,13.323,0,0,1,3.141,8.549c0,.3-.029.6-.049.895.3-.02.605-.043.914-.043,6.989,0,12.656,5.228,12.656,11.677S82.73,86.985,75.741,86.985H27.474c-6.035,0-10.927-4.513-10.927-10.081A10.288,10.288,0,0,1,24.982,67.1Z" style="fill:#a7cbf6"/><path d="M167.31,57.28A22.79,22.79,0,0,0,144.965,34.5a33.29,33.29,0,0,0-59.323-8.319,26.948,26.948,0,0,0-.1,53.894v.006h61.029v-.1A22.8,22.8,0,0,0,167.31,57.28Z" style="fill:#0078d4"/><path d="M399.414,187.01c2.258-7.283,11.906-5.632,13.13-20.464.73-8.847-20.493-10.7-19.983-18.8s5.6-12.9,4.52-20.761-15.727-9.543-18.142-17.282c-1.649-5.281-.763-14.157-.033-19.26-3.877,4.019-10.916,13.774-7.981,25.741,1.977,8.059,8.61,9.023,7.574,17.247s-10.6,10.382-13.146,18.367,11.751,12.352,8.866,21.043c-3.062,9.224-11.863,9.736-15.3,17.507-2.145,4.847.052,8.4,1.925,11.292A82.046,82.046,0,0,0,399.4,189.281,3.59,3.59,0,0,1,399.414,187.01Z" style="fill:#f9f9f8;opacity:0.8"/><circle cx="355.175" cy="119.273" r="82.548" style="fill:none"/><path d="M303.675,196H245.258l-19.888-59.05a3.5,3.5,0,0,0-6.635,2.235L237.871,196H237.3a3.5,3.5,0,0,0,0,7h66.378a3.5,3.5,0,0,0,0-7Z" style="fill:#005b9f"/></svg>