<svg xmlns="http://www.w3.org/2000/svg" viewBox="0 0 47.996 62.856"><title>Artboard 151 copy</title><g id="Layer_1" data-name="Layer 1"><polygon points="47.997 18.922 28.603 18.922 28.603 0 47.997 18.922" style="fill:#7bddef"/><path d="M48,54.962H5.093V0H30.521L48,17.05Z" style="fill:#fff"/><path d="M48,54.962H5.093V0H30.521L48,17.05Z" style="fill:#3cc1f4;opacity:0.4"/><polygon points="47.996 17.05 30.521 17.05 30.521 0 47.996 17.05" style="fill:#3cc1f4"/><path d="M19.9,52.043a9.091,9.091,0,1,1-9.092-9.09A9.092,9.092,0,0,1,19.9,52.043Z" style="fill:#46c021"/><path d="M10.811,42.953a9.091,9.091,0,1,1-9.089,9.09,9.091,9.091,0,0,1,9.089-9.09m0-1.722a10.782,10.782,0,1,0,4.21.85,10.754,10.754,0,0,0-4.21-.85Z" style="fill:#298e3b"/><path d="M6.382,51.779,9.653,55l5.809-5.77" style="fill:none;stroke:#fff;stroke-linecap:round;stroke-linejoin:round;stroke-width:2px"/></g></svg>