<svg width="470" height="252" viewBox="0 0 470 252" fill="none" xmlns="http://www.w3.org/2000/svg">
<path d="M295.38 47.05L301.21 46.97C301.21 46.97 305.64 36.97 306.43 33.54C306.879 30.5858 307.146 27.6069 307.23 24.62C307.296 23.4272 307.168 22.2315 306.85 21.08C306.592 20.6638 306.241 20.3134 305.825 20.0565C305.408 19.7996 304.938 19.6433 304.45 19.6C304.27 19.02 304.06 18.27 303.81 17.36C303.625 16.8611 303.351 16.4002 303 16C302 15.58 301.39 15.93 301.15 17C301.15 17 298.8 29.08 297.7 29.61C296.6 30.14 295.51 23.27 295.03 22.34C294.55 21.41 294.03 21.25 293.57 21.44C293.11 21.63 292.79 22.26 292.85 23.2C293 28 291.22 31.67 291.48 34C291.74 36.33 295.38 47.05 295.38 47.05Z" fill="#BF8F68"/>
<path d="M298.19 101.9C286.58 120.35 254.26 133.79 254.26 133.79C254.02 135.67 253.74 138.35 253.6 141.58C253.41 145.99 253.32 148.19 253.86 149.72C255.86 155.23 264.86 156.72 267.55 157.04C267.55 157.04 305.47 140.85 315.97 110.04C320.73 96.04 311.86 59.94 302.5 44.54L295.13 45.99C295.13 45.99 307.45 87.19 298.19 101.9Z" fill="#BF8F68"/>
<path d="M286.3 114.61C281.742 118.339 276.92 121.731 271.87 124.76C266.21 128.154 260.326 131.16 254.26 133.76C248.77 136.11 249.39 145.36 251.31 151.06C253.59 157.8 260.16 163.47 266.58 163.29C268.156 163.205 269.7 162.818 271.13 162.15C279.5 158.79 285.33 153.48 289.33 149.67C297.57 141.84 301.68 137.93 304.45 134.11C309.246 127.061 313.08 119.403 315.85 111.34C316.34 109.92 316.7 108.56 316.72 108.47C317.292 105.834 317.673 103.161 317.86 100.47C318.14 97.6202 318.14 95.7502 317.06 93.9802C316.105 92.5226 314.701 91.4165 313.06 90.8302C305.72 86.3702 302.81 86.4202 301.56 87.4802C301.31 87.6902 301.19 88.0002 300.73 90.6002C300.07 94.2602 300.15 94.8102 299.83 96.3602C299.303 98.8409 298.345 101.21 297 103.36C296.111 104.755 295.09 106.061 293.95 107.26C291.586 109.896 289.029 112.353 286.3 114.61Z" fill="#28C2D1"/>
<path d="M106.71 24.5001C106.71 24.5001 110.21 22.3501 117.17 25.0301L119.06 19.0001C115.361 17.107 111.119 16.559 107.06 17.4501L106.71 24.5001Z" fill="#106EBE"/>
<path d="M438.23 123.23C438.23 123.23 441.73 121.08 448.69 123.76L450.57 117.69C446.872 115.794 442.627 115.249 438.57 116.15L438.23 123.23Z" fill="#106EBE"/>
<path d="M26.6999 41.34L27.5699 48.44C27.5828 48.5404 27.6165 48.637 27.6687 48.7237C27.721 48.8104 27.7907 48.8853 27.8735 48.9436C27.9562 49.0019 28.0502 49.0424 28.1495 49.0624C28.2487 49.0825 28.351 49.0816 28.4499 49.06L33.2699 48C33.4437 47.9595 33.5966 47.8568 33.6997 47.7112C33.8029 47.5657 33.8492 47.3874 33.8299 47.21L32.9299 39.37C32.9208 39.2565 32.8845 39.1469 32.8241 39.0504C32.7637 38.9539 32.681 38.8734 32.583 38.8155C32.4849 38.7577 32.3744 38.7243 32.2608 38.7181C32.1471 38.7119 32.0336 38.7331 31.9299 38.78L27.1299 40.57C26.9819 40.6311 26.8589 40.7404 26.7809 40.8801C26.7028 41.0199 26.6743 41.182 26.6999 41.34Z" fill="#F7B547"/>
<path d="M329.28 226.37L330.16 233.47C330.172 233.57 330.204 233.666 330.255 233.753C330.307 233.84 330.375 233.915 330.457 233.973C330.539 234.032 330.633 234.072 330.731 234.092C330.83 234.112 330.932 234.112 331.03 234.09L335.85 233.04C336.026 233.002 336.181 232.9 336.286 232.754C336.391 232.608 336.439 232.429 336.42 232.25L335.52 224.41C335.506 224.298 335.467 224.192 335.406 224.097C335.345 224.003 335.263 223.924 335.166 223.866C335.07 223.808 334.962 223.773 334.85 223.764C334.738 223.754 334.625 223.77 334.52 223.81L329.73 225.6C329.58 225.661 329.455 225.769 329.374 225.908C329.292 226.048 329.259 226.21 329.28 226.37Z" fill="#F7B547"/>
<path d="M402.85 19.63L403.73 26.73C403.741 26.8298 403.774 26.926 403.825 27.0123C403.877 27.0986 403.946 27.173 404.028 27.2307C404.11 27.2883 404.204 27.3279 404.302 27.3467C404.401 27.3656 404.502 27.3633 404.6 27.34L409.43 26.29C409.604 26.2495 409.757 26.1468 409.86 26.0012C409.963 25.8557 410.009 25.6774 409.99 25.5L409.09 17.66C409.08 17.5466 409.044 17.4372 408.983 17.3407C408.923 17.2442 408.841 17.1634 408.743 17.1048C408.646 17.0463 408.535 17.0117 408.422 17.0039C408.308 16.9961 408.195 17.0153 408.09 17.06L403.29 18.86C403.142 18.9223 403.019 19.0314 402.94 19.1705C402.86 19.3097 402.829 19.4712 402.85 19.63Z" fill="#EF8F95"/>
<path d="M36.1999 214.83L37.0699 221.93C37.0828 222.03 37.1165 222.127 37.1687 222.214C37.221 222.3 37.2907 222.375 37.3735 222.434C37.4562 222.492 37.5502 222.532 37.6495 222.552C37.7487 222.572 37.851 222.572 37.9499 222.55L42.7699 221.5C42.9448 221.461 43.099 221.359 43.2025 221.213C43.3061 221.067 43.3515 220.888 43.3299 220.71L42.4299 212.87C42.4201 212.757 42.3835 212.647 42.3232 212.551C42.2629 212.454 42.1806 212.373 42.083 212.315C41.9854 212.256 41.8754 212.222 41.7618 212.214C41.6483 212.206 41.5346 212.225 41.4299 212.27L36.6299 214.07C36.4838 214.131 36.3622 214.238 36.2843 214.376C36.2064 214.514 36.1767 214.674 36.1999 214.83Z" fill="#EF8F95"/>
<path d="M423.28 201.73L424.15 208.83C424.164 208.93 424.199 209.026 424.252 209.112C424.304 209.197 424.374 209.272 424.456 209.33C424.539 209.388 424.632 209.428 424.731 209.449C424.829 209.47 424.931 209.47 425.03 209.45L429.85 208.39C430.025 208.352 430.179 208.249 430.283 208.103C430.386 207.957 430.432 207.778 430.41 207.6L429.52 199.76C429.507 199.648 429.468 199.541 429.407 199.447C429.345 199.353 429.263 199.275 429.166 199.217C429.069 199.16 428.961 199.126 428.849 199.118C428.737 199.11 428.624 199.128 428.52 199.17L423.72 200.96C423.572 201.022 423.449 201.131 423.37 201.271C423.29 201.41 423.259 201.571 423.28 201.73Z" fill="#EF8F95"/>
<path d="M33.2399 146.45C33.2399 146.45 35.1499 140.59 45.6899 136.87L41.9399 128.12C35.8518 129.557 30.4573 133.076 26.6899 138.07L33.2399 146.45Z" fill="#C7E0F4"/>
<path d="M356.93 114.84C356.93 114.84 363.09 115.11 369.49 124.28L376.92 118.28C373.897 112.809 369.059 108.564 363.24 106.28L356.93 114.84Z" fill="#FFD590"/>
<path d="M132 222.57C132 222.57 131.11 226.57 124.35 229.73L127.41 235.3C131.357 233.951 134.71 231.266 136.89 227.71L132 222.57Z" fill="#106EBE"/>
<path d="M105.74 112L106.62 119.1C106.632 119.2 106.664 119.296 106.715 119.383C106.767 119.47 106.835 119.545 106.917 119.603C106.999 119.662 107.093 119.702 107.191 119.722C107.29 119.742 107.392 119.742 107.49 119.72L112.31 118.72C112.486 118.682 112.641 118.58 112.746 118.434C112.851 118.288 112.899 118.109 112.88 117.93L111.98 110.09C111.966 109.978 111.927 109.871 111.866 109.777C111.805 109.683 111.723 109.604 111.626 109.546C111.53 109.488 111.422 109.453 111.31 109.443C111.198 109.434 111.085 109.45 110.98 109.49L106.19 111.29C106.049 111.345 105.93 111.444 105.849 111.571C105.768 111.699 105.73 111.849 105.74 112Z" fill="#EF8F95"/>
<path d="M235 220C282.496 220 321 181.496 321 134C321 86.5035 282.496 48 235 48C187.504 48 149 86.5035 149 134C149 181.496 187.504 220 235 220Z" fill="#6FCCF0"/>
<path d="M184.165 151.448C186.325 156.568 186.992 160.871 186.165 164.358C185.585 166.738 183.065 171.071 178.605 177.358C174.758 182.905 172.892 188.058 173.005 192.818C185.572 214.47 268.866 250.658 310.601 175.07C308.754 170.55 308.195 155.278 302.535 151.798C295.948 147.745 291.918 144.745 290.445 142.798C288.272 139.925 287.185 135.705 287.185 130.138C287.398 125.054 285.929 120.042 283.005 115.878C280.225 112.038 275.795 108.878 269.715 106.398C264.422 104.145 261.275 101.685 260.275 99.0179C259.028 95.5512 257.875 91.9479 256.815 88.2079L255.565 83.5579C253.987 78.2322 250.372 73.744 245.505 71.0679C239.512 67.6079 231.145 67.0746 220.405 69.4679C210.972 70.8012 203.972 74.4679 199.405 80.4679C197.64 82.6443 196.323 85.1486 195.53 87.8362C194.737 90.5239 194.484 93.3419 194.785 96.1279L195.475 100.888C195.982 104.741 196.345 108.508 196.565 112.188C196.732 115.068 194.815 118.571 190.815 122.698C186.215 127.405 183.395 132.071 182.355 136.698C181.327 141.68 181.963 146.862 184.165 151.448Z" fill="white"/>
<path d="M295.43 46.8099L301.26 46.7199C301.26 46.7199 305.69 36.7199 306.48 33.2899C306.929 30.3391 307.196 27.3635 307.28 24.3799C307.353 23.1837 307.224 21.9837 306.9 20.8299C306.641 20.4153 306.289 20.0661 305.873 19.8094C305.457 19.5527 304.987 19.3955 304.5 19.3499C304.32 18.7699 304.11 18.0299 303.86 17.1199C303.669 16.6003 303.38 16.1218 303.01 15.7099C302.01 15.2899 301.4 15.6299 301.16 16.7099C301.16 16.7099 298.81 28.7999 297.71 29.3199C296.61 29.8399 295.52 22.9999 295 22.0799C294.48 21.1599 294 20.9799 293.54 21.1699C293.08 21.3599 292.76 21.9899 292.82 22.9299C292.99 27.7899 291.23 31.4299 291.49 33.7699C291.75 36.1099 295.43 46.8099 295.43 46.8099Z" fill="#BF8F68"/>
<path d="M256.61 90.3799C257.337 97.5725 255.686 104.805 251.91 110.97C249.796 114.474 247.017 117.532 243.73 119.97C240.369 122.393 236.531 124.074 232.47 124.9L231.98 125C228.253 125.806 224.404 125.861 220.655 125.162C216.907 124.463 213.336 123.024 210.15 120.93C203.432 116.705 198.462 110.201 196.15 102.61C195.749 101.389 195.415 100.147 195.15 98.8899C194.364 95.1251 194.313 91.244 195 87.4599C195.599 83.8969 196.868 80.4798 198.74 77.3899C200.519 74.4571 202.857 71.9022 205.62 69.8699C208.567 67.6234 211.987 66.0777 215.62 65.3499L224 63.6099C227.714 62.8522 231.55 62.9308 235.23 63.8399C240.326 65.1049 244.935 67.8462 248.48 71.7199C252.313 75.7721 254.921 80.8272 256 86.2999C256.277 87.6479 256.48 89.0099 256.61 90.3799Z" fill="#F9F9F8"/>
<path d="M208.65 102.37L207.2 102.67C206.535 102.803 205.903 103.071 205.345 103.456C204.786 103.841 204.311 104.336 203.95 104.91C203.209 106.061 202.953 107.459 203.238 108.798C203.522 110.137 204.325 111.31 205.47 112.06C206.03 112.437 206.661 112.696 207.325 112.82C207.989 112.944 208.672 112.93 209.33 112.78L210.74 112.49L208.65 102.37Z" fill="#B5855E"/>
<path d="M235.9 140.42C233.773 140.957 231.584 141.212 229.39 141.18C227.496 141.149 225.612 140.89 223.78 140.41C224.327 140.023 224.819 139.562 225.24 139.04C226.218 137.721 226.782 136.141 226.86 134.5C227.078 131.502 226.477 128.502 225.12 125.82C224.71 122.46 224.31 119.09 223.9 115.72L237.33 112.81C237.97 115.88 238.62 118.95 239.26 122.02C238.676 125.069 239.089 128.225 240.44 131.02C241.203 132.769 242.54 134.204 244.23 135.09C244.747 135.326 245.291 135.498 245.85 135.6C242.899 137.872 239.512 139.513 235.9 140.42Z" fill="#B5855E"/>
<path d="M235.13 138.84C228.923 140.173 225.443 140.55 224.69 139.97C225.785 138.491 226.527 136.78 226.86 134.97C227.361 131.738 226.618 128.436 224.78 125.73L224.21 115.84L237.09 113.84C237.73 116.84 238.36 119.95 239 123C238.671 126.031 239.305 129.089 240.81 131.74C241.765 133.369 243.037 134.79 244.55 135.92C244.503 136.587 241.363 137.56 235.13 138.84Z" fill="url(#paint0_radial)"/>
<path d="M222.42 76.7901C227.431 75.7502 232.651 76.7371 236.936 79.535C241.222 82.3328 244.226 86.7138 245.29 91.7201L248 104.86C248.545 107.334 248.57 109.893 248.074 112.377C247.578 114.861 246.573 117.215 245.12 119.29C243.763 121.443 241.976 123.293 239.872 124.725C237.768 126.156 235.391 127.139 232.89 127.61H232.82C230.326 128.16 227.745 128.196 225.236 127.714C222.728 127.233 220.344 126.245 218.23 124.81C216.102 123.463 214.273 121.693 212.857 119.61C211.441 117.527 210.469 115.175 210 112.7L207.3 99.5701C206.743 97.098 206.694 94.5384 207.159 92.0472C207.623 89.556 208.59 87.1854 210 85.0801C211.391 82.9429 213.199 81.1088 215.316 79.6876C217.433 78.2665 219.815 77.2878 222.32 76.8101L222.42 76.7901Z" fill="#B5855E"/>
<path d="M229.89 117.61L216.58 120.36L211.58 96.24L224.89 93.5L229.89 117.61Z" fill="url(#paint1_radial)"/>
<path d="M228.67 111.69C228.67 111.55 228.22 111.3 227.42 110.93C226.724 110.628 226.077 110.223 225.5 109.73C224.905 109.259 224.489 108.6 224.32 107.86C224.263 107.498 224.279 107.128 224.368 106.772C224.458 106.416 224.618 106.082 224.84 105.79C225.733 104.55 226.259 103.085 226.36 101.56L226.2 99.7002C227.6 102.073 228.422 104.741 228.6 107.49C228.735 108.886 228.759 110.29 228.67 111.69Z" fill="#B5855E"/>
<path d="M241.74 72.8899C249.74 84.5032 253.777 90.6932 253.85 91.4599C252.03 92.9591 249.87 93.9892 247.56 94.4599C243.938 95.2337 240.157 94.5899 236.994 92.661C233.832 90.7321 231.53 87.6648 230.56 84.0899L218.15 86.6499C218.442 88.4527 218.373 90.2954 217.949 92.0718C217.526 93.8481 216.754 95.523 215.68 96.9999C213.863 99.5252 211.298 101.415 208.347 102.402C205.397 103.389 202.211 103.424 199.24 102.5C199.1 102.093 199.85 98.3299 201.49 91.2099L204 80.6699L241.74 72.8899Z" fill="#F9F9F8"/>
<path d="M224 83.2999L213.54 85.4599L209.65 66.5699L220.1 64.4199L224 83.2999Z" fill="url(#paint2_radial)"/>
<path d="M224.35 85.48C224.261 84.6596 224.482 83.8354 224.97 83.17C225.178 82.8274 225.454 82.5313 225.781 82.3003C226.108 82.0694 226.48 81.9085 226.872 81.8278C227.265 81.747 227.67 81.7482 228.061 81.8312C228.453 81.9142 228.824 82.0772 229.15 82.31C229.85 82.7305 230.356 83.4093 230.56 84.2L224.35 85.48Z" fill="#E1DFDD"/>
<path d="M218.15 86.7601C218.063 85.9413 218.28 85.119 218.76 84.4501C218.97 84.1083 219.247 83.8132 219.575 83.583C219.904 83.3528 220.276 83.1924 220.669 83.1118C221.061 83.0312 221.466 83.0321 221.859 83.1143C222.251 83.1966 222.623 83.3585 222.95 83.5901C223.297 83.7968 223.599 84.0703 223.84 84.3948C224.08 84.7192 224.253 85.0881 224.35 85.4801L218.15 86.7601Z" fill="#E1DFDD"/>
<path d="M245.42 94.92L246.87 94.62C247.533 94.4741 248.218 94.4662 248.884 94.597C249.55 94.7278 250.182 94.9943 250.74 95.38C251.304 95.75 251.788 96.229 252.164 96.7888C252.54 97.3487 252.801 97.978 252.93 98.64C253.079 99.3105 253.089 100.005 252.958 100.679C252.828 101.354 252.559 101.994 252.17 102.56C251.806 103.129 251.328 103.617 250.767 103.994C250.207 104.37 249.574 104.628 248.91 104.75L247.51 105.03L245.42 94.92Z" fill="#B5855E"/>
<path d="M298.24 101.66C286.63 120.1 254.31 133.54 254.31 133.54C248.49 136.54 247.15 145.72 251.36 150.85C255.36 155.73 261.8 159.49 267.6 156.85C267.6 156.85 305.52 140.66 316.02 109.79C320.78 95.7904 311.91 59.7 302.55 44.3L295.18 45.75C295.18 45.75 307.5 86.9404 298.24 101.66Z" fill="#BF8F68"/>
<path d="M286.35 114.36C281.795 118.096 276.972 121.491 271.92 124.52C266.262 127.918 260.378 130.925 254.31 133.52C248.49 136.52 247.15 145.7 251.36 150.83C255.36 155.71 261.8 159.47 267.6 156.83C274.695 153.431 281.478 149.416 287.87 144.83C293.45 140.83 298.36 137.29 303.71 131.24C308.972 125.333 313.104 118.51 315.9 111.11C317.18 107.49 317.42 105.11 317.9 100.28C318.18 97.4301 318.18 95.5702 317.1 93.8002C316.144 92.3418 314.74 91.233 313.1 90.6401C305.76 86.1901 302.85 86.2402 301.6 87.2902C301.35 87.5002 301.23 87.8201 300.77 90.4201C300.11 94.0801 300.19 94.6302 299.87 96.1802C299.338 98.6407 298.38 100.989 297.04 103.12C296.17 104.515 295.166 105.822 294.04 107.02C291.665 109.657 289.095 112.111 286.35 114.36Z" fill="#28C2D1"/>
<path d="M228.24 161.84C224.2 181.53 218.5 192.2 213.75 198.38C211.753 200.974 208.926 205.608 203.833 214.206C203.833 214.206 198.645 212.555 192.981 209.455C187.317 206.355 182.975 203.054 182.975 203.054L187.43 191.24C187.6 190.67 188.18 188.68 189.18 186.08C189.7 184.73 190.16 183.74 190.33 183.34C197.04 168.38 202.13 156.23 211.56 148.17C214.64 145.55 218.16 143.37 219.09 144.17C219.37 144.42 219.23 144.81 219.58 145.33C220.5 146.67 222.95 145.97 223.95 146.42C229.41 149.02 231.88 157.12 228.24 161.84Z" fill="#29C2D2"/>
<path d="M270.25 177.99C270.83 182.87 271.98 188.87 275.38 198.87L281.467 208.264C281.467 208.264 267.978 217.86 249.462 220.111C230.945 222.362 213.86 217.86 213.86 217.86C213.86 217.86 215.155 204.333 215 197.54C214.9 193.596 214.312 189.68 213.25 185.88C212.813 184.327 212.258 182.809 211.59 181.34C210.525 179.247 209.298 177.241 207.92 175.34C206.148 172.765 204.972 169.827 204.48 166.74C202.68 152.9 217 139.73 236.42 137.11C244.78 136 254.1 134.66 259.42 131.11C260.132 130.643 260.969 130.402 261.82 130.42C266.02 130.58 269.99 138.18 270.63 144.96C270.74 146.04 270.61 145.64 270.07 154.64C269.79 159.46 269.64 161.87 269.59 163.94C269.516 168.633 269.736 173.325 270.25 177.99Z" fill="#29C2D2"/>
<path d="M236.85 144.08C248.33 142.21 248.6 137.02 253.65 134.22C249.22 135.11 243.02 136.06 236.38 136.93C229.992 137.728 223.851 139.897 218.38 143.29C224.425 144.766 230.701 145.035 236.85 144.08Z" fill="#B5855E"/>
<g opacity="0.7">
<path opacity="0.7" d="M216.62 104.84C216.629 104.23 216.791 103.632 217.093 103.102C217.395 102.572 217.825 102.127 218.345 101.807C218.865 101.488 219.457 101.305 220.066 101.276C220.675 101.247 221.282 101.372 221.83 101.64C222.2 101.826 222.524 102.092 222.778 102.419C223.032 102.746 223.211 103.126 223.3 103.53C223.319 103.628 223.311 103.73 223.274 103.824C223.238 103.918 223.176 103.999 223.095 104.059C223.015 104.118 222.919 104.154 222.819 104.161C222.719 104.169 222.618 104.147 222.53 104.1L222.37 104.01C222.023 103.765 221.623 103.605 221.203 103.543C220.783 103.48 220.353 103.517 219.95 103.65C219.069 103.962 218.284 104.495 217.67 105.2L217.58 105.28C217.471 105.389 217.324 105.45 217.17 105.45C217.016 105.45 216.869 105.389 216.76 105.28C216.707 105.221 216.668 105.151 216.643 105.075C216.619 104.999 216.611 104.919 216.62 104.84Z" fill="#221F1F"/>
</g>
<g opacity="0.7">
<path opacity="0.7" d="M231.55 101.91C231.563 101.301 231.729 100.705 232.033 100.176C232.336 99.6478 232.767 99.2041 233.287 98.8856C233.806 98.5671 234.397 98.3842 235.006 98.3535C235.615 98.3228 236.221 98.4454 236.77 98.7101C237.139 98.8968 237.461 99.1634 237.713 99.4903C237.966 99.8172 238.142 100.196 238.23 100.6C238.249 100.699 238.241 100.8 238.204 100.894C238.168 100.988 238.106 101.069 238.025 101.129C237.945 101.188 237.849 101.224 237.749 101.231C237.649 101.239 237.548 101.217 237.46 101.17L237.3 101.08C236.953 100.835 236.553 100.675 236.133 100.613C235.713 100.55 235.283 100.587 234.88 100.72C233.999 101.032 233.214 101.566 232.6 102.27L232.51 102.35C232.401 102.459 232.254 102.52 232.1 102.52C231.946 102.52 231.799 102.459 231.69 102.35C231.588 102.227 231.538 102.069 231.55 101.91Z" fill="#221F1F"/>
</g>
<path d="M226.28 118.05C227.811 117.997 229.329 117.755 230.8 117.33C232.241 116.829 233.618 116.158 234.9 115.33C234.996 115.277 235.105 115.251 235.215 115.257C235.325 115.262 235.431 115.298 235.521 115.36C235.611 115.423 235.683 115.509 235.727 115.61C235.771 115.71 235.786 115.821 235.77 115.93C235.532 116.945 235.026 117.877 234.304 118.63C233.583 119.383 232.674 119.928 231.67 120.21C230.683 120.539 229.628 120.606 228.608 120.405C227.588 120.203 226.637 119.74 225.85 119.06C225.796 119.007 225.754 118.944 225.725 118.874C225.696 118.805 225.681 118.73 225.681 118.655C225.681 118.58 225.696 118.505 225.725 118.436C225.754 118.366 225.796 118.303 225.85 118.25C225.95 118.145 226.086 118.081 226.23 118.07L226.28 118.05Z" fill="#9A653D"/>
<path d="M66.3199 165.45C66.3199 165.45 69.3199 165.05 70.8699 170.45C71.4899 172.68 71.7299 175.79 73.7599 176.88C76.5499 178.38 83.8699 174.35 83.8699 174.35C83.8699 174.35 81.6799 174.1 80.7999 169.74C79.7099 164.29 76.6099 163.48 76.6099 163.48L66.3199 165.45Z" fill="#C3F2F4"/>
<path d="M75.5 169.2C76.434 170.114 77.1012 171.265 77.43 172.53C78.13 175.26 78.67 179.29 81.66 179.01C83.66 178.82 91.37 177.01 91.37 177.01C91.37 177.01 88.61 176.57 87.91 171.91C87.37 168.31 85.44 167.35 85.44 167.35L75.5 169.2Z" fill="#C3F2F4"/>
<path d="M83.87 174.37C82.1728 175.28 80.3994 176.039 78.57 176.64C78.1009 175.296 77.7201 173.923 77.43 172.53C77.1012 171.265 76.434 170.114 75.5 169.2L80.42 168.28C80.5715 168.767 80.6984 169.261 80.8 169.76C81.68 174.12 83.87 174.37 83.87 174.37Z" fill="#7BDDEF"/>
<path d="M94.36 173.54L84 175.87C83.8934 176.568 83.6042 177.225 83.1616 177.774C82.719 178.324 82.1388 178.747 81.48 179C84.15 179.12 93.02 176.63 93.02 176.63C93.3235 176.533 93.6028 176.371 93.839 176.157C94.0753 175.943 94.2631 175.681 94.39 175.389C94.5168 175.096 94.5798 174.78 94.5746 174.461C94.5694 174.142 94.4963 173.828 94.36 173.54Z" fill="#7BDDEF"/>
<path d="M367.33 45.8499C367.33 45.8499 364.33 45.4499 362.78 50.8499C362.16 53.0799 361.93 56.1899 359.89 57.2799C357.11 58.7799 349.79 54.7399 349.79 54.7399C349.79 54.7399 351.98 54.4999 352.85 50.1399C354 44.7099 357 43.8999 357 43.8999L367.33 45.8499Z" fill="#C3F2F4"/>
<path d="M358.16 49.6C357.222 50.5108 356.554 51.6633 356.23 52.93C355.53 55.66 354.98 59.69 351.99 59.41C349.99 59.22 342.28 57.41 342.28 57.41C342.28 57.41 345.04 56.97 345.74 52.31C346.28 48.71 348.22 47.75 348.22 47.75L358.16 49.6Z" fill="#C3F2F4"/>
<path d="M349.79 54.7599C351.484 55.66 353.254 56.4096 355.08 56.9999C355.556 55.6574 355.94 54.2843 356.23 52.8899C356.554 51.6232 357.222 50.4707 358.16 49.5599L353.23 48.6399C353.078 49.1265 352.952 49.6205 352.85 50.1199C352 54.5199 349.79 54.7599 349.79 54.7599Z" fill="#7BDDEF"/>
<path d="M339.29 53.9402L349.68 56.2602C349.779 56.9599 350.061 57.6209 350.499 58.176C350.936 58.7311 351.513 59.1603 352.17 59.4202C349.5 59.5402 340.64 57.0502 340.64 57.0502C340.334 56.9528 340.052 56.791 339.814 56.5757C339.576 56.3604 339.386 56.0966 339.258 55.802C339.13 55.5074 339.067 55.1888 339.072 54.8676C339.078 54.5465 339.152 54.2302 339.29 53.9402Z" fill="#7BDDEF"/>
<path d="M85.38 65.77C85.38 65.77 83.22 71.54 72.53 74.77L75.91 83.68C82.0544 82.5 87.5935 79.2105 91.57 74.38L85.38 65.77Z" fill="#FFD590"/>
<path d="M371.46 187.3C371.46 187.3 369.75 184.76 364.68 187.21C362.6 188.21 360.11 190.11 357.95 189.3C354.95 188.2 353.17 180.04 353.17 180.04C353.17 180.04 354.8 181.52 358.65 179.3C363.46 176.51 366.11 178.3 366.11 178.3L371.46 187.3Z" fill="#C3F2F4"/>
<path d="M362.58 182.9C361.274 182.803 359.967 183.066 358.8 183.66C356.29 184.94 352.91 187.2 351.14 184.77C349.94 183.12 346.22 176.16 346.22 176.16C346.22 176.16 348.37 177.94 352.33 175.38C355.39 173.38 357.39 174.22 357.39 174.22L362.58 182.9Z" fill="#C3F2F4"/>
<path d="M353.17 180C353.605 181.876 354.204 183.709 354.96 185.48C356.28 184.947 357.563 184.326 358.8 183.62C359.967 183.026 361.274 182.764 362.58 182.86L360 178.6C359.536 178.806 359.085 179.04 358.65 179.3C354.8 181.52 353.17 180 353.17 180Z" fill="#7BDDEF"/>
<path d="M346.84 171.63L352 181C351.543 181.537 351.235 182.184 351.109 182.878C350.982 183.572 351.041 184.287 351.28 184.95C349.42 183.03 345.42 174.73 345.42 174.73C345.283 174.436 345.212 174.116 345.211 173.792C345.21 173.468 345.279 173.147 345.414 172.852C345.549 172.557 345.747 172.296 345.993 172.085C346.239 171.873 346.528 171.718 346.84 171.63Z" fill="#7BDDEF"/>
<path d="M409.65 67.2201C409.65 67.2201 415.8 67.6701 421.94 77.0101L429.54 71.2601C426.677 65.694 421.958 61.304 416.2 58.8501L409.65 67.2201Z" fill="#C7E0F4"/>
<path d="M222 81C224.209 81 226 79.2091 226 77C226 74.7909 224.209 73 222 73C219.791 73 218 74.7909 218 77C218 79.2091 219.791 81 222 81Z" fill="#F9F9F8"/>
<defs>
<radialGradient id="paint0_radial" cx="0" cy="0" r="1" gradientUnits="userSpaceOnUse" gradientTransform="translate(224.818 116.771) rotate(-12.0948) scale(12.1973 11.8149)">
<stop stop-color="#603813" stop-opacity="0.85"/>
<stop offset="1" stop-color="#8A5D3B" stop-opacity="0"/>
</radialGradient>
<radialGradient id="paint1_radial" cx="0" cy="0" r="1" gradientUnits="userSpaceOnUse" gradientTransform="translate(225.364 102.521) rotate(-11.5346) scale(8.63172 8.54717)">
<stop stop-color="#9A6541" stop-opacity="0.85"/>
<stop offset="1" stop-color="#8A5D3B" stop-opacity="0"/>
</radialGradient>
<radialGradient id="paint2_radial" cx="0" cy="0" r="1" gradientUnits="userSpaceOnUse" gradientTransform="translate(213.342 30.9051) rotate(168.465) scale(19.924 20.9397)">
<stop stop-color="#606060"/>
<stop offset="1" stop-color="#E1DFDD" stop-opacity="0"/>
</radialGradient>
</defs>
</svg>
