<svg xmlns="http://www.w3.org/2000/svg" xmlns:xlink="http://www.w3.org/1999/xlink" viewBox="0 0 470 252"><defs><linearGradient id="linear-gradient" x1="174.648" y1="84.511" x2="206.019" y2="84.511" gradientUnits="userSpaceOnUse"><stop offset="0.002" stop-color="#f7b547"/><stop offset="1" stop-color="#ffd590"/></linearGradient><linearGradient id="linear-gradient-2" x1="174.648" y1="166.071" x2="206.019" y2="166.071" xlink:href="#linear-gradient"/><linearGradient id="linear-gradient-3" x1="364.771" y1="124.278" x2="426.729" y2="124.278" xlink:href="#linear-gradient"/></defs><title>F Windows - LM - Pg 3 copy 8</title><g id="Layer_1" data-name="Layer 1"><rect x="52.822" y="5.631" width="348.134" height="241.365" style="fill:#fff;stroke:#dbdbdb;stroke-miterlimit:10;stroke-width:7px"/><rect x="54.826" y="21.77" width="51.891" height="19.25" rx="0.02" style="fill:#0078d4"/><line x1="53.123" y1="42.477" x2="400.956" y2="42.477" style="fill:#fff;stroke:#dbdbdb;stroke-miterlimit:10;stroke-width:7px"/><rect x="116.314" y="28.566" width="30.014" height="4.57" rx="0.02" style="fill:#dbdbdb"/><rect x="66.669" y="28.566" width="28.607" height="4.571" rx="0.02" style="fill:#fff"/><rect x="161.027" y="28.566" width="30.036" height="4.57" rx="0.02" style="fill:#dbdbdb"/><rect x="207.668" y="28.566" width="29.992" height="4.57" rx="0.02" style="fill:#dbdbdb"/><rect x="54.212" y="5.631" width="346.744" height="16.138" style="fill:#dbdbdb"/><line x1="148.948" y1="42.477" x2="148.948" y2="246.997" style="fill:#fff;stroke:#dbdbdb;stroke-miterlimit:10;stroke-width:7px"/><path d="M203.839,92.146V64.172H174.648v40.679h31.371V93.077Z" style="fill:url(#linear-gradient)"/><path d="M185.92,110.784l-11.272-5.933q.023-20.338.044-40.678l11.248,7.551Z" style="fill:#ffe699"/><path d="M187.533,121.024a5.885,5.885,0,1,1-5.886-5.885A5.886,5.886,0,0,1,187.533,121.024Z" style="fill:#46c021"/><path d="M181.647,115.139a5.885,5.885,0,1,1-5.884,5.885,5.885,5.885,0,0,1,5.884-5.885m0-1.115a6.978,6.978,0,1,0,2.725.55,6.966,6.966,0,0,0-2.725-.55Z" style="fill:#298e3b"/><path d="M178.074,120.982l2.575,2.713,4.572-4.855" style="fill:none;stroke:#fff;stroke-linecap:round;stroke-linejoin:round;stroke-width:1.5px"/><path d="M203.839,173.706V145.732H174.648V186.41h31.371V174.636Z" style="fill:url(#linear-gradient-2)"/><path d="M185.92,192.344l-11.272-5.934q.023-20.338.044-40.678l11.248,7.552Z" style="fill:#ffe699"/><path d="M186.666,201.321c-.091,0-.668.012-.668.012V200.7a3.275,3.275,0,0,0-3.376-3.163,3.332,3.332,0,0,0-3.306,2.519l-.063,0a3.175,3.175,0,1,0,0,6.339h7.413a2.541,2.541,0,1,0,0-5.073Z" style="fill:#fff"/><path d="M182.622,197.538A3.275,3.275,0,0,1,186,200.7v.632s.577-.012.668-.012a2.541,2.541,0,1,1,0,5.073h-7.413a3.175,3.175,0,1,1,0-6.339l.063,0a3.332,3.332,0,0,1,3.306-2.519m.026-1.194a4.835,4.835,0,0,0-2.946.99,4.4,4.4,0,0,0-1.3,1.6,4.693,4.693,0,0,0-2.4,1.2,4.176,4.176,0,0,0,0,6.153,4.748,4.748,0,0,0,3.279,1.277h7.413a4.062,4.062,0,0,0,2.8-1.092,3.573,3.573,0,0,0,0-5.257,4.024,4.024,0,0,0-2.243-1.056,4.55,4.55,0,0,0-4.6-3.819Z" style="fill:#0078d4"/><path d="M281.251,104.377H249.866v-40.2h18.6l12.784,12.472Z" style="fill:#fff"/><path d="M281.251,104.377H249.866v-40.2h18.6l12.784,12.472Z" style="fill:#3cc1f4;opacity:0.5"/><polygon points="281.251 76.644 268.467 76.644 268.467 64.172 281.251 76.644" style="fill:#3cc1f4"/><path d="M262.744,121.024a5.885,5.885,0,1,1-5.886-5.885A5.885,5.885,0,0,1,262.744,121.024Z" style="fill:#fff"/><path d="M256.858,115.139a5.885,5.885,0,1,1-5.884,5.885,5.885,5.885,0,0,1,5.884-5.885m0-1.115a6.978,6.978,0,1,0,2.726.55,6.965,6.965,0,0,0-2.726-.55Z" style="fill:#298e3b"/><path d="M253.286,120.982l2.574,2.713q2.287-2.427,4.573-4.855" style="fill:none;stroke:#298e3b;stroke-linecap:round;stroke-linejoin:round;stroke-width:1.5px"/><path d="M422.424,139.357V84.108H364.771v80.34h61.958V141.2Z" style="fill:url(#linear-gradient-3)"/><path d="M387.033,176.167l-22.262-11.719q.043-40.168.088-80.339l22.213,14.915Q387.053,137.594,387.033,176.167Z" style="fill:#ffe699"/><path d="M428.433,174.725a.75.75,0,0,1-.682-.437l-3.829-8.356-5.072,4.916a.75.75,0,0,1-1.272-.538V147.326a.759.759,0,0,1,.755-.755c.4,0,.622,0,17.319,16.226a.75.75,0,0,1-.522,1.288H429.1l3.628,7.92a.749.749,0,0,1-.369,1l-3.618,1.657A.742.742,0,0,1,428.433,174.725Z" style="fill:#fff"/><path d="M418.333,147.321c.318,0,16.8,16.014,16.8,16.014h-7.195l4.115,8.983-3.618,1.658-4.271-9.321-5.833,5.655V147.326l.005,0m0-1.5a1.508,1.508,0,0,0-1.505,1.5V170.31a1.5,1.5,0,0,0,2.544,1.077l4.31-4.178,3.386,7.391a1.5,1.5,0,0,0,1.989.739l3.618-1.657a1.5,1.5,0,0,0,.739-1.989l-3.142-6.858h4.858a1.5,1.5,0,0,0,1.045-2.576s-4.122-4.006-8.284-8.012c-8.755-8.426-8.755-8.426-9.558-8.426Z" style="fill:#606060"/><rect x="63.373" y="56.768" width="73.991" height="4.651" rx="0.02" style="fill:#dbdbdb"/><rect x="63.373" y="104.768" width="73.991" height="4.651" rx="0.02" style="fill:#dbdbdb"/><rect x="56.303" y="71.714" width="89.144" height="23.229" style="fill:#eaeaea"/><path d="M73.385,83.8l3.879-2.124a5.528,5.528,0,0,0-9.971-1.666Z" style="fill:#0364b8"/><path d="M69.672,80.671h0a4.421,4.421,0,0,0-5.95,6.289l6.295.168L73.385,82.9Z" style="fill:#0078d4"/><path d="M77.264,81.68a3.569,3.569,0,0,0-1.667.285h0l-2.212.931,1.933,3.252,4.866.821a3.592,3.592,0,0,0-2.92-5.288Z" style="fill:#1490df"/><path d="M73.385,82.9l-9.663,4.066a4.417,4.417,0,0,0,3.627,1.894h9.672a3.591,3.591,0,0,0,3.163-1.887Z" style="fill:#28a8ea"/><rect x="62.928" y="74.486" width="17.686" height="17.686" style="fill:none"/><path d="M137.589,85.649H88.549a.021.021,0,0,1-.022-.019v-4.6a.02.02,0,0,1,.022-.018s49.062.008,49.062.018S137.6,85.649,137.589,85.649Z" style="fill:#797673;opacity:0.5"/><line x1="385.976" y1="15.188" x2="391.862" y2="9.303" style="fill:none;stroke:#fff;stroke-linecap:round;stroke-miterlimit:10"/><line x1="391.862" y1="15.188" x2="385.976" y2="9.303" style="fill:none;stroke:#fff;stroke-linecap:round;stroke-miterlimit:10"/><rect x="370.598" y="9.357" width="5.955" height="5.778" rx="0.26" transform="translate(747.151 24.491) rotate(180)" style="fill:none;stroke:#fff;stroke-linecap:round;stroke-linejoin:round"/><line x1="355.621" y1="12.245" x2="361.056" y2="12.245" style="fill:none;stroke:#fff;stroke-linecap:round;stroke-linejoin:round"/></g></svg>