<svg xmlns="http://www.w3.org/2000/svg" viewBox="0 0 48 62.86"><title>Artboard 151 copy 2</title><g id="Layer_1" data-name="Layer 1"><path d="M48,54.962H5.093V0H30.521L48,17.05Z" style="fill:#fff"/><path d="M48,54.962H5.093V0H30.521L48,17.05Z" style="fill:#3cc1f4;opacity:0.4"/><polygon points="47.996 17.05 30.521 17.05 30.521 0 47.996 17.05" style="fill:#3cc1f4"/><path d="M17.6,53.708c-.134,0-.978.019-.978.019V52.8a4.794,4.794,0,0,0-4.943-4.631,4.877,4.877,0,0,0-4.84,3.689l-.093,0a4.65,4.65,0,1,0,0,9.282H17.6a3.721,3.721,0,1,0,0-7.429Z" style="fill:#fff"/><path d="M11.676,48.169A4.794,4.794,0,0,1,16.619,52.8v.927s.844-.019.978-.019a3.721,3.721,0,1,1,0,7.429H6.743a4.65,4.65,0,1,1,0-9.282l.093,0a4.877,4.877,0,0,1,4.84-3.689m.038-1.748A7.084,7.084,0,0,0,7.4,47.87a6.462,6.462,0,0,0-1.9,2.35,6.867,6.867,0,0,0-3.52,1.757,6.116,6.116,0,0,0,0,9.009,6.96,6.96,0,0,0,4.8,1.87H17.635a5.941,5.941,0,0,0,4.1-1.6,5.23,5.23,0,0,0,0-7.7,5.881,5.881,0,0,0-3.284-1.546,6.661,6.661,0,0,0-6.74-5.592Z" style="fill:#0078d4"/></g></svg>