<svg xmlns="http://www.w3.org/2000/svg" xmlns:xlink="http://www.w3.org/1999/xlink" viewBox="0 0 470 252"><defs><linearGradient id="linear-gradient" x1="174.648" y1="84.511" x2="206.019" y2="84.511" gradientUnits="userSpaceOnUse"><stop offset="0.002" stop-color="#f7b547"/><stop offset="1" stop-color="#ffd590"/></linearGradient><linearGradient id="linear-gradient-2" x1="174.648" y1="166.071" x2="206.019" y2="166.071" xlink:href="#linear-gradient"/><linearGradient id="linear-gradient-3" x1="249.866" y1="166.071" x2="281.238" y2="166.071" xlink:href="#linear-gradient"/></defs><title>F Windows - LM - Pg 3 copy 9</title><g id="Layer_1" data-name="Layer 1"><rect x="52.822" y="5.631" width="348.134" height="241.365" style="fill:#fff;stroke:#dbdbdb;stroke-miterlimit:10;stroke-width:7px"/><rect x="54.826" y="21.77" width="51.891" height="19.25" rx="0.02" style="fill:#0078d4"/><line x1="53.123" y1="42.477" x2="400.956" y2="42.477" style="fill:#fff;stroke:#dbdbdb;stroke-miterlimit:10;stroke-width:7px"/><rect x="116.314" y="28.566" width="30.014" height="4.57" rx="0.02" style="fill:#dbdbdb"/><rect x="66.669" y="28.566" width="28.607" height="4.571" rx="0.02" style="fill:#fff"/><rect x="161.027" y="28.566" width="30.036" height="4.57" rx="0.02" style="fill:#dbdbdb"/><rect x="207.668" y="28.566" width="29.992" height="4.57" rx="0.02" style="fill:#dbdbdb"/><rect x="89.018" y="78.031" width="48.346" height="4.631" rx="0.02" style="fill:#dbdbdb"/><path d="M80.867,82.37a4,4,0,0,0-3.925-4,5.847,5.847,0,0,0-10.419-1.461,4.733,4.733,0,0,0-.017,9.465H77.224v-.018A4,4,0,0,0,80.867,82.37Z" style="fill:#0078d4"/><rect x="54.212" y="5.631" width="346.744" height="16.138" style="fill:#dbdbdb"/><line x1="148.948" y1="42.477" x2="148.948" y2="246.997" style="fill:#fff;stroke:#dbdbdb;stroke-miterlimit:10;stroke-width:7px"/><path d="M203.839,92.146V64.172H174.648v40.679h31.371V93.077Z" style="fill:url(#linear-gradient)"/><path d="M185.92,110.784l-11.272-5.933q.023-20.338.044-40.678l11.248,7.551Z" style="fill:#ffe699"/><path d="M187.533,121.023a5.885,5.885,0,1,1-5.887-5.884A5.886,5.886,0,0,1,187.533,121.023Z" style="fill:#46c021"/><path d="M181.647,115.139a5.885,5.885,0,1,1-5.884,5.885,5.885,5.885,0,0,1,5.884-5.885m0-1.115a6.978,6.978,0,1,0,2.725.55,6.966,6.966,0,0,0-2.725-.55Z" style="fill:#298e3b"/><path d="M178.074,120.982l2.575,2.713,4.572-4.855" style="fill:none;stroke:#fff;stroke-linecap:round;stroke-linejoin:round;stroke-width:1.5px"/><path d="M281.251,104.377H249.866v-40.2h18.6l12.784,12.472Z" style="fill:#fff"/><path d="M281.251,104.377H249.866v-40.2h18.6l12.784,12.472Z" style="fill:#3cc1f4;opacity:0.5"/><polygon points="281.251 76.644 268.467 76.644 268.467 64.172 281.251 76.644" style="fill:#3cc1f4"/><path d="M262.744,121.024a5.885,5.885,0,1,1-5.886-5.885A5.885,5.885,0,0,1,262.744,121.024Z" style="fill:#fff"/><path d="M256.858,115.139a5.885,5.885,0,1,1-5.884,5.885,5.885,5.885,0,0,1,5.884-5.885m0-1.115a6.978,6.978,0,1,0,2.726.55,6.965,6.965,0,0,0-2.726-.55Z" style="fill:#298e3b"/><path d="M253.286,120.982l2.574,2.713q2.287-2.427,4.573-4.855" style="fill:none;stroke:#298e3b;stroke-linecap:round;stroke-linejoin:round;stroke-width:1.5px"/><path d="M203.839,173.706V145.732H174.648V186.41h31.371V174.636Z" style="fill:url(#linear-gradient-2)"/><path d="M185.92,192.344l-11.272-5.934q.023-20.338.044-40.678l11.248,7.552Z" style="fill:#ffe699"/><path d="M186.666,201.321c-.091,0-.668.012-.668.012V200.7a3.275,3.275,0,0,0-3.376-3.163,3.332,3.332,0,0,0-3.306,2.519l-.063,0a3.175,3.175,0,1,0,0,6.339h7.413a2.541,2.541,0,1,0,0-5.073Z" style="fill:#fff"/><path d="M182.622,197.538A3.275,3.275,0,0,1,186,200.7v.632s.577-.012.668-.012a2.541,2.541,0,1,1,0,5.073h-7.413a3.175,3.175,0,1,1,0-6.339l.063,0a3.332,3.332,0,0,1,3.306-2.519m.026-1.194a4.835,4.835,0,0,0-2.946.99,4.4,4.4,0,0,0-1.3,1.6,4.693,4.693,0,0,0-2.4,1.2,4.176,4.176,0,0,0,0,6.153,4.748,4.748,0,0,0,3.279,1.277h7.413a4.062,4.062,0,0,0,2.8-1.092,3.573,3.573,0,0,0,0-5.257,4.024,4.024,0,0,0-2.243-1.056,4.55,4.55,0,0,0-4.6-3.819Z" style="fill:#0078d4"/><path d="M279.058,173.706V145.732H249.866V186.41h31.372V174.636Z" style="fill:url(#linear-gradient-3)"/><path d="M261.138,192.344l-11.272-5.934.045-40.678,11.247,7.552Z" style="fill:#ffe699"/><path d="M262.751,202.344a5.885,5.885,0,1,1-5.886-5.885A5.885,5.885,0,0,1,262.751,202.344Z" style="fill:#fff"/><path d="M256.865,196.459a5.885,5.885,0,1,1-5.884,5.885,5.885,5.885,0,0,1,5.884-5.885m0-1.115a6.978,6.978,0,1,0,2.726.55,6.961,6.961,0,0,0-2.726-.55Z" style="fill:#298e3b"/><path d="M253.293,202.3l2.574,2.713q2.286-2.427,4.573-4.855" style="fill:none;stroke:#298e3b;stroke-linecap:round;stroke-linejoin:round;stroke-width:1.5px"/><rect x="230.609" y="56.768" width="69.885" height="72.279" style="fill:#3cc1f4;opacity:0.1"/><line x1="382.79" y1="127.523" x2="418.924" y2="127.523" style="fill:none;stroke:#fff;stroke-miterlimit:10;stroke-width:3px"/><line x1="382.79" y1="235.399" x2="418.924" y2="235.399" style="fill:none;stroke:#fff;stroke-miterlimit:10;stroke-width:3px"/><rect x="300.494" y="129.047" width="125.283" height="104.853" style="fill:#eaeaea"/><rect x="311.598" y="139.253" width="71.916" height="5.884" style="fill:#ccc"/><rect x="300.585" y="154.15" width="125.283" height="25.413" style="fill:#d6d6d6"/><g style="opacity:0.5"><rect x="336.548" y="163.532" width="68.476" height="5.918" style="fill:#797673"/></g><path d="M327.232,168.2a3.323,3.323,0,0,0-3.2-3.37,4.788,4.788,0,0,0-4.538-3.411,4.726,4.726,0,0,0-3.96,2.181,3.989,3.989,0,0,0-.015,7.972h8.743v-.015A3.333,3.333,0,0,0,327.232,168.2Z" style="fill:#fff"/><rect x="311.689" y="193.851" width="93.186" height="5.841" style="fill:#ccc"/><rect x="311.689" y="215.139" width="76.227" height="5.842" style="fill:#ccc"/><path d="M417.232,185.685a.5.5,0,0,1-.455-.292l-2.26-4.93-2.981,2.889a.5.5,0,0,1-.348.141.493.493,0,0,1-.195-.04.5.5,0,0,1-.305-.46V169.246a.5.5,0,0,1,.5-.5c.269,0,.393,0,10.4,9.72a.5.5,0,0,1-.349.858h-3.524l2.137,4.665a.5.5,0,0,1,.014.382.5.5,0,0,1-.261.28l-2.164.991A.479.479,0,0,1,417.232,185.685Z" style="fill:#fff"/><path d="M411.191,169.243c.19,0,10.046,9.578,10.046,9.578h-4.3l2.461,5.373-2.164.992-2.554-5.575-3.489,3.382V169.246l0,0m0-1a1,1,0,0,0-1,1v13.747a1,1,0,0,0,1.7.718l2.473-2.4,1.965,4.288a1,1,0,0,0,.909.584,1.011,1.011,0,0,0,.417-.091l2.164-.992a1,1,0,0,0,.493-1.326l-1.813-3.956h2.745a1,1,0,0,0,.7-1.717c-10.147-9.861-10.2-9.861-10.743-9.861Z" style="fill:#606060"/><rect x="63.408" y="56.768" width="73.991" height="4.651" rx="0.02" style="fill:#dbdbdb"/><rect x="63.408" y="104.768" width="73.991" height="4.651" rx="0.02" style="fill:#dbdbdb"/><rect x="56.339" y="71.714" width="89.144" height="23.229" style="fill:#eaeaea"/><path d="M73.421,83.8,77.3,81.68a5.527,5.527,0,0,0-9.97-1.666Z" style="fill:#0364b8"/><path d="M69.708,80.671h0a4.421,4.421,0,0,0-5.95,6.289l6.294.168L73.421,82.9Z" style="fill:#0078d4"/><path d="M77.3,81.68a3.563,3.563,0,0,0-1.666.285h0l-2.212.931,1.933,3.252,4.866.821A3.594,3.594,0,0,0,77.3,81.68Z" style="fill:#1490df"/><path d="M73.421,82.9l-9.663,4.066a4.414,4.414,0,0,0,3.627,1.894h9.672a3.592,3.592,0,0,0,3.163-1.887Z" style="fill:#28a8ea"/><rect x="62.964" y="74.486" width="17.686" height="17.686" style="fill:none"/><path d="M137.625,85.649H88.585a.021.021,0,0,1-.022-.019v-4.6a.02.02,0,0,1,.022-.018s49.062.008,49.062.018S137.637,85.649,137.625,85.649Z" style="fill:#797673;opacity:0.5"/><path d="M321.582,167.333l3.879-2.125a5.528,5.528,0,0,0-9.971-1.666Z" style="fill:#0364b8"/><path d="M317.869,164.2h0a4.421,4.421,0,0,0-5.95,6.29l6.3.167,3.368-4.233Z" style="fill:#0078d4"/><path d="M325.461,165.208a3.579,3.579,0,0,0-1.667.285h0l-2.212.931,1.933,3.252,4.866.82a3.594,3.594,0,0,0-2.92-5.288Z" style="fill:#1490df"/><path d="M321.582,166.424l-9.663,4.066a4.416,4.416,0,0,0,3.627,1.894h9.672a3.592,3.592,0,0,0,3.163-1.888Z" style="fill:#28a8ea"/><rect x="311.125" y="158.014" width="17.686" height="17.686" style="fill:none"/><line x1="385.976" y1="15.188" x2="391.862" y2="9.303" style="fill:none;stroke:#fff;stroke-linecap:round;stroke-miterlimit:10"/><line x1="391.862" y1="15.188" x2="385.976" y2="9.303" style="fill:none;stroke:#fff;stroke-linecap:round;stroke-miterlimit:10"/><rect x="370.598" y="9.357" width="5.955" height="5.778" rx="0.26" transform="translate(747.151 24.491) rotate(180)" style="fill:none;stroke:#fff;stroke-linecap:round;stroke-linejoin:round"/><line x1="355.621" y1="12.245" x2="361.056" y2="12.245" style="fill:none;stroke:#fff;stroke-linecap:round;stroke-linejoin:round"/></g></svg>