<svg xmlns="http://www.w3.org/2000/svg" viewBox="0 0 470 252"><title>F Windows - LM - Pg 6 copy</title><g id="Layer_1" data-name="Layer 1"><path d="M272.757,193.637q-57.621,10.905-114.446,21.669c-24.118-50.513-35.064-103.838-32.836-154.927q56.1-8.745,112.72-17.391C237.268,92.092,248.789,143.855,272.757,193.637Z" style="fill:#3cc1f4;opacity:0.5"/><path d="M155.221,100.26l-8,1.451a2.32,2.32,0,0,1-2.8-2.083q-.34-3.962-.578-7.914a3,3,0,0,1,2.452-3.009l8.063-1.446a2.222,2.222,0,0,1,2.721,2.077q.206,3.949.516,7.907A2.917,2.917,0,0,1,155.221,100.26Z" style="fill:#fff"/><path d="M158.618,126.363l-7.878,1.456a2.554,2.554,0,0,1-2.982-2.091q-.677-3.974-1.251-7.946a2.719,2.719,0,0,1,2.2-3.027l7.94-1.454a2.443,2.443,0,0,1,2.9,2.089q.543,3.972,1.189,7.945A2.649,2.649,0,0,1,158.618,126.363Z" style="fill:#fff"/><path d="M164.227,152.481l-7.756,1.453a2.81,2.81,0,0,1-3.158-2.086q-1.012-3.968-1.924-7.938a2.471,2.471,0,0,1,1.94-3.026l7.817-1.455a2.691,2.691,0,0,1,3.075,2.09q.879,3.972,1.862,7.94A2.409,2.409,0,0,1,164.227,152.481Z" style="fill:#fff"/><path d="M172.047,178.473l-7.632,1.441a3.1,3.1,0,0,1-3.336-2.07q-1.349-3.937-2.6-7.885a2.252,2.252,0,0,1,1.684-3.01l7.694-1.447a2.96,2.96,0,0,1,3.251,2.079q1.215,3.95,2.535,7.891A2.194,2.194,0,0,1,172.047,178.473Z" style="fill:#fff"/><path d="M223.023,84.028q-26.577,4.747-53,9.511a1.477,1.477,0,0,1-1.8-1.361c-.035-.565-.069-1.128-.1-1.692a1.967,1.967,0,0,1,1.61-1.97q26.5-4.755,53.16-9.494a1.411,1.411,0,0,1,1.743,1.355c.013.562.027,1.123.043,1.686A2.026,2.026,0,0,1,223.023,84.028Z" style="fill:#fff"/><path d="M225.038,110.05q-26.171,4.779-52.193,9.565a1.625,1.625,0,0,1-1.917-1.368q-.125-.85-.244-1.7a1.787,1.787,0,0,1,1.442-1.981q26.1-4.782,52.35-9.559a1.55,1.55,0,0,1,1.859,1.366q.091.849.187,1.7A1.834,1.834,0,0,1,225.038,110.05Z" style="fill:#fff"/><path d="M229.266,136.175q-25.766,4.786-51.384,9.568a1.788,1.788,0,0,1-2.032-1.367q-.2-.851-.388-1.7a1.623,1.623,0,0,1,1.275-1.981q25.695-4.785,51.539-9.571a1.7,1.7,0,0,1,1.975,1.368q.164.851.331,1.7A1.667,1.667,0,0,1,229.266,136.175Z" style="fill:#fff"/><path d="M235.705,162.262q-25.362,4.767-50.573,9.518a1.974,1.974,0,0,1-2.15-1.358q-.267-.844-.531-1.69a1.481,1.481,0,0,1,1.107-1.971q25.292-4.76,50.73-9.532a1.877,1.877,0,0,1,2.09,1.364q.234.847.475,1.694A1.519,1.519,0,0,1,235.705,162.262Z" style="fill:#fff"/><path d="M153.91,185.364A12.685,12.685,0,0,0,134.3,175.075a14.423,14.423,0,0,0-13.071-8.311,14.415,14.415,0,0,0-11.424,5.585A14.064,14.064,0,0,0,106.838,181c0,.306.027.6.046.9-.285-.02-.571-.043-.862-.043a11.813,11.813,0,1,0,0,23.624h45.537a10.183,10.183,0,0,0,2.351-20.119Z" style="fill:#2b88d8"/><g id="Layer5_1_MEMBER_0_MEMBER_0_FILL" data-name="Layer5 1 MEMBER 0 MEMBER 0 FILL"><path d="M372.287,27.11a16.965,16.965,0,0,0-11.279-5.992l-80.425-9.956a16.014,16.014,0,0,0-18.511,13.961l-23.253,187.67a15.384,15.384,0,0,0,3.387,11.848,17.235,17.235,0,0,0,11.235,6.3l80.425,9.956a16.158,16.158,0,0,0,12.323-3.346,14.829,14.829,0,0,0,6.345-10.592l23.252-187.67A15.811,15.811,0,0,0,372.287,27.11Z" style="fill:#0078d4"/></g><g id="Layer5_1_MEMBER_0_MEMBER_1_FILL" data-name="Layer5 1 MEMBER 0 MEMBER 1 FILL"><path d="M273.88,21.785a8.832,8.832,0,0,0-3.753,6.236L247.466,211.113a8.833,8.833,0,0,0,2.065,6.981,9.5,9.5,0,0,0,6.5,3.621l77.727,9.727a9.634,9.634,0,0,0,7.31-1.856,8.832,8.832,0,0,0,3.753-6.236L367.487,40.257a8.835,8.835,0,0,0-2.064-6.98,9.867,9.867,0,0,0-6.609-3.634l-77.727-9.727A9.509,9.509,0,0,0,273.88,21.785Z" style="fill:#fff"/></g><path d="M131.484,209.2c.085-5.461,4.9-9.866,10.843-9.866a11.457,11.457,0,0,1,5.956,1.647,11.237,11.237,0,0,1,1.427-2.177,12.943,12.943,0,0,1,19.553,0,10.763,10.763,0,0,1,2.538,6.908c0,.244-.023.483-.039.723.244-.016.489-.034.738-.034,5.648,0,10.227,4.224,10.227,9.435s-4.579,9.435-10.227,9.435h-39c-4.876,0-8.83-3.647-8.83-8.146A8.315,8.315,0,0,1,131.484,209.2Z" style="fill:#a7cbf6"/><path d="M312.991,125.134l13.018-4.882a17.375,17.375,0,0,0-30.285-9.628Z" style="fill:#0364b8"/><path d="M302.835,113.73v0a13.9,13.9,0,0,0-21.318,16.918l19.512,3.329L313.4,122.305Z" style="fill:#0078d4"/><path d="M326.009,120.252a11.229,11.229,0,0,0-5.313.144v0l-7.3,1.911,4.566,10.982,14.775,4.722a11.293,11.293,0,0,0-6.729-17.757Z" style="fill:#1490df"/><path d="M313.4,122.305l-31.881,8.345a13.88,13.88,0,0,0,10.442,7.512l30.1,4.312a11.291,11.291,0,0,0,10.683-4.465Z" style="fill:#28a8ea"/><rect x="280.383" y="95.137" width="55.596" height="55.596" transform="translate(20.549 -42.463) rotate(8.153)" style="fill:none"/></g></svg>