<svg xmlns="http://www.w3.org/2000/svg" xmlns:xlink="http://www.w3.org/1999/xlink" viewBox="0 0 470 220"><defs><clipPath id="clip-path"><path d="M139.949,80.818V59.1H117.288V90.68h24.353V81.54Z" style="fill:none"/></clipPath><clipPath id="clip-path-2"><path d="M139.949,146.018V124.3H117.288V155.88h24.353v-9.14Z" style="fill:none"/></clipPath><linearGradient id="linear-gradient" x1="446.267" y1="251.519" x2="275.299" y2="110.415" gradientUnits="userSpaceOnUse"><stop offset="0" stop-color="#1e939e"/><stop offset="0.413" stop-color="#23a9b6"/><stop offset="0.811" stop-color="#28c2d1"/></linearGradient><linearGradient id="linear-gradient-2" x1="351.206" y1="249.36" x2="356.669" y2="117.616" gradientUnits="userSpaceOnUse"><stop offset="0" stop-color="#22a4b0"/><stop offset="0.61" stop-color="#26bac8"/><stop offset="0.811" stop-color="#28c2d1"/></linearGradient><radialGradient id="radial-gradient" cx="1093.672" cy="-1254.456" r="9.966" gradientTransform="matrix(-1.198, -0.107, 0.156, -1.75, 1860.16, -1984.415)" gradientUnits="userSpaceOnUse"><stop offset="0" stop-color="#9a653d"/><stop offset="0.999" stop-color="#b5855e"/></radialGradient><radialGradient id="radial-gradient-2" cx="-707.306" cy="677.526" r="0.109" gradientTransform="matrix(-0.973, 0.231, -0.244, -1.026, -171.72, 935.164)" gradientUnits="userSpaceOnUse"><stop offset="0" stop-color="#9a653d"/><stop offset="0.271" stop-color="#a36f47" stop-opacity="0.754"/><stop offset="0.873" stop-color="#b88861" stop-opacity="0.136"/><stop offset="1" stop-color="#bd8e67" stop-opacity="0"/></radialGradient></defs><title>FRE-OneDrive-page2</title><g id="IMG_2" data-name="IMG 2"><circle cx="355.68" cy="119.353" r="82.546" style="fill:#3cc1f4;opacity:0.7000000000000001"/><path d="M355.68,201.9a82.58,82.58,0,0,0,78.863-58.1c-5.022-4.169-13.72-4.936-15.57-11.337-2.406-8.321,2.86-14.91-1.269-22.639s-13.6-7.984-19.225-15.294-6.847-23.1-6.847-23.1L364.221,58.847l-1.532,7.414L360.7,58.075,332.781,73.914s1.5,17.745-3.861,25.247-15.845,6.944-19.7,14.812,6.126,15.275,4.012,23.675-18.17,8.27-21.707,17.033a35.563,35.563,0,0,0-2.259,13.682A82.418,82.418,0,0,0,355.68,201.9Z" style="fill:#f9f9f8"/><rect x="27.144" y="16.314" width="270.256" height="187.372" style="fill:#fff"/><path d="M300.4,206.686H24.143V13.314H300.4Zm-270.257-6H294.4V19.314H30.143Z" style="fill:#dbdbdb"/><rect x="29.01" y="28.842" width="39.972" height="14.1" rx="0.02" style="fill:#0078d4"/><rect x="27.377" y="41.917" width="270.022" height="6" style="fill:#dbdbdb"/><rect x="76.433" y="34.247" width="22.15" height="3.29" rx="0.02" style="fill:#dbdbdb"/><rect x="37.893" y="34.247" width="22.208" height="3.29" rx="0.02" style="fill:#fff"/><rect x="109.38" y="34.247" width="22.216" height="3.29" rx="0.02" style="fill:#dbdbdb"/><rect x="143.825" y="34.247" width="22.317" height="3.29" rx="0.02" style="fill:#dbdbdb"/><rect x="28.223" y="16.314" width="269.177" height="12.528" style="fill:#dbdbdb"/><rect x="98.766" y="44.917" width="6" height="158.769" style="fill:#dbdbdb"/><g style="clip-path:url(#clip-path)"><rect x="117.288" y="59.102" width="0.054" height="31.579" style="fill:#f7b547"/><rect x="117.341" y="59.102" width="0.333" height="31.579" style="fill:#f7b547"/><rect x="117.674" y="59.102" width="0.333" height="31.579" style="fill:#f7b548"/><rect x="118.007" y="59.102" width="0.333" height="31.579" style="fill:#f7b649"/><rect x="118.34" y="59.102" width="0.333" height="31.579" style="fill:#f7b64a"/><rect x="118.673" y="59.102" width="0.333" height="31.579" style="fill:#f7b74b"/><rect x="119.006" y="59.102" width="0.333" height="31.579" style="fill:#f8b74c"/><rect x="119.338" y="59.102" width="0.333" height="31.579" style="fill:#f8b84d"/><rect x="119.671" y="59.102" width="0.333" height="31.579" style="fill:#f8b84e"/><rect x="120.004" y="59.102" width="0.333" height="31.579" style="fill:#f8b94f"/><rect x="120.337" y="59.102" width="0.333" height="31.579" style="fill:#f8b950"/><rect x="120.67" y="59.102" width="0.333" height="31.579" style="fill:#f8b951"/><rect x="121.003" y="59.102" width="0.333" height="31.579" style="fill:#f8ba52"/><rect x="121.336" y="59.102" width="0.333" height="31.579" style="fill:#f8ba53"/><rect x="121.669" y="59.102" width="0.333" height="31.579" style="fill:#f8bb54"/><rect x="122.001" y="59.102" width="0.333" height="31.579" style="fill:#f9bb55"/><rect x="122.334" y="59.102" width="0.333" height="31.579" style="fill:#f9bc56"/><rect x="122.667" y="59.102" width="0.333" height="31.579" style="fill:#f9bc57"/><rect x="123" y="59.102" width="0.333" height="31.579" style="fill:#f9bd58"/><rect x="123.333" y="59.102" width="0.333" height="31.579" style="fill:#f9bd59"/><rect x="123.666" y="59.102" width="0.333" height="31.579" style="fill:#f9bd5a"/><rect x="123.999" y="59.102" width="0.333" height="31.579" style="fill:#f9be5b"/><rect x="124.332" y="59.102" width="0.333" height="31.579" style="fill:#f9be5c"/><rect x="124.664" y="59.102" width="0.333" height="31.579" style="fill:#f9bf5d"/><rect x="124.997" y="59.102" width="0.333" height="31.579" style="fill:#fabf5e"/><rect x="125.33" y="59.102" width="0.333" height="31.579" style="fill:#fac05f"/><rect x="125.663" y="59.102" width="0.333" height="31.579" style="fill:#fac060"/><rect x="125.996" y="59.102" width="0.333" height="31.579" style="fill:#fac161"/><rect x="126.329" y="59.102" width="0.333" height="31.579" style="fill:#fac162"/><rect x="126.662" y="59.102" width="0.333" height="31.579" style="fill:#fac163"/><rect x="126.995" y="59.102" width="0.333" height="31.579" style="fill:#fac264"/><rect x="127.327" y="59.102" width="0.333" height="31.579" style="fill:#fac265"/><rect x="127.66" y="59.102" width="0.333" height="31.579" style="fill:#fac366"/><rect x="127.993" y="59.102" width="0.333" height="31.579" style="fill:#fbc367"/><rect x="128.326" y="59.102" width="0.333" height="31.579" style="fill:#fbc468"/><rect x="128.659" y="59.102" width="0.333" height="31.579" style="fill:#fbc469"/><rect x="128.992" y="59.102" width="0.333" height="31.579" style="fill:#fbc56a"/><rect x="129.325" y="59.102" width="0.333" height="31.579" style="fill:#fbc56c"/><rect x="129.658" y="59.102" width="0.333" height="31.579" style="fill:#fbc56d"/><rect x="129.99" y="59.102" width="0.333" height="31.579" style="fill:#fbc66e"/><rect x="130.323" y="59.102" width="0.333" height="31.579" style="fill:#fbc66f"/><rect x="130.656" y="59.102" width="0.333" height="31.579" style="fill:#fbc770"/><rect x="130.989" y="59.102" width="0.333" height="31.579" style="fill:#fcc771"/><rect x="131.322" y="59.102" width="0.333" height="31.579" style="fill:#fcc872"/><rect x="131.655" y="59.102" width="0.333" height="31.579" style="fill:#fcc873"/><rect x="131.988" y="59.102" width="0.333" height="31.579" style="fill:#fcc974"/><rect x="132.321" y="59.102" width="0.333" height="31.579" style="fill:#fcc975"/><rect x="132.653" y="59.102" width="0.333" height="31.579" style="fill:#fcc976"/><rect x="132.986" y="59.102" width="0.333" height="31.579" style="fill:#fcca77"/><rect x="133.319" y="59.102" width="0.333" height="31.579" style="fill:#fcca78"/><rect x="133.652" y="59.102" width="0.333" height="31.579" style="fill:#fccb79"/><rect x="133.985" y="59.102" width="0.333" height="31.579" style="fill:#fdcb7a"/><rect x="134.318" y="59.102" width="0.333" height="31.579" style="fill:#fdcc7b"/><rect x="134.651" y="59.102" width="0.333" height="31.579" style="fill:#fdcc7c"/><rect x="134.984" y="59.102" width="0.333" height="31.579" style="fill:#fdcd7d"/><rect x="135.316" y="59.102" width="0.333" height="31.579" style="fill:#fdcd7e"/><rect x="135.649" y="59.102" width="0.333" height="31.579" style="fill:#fdcd7f"/><rect x="135.982" y="59.102" width="0.333" height="31.579" style="fill:#fdce80"/><rect x="136.315" y="59.102" width="0.333" height="31.579" style="fill:#fdce81"/><rect x="136.648" y="59.102" width="0.333" height="31.579" style="fill:#fdcf82"/><rect x="136.981" y="59.102" width="0.333" height="31.579" style="fill:#fecf83"/><rect x="137.314" y="59.102" width="0.333" height="31.579" style="fill:#fed084"/><rect x="137.647" y="59.102" width="0.333" height="31.579" style="fill:#fed085"/><rect x="137.979" y="59.102" width="0.333" height="31.579" style="fill:#fed186"/><rect x="138.312" y="59.102" width="0.333" height="31.579" style="fill:#fed187"/><rect x="138.645" y="59.102" width="0.333" height="31.579" style="fill:#fed188"/><rect x="138.978" y="59.102" width="0.333" height="31.579" style="fill:#fed289"/><rect x="139.311" y="59.102" width="0.333" height="31.579" style="fill:#fed28a"/><rect x="139.644" y="59.102" width="0.333" height="31.579" style="fill:#fed38b"/><rect x="139.977" y="59.102" width="0.333" height="31.579" style="fill:#ffd38c"/><rect x="140.31" y="59.102" width="0.333" height="31.579" style="fill:#ffd48d"/><rect x="140.642" y="59.102" width="0.333" height="31.579" style="fill:#ffd48e"/><rect x="140.975" y="59.102" width="0.333" height="31.579" style="fill:#ffd58f"/><rect x="141.308" y="59.102" width="0.333" height="31.579" style="fill:#ffd590"/></g><path d="M126.038,95.287l-8.75-4.606q.017-15.789.034-31.579l8.731,5.862Z" style="fill:#ffe699"/><g style="clip-path:url(#clip-path-2)"><rect x="117.288" y="124.302" width="0.054" height="31.579" style="fill:#f7b547"/><rect x="117.341" y="124.302" width="0.333" height="31.579" style="fill:#f7b547"/><rect x="117.674" y="124.302" width="0.333" height="31.579" style="fill:#f7b548"/><rect x="118.007" y="124.302" width="0.333" height="31.579" style="fill:#f7b649"/><rect x="118.34" y="124.302" width="0.333" height="31.579" style="fill:#f7b64a"/><rect x="118.673" y="124.302" width="0.333" height="31.579" style="fill:#f7b74b"/><rect x="119.006" y="124.302" width="0.333" height="31.579" style="fill:#f8b74c"/><rect x="119.338" y="124.302" width="0.333" height="31.579" style="fill:#f8b84d"/><rect x="119.671" y="124.302" width="0.333" height="31.579" style="fill:#f8b84e"/><rect x="120.004" y="124.302" width="0.333" height="31.579" style="fill:#f8b94f"/><rect x="120.337" y="124.302" width="0.333" height="31.579" style="fill:#f8b950"/><rect x="120.67" y="124.302" width="0.333" height="31.579" style="fill:#f8b951"/><rect x="121.003" y="124.302" width="0.333" height="31.579" style="fill:#f8ba52"/><rect x="121.336" y="124.302" width="0.333" height="31.579" style="fill:#f8ba53"/><rect x="121.669" y="124.302" width="0.333" height="31.579" style="fill:#f8bb54"/><rect x="122.001" y="124.302" width="0.333" height="31.579" style="fill:#f9bb55"/><rect x="122.334" y="124.302" width="0.333" height="31.579" style="fill:#f9bc56"/><rect x="122.667" y="124.302" width="0.333" height="31.579" style="fill:#f9bc57"/><rect x="123" y="124.302" width="0.333" height="31.579" style="fill:#f9bd58"/><rect x="123.333" y="124.302" width="0.333" height="31.579" style="fill:#f9bd59"/><rect x="123.666" y="124.302" width="0.333" height="31.579" style="fill:#f9bd5a"/><rect x="123.999" y="124.302" width="0.333" height="31.579" style="fill:#f9be5b"/><rect x="124.332" y="124.302" width="0.333" height="31.579" style="fill:#f9be5c"/><rect x="124.664" y="124.302" width="0.333" height="31.579" style="fill:#f9bf5d"/><rect x="124.997" y="124.302" width="0.333" height="31.579" style="fill:#fabf5e"/><rect x="125.33" y="124.302" width="0.333" height="31.579" style="fill:#fac05f"/><rect x="125.663" y="124.302" width="0.333" height="31.579" style="fill:#fac060"/><rect x="125.996" y="124.302" width="0.333" height="31.579" style="fill:#fac161"/><rect x="126.329" y="124.302" width="0.333" height="31.579" style="fill:#fac162"/><rect x="126.662" y="124.302" width="0.333" height="31.579" style="fill:#fac163"/><rect x="126.995" y="124.302" width="0.333" height="31.579" style="fill:#fac264"/><rect x="127.327" y="124.302" width="0.333" height="31.579" style="fill:#fac265"/><rect x="127.66" y="124.302" width="0.333" height="31.579" style="fill:#fac366"/><rect x="127.993" y="124.302" width="0.333" height="31.579" style="fill:#fbc367"/><rect x="128.326" y="124.302" width="0.333" height="31.579" style="fill:#fbc468"/><rect x="128.659" y="124.302" width="0.333" height="31.579" style="fill:#fbc469"/><rect x="128.992" y="124.302" width="0.333" height="31.579" style="fill:#fbc56a"/><rect x="129.325" y="124.302" width="0.333" height="31.579" style="fill:#fbc56c"/><rect x="129.658" y="124.302" width="0.333" height="31.579" style="fill:#fbc56d"/><rect x="129.99" y="124.302" width="0.333" height="31.579" style="fill:#fbc66e"/><rect x="130.323" y="124.302" width="0.333" height="31.579" style="fill:#fbc66f"/><rect x="130.656" y="124.302" width="0.333" height="31.579" style="fill:#fbc770"/><rect x="130.989" y="124.302" width="0.333" height="31.579" style="fill:#fcc771"/><rect x="131.322" y="124.302" width="0.333" height="31.579" style="fill:#fcc872"/><rect x="131.655" y="124.302" width="0.333" height="31.579" style="fill:#fcc873"/><rect x="131.988" y="124.302" width="0.333" height="31.579" style="fill:#fcc974"/><rect x="132.321" y="124.302" width="0.333" height="31.579" style="fill:#fcc975"/><rect x="132.653" y="124.302" width="0.333" height="31.579" style="fill:#fcc976"/><rect x="132.986" y="124.302" width="0.333" height="31.579" style="fill:#fcca77"/><rect x="133.319" y="124.302" width="0.333" height="31.579" style="fill:#fcca78"/><rect x="133.652" y="124.302" width="0.333" height="31.579" style="fill:#fccb79"/><rect x="133.985" y="124.302" width="0.333" height="31.579" style="fill:#fdcb7a"/><rect x="134.318" y="124.302" width="0.333" height="31.579" style="fill:#fdcc7b"/><rect x="134.651" y="124.302" width="0.333" height="31.579" style="fill:#fdcc7c"/><rect x="134.984" y="124.302" width="0.333" height="31.579" style="fill:#fdcd7d"/><rect x="135.316" y="124.302" width="0.333" height="31.579" style="fill:#fdcd7e"/><rect x="135.649" y="124.302" width="0.333" height="31.579" style="fill:#fdcd7f"/><rect x="135.982" y="124.302" width="0.333" height="31.579" style="fill:#fdce80"/><rect x="136.315" y="124.302" width="0.333" height="31.579" style="fill:#fdce81"/><rect x="136.648" y="124.302" width="0.333" height="31.579" style="fill:#fdcf82"/><rect x="136.981" y="124.302" width="0.333" height="31.579" style="fill:#fecf83"/><rect x="137.314" y="124.302" width="0.333" height="31.579" style="fill:#fed084"/><rect x="137.647" y="124.302" width="0.333" height="31.579" style="fill:#fed085"/><rect x="137.979" y="124.302" width="0.333" height="31.579" style="fill:#fed186"/><rect x="138.312" y="124.302" width="0.333" height="31.579" style="fill:#fed187"/><rect x="138.645" y="124.302" width="0.333" height="31.579" style="fill:#fed188"/><rect x="138.978" y="124.302" width="0.333" height="31.579" style="fill:#fed289"/><rect x="139.311" y="124.302" width="0.333" height="31.579" style="fill:#fed28a"/><rect x="139.644" y="124.302" width="0.333" height="31.579" style="fill:#fed38b"/><rect x="139.977" y="124.302" width="0.333" height="31.579" style="fill:#ffd38c"/><rect x="140.31" y="124.302" width="0.333" height="31.579" style="fill:#ffd48d"/><rect x="140.642" y="124.302" width="0.333" height="31.579" style="fill:#ffd48e"/><rect x="140.975" y="124.302" width="0.333" height="31.579" style="fill:#ffd58f"/><rect x="141.308" y="124.302" width="0.333" height="31.579" style="fill:#ffd590"/></g><path d="M126.038,160.487l-8.75-4.606q.017-15.789.034-31.579l8.731,5.862Z" style="fill:#ffe699"/><rect x="35.052" y="55.746" width="57.722" height="3.586" rx="0.02" style="fill:#dbdbdb"/><rect x="35.052" y="92.87" width="57.722" height="3.586" rx="0.02" style="fill:#dbdbdb"/><rect x="30.143" y="66.943" width="68.623" height="17.82" style="fill:#eaeaea"/><path d="M43.134,76.22l3-1.642a4.273,4.273,0,0,0-7.707-1.287Z" style="fill:#0364b8"/><path d="M40.264,73.8h0a3.417,3.417,0,0,0-4.6,4.861l4.865.13,2.6-3.272Z" style="fill:#0078d4"/><path d="M46.132,74.578a2.775,2.775,0,0,0-1.288.22h0l-1.71.72,1.494,2.513,3.761.634a2.777,2.777,0,0,0-2.257-4.087Z" style="fill:#1490df"/><path d="M43.134,75.518,35.666,78.66a3.41,3.41,0,0,0,2.8,1.464h7.475a2.777,2.777,0,0,0,2.445-1.459Z" style="fill:#28a8ea"/><rect x="35.052" y="69.018" width="13.669" height="13.669" style="fill:none"/><path d="M92.756,77.646h-37.9a.017.017,0,0,1-.017-.014V74.074a.016.016,0,0,1,.017-.014s37.919.006,37.919.014S92.766,77.646,92.756,77.646Z" style="fill:#797673;opacity:0.5"/><path d="M391.7,71.753a32.824,32.824,0,0,1-.215,3.852,31.317,31.317,0,0,1-8.271,17.93,28.39,28.39,0,0,1-20.624,9.081h-.5c-14.972.05-27.356-11.777-29.1-27.064a31.8,31.8,0,0,1-.212-3.607,27.356,27.356,0,0,1,7.373-18.924,25.337,25.337,0,0,1,7.776-5.633,24.192,24.192,0,0,1,10.142-2.258l8.161-.027a24.159,24.159,0,0,1,10.38,2.3A26.833,26.833,0,0,1,391.7,71.753Z" style="fill:#f9f9f8"/><path d="M262.638,125.84A60.457,60.457,0,0,0,289.9,139.8a5.023,5.023,0,0,1,2.838,1.677c3.33,4.221-1.171,15.961-6.867,16.492a5.946,5.946,0,0,1-4.19-1.466L259.44,129.262Z" style="fill:#b5855e"/><path d="M281.682,156.5a43.335,43.335,0,0,0,9.218,7.123c15.153,8.713,31.3,5.537,36.845,4.169.1-1.266.62-7.707,1.3-12.644.3-2.186.586-3.708.7-4.314.376-1.962.734-3.431.888-4.045.268-1.072.549-2.086.723-2.667a34.737,34.737,0,0,1,3.021-6.8,50.368,50.368,0,0,1,8.907-11.907,65.217,65.217,0,0,1-13.237,8.411c-16.691,7.957-32.674,6.749-40.637,5.53l-4.857-1.259Z" style="fill:url(#linear-gradient)"/><path d="M248.592,135.878l-39.066-6.662,8.535-50.045,23.153,3.948,13.265,18.238Z" style="fill:#fff"/><path d="M248.592,135.878l-39.066-6.662,8.535-50.045,23.153,3.948,13.265,18.238Z" style="fill:#3cc1f4;opacity:0.5"/><polygon points="254.479 101.357 238.567 98.644 241.214 83.119 254.479 101.357" style="fill:#3cc1f4"/><path d="M250.753,123.082c1.9,3.181,5.243,4.67,9.555,6.585l3.207-2.239s-3.092-9.689-5.857-12.979c-.015-.025-4.483-5.621-5.262-6.667a1.44,1.44,0,0,0-2.719.5c-.048.223,2.27,7.135,2.27,7.135Z" style="fill:#b5855e"/><circle cx="363.517" cy="143.232" r="15.562" style="fill:#8a8bc3"/><path d="M372.477,119.976a17.049,17.049,0,0,0-11.653-3.46c-4.429.281-8.565.315-11.456,2.5-7.2,5.451-13.7,12.2-18.171,22.26-4.415,9.959-5.538,35.113-5.688,54.9a82.519,82.519,0,0,0,56.057,1.551c-.595-5.057-1.1-9.632-1.1-9.632a83.644,83.644,0,0,1,1.183-29.541C384.9,140.791,380.873,126.327,372.477,119.976Z" style="fill:url(#linear-gradient-2)"/><path d="M372.137,119.711h0a29.742,29.742,0,0,1-2.623-15.111l1.419-15.907-14.2-1.266-1.2,23.31A8.552,8.552,0,0,1,352,117.228a.758.758,0,0,0,.391,1.38Z" style="fill:url(#radial-gradient)"/><path d="M349.633,59.23h4.473a11.852,11.852,0,0,1,11.852,11.852V89.966a15.985,15.985,0,0,1-15.985,15.985h0A12.474,12.474,0,0,1,337.5,93.477V71.364A12.134,12.134,0,0,1,349.633,59.23Z" transform="translate(-3.911 18.916) rotate(-3.064)" style="fill:#b5855e"/><ellipse cx="343.469" cy="82.561" rx="1.525" ry="3.003" transform="translate(-2.927 13.298) rotate(-2.209)" style="fill:#3a312e"/><path d="M337.682,81.119a11.836,11.836,0,0,1-3.126,7.744,2.5,2.5,0,0,0,.03,3.8c.6.533,3.778,1.715,3.9,3.4" style="fill:#b5855e"/><rect x="351.213" y="76.535" width="0.237" height="0.237" transform="translate(-3.595 18.886) rotate(-3.064)" style="fill:url(#radial-gradient-2)"/><path d="M341.819,96.253a3.822,3.822,0,0,0,1.37-.166c.337-.1.639-.214.96-.34s.644-.265.985-.421a4.544,4.544,0,0,0,1.165-.7l.151-.127a.624.624,0,0,1,.881.073.657.657,0,0,1,.084.128,2.59,2.59,0,0,1-.254,2.439,3.771,3.771,0,0,1-1.89,1.538,3.728,3.728,0,0,1-2.486.073,2.636,2.636,0,0,1-1.738-1.684.644.644,0,0,1,.452-.791.677.677,0,0,1,.188-.023Z" style="fill:#9a653d"/><path d="M372.477,119.976c-4.312-.621-8.023.119-13.518.809-5.315.668-9.041-.766-9.591-1.764a20.652,20.652,0,0,1,12.014-4.253C365.811,114.487,369.2,117.485,372.477,119.976Z" style="fill:#b5855e"/><path d="M337.769,67.212l6.383-.043a14.742,14.742,0,0,0,14.739,13.747l17.742-.278.921-22.271-39.862.131.077,8.714" style="fill:#f9f9f8"/><path d="M340.861,62.515h0a3.291,3.291,0,0,1,3.291,3.291V67.33a0,0,0,0,1,0,0H337.57a0,0,0,0,1,0,0V65.806a3.291,3.291,0,0,1,3.291-3.291Z" style="fill:#e1dfdd"/><path d="M367.045,80.78h6.771a0,0,0,0,1,0,0V91.224a0,0,0,0,1,0,0h-6.771A5.222,5.222,0,0,1,361.823,86v0A5.222,5.222,0,0,1,367.045,80.78Z" transform="translate(737.128 165.364) rotate(178.968)" style="fill:#b5855e"/><path d="M347.508,145.229c-4.327,5.43-4.308,11.158-4.988,19.667a243.9,243.9,0,0,1-5.41,34.842c2.676.577,5.6,1.08,8.762,1.439a89.827,89.827,0,0,0,14.071.49c9.135-18.845,11.189-34.554,11.489-44.772.451-15.378-3.079-18.185-4.578-19.05C361.512,134.762,352.3,139.212,347.508,145.229Z" style="fill:#28c2d1"/><circle cx="355.68" cy="119.353" r="82.546" style="fill:none"/><path d="M399.414,187.09c2.258-7.283,11.906-5.632,13.13-20.465.73-8.847-20.493-10.7-19.983-18.8s5.6-12.906,4.52-20.761-15.727-9.544-18.142-17.283c-1.649-5.28-.763-14.156-.033-19.259-3.877,4.019-10.917,13.774-7.98,25.741,1.976,8.058,8.609,9.023,7.573,17.246s-10.6,10.383-13.146,18.367,11.751,12.353,8.866,21.044c-3.062,9.223-11.863,9.736-15.3,17.507-2.146,4.846.052,8.4,1.925,11.292A82.036,82.036,0,0,0,399.4,189.36,3.58,3.58,0,0,1,399.414,187.09Z" style="fill:#f9f9f8;opacity:0.7000000000000001"/><circle cx="355.175" cy="119.353" r="82.548" style="fill:none"/></g><g id="Dark_IMG_2" data-name="Dark IMG 2"><line x1="285.501" y1="23.689" x2="289.983" y2="19.208" style="fill:none;stroke:#fff;stroke-linecap:round;stroke-miterlimit:10"/><line x1="289.983" y1="23.689" x2="285.501" y2="19.208" style="fill:none;stroke:#fff;stroke-linecap:round;stroke-miterlimit:10"/><rect x="273.792" y="19.249" width="4.534" height="4.399" rx="0.26" transform="translate(552.119 42.897) rotate(180)" style="fill:none;stroke:#fff;stroke-linecap:round;stroke-linejoin:round"/><line x1="262.389" y1="21.449" x2="266.527" y2="21.449" style="fill:none;stroke:#fff;stroke-linecap:round;stroke-linejoin:round"/><path d="M126.668,103.2a4.2,4.2,0,1,1-4.2-4.2A4.2,4.2,0,0,1,126.668,103.2Z" style="fill:#46c021"/><path d="M122.464,99a4.2,4.2,0,1,1-4.2,4.2,4.2,4.2,0,0,1,4.2-4.2m0-.8a4.981,4.981,0,1,0,1.947.393,4.971,4.971,0,0,0-1.947-.393Z" style="fill:#298e3b"/><path d="M121.794,105.474a.47.47,0,0,1-.34-.146l-1.727-1.819a.47.47,0,1,1,.68-.648l1.386,1.46,2.727-2.895a.47.47,0,1,1,.685.644l-3.069,3.257a.469.469,0,0,1-.341.147Z" style="fill:#fff"/><path d="M125.727,165.824c-.063,0-.459.009-.459.009V165.4a2.252,2.252,0,0,0-2.321-2.175,2.29,2.29,0,0,0-2.273,1.732h-.043a2.183,2.183,0,1,0,0,4.358h5.1a1.747,1.747,0,1,0,0-3.488Z" style="fill:#fff"/><path d="M122.947,163.223a2.252,2.252,0,0,1,2.321,2.175v.435s.4-.009.459-.009a1.747,1.747,0,1,1,0,3.488h-5.1a2.183,2.183,0,1,1,0-4.358h.043a2.29,2.29,0,0,1,2.273-1.732m.018-.821a3.328,3.328,0,0,0-2.026.681,3.02,3.02,0,0,0-.892,1.1,3.232,3.232,0,0,0-1.653.825,2.872,2.872,0,0,0,0,4.23,3.263,3.263,0,0,0,2.254.878h5.1a2.789,2.789,0,0,0,1.927-.751,2.455,2.455,0,0,0,0-3.614,2.764,2.764,0,0,0-1.542-.726,3.129,3.129,0,0,0-3.165-2.626Z" style="fill:#0078d4"/></g></svg>