<?xml version="1.0" encoding="utf-8"?>
<!-- Generator: Adobe Illustrator 23.0.6, SVG Export Plug-In . SVG Version: 6.00 Build 0)  -->
<svg version="1.1" id="Layer_1" xmlns="http://www.w3.org/2000/svg" xmlns:xlink="http://www.w3.org/1999/xlink" x="0px" y="0px"
	 viewBox="0 0 376 170" style="enable-background:new 0 0 376 170;" xml:space="preserve">
<style type="text/css">
	.st0{fill:url(#SVGID_1_);}
	.st1{fill:url(#SVGID_2_);}
	.st2{fill:url(#SVGID_3_);}
	.st3{fill:#7A7673;}
	.st4{fill:#D5D5D5;}
	.st5{opacity:0.5;fill:#7A7673;}
	.st6{fill:#FFFFFF;}
	.st7{fill:#E9E9E9;}
	.st8{fill:#0080C9;}
	.st9{fill:#53DFF2;}
	.st10{fill:#27AEEA;}
	.st11{fill:#C0DFF5;}
	.st12{fill:#0063BD;}
	.st13{fill:#0077DA;}
	.st14{fill:#008FE5;}
	.st15{fill:#00A8EF;}
	.st16{fill:#FFE47D;}
	.st17{fill:#FFCC00;}
	.st18{fill:#FFD485;}
	.st19{fill:#FBE94B;}
	.st20{fill:#FAF9F8;}
	.st21{fill:#B7F4F5;}
</style>
<g>
	<g>
		<linearGradient id="SVGID_1_" gradientUnits="userSpaceOnUse" x1="116.2042" y1="201.428" x2="46.619" y2="80.9028">
			<stop  offset="0.2026" style="stop-color:#0093DC"/>
			<stop  offset="1" style="stop-color:#7AC8F1"/>
		</linearGradient>
		<path class="st0" d="M52.1,92.5c-0.6,0-1.1-0.2-1.6-0.6c-0.4-0.4-0.6-1-0.6-1.6c0-0.1,0-0.3,0-0.4c0-0.1,0.1-0.3,0.1-0.4
			c0.1-0.1,0.1-0.3,0.2-0.4c0.1-0.1,0.2-0.2,0.3-0.3c0.1-0.1,0.2-0.2,0.3-0.3s0.2-0.1,0.4-0.2c0.1-0.1,0.3-0.1,0.4-0.1
			c0.7-0.1,1.5,0.1,2,0.6c0.4,0.4,0.6,1,0.6,1.5c0,0.1,0,0.3,0,0.4c0,0.1-0.1,0.3-0.1,0.4c-0.1,0.1-0.1,0.3-0.2,0.4
			c-0.1,0.1-0.2,0.2-0.3,0.3c-0.1,0.1-0.2,0.2-0.3,0.3c-0.1,0.1-0.2,0.1-0.4,0.2c-0.1,0-0.3,0.1-0.4,0.1
			C52.4,92.5,52.2,92.5,52.1,92.5z"/>
		<linearGradient id="SVGID_2_" gradientUnits="userSpaceOnUse" x1="212.015" y1="135.199" x2="147.2025" y2="22.9405">
			<stop  offset="0.2026" style="stop-color:#0093DC"/>
			<stop  offset="1" style="stop-color:#7AC8F1"/>
		</linearGradient>
		<path class="st1" d="M63.4,79.3c-0.8-0.9-0.7-2.3,0.2-3.1l0,0c0.9-0.8,2.3-0.7,3.1,0.2l0,0c0.8,0.9,0.7,2.3-0.2,3.1l0,0
			c-0.4,0.4-0.9,0.6-1.5,0.6l0,0C64.5,80,63.9,79.8,63.4,79.3z M290.6,78.4L290.6,78.4c-0.9-0.9-0.8-2.3,0-3.1l0,0
			c0.9-0.9,2.3-0.8,3.1,0l0,0c0.9,0.9,0.9,2.3,0,3.1l0,0c-0.4,0.4-1,0.6-1.6,0.6l0,0C291.6,79,291,78.8,290.6,78.4z M77.3,67.8
			c-0.7-1-0.5-2.4,0.4-3.1l0,0c1-0.7,2.4-0.5,3.1,0.4l0,0c0.7,1,0.5,2.4-0.4,3.1l0,0c-0.4,0.3-0.9,0.4-1.3,0.4l0,0
			C78.3,68.6,77.7,68.3,77.3,67.8z M277.5,66.4L277.5,66.4c-0.9-0.8-1.1-2.2-0.3-3.1l0,0c0.8-0.9,2.2-1.1,3.1-0.3l0,0
			c0.9,0.8,1.1,2.2,0.3,3.1l0,0c-0.4,0.5-1.1,0.8-1.7,0.8l0,0C278.4,66.9,277.9,66.7,277.5,66.4z M92,57.4c-0.6-1-0.3-2.4,0.7-3l0,0
			c1-0.6,2.4-0.3,3,0.7l0,0c0.6,1,0.3,2.4-0.7,3h0c-0.4,0.2-0.8,0.3-1.2,0.3l0,0C93.2,58.5,92.4,58.1,92,57.4z M263.2,55.9
			c-1-0.7-1.3-2-0.6-3l0,0c0.7-1,2-1.3,3-0.6l0,0c0,0,0,0,0,0l0,0c1,0.7,1.3,2,0.6,3l0,0c-0.4,0.6-1.1,1-1.9,1l0,0
			C263.9,56.2,263.5,56.1,263.2,55.9z M107.7,48.5c-0.5-1.1-0.1-2.4,1-3l0,0c1.1-0.5,2.4-0.1,3,1l0,0c0.5,1.1,0.1,2.4-1,3l0,0
			c-0.3,0.1-0.6,0.2-1,0.2l0,0C108.8,49.7,108,49.3,107.7,48.5z M247.7,47.1c-1.1-0.5-1.5-1.9-1-2.9l0,0c0.5-1.1,1.9-1.5,3-1l0,0
			c1.1,0.5,1.5,1.9,1,2.9l0,0c-0.4,0.8-1.2,1.2-2,1.2l0,0C248.4,47.3,248,47.2,247.7,47.1z M124.1,41.1c-0.4-1.1,0.1-2.4,1.3-2.8
			l0,0c1.1-0.4,2.4,0.1,2.8,1.3l0,0c0.4,1.1-0.1,2.4-1.3,2.8l0,0c-0.2,0.1-0.5,0.1-0.8,0.1l0,0C125.3,42.5,124.4,42,124.1,41.1z
			 M231.4,40.2c-1.2-0.4-1.8-1.7-1.4-2.8l0,0c0.4-1.1,1.7-1.8,2.8-1.4l0,0c1.1,0.4,1.8,1.7,1.3,2.8l0,0c-0.3,0.9-1.2,1.5-2.1,1.5
			l0,0C231.9,40.3,231.6,40.3,231.4,40.2z M141.2,35.4c-0.3-1.2,0.4-2.4,1.6-2.7l0,0c1.2-0.3,2.4,0.4,2.7,1.6l0,0
			c0.3,1.2-0.4,2.4-1.6,2.7l0,0c-0.2,0-0.4,0.1-0.5,0.1l0,0C142.4,37.1,141.5,36.4,141.2,35.4z M214.3,35.3L214.3,35.3
			c-1.2-0.3-1.9-1.4-1.7-2.6l0,0c0.3-1.2,1.4-1.9,2.6-1.7l0,0c1.2,0.3,1.9,1.4,1.7,2.6l0,0c-0.2,1-1.1,1.7-2.1,1.7l0,0
			C214.6,35.4,214.5,35.4,214.3,35.3z M158.8,31.6c-0.2-1.2,0.7-2.3,1.9-2.5l0,0c1.2-0.2,2.3,0.7,2.5,1.9l0,0
			c0.2,1.2-0.7,2.3-1.9,2.5l0,0c-0.1,0-0.2,0-0.3,0l0,0C159.9,33.5,159,32.7,158.8,31.6z M196.8,32.6c-1.2-0.1-2.1-1.2-2-2.4l0,0
			c0.1-1.2,1.2-2.1,2.4-2l0,0l0,0l0,0c1.2,0.1,2.1,1.2,2,2.4l0,0c-0.1,1.1-1.1,2-2.2,2l0,0C196.9,32.6,196.8,32.6,196.8,32.6z
			 M176.8,29.9c0-1.2,0.9-2.2,2.1-2.3l0,0c1.2,0,2.2,0.9,2.3,2.1l0,0c0,1.2-0.9,2.2-2.1,2.3l0,0c0,0,0,0-0.1,0l0,0
			C177.8,32,176.8,31,176.8,29.9z"/>
		<linearGradient id="SVGID_3_" gradientUnits="userSpaceOnUse" x1="305.2835" y1="92.2463" x2="235.7546" y2="-28.1812">
			<stop  offset="0.2026" style="stop-color:#0093DC"/>
			<stop  offset="1" style="stop-color:#7AC8F1"/>
		</linearGradient>
		<path class="st2" d="M304.2,92.5c-0.1,0-0.3,0-0.4,0c-0.1,0-0.3-0.1-0.4-0.1c-0.1-0.1-0.3-0.1-0.4-0.2s-0.2-0.2-0.3-0.3
			c-0.1-0.1-0.2-0.2-0.3-0.3c-0.1-0.1-0.2-0.2-0.2-0.4c-0.1-0.1-0.1-0.3-0.1-0.4c0-0.1,0-0.3,0-0.4c0-0.6,0.2-1.1,0.6-1.5
			c0.1-0.1,0.2-0.2,0.3-0.3s0.2-0.1,0.4-0.2c0.1-0.1,0.3-0.1,0.4-0.1c0.3,0,0.6,0,0.9,0c0.1,0,0.3,0.1,0.4,0.1
			c0.1,0,0.3,0.1,0.4,0.2s0.2,0.2,0.3,0.3c0.4,0.4,0.6,1,0.6,1.5c0,0.1,0,0.3,0,0.4c0,0.1-0.1,0.3-0.1,0.4c-0.1,0.1-0.1,0.3-0.2,0.4
			c-0.1,0.1-0.2,0.2-0.3,0.3s-0.2,0.2-0.3,0.3s-0.2,0.1-0.4,0.2c-0.1,0-0.3,0.1-0.4,0.1C304.5,92.5,304.3,92.5,304.2,92.5z"/>
	</g>
	<g>
		<g>
			<path class="st3" d="M0,160.5h14l2.9-65.3H3.1c-1.7,0-3.1,1.4-3.1,3.1V160.5z"/>
			<path class="st4" d="M96.3,160.5H7V95.2h87.3c1.1,0,2,0.9,2,2V160.5z"/>
			<path class="st5" d="M119.7,170l-95.1-0.7v-8.9h95.1c2.6,0,4.8,2.1,4.8,4.8l0,0C124.5,167.9,122.3,170,119.7,170z"/>
			<rect x="11.8" y="102.1" class="st6" width="79.7" height="51.5"/>
			<path class="st3" d="M41.5,169.4L5,170c-2.7,0-5-2.2-5-4.9v-4.6h41.4c2.5,0,4.5,2,4.5,4.5v0C45.9,167.4,43.9,169.4,41.5,169.4z"
				/>
			<circle class="st7" cx="5.9" cy="165.2" r="2.2"/>
			<rect x="12.1" y="163.8" class="st7" width="6.9" height="2.8"/>
		</g>
	</g>
	<g>
		<g>
			<path class="st8" d="M363.4,160.5h-14l-2.9-65.3h13.7c1.7,0,3.1,1.4,3.1,3.1V160.5z"/>
			<path class="st9" d="M267.1,160.5h89.3V95.2h-87.3c-1.1,0-2,0.9-2,2V160.5z"/>
			<path class="st10" d="M243.7,170l95.1-0.7v-8.9h-95.1c-2.6,0-4.8,2.1-4.8,4.8l0,0C238.9,167.9,241.1,170,243.7,170z"/>
			
				<rect x="271.9" y="102.1" transform="matrix(-1 -4.489443e-11 4.489443e-11 -1 623.5052 255.6493)" class="st6" width="79.7" height="51.5"/>
			<path class="st8" d="M321.9,169.4l36.5,0.6c2.7,0,5-2.2,5-4.9v-4.6H322c-2.5,0-4.5,2-4.5,4.5v0
				C317.5,167.4,319.5,169.4,321.9,169.4z"/>
			<circle class="st11" cx="357.5" cy="165.2" r="2.2"/>
			
				<rect x="344.4" y="163.8" transform="matrix(-1 -4.497170e-11 4.497170e-11 -1 695.6056 330.3672)" class="st11" width="6.9" height="2.8"/>
		</g>
	</g>
	<g id="_x33_0_3_">
		<path class="st12" d="M186.9,33.7L203,18.3C200.4,7.8,190.8,0,179.4,0c-8.5,0-16,4.4-20.4,11C159.3,11,186.9,33.7,186.9,33.7z"/>
		<path class="st13" d="M169.5,13.9L169.5,13.9c-3-1.8-6.5-2.9-10.3-2.9c-0.1,0-0.2,0-0.2,0c-10.7,0.1-19.3,8.8-19.3,19.5
			c0,4.1,1.3,8,3.5,11.2l24.1-3l18.5-14.9L169.5,13.9z"/>
		<path class="st14" d="M203,18.3c-0.4,0-0.7,0-1.1,0c-2.2,0-4.4,0.5-6.3,1.3l0,0l-9.8,4.1L196.7,37l19.2,4.7
			c1.2-2.2,1.9-4.8,1.9-7.5C217.8,25.8,211.3,18.9,203,18.3z"/>
		<path class="st15" d="M143.3,41.6c3.5,5.1,9.4,8.4,16,8.4H202c6,0,11.3-3.4,14-8.3l-30-18L143.3,41.6z"/>
	</g>
	<g>
		<path class="st9" d="M263.7,63.1c6.8-3.1,13.8-6.4,21-9.8c1.1-0.5,0.6-0.9-0.1-1.8c-6.7-8.1-3.3-21.4-9.3-29.3
			c-0.6-0.8-1.5-0.8-2.5-0.4c-6.8,3.1-13.7,6.2-20.9,9.6c-1.1,0.5-0.6,0.8,0.1,1.8c9,12.2,3.4,21.1,9.4,28.9
			C262,63,262.7,63.6,263.7,63.1z"/>
		<polygon class="st6" points="266.9,47.7 277.7,43.1 277.3,41.4 266.4,46 		"/>
		<polygon class="st6" points="262.1,56.1 279.1,48.8 278.5,47.3 261.8,54.4 		"/>
		<polygon class="st6" points="261.2,50.1 265.3,48.4 264.9,46.7 260.8,48.4 		"/>
		<polygon class="st6" points="265.7,42 276.6,37.4 276.3,35.8 265.5,40.3 		"/>
		<polygon class="st6" points="260.1,44.5 264.2,42.7 263.9,41 259.8,42.7 		"/>
		<polygon class="st6" points="264.3,36.2 275.2,31.6 274.5,30.1 263.7,34.7 		"/>
		<polygon class="st6" points="258.7,38.6 262.8,36.9 262.1,35.4 258,37.1 		"/>
	</g>
	<g>
		<path class="st4" d="M77.9,114.7l-14.5,1L43,117c-1,0.1-1.9,0.9-2.1,1.8l-5.2,23.3c-0.1,0.5,0,1,0.4,1.3c0.4,0.2,0.8,0.3,1.2,0.3
			l34.7-2.3c0.4,0,0.8-0.2,1.2-0.5c0.5-0.3,0.8-0.8,0.9-1.4l5.2-23.3C79.5,115.3,78.9,114.6,77.9,114.7z"/>
		<path class="st4" d="M73.3,139.7l-10-24.5c-0.4-0.9-1.5-1.6-2.4-1.5l-23.6,1.6l-0.3-0.6l-0.9-1.6c-0.3-0.6-1.2-1.1-1.9-1.1
			l-3.1,0.2l-6.9,0.5c-1,0.1-1.4,0.8-1,1.7l2.1,4.4l9.6,23.5c0.2,0.5,0.7,0.9,1.2,1.2c0.4,0.2,0.8,0.3,1.2,0.3l34.7-2.3
			c0.4,0,0.8-0.2,1.2-0.5C73.5,140.6,73.5,140.2,73.3,139.7z"/>
		<path class="st5" d="M73.2,141c0.3-0.3,0.3-0.8,0.1-1.3l-9.8-24L43,117c-1,0.1-1.9,0.9-2.1,1.8l-5.2,23.3c-0.1,0.5,0,1,0.4,1.3
			c0.4,0.2,0.8,0.3,1.2,0.3l34.7-2.3c0.1,0,0.2,0,0.3,0c0.1,0,0.2-0.1,0.3-0.1C72.8,141.2,73,141.1,73.2,141
			C73.2,141,73.2,141,73.2,141z"/>
	</g>
	<g>
		<path class="st16" d="M338.5,114.7l-14.5,1l-20.5,1.4c-1,0.1-1.9,0.9-2.1,1.8l-5.2,23.3c-0.1,0.5,0,1,0.4,1.3
			c0.4,0.2,0.8,0.3,1.2,0.3l34.7-2.3c0.4,0,0.8-0.2,1.2-0.5c0.5-0.3,0.8-0.8,0.9-1.4l5.2-23.3C340.1,115.3,339.5,114.6,338.5,114.7z
			"/>
		<path class="st16" d="M333.9,139.7l-10-24.5c-0.4-0.9-1.5-1.6-2.4-1.5l-23.6,1.6l-0.3-0.6l-0.9-1.6c-0.3-0.6-1.2-1.1-1.9-1.1
			l-3.1,0.2l-6.9,0.5c-1,0.1-1.4,0.8-1,1.7l2.1,4.4l9.6,23.5c0.2,0.5,0.7,0.9,1.2,1.2c0.4,0.2,0.8,0.3,1.2,0.3l34.7-2.3
			c0.4,0,0.8-0.2,1.2-0.5C334,140.6,334.1,140.2,333.9,139.7z"/>
		<path class="st17" d="M333.7,141c0.3-0.3,0.3-0.8,0.1-1.3l-9.8-24l-20.5,1.4c-1,0.1-1.9,0.9-2.1,1.8l-5.2,23.3
			c-0.1,0.5,0,1,0.4,1.3c0.4,0.2,0.8,0.3,1.2,0.3l34.7-2.3c0.1,0,0.2,0,0.3,0c0.1,0,0.2-0.1,0.3-0.1
			C333.4,141.2,333.6,141.1,333.7,141C333.7,141,333.7,141,333.7,141z"/>
	</g>
	<g>
		<path class="st18" d="M363.2,74.9c-0.8,2.3-2.2,4.2-4.1,5.7c-0.3,0.2-0.3,0.7,0,1c1.9,1.6,3.3,3.7,4.1,6.1c0.2,0.6,1,0.6,1.2,0
			c0.8-2.4,2.2-4.5,4.1-6.1c0.3-0.3,0.3-0.7,0-1c-1.9-1.4-3.3-3.4-4.1-5.7C364.2,74.4,363.4,74.4,363.2,74.9z"/>
		<path class="st19" d="M371.8,87.7c-0.6,1.7-1.6,3.1-3,4.2c-0.2,0.2-0.3,0.5,0,0.7c1.4,1.2,2.4,2.8,3,4.5c0.2,0.4,0.8,0.4,0.9,0
			c0.6-1.8,1.6-3.3,3-4.5c0.2-0.2,0.2-0.5,0-0.7c-1.4-1-2.4-2.5-3-4.2C372.5,87.3,372,87.3,371.8,87.7z"/>
	</g>
	<g>
		
			<ellipse transform="matrix(5.251251e-02 -0.9986 0.9986 5.251251e-02 53.3634 126.8191)" class="st20" cx="93.5" cy="35.3" rx="3.6" ry="3.2"/>
		<path class="st21" d="M99.2,63.1L73,57.6c0,0,5.5-12.3,5.7-33l28.1,5.4C105.3,48.8,99.2,63.1,99.2,63.1z"/>
		
			<ellipse transform="matrix(5.251251e-02 -0.9986 0.9986 5.251251e-02 53.3634 126.8191)" class="st20" cx="93.5" cy="35.3" rx="3.6" ry="3.2"/>
		<path class="st9" d="M99.5,39.3L91,49.5l-5.5-18l-8,8.6C75.9,51.3,73,57.6,73,57.6l26.2,5.5c0,0,1.9-4.5,3.9-11.7L99.5,39.3z"/>
	</g>
</g>
</svg>
