<svg xmlns="http://www.w3.org/2000/svg" viewBox="0 0 48 62.86"><title>Artboard 151</title><g id="Layer_1" data-name="Layer 1"><path d="M48,54.966H5.093V0H30.521L48,17.054Z" style="fill:#fff"/><path d="M48,54.966H5.093V0H30.521L48,17.054Z" style="fill:#3cc1f4;opacity:0.4"/><polygon points="47.996 17.054 30.521 17.054 30.521 0.004 47.996 17.054" style="fill:#3cc1f4"/><path d="M19.9,52.047a9.091,9.091,0,1,1-9.092-9.09A9.092,9.092,0,0,1,19.9,52.047Z" style="fill:#fff"/><path d="M10.811,42.957a9.091,9.091,0,1,1-9.089,9.09,9.091,9.091,0,0,1,9.089-9.09m0-1.722a10.782,10.782,0,1,0,4.21.85,10.754,10.754,0,0,0-4.21-.85Z" style="fill:#298e3b"/><path d="M6.382,51.784l3.271,3.225q2.9-2.886,5.809-5.771" style="fill:none;stroke:#298e3b;stroke-linecap:round;stroke-linejoin:round;stroke-width:2px"/></g></svg>