<svg xmlns="http://www.w3.org/2000/svg" viewBox="0 0 48 48">
  <title>ActivityCenter_quotaGraphics_2_R7_August2016</title>
  <g id="body">
    <g>
      <g style="opacity: 0.9500000000000001">
        <rect x="17.11" y="6.86" width="5.82" height="5.82" transform="translate(3.76 -5.45) rotate(17.09)" style="fill: #4bc6eb"/>
        <polygon points="23.2 16.07 17.64 14.36 16.39 11.7 21.95 13.41 23.2 16.07" style="fill: #83d2ea"/>
        <polygon points="23.2 16.07 21.95 13.41 23.66 7.85 24.92 10.5 23.2 16.07" style="fill: #a3ddf1"/>
      </g>
      <g style="opacity: 0.9500000000000001">
        <rect x="19.69" y="0.58" width="5.82" height="5.82" transform="translate(20.93 -19.31) rotate(77.02)" style="fill: #4bc6eb"/>
        <polygon points="18.74 9.4 17.43 3.72 19.11 1.31 20.42 6.98 18.74 9.4" style="fill: #83d2ea"/>
        <polygon points="18.74 9.4 20.42 6.98 26.09 5.68 24.42 8.09 18.74 9.4" style="fill: #fff"/>
      </g>
      <g style="opacity: 0.9500000000000001">
        <rect x="11.18" y="2.11" width="5.82" height="5.82" transform="matrix(0.99, 0.15, -0.15, 0.99, 0.89, -2.02)" style="fill: #4bc6eb"/>
        <polygon points="18.18 10.77 12.42 9.91 10.78 7.47 16.54 8.33 18.18 10.77" style="fill: #83d2ea"/>
        <polygon points="18.18 10.77 16.54 8.33 17.4 2.57 19.04 5.01 18.18 10.77" style="fill: #a3ddf1"/>
      </g>
      <g style="opacity: 0.9500000000000001">
        <rect x="23.52" y="4.2" width="5.82" height="5.82" transform="translate(30.78 -19.91) rotate(84.08)" style="fill: #4bc6eb"/>
        <polygon points="21.88 12.5 21.28 6.71 23.23 4.51 23.84 10.31 21.88 12.5" style="fill: #83d2ea"/>
        <polygon points="21.88 12.5 23.84 10.31 29.63 9.71 27.67 11.9 21.88 12.5" style="fill: #a3ddf1"/>
      </g>
      <g style="opacity: 0.9500000000000001">
        <rect x="29.51" y="7.52" width="5.82" height="5.82" transform="translate(15.25 39.84) rotate(-77.55)" style="fill: #4bc6eb"/>
        <polygon points="28.51 4.56 27.26 10.24 28.95 12.64 30.21 6.96 28.51 4.56" style="fill: #83d2ea"/>
        <polygon points="28.52 4.56 30.21 6.96 35.9 8.21 34.2 5.81 28.52 4.56" style="fill: #fff"/>
      </g>
      <g style="opacity: 0.9500000000000001">
        <rect x="7.65" y="7.3" width="5.82" height="5.82" transform="translate(-2.04 2.65) rotate(-13.08)" style="fill: #4bc6eb"/>
        <polygon points="14.17 4.15 8.5 5.47 7.06 8.03 12.74 6.71 14.17 4.15" style="fill: #83d2ea"/>
        <polygon points="14.17 4.15 12.74 6.71 14.05 12.39 15.49 9.82 14.17 4.15" style="fill: #fff"/>
      </g>
      <g style="opacity: 0.9500000000000001">
        <rect x="20.09" y="6.02" width="5.82" height="5.82" transform="translate(3.64 -6.37) rotate(17.09)" style="fill: #4bc6eb"/>
        <polygon points="26.18 15.23 20.62 13.52 19.36 10.86 24.93 12.57 26.18 15.23" style="fill: #83d2ea"/>
        <polygon points="26.18 15.23 24.93 12.57 26.64 7.01 27.9 9.66 26.18 15.23" style="fill: #fff"/>
      </g>
      <g style="opacity: 0.9500000000000001">
        <rect x="32.5" y="8.91" width="5.82" height="5.82" transform="translate(42.6 -24.82) rotate(82.63)" style="fill: #4bc6eb"/>
        <polygon points="31 17.33 30.25 11.55 32.16 9.31 32.9 15.09 31 17.33" style="fill: #fff"/>
        <polygon points="31 17.33 32.9 15.09 38.68 14.34 36.78 16.58 31 17.33" style="fill: #a3ddf1"/>
      </g>
      <g style="opacity: 0.9500000000000001">
        <rect x="25.78" y="7.61" width="5.82" height="5.82" transform="translate(28.8 -20.04) rotate(70.05)" style="fill: #4bc6eb"/>
        <polygon points="25.58 16.86 23.6 11.38 24.96 8.78 26.95 14.26 25.58 16.86" style="fill: #83d2ea"/>
        <polygon points="25.58 16.86 26.95 14.26 32.43 12.27 31.06 14.87 25.58 16.86" style="fill: #a3ddf1"/>
      </g>
      <g style="opacity: 0.9500000000000001">
        <rect x="13.87" y="7.69" width="5.82" height="5.82" transform="translate(19.29 -9.09) rotate(64.99)" style="fill: #4bc6eb"/>
        <polygon points="14.24 17.18 11.78 11.9 12.91 9.19 15.37 14.47 14.24 17.18" style="fill: #83d2ea"/>
        <polygon points="14.24 17.18 15.37 14.47 20.65 12.01 19.52 14.72 14.24 17.18" style="fill: #a3ddf1"/>
      </g>
      <g style="opacity: 0.9500000000000001">
        <rect x="3.31" y="8.28" width="5.82" height="5.82" transform="translate(3.79 -1.38) rotate(18.11)" style="fill: #4bc6eb"/>
        <polygon points="9.29 17.54 3.75 15.73 2.55 13.05 8.08 14.86 9.29 17.54" style="fill: #83d2ea"/>
        <polygon points="9.29 17.54 8.08 14.86 9.89 9.33 11.1 12.01 9.29 17.54" style="fill: #fff"/>
      </g>
      <path d="M20.49,43.74C12,43.74,0,44.56,0,45.58s12.86,1.84,20.49,1.84S41,46.59,41,45.58,29,43.74,20.49,43.74Z" style="fill: #f8bdbe"/>
      <path d="M40.41,44.73c-3.14,0-7.57.46-7.57,1s4.76,1,7.57,1,7.59-.46,7.59-1S43.55,44.73,40.41,44.73Z" style="fill: #f8bdbe"/>
      <polygon points="1.68 12.13 7.04 45.58 20.52 45.58 20.52 12.13 1.68 12.13" style="fill: #e9e9e9"/>
      <polygon points="39.34 12.13 20.52 12.13 20.52 45.58 33.98 45.58 39.34 12.13" style="fill: #c7c7c7"/>
      <path d="M20.51,16.21a4.39,4.39,0,0,0,0,8.78h0V16.21Z" style="fill: #a6a5a5"/>
      <path d="M24.9,20.6a4.39,4.39,0,0,0-4.38-4.39V25A4.39,4.39,0,0,0,24.9,20.6Z" style="fill: #777677"/>
      <circle cx="20.51" cy="20.6" r="1.4" style="fill: #e9e9e9"/>
      <path d="M36.87,37.48a.53.53,0,0,1-.37-.15L20.14,21a.53.53,0,0,1,.75-.75L37.24,36.58a.53.53,0,0,1-.37.9Z" style="fill: #a6a5a5"/>
      <g style="opacity: 0.9500000000000001">
        <rect x="38.08" y="40.32" width="5.82" height="5.82" transform="translate(-2.25 84.21) rotate(-89.99)" style="fill: #4bc6eb"/>
        <polygon points="45.79 39.67 45.79 45.49 43.9 46.14 43.9 40.32 45.79 39.67" style="fill: #83d2ea"/>
        <polygon points="45.78 39.67 43.9 40.32 38.08 40.32 39.95 39.67 45.78 39.67" style="fill: #fff"/>
      </g>
    </g>
  </g>
</svg>
