<svg xmlns="http://www.w3.org/2000/svg" viewBox="0 0 48 48">
  <title>Artboard 204 copy</title>
  <g id="body">
    <g style="opacity: 0.85">
      <path d="M24,46.5a22.48,22.48,0,0,1-11.37-3.06,22.3,22.3,0,0,1-8.07-8.07,22.6,22.6,0,0,1,0-22.74,22.3,22.3,0,0,1,8.07-8.07,22.6,22.6,0,0,1,22.74,0,22.3,22.3,0,0,1,8.07,8.07,22.6,22.6,0,0,1,0,22.74,22.3,22.3,0,0,1-8.07,8.07A22.48,22.48,0,0,1,24,46.5Zm0-42a18.89,18.89,0,0,0-5.18.7,20,20,0,0,0-4.65,2,19.57,19.57,0,0,0-7,7,20.09,20.09,0,0,0-2,4.66,19.44,19.44,0,0,0,0,10.34,20.09,20.09,0,0,0,2,4.66,19.57,19.57,0,0,0,7,7,20,20,0,0,0,4.65,2,19.48,19.48,0,0,0,10.35,0,20.09,20.09,0,0,0,4.66-2,19.57,19.57,0,0,0,7-7,20,20,0,0,0,2-4.65,19.48,19.48,0,0,0,0-10.35,20.09,20.09,0,0,0-2-4.66,19.57,19.57,0,0,0-7-7,20.09,20.09,0,0,0-4.66-2A19,19,0,0,0,24,4.5ZM23,14h3v3H23Zm0,5h3V34H23Z" style="fill: #666"/>
    </g>
  </g>
</svg>
