<svg id="0526978d-eaf4-4d0c-a4c3-dd614cbcbe96" data-name="Layer 1" xmlns="http://www.w3.org/2000/svg" viewBox="0 0 16 16"><title>loading</title><path fill="white" d="M8,15a7.22,7.22,0,0,0,6.94-5.15l1,0.3a7.93,7.93,0,0,1-1.16,2.38,8.32,8.32,0,0,1-4.11,3A8.06,8.06,0,0,1,8,16a8.2,8.2,0,0,1-4-1,8.35,8.35,0,0,1-1.67-1.23A8,8,0,0,1,1,12.1V14H0V10H4v1H1.53a7.16,7.16,0,0,0,1.14,1.65A7.26,7.26,0,0,0,4.2,13.91a7.45,7.45,0,0,0,1.81.8A7,7,0,0,0,8,15ZM16,2V6H12V5h2.47a7.19,7.19,0,0,0-1.14-1.65A7.28,7.28,0,0,0,11.8,2.09,7.49,7.49,0,0,0,10,1.29,7,7,0,0,0,8,1,7.22,7.22,0,0,0,1.06,6.15l-1-.3A8,8,0,0,1,1.27,3.48,8.3,8.3,0,0,1,5.39.43,8.08,8.08,0,0,1,8,0a8.2,8.2,0,0,1,4,1,8.39,8.39,0,0,1,1.67,1.23A8,8,0,0,1,15,3.9V2h1Z"/></svg>