<svg id="Layer_1" data-name="Layer 1" xmlns="http://www.w3.org/2000/svg" viewBox="0 0 48 48"><title>OneNote</title><path d="M46,3H14a2,2,0,0,0-2,2V43a2,2,0,0,0,2,2H42a6,6,0,0,0,6-6h0V5a2,2,0,0,0-2-2Z" style="fill:#ca64ea"/><rect x="37.5" y="13.5" width="10.5" height="10.5" style="fill:#ae4bd5"/><rect x="37.5" y="24" width="10.5" height="10.5" style="fill:#9332bf"/><path d="M37.5,34.5H48V43a2,2,0,0,1-2,2H37.5V34.5Z" style="fill:#7719aa"/><path d="M25,10.5H12V39H25a2,2,0,0,0,2-2V12.5A2,2,0,0,0,25,10.5Z" style="opacity:0.10000000149011612;isolation:isolate"/><path d="M23.5,12H12V40.5H23.5a2,2,0,0,0,2-2V14A2,2,0,0,0,23.5,12Z" style="opacity:0.20000000298023224;isolation:isolate"/><path d="M23.5,12H12V37.5H23.5a2,2,0,0,0,2-2V14A2,2,0,0,0,23.5,12Z" style="opacity:0.30000001192092896;isolation:isolate"/><path d="M22,12H12V37.5H22a2,2,0,0,0,2-2V14A2,2,0,0,0,22,12Z" style="opacity:0.20000000298023224;isolation:isolate"/><path d="M2,12H22a2,2,0,0,1,2,2V34a2,2,0,0,1-2,2H2a2,2,0,0,1-2-2V14a2,2,0,0,1,2-2Z" style="fill:#7719aa"/><path d="M6,16.52H9.2l5.47,10.07c.29.43.5.78.64,1h0a14.51,14.51,0,0,1-.1-2V16.52H18v15H15L9.3,21.56a7,7,0,0,1-.58-1H8.67c.06.73.09,1.45.08,2.18v8.77H6Z" style="fill:#fff"/><rect width="48" height="48" style="fill:none"/></svg>