<svg xmlns="http://www.w3.org/2000/svg" viewBox="0 0 2048 2048">
  <path d="M1792 784v1013q0 50-20 95t-55 80-80 55-96 21h-507q35-28 67-60t59-68h376q27 0 50-10t40-27 28-41 10-50V784v-8q0-4-1-8h-388q-52 0-97-21t-80-56-54-81-20-98V129q-4-1-8-1t-8 0H512q-27 0-50 10t-40 27-28 41-10 50v505q-67 18-128 48V251q0-50 20-95t55-80 80-55 96-21h501q51 0 98 19t83 56l528 528q36 36 55 83t20 98zm-640-272q0 27 10 50t27 41 40 27 51 10h294l-422-422v294zm0 960q0 119-45 224t-124 183-183 123-224 46q-120 0-225-45t-183-123-123-183-45-225q0-119 45-224t124-183 183-123 224-46q79 0 152 20t138 58 117 91 90 117 58 137 21 153zm-256-256q0-26-19-45t-45-19H448q-26 0-45 19t-19 45q0 26 19 45t45 19h222l-335 335q-20 20-20 49t20 49 49 20q29 0 49-20l335-335v222q0 26 19 45t45 19q26 0 45-19t19-45v-384z" />
</svg>