<svg xmlns="http://www.w3.org/2000/svg" viewBox="0 0 48 37">
  <title>ActivityCenter_quotaGraphics_2_R7_August2016</title>
  <g id="body">
    <g>
      <polygon points="0 35.11 16.64 31.45 48 31.45 34.85 36.3 0 35.11" style="fill: #1ebaed;opacity: 0.9"/>
      <polygon points="16.64 31.45 0 35.11 0 21.66 16.64 13.88 16.64 31.45" style="fill: #83d2ea;opacity: 0.8"/>
      <polygon points="48 31.45 16.64 31.45 16.64 13.88 48 16.99 48 31.45" style="fill: #83d2ea;opacity: 0.9"/>
      <polygon points="34.85 27.65 0 21.66 16.64 13.88 48 16.99 34.85 27.65" style="fill: #fff"/>
      <polygon points="37.81 12.71 37.81 30.54 12.66 30.54 12.66 9.78 24.02 9.78 26.94 12.71 37.81 12.71" style="fill: #f7971d"/>
      <g>
        <rect x="18.43" y="14.56" width="0.33" height="3.91" style="fill: #fff"/>
        <rect x="16.64" y="16.35" width="3.91" height="0.33" style="fill: #fff"/>
        <rect x="16.64" y="16.35" width="3.91" height="0.33" transform="translate(-6.23 17.98) rotate(-45)" style="fill: #fff"/>
        <rect x="18.43" y="14.56" width="0.33" height="3.91" transform="translate(-6.23 17.98) rotate(-45)" style="fill: #fff"/>
      </g>
      <polygon points="6.85 17.59 32 17.59 37.81 30.54 12.66 30.54 6.85 17.59" style="fill: #f8ea6d"/>
      <polygon points="48 31.45 34.85 36.3 34.85 27.65 48 16.99 48 31.45" style="fill: #fff;opacity: 0.5"/>
      <polygon points="33.81 21.63 35.35 25.07 8.78 21.9 9.4 23.28 34.85 27.65 36.07 26.66 33.81 21.63 33.81 21.63" style="fill: #fff"/>
      <polygon points="37.81 22.01 33.81 21.63 36.07 26.66 37.81 25.25 37.81 22.01" style="fill: #fff"/>
      <polygon points="34.85 36.3 0 35.11 0 21.66 34.85 27.65 34.85 36.3" style="fill: #fff;opacity: 0.35000000000000003"/>
      <g>
        <rect x="13.02" y="1.96" width="0.33" height="3.91" style="fill: #fff"/>
        <rect x="11.23" y="3.75" width="3.91" height="0.33" style="fill: #fff"/>
        <rect x="11.23" y="3.75" width="3.91" height="0.33" transform="translate(1.1 10.47) rotate(-45)" style="fill: #fff"/>
        <rect x="13.02" y="1.96" width="0.33" height="3.91" transform="translate(1.1 10.47) rotate(-45)" style="fill: #fff"/>
      </g>
      <g>
        <rect x="6.2" y="11.09" width="0.33" height="3.91" style="fill: #fff"/>
        <rect x="4.41" y="12.88" width="3.91" height="0.33" style="fill: #fff"/>
        <rect x="4.41" y="12.88" width="3.91" height="0.33" transform="translate(-7.36 8.32) rotate(-45)" style="fill: #fff"/>
        <rect x="6.2" y="11.09" width="0.33" height="3.91" transform="translate(-7.36 8.32) rotate(-45)" style="fill: #fff"/>
      </g>
      <g>
        <rect x="24" y="4.72" width="0.33" height="3.91" style="fill: #fff"/>
        <rect x="22.21" y="6.51" width="3.91" height="0.33" style="fill: #fff"/>
        <rect x="22.21" y="6.51" width="3.91" height="0.33" transform="translate(2.36 19.04) rotate(-45)" style="fill: #fff"/>
        <rect x="24" y="4.72" width="0.33" height="3.91" transform="translate(2.36 19.04) rotate(-45)" style="fill: #fff"/>
      </g>
      <g>
        <rect x="31.54" y="11.93" width="0.33" height="3.91" style="fill: #fff"/>
        <rect x="29.75" y="13.73" width="3.91" height="0.33" style="fill: #fff"/>
        <rect x="29.75" y="13.73" width="3.91" height="0.33" transform="translate(-0.53 26.49) rotate(-45)" style="fill: #fff"/>
        <rect x="31.54" y="11.93" width="0.33" height="3.91" transform="translate(-0.53 26.49) rotate(-45)" style="fill: #fff"/>
      </g>
      <g>
        <rect x="33.17" width="0.33" height="3.91" style="fill: #fff"/>
        <rect x="31.38" y="1.79" width="3.91" height="0.33" style="fill: #fff"/>
        <rect x="31.38" y="1.79" width="3.91" height="0.33" transform="translate(8.38 24.15) rotate(-45)" style="fill: #fff"/>
        <rect x="33.17" width="0.33" height="3.91" transform="translate(8.38 24.15) rotate(-45)" style="fill: #fff"/>
      </g>
      <g>
        <rect x="40.68" y="7.5" width="0.33" height="3.91" style="fill: #fff"/>
        <rect x="38.88" y="9.3" width="3.91" height="0.33" style="fill: #fff"/>
        <rect x="38.88" y="9.3" width="3.91" height="0.33" transform="translate(5.27 31.65) rotate(-45)" style="fill: #fff"/>
        <rect x="40.68" y="7.5" width="0.33" height="3.91" transform="translate(5.27 31.65) rotate(-45)" style="fill: #fff"/>
      </g>
    </g>
  </g>
</svg>
