<svg width="16" height="16" viewBox="0 0 16 16" fill="none" xmlns="http://www.w3.org/2000/svg">
<path d="M7.1 5.75C7.1 5.50147 6.89853 5.3 6.65 5.3C6.40147 5.3 6.2 5.50147 6.2 5.75V10.25C6.2 10.4985 6.40147 10.7 6.65 10.7C6.89853 10.7 7.1 10.4985 7.1 10.25V5.75ZM9.8 5.75C9.8 5.50147 9.59853 5.3 9.35 5.3C9.10147 5.3 8.9 5.50147 8.9 5.75V10.25C8.9 10.4985 9.10147 10.7 9.35 10.7C9.59853 10.7 9.8 10.4985 9.8 10.25V5.75ZM8 2C4.68629 2 2 4.68629 2 8C2 11.3137 4.68629 14 8 14C11.3137 14 14 11.3137 14 8C14 4.68629 11.3137 2 8 2ZM2.9 8C2.9 5.18335 5.18335 2.9 8 2.9C10.8167 2.9 13.1 5.18335 13.1 8C13.1 10.8167 10.8167 13.1 8 13.1C5.18335 13.1 2.9 10.8167 2.9 8Z" fill="#1A1A1A"/>
</svg>
