<?xml version="1.0" encoding="utf-8"?>
<!-- Generator: Adobe Illustrator 23.0.2, SVG Export Plug-In . SVG Version: 6.00 Build 0)  -->
<svg version="1.1" id="Layer_1" xmlns="http://www.w3.org/2000/svg" xmlns:xlink="http://www.w3.org/1999/xlink" x="0px" y="0px"
	 viewBox="0 0 24 24" style="enable-background:new 0 0 24 24;" xml:space="preserve">
<style type="text/css">
	.st0{fill:none;}
	.st1{fill:#ED6C47;}
	.st2{fill:#FF8F6B;}
	.st3{fill:#D35230;}
	.st4{opacity:0.5;}
	.st5{opacity:0.1;}
	.st6{fill:#C43E1C;}
	.st7{fill:#FFFFFF;}
</style>
<rect class="st0" width="24" height="24"/>
<path class="st1" d="M13,1C6.9,1,2,5.9,2,12l14.8,3.8L13,1z"/>
<path class="st2" d="M13,1c6,0,11,4.9,11,11l-5.5,2.9L13,12V1z"/>
<path class="st3" d="M2,12c0,6,5,11,11,11s11-5,11-11H2z"/>
<path class="st4" d="M15,18.6V7.2C15,6.5,14.5,6,13.8,6h-10C2.7,7.7,2,9.8,2,12c0,3.1,1.3,6,3.5,8h8.1C14.3,20,15,19.3,15,18.6z"/>
<path class="st5" d="M15,18.6V7.2C15,6.5,14.5,6,13.8,6h-10C2.7,7.7,2,9.8,2,12c0,3.1,1.3,6,3.5,8h8.1C14.3,20,15,19.3,15,18.6z"/>
<path id="Back_Plate_30_" class="st6" d="M12.8,19H1.2C0.5,19,0,18.5,0,17.8V6.2C0,5.5,0.5,5,1.2,5h11.7C13.5,5,14,5.5,14,6.2v11.7
	C14,18.5,13.5,19,12.8,19z"/>
<path class="st7" d="M7.4,8c1,0,1.7,0.2,2.2,0.6c0.5,0.4,0.8,1,0.8,1.9c0,0.5-0.1,1.2-0.4,1.6c-0.3,0.4-0.6,0.7-1.1,0.9
	c-0.5,0.2-1,0.3-1.6,0.3H5.8V16H4.2V8H7.4z M5.8,12h1.3c0.5,0,0.9-0.1,1.2-0.4c0.3-0.2,0.4-0.6,0.4-1.1c0-0.9-0.5-1.3-1.5-1.3H5.8
	V12z"/>
</svg>
