<svg viewBox="0 0 16 16" fill="none" xmlns="http://www.w3.org/2000/svg">
<path d="M4.28854 16C4.03557 16 3.79315 15.9557 3.56126 15.8672C3.32938 15.7786 3.12385 15.6536 2.94466 15.4922C2.76548 15.3307 2.61792 15.1432 2.50198 14.9297C2.38603 14.7161 2.31225 14.4818 2.28063 14.2266L1.01581 3.38281C1.01054 3.34115 1.00791 3.30208 1.00791 3.26562C1.00791 3.22917 1.00527 3.1875 1 3.14062C1 2.83333 1.06588 2.54688 1.19763 2.28125C1.32938 2.01562 1.51647 1.78646 1.75889 1.59375L3.21344 0.4375C3.38735 0.302083 3.58498 0.195312 3.80632 0.117188C4.02767 0.0390625 4.25165 0 4.47826 0H11.5138C11.7352 0 11.9565 0.0390625 12.1779 0.117188C12.3992 0.195312 12.5995 0.302083 12.7787 0.4375L14.2332 1.59375C14.4704 1.78125 14.6574 2.01302 14.7945 2.28906C14.9315 2.5651 15 2.85417 15 3.15625V3.26562C15 3.30208 14.9947 3.34115 14.9842 3.38281L13.7115 14.2266C13.6798 14.4766 13.6061 14.7083 13.4901 14.9219C13.3742 15.1354 13.2266 15.3229 13.0474 15.4844C12.8682 15.6458 12.6653 15.7708 12.4387 15.8594C12.2121 15.9479 11.9671 15.9948 11.7036 16H4.28854ZM2.86561 2H13.1344L12.1462 1.21875C11.9565 1.07292 11.7457 1 11.5138 1H4.47826C4.24638 1 4.03557 1.07292 3.84585 1.21875L2.86561 2ZM11.7036 15C11.9671 15 12.191 14.9167 12.3755 14.75C12.5599 14.5833 12.6706 14.3724 12.7075 14.1172L13.9723 3.26562C13.9776 3.23958 13.9802 3.20312 13.9802 3.15625V3.07812C13.9802 3.05208 13.9776 3.02604 13.9723 3H2.01976C2.01449 3.02604 2.01186 3.05208 2.01186 3.07812C2.01186 3.10417 2.01186 3.13021 2.01186 3.15625C2.01186 3.20312 2.01449 3.23958 2.01976 3.26562L3.28459 14.1172C3.31621 14.3776 3.42424 14.5885 3.6087 14.75C3.79315 14.9115 4.01976 14.9948 4.28854 15H11.7036ZM10.0672 8.53906L8.16206 8.36719L8.70751 7.96875L7.90119 6.42188L7.16601 7.85156L6.05138 7.29688L6.58103 6.26562C6.66535 6.08854 6.80501 6 7 6H8.92885C9.12385 6 9.26614 6.08594 9.35573 6.25781L9.82213 7.13281L10.3281 6.75L10.0672 8.53906ZM5.87747 11.9922C5.78788 11.9922 5.7141 11.974 5.65613 11.9375C5.59816 11.901 5.54545 11.8568 5.49802 11.8047C5.45059 11.7526 5.4137 11.6901 5.38735 11.6172C5.361 11.5443 5.32411 11.4766 5.27668 11.4141C5.22925 11.3307 5.18182 11.25 5.13439 11.1719C5.08696 11.0938 5.03953 11.013 4.9921 10.9297C4.97628 10.9036 4.94993 10.8568 4.91304 10.7891C4.87615 10.7214 4.83663 10.6484 4.79447 10.5703C4.75231 10.4922 4.71542 10.4141 4.68379 10.3359C4.65217 10.2578 4.63636 10.1953 4.63636 10.1484C4.63636 10.0651 4.65744 9.97135 4.6996 9.86719C4.74177 9.76302 4.79183 9.65625 4.8498 9.54688C4.90777 9.4375 4.97101 9.33594 5.03953 9.24219C5.10804 9.14844 5.16074 9.07031 5.19763 9.00781L4.63636 8.57031H6.35968L6.77075 10.2422L6.09881 9.71875L5.6166 10.6797H7.22134V11.9922H5.87747ZM8.96838 12.5703L7.88538 11.1328L8.96838 9.82031V10.7109H10.3913L9.80632 9.64844L10.8735 9.02344C10.9051 9.09115 10.9473 9.17188 11 9.26562C11.0527 9.35938 11.1054 9.45573 11.1581 9.55469C11.2108 9.65365 11.2556 9.75 11.2925 9.84375C11.3294 9.9375 11.3505 10.0156 11.3557 10.0781C11.3557 10.1198 11.3505 10.1562 11.3399 10.1875C11.3294 10.2188 11.3162 10.2526 11.3004 10.2891L10.5573 11.7422C10.473 11.9089 10.3333 11.9922 10.1383 11.9922H8.96838V12.5703Z" fill="black" fill-opacity="0.8956"/>
</svg>
