<svg xmlns="http://www.w3.org/2000/svg" xmlns:xlink="http://www.w3.org/1999/xlink" viewBox="0 0 376 176"><defs><radialGradient id="radial-gradient" cx="475.631" cy="77.757" r="13.374" gradientTransform="matrix(0.988, -0.157, 0.157, 0.988, -216.943, 57.769)" gradientUnits="userSpaceOnUse"><stop offset="0.067" stop-color="#9b643d"/><stop offset="0.236" stop-color="#ac7953"/><stop offset="0.564" stop-color="#c89d77"/><stop offset="0.83" stop-color="#dab38d"/><stop offset="1" stop-color="#e0bb95"/></radialGradient><radialGradient id="radial-gradient-2" cx="232.799" cy="112.924" r="72.754" gradientTransform="translate(0 16.425) scale(1 0.855)" gradientUnits="userSpaceOnUse"><stop offset="0" stop-color="#3e8eed"/><stop offset="0.166" stop-color="#4e97ee"/><stop offset="0.445" stop-color="#62a3f0"/><stop offset="0.723" stop-color="#6eaaf1"/><stop offset="1" stop-color="#72acf1"/></radialGradient></defs><title>RDD</title><g id="Layer_14" data-name="Layer 14"><rect x="106.351" y="119.865" width="66.508" height="7.259" rx="2.436" style="fill:#28c2d1"/><rect x="109.741" y="126.975" width="20.031" height="31.261" rx="3.52" style="fill:#7bddef"/><rect x="139.914" y="126.975" width="20.031" height="31.261" rx="3.52" style="fill:#7bddef"/><path d="M196.135,97.311,81.207,103.247a1.728,1.728,0,0,1-1.871-1.539l-.243-3.986A1.688,1.688,0,0,1,80.765,96l114.929-5.936a1.727,1.727,0,0,1,1.871,1.539l.242,3.986A1.689,1.689,0,0,1,196.135,97.311Z" style="fill:#28c2d1"/><path d="M84.514,93.479,83.53,77.34a2.473,2.473,0,0,1,2.448-2.521l23.838-1.231a2.529,2.529,0,0,1,2.739,2.253l.984,16.138a2.474,2.474,0,0,1-2.448,2.522L87.253,95.732A2.529,2.529,0,0,1,84.514,93.479Z" style="fill:#7bddef"/><path d="M125.035,101.573l-13.414,15.64a1.672,1.672,0,0,0,1.431,2.72h26.829a1.673,1.673,0,0,0,1.432-2.72L127.9,101.573A1.924,1.924,0,0,0,125.035,101.573Z" style="fill:#7bddef"/><rect x="52.9" y="125.522" width="19.296" height="32.713" rx="3.534" style="fill:#28c2d1"/><rect x="52.9" y="99.578" width="19.296" height="32.713" rx="3.534" transform="translate(178.483 53.387) rotate(90)" style="fill:#7bddef"/><rect x="66.712" y="56.555" width="7.315" height="49.923" rx="1.457" style="fill:#28c2d1"/><rect x="50.254" y="56.555" width="7.315" height="49.923" rx="1.457" style="fill:#28c2d1"/><path d="M60.547,37.47,47.625,53.837A1.757,1.757,0,0,0,49,56.683H74.849a1.757,1.757,0,0,0,1.379-2.846L63.305,37.47A1.757,1.757,0,0,0,60.547,37.47Z" style="fill:#7bddef"/><circle cx="267.083" cy="78.541" r="62.725" style="fill:#b8eeee"/><rect x="180.207" y="69.79" width="15.416" height="15.416" rx="3.142" transform="translate(29.902 -50.369) rotate(16.569)" style="fill:#7bddef"/><path d="M202.4,75.786l-7.967-3.637-1.592-.735a2.154,2.154,0,0,0-1.86.814l-1.5,1.907-2.511-2.085,1.377-2.924A2.948,2.948,0,0,1,190.4,67.5l3.162-.666-3.364-.358-2.629,1.581-2.161-.255,4.869-3.393,5.25.779,8.884,6.562Z" style="fill:#bf8f68"/><path d="M289.772,36.834s6.311,24.995,14.664,32.6c8.229,7.49,18,12.936,18.462,24.053.527,12.766-11.921,14.77-19.306,15.4-17.091-9.178-28.8-43.781-28.8-43.781l7.385-13.082Z" style="fill:#59453c"/><ellipse cx="266.285" cy="41.575" rx="21.258" ry="18.704" transform="translate(-3.225 42.318) rotate(-9.032)" style="fill:#59453c"/><path d="M251.4,49.058h3.857A4.341,4.341,0,0,1,259.6,53.4v0a4.341,4.341,0,0,1-4.341,4.341H251.4a0,0,0,0,1,0,0V49.058A0,0,0,0,1,251.4,49.058Z" transform="translate(516.211 66.026) rotate(170.968)" style="fill:#e0bb95"/><path d="M290.6,40.3a21.258,21.258,0,0,1-41.989,6.674c-1.843-11.594,3.346-24.08,14.858-26.382C280.347,17.212,288.755,28.7,290.6,40.3Z" style="fill:#59453c"/><path d="M280.277,64.686l-6.014-12.66-9.255-.139,2.326,14.633a6.84,6.84,0,0,1-3.275,6.794L284.075,69.8C284.084,69.778,280.277,64.686,280.277,64.686Z" style="fill:url(#radial-gradient)"/><path d="M263.463,32.076h0a11.705,11.705,0,0,1,11.705,11.705v10.1a13.037,13.037,0,0,1-13.037,13.037h-1.314a9.06,9.06,0,0,1-9.06-9.06V43.781A11.705,11.705,0,0,1,263.463,32.076Z" transform="matrix(0.988, -0.157, 0.157, 0.988, -4.503, 41.973)" style="fill:#e0bb95"/><path d="M257.21,32.479c-.841,5.116,3.9,20.4,14.766,15.059,7.693,1.087,6.552-2.454,6.373-4.356C277.519,34.343,258.014,27.588,257.21,32.479Z" style="fill:#594539"/><path d="M255.912,43.837c-2.4,2.359-4.08,2.766-4.28,5.793-2.943-2.2-4.239-7.79-3-11.182,1.856-5.073,9.154-8.286,9.154-8.286l.562,7.244A8.807,8.807,0,0,1,255.912,43.837Z" style="fill:#594539"/><path d="M280.277,64.527s-4.844-4.942-4.388-9.417,5.954-4.776,5.954-4.776l.943,7.883Z" style="fill:#594539"/><path d="M276.267,55.292l-3.81.6L271.2,47.954a15.823,15.823,0,0,1,3.9-1.562c2.827-.449,4.4,1.564,4.776,3.931h0A4.342,4.342,0,0,1,276.267,55.292Z" style="fill:#e0bb95"/><path d="M252.282,53.7a5.247,5.247,0,0,1-1.191,2.6,1.726,1.726,0,0,0,.145,2.044c.434.509,1.318.818,2.087,1.907.747,1.058,3.551-.934,2.677-4.34C255.323,53.264,252.735,51.851,252.282,53.7Z" style="fill:#e0bb95"/><ellipse cx="257.306" cy="52.61" rx="4.621" ry="5.625" transform="translate(-5.069 41.045) rotate(-9.032)" style="fill:none;stroke:#9b643d;stroke-linecap:round;stroke-linejoin:round;stroke-width:1.86490721865479px"/><ellipse cx="257.092" cy="52.644" rx="1.289" ry="2.171" transform="translate(-5.012 39.63) rotate(-8.73)" style="fill:#33312d"/><path d="M261.611,60.683a2.5,2.5,0,0,1-.25,1.351,2.715,2.715,0,0,1-.984,1.108,2.4,2.4,0,0,1-1.513.4,2.005,2.005,0,0,1-1.286-.553.771.771,0,0,1,.18-1.244l.2-.1c.324-.165.556-.241.717-.347.17-.081.262-.16.388-.228s.262-.17.445-.3a6.36,6.36,0,0,1,.618-.47l.373-.208a.75.75,0,0,1,1.022.289A.76.76,0,0,1,261.611,60.683Z" style="fill:#bf8f68"/><path d="M274.805,69.949C260.61,73.526,255.748,88.3,258.39,104.924a34.883,34.883,0,0,0,1.866,6.977l2.438,8.136c1.7,5.657,2.6,13.859,1.688,19.622l-.394,1.529c1.026.05,2.057.078,3.1.078a62.561,62.561,0,0,0,46.8-20.98C308.082,94.585,296.555,64.47,274.805,69.949Z" style="fill:url(#radial-gradient-2)"/><circle cx="267.083" cy="78.541" r="62.725" style="fill:none"/><path d="M202.1,75.657l2-4.22s21.939,13.585,43.606,13.785c11.705.109,25.346-9.653,30.945-11.181a51.427,51.427,0,0,1,5.129-1.128c10.585-1.756,15.352,15.892,6.143,21.4-9.488,5.675-25.247,12.511-43.9,10.6C227.143,102.454,204.178,79.033,202.1,75.657Z" style="fill:#72acf1"/><polygon points="280.226 64.471 266.377 69.991 265.252 68.95 263.069 76.366 262.413 78.541 266.421 74.11 267.161 78.44 285.763 70.33 280.226 64.471" style="fill:#f3f2f1"/></g></svg>