<svg xmlns="http://www.w3.org/2000/svg" viewBox="0 0 2048 2048">
  <path d="M1352 1408q-31 0-51-22t-21-52v-268l-64 6q-32 3-64 12-85 20-159 48t-143 65-134 85-129 104q-11 9-23 14t-26 6q-32 0-53-22t-21-54v-6q23-181 80-333t157-263 242-177 337-76V202q0-30 20-51t51-22q31 0 51 20l576 566q11 11 16 25t5 30q0 30-21 51l-576 566q-21 21-50 21zm-911 512q-63 0-120-25t-99-68-68-100-26-120V569q0-63 25-120t68-99 100-68 120-26h391q26 0 45 19t19 45q0 26-19 45t-45 19H448q-39 0-74 15t-61 41-42 62-15 74v1024q0 39 15 74t41 61 62 42 74 15h1024q39 0 74-15t61-41 42-62 15-74v-128q0-26 19-45t45-19q26 0 45 19t19 45v128q0 64-24 122t-67 102-100 70-122 26H441zm967-718l441-434-441-434v260l-147 10q-130 8-248 56T805 805q-36 39-66 85t-55 98-41 104-27 106q136-108 291-171t326-86q43-6 87-8t88-7v276z" />
</svg>