<svg width="16" height="12" viewBox="0 0 16 12" fill="none" xmlns="http://www.w3.org/2000/svg">
<path d="M2 0H10.25C11.0785 0 11.75 0.671572 11.75 1.5V6.75C11.75 7.57845 11.0785 8.25 10.25 8.25H2C1.17157 8.25 0.5 7.57845 0.5 6.75V1.5C0.5 0.671572 1.17157 0 2 0ZM10.25 1.125H2C1.79289 1.125 1.625 1.29289 1.625 1.5V6.75C1.625 6.95708 1.79289 7.125 2 7.125H10.25C10.4571 7.125 10.625 6.95708 10.625 6.75V1.5C10.625 1.29289 10.4571 1.125 10.25 1.125ZM2.42227 9C2.58878 9.64695 3.17607 10.125 3.87501 10.125H10.625C12.2818 10.125 13.625 8.78183 13.625 7.125V3.37498C13.625 2.67604 13.1469 2.08876 12.5 1.92224V7.125C12.5 8.16053 11.6605 9 10.625 9H2.42227ZM4.29727 10.875C4.46378 11.5219 5.05107 12 5.75001 12H11.1875C13.5692 12 15.5 10.0692 15.5 7.6875V5.25C15.5 4.55107 15.0219 3.96376 14.375 3.79724V7.6875C14.375 9.4479 12.9479 10.875 11.1875 10.875H4.29727Z" fill="#212121"/>
</svg>
