<svg xmlns="http://www.w3.org/2000/svg" viewBox="0 0 48 32">
  <title>ActivityCenter_quotaGraphics_stackedIceCubes2_R7_August2016</title>
  <g id="body">
    <g>
      <path d="M24,27.19c-9.95,0-24,1-24,2.15s15.05,2.15,24,2.15,24-1,24-2.15S33.92,27.19,24,27.19Z" style="fill: #ffbfbf"/>
      <g style="opacity: 0.9500000000000001">
        <rect x="3.49" y="21.71" width="7.41" height="7.41" transform="translate(-18.22 32.6) rotate(-89.99)" style="fill: #99ecff"/>
        <polygon points="13.3 20.89 13.29 28.29 10.89 29.12 10.9 21.71 13.3 20.89" style="fill: #31d2f7;opacity: 0.85"/>
        <polygon points="13.28 20.89 10.9 21.71 3.49 21.71 5.88 20.88 13.28 20.89" style="fill: #fff"/>
      </g>
      <g style="opacity: 0.9500000000000001">
        <rect x="37.1" y="21.81" width="7.41" height="7.41" transform="translate(15.3 66.33) rotate(-90.01)" style="fill: #99ecff"/>
        <polygon points="34.7 20.99 34.7 28.39 37.1 29.22 37.1 21.81 34.7 20.99" style="fill: #31d2f7;opacity: 0.85"/>
        <polygon points="34.71 20.99 37.1 21.81 44.51 21.81 42.12 20.99 34.71 20.99" style="fill: #fff"/>
      </g>
      <g style="opacity: 0.9500000000000001">
        <rect x="11.99" y="21.81" width="7.41" height="7.41" transform="translate(-9.82 41.2) rotate(-89.99)" style="fill: #99ecff"/>
        <polygon points="21.22 20.99 21.22 28.39 19.4 29.22 19.4 21.81 21.22 20.99" style="fill: #31d2f7;opacity: 0.85"/>
        <polygon points="21.22 20.99 19.4 21.81 11.99 21.81 14.38 20.98 21.22 20.99" style="fill: #fff"/>
      </g>
      <g style="opacity: 0.9500000000000001">
        <rect x="28.87" y="21.81" width="7.41" height="7.41" transform="translate(7.07 58.09) rotate(-90.01)" style="fill: #99ecff"/>
        <polygon points="27.05 20.99 27.05 28.39 28.87 29.22 28.87 21.81 27.05 20.99" style="fill: #31d2f7;opacity: 0.85"/>
        <polygon points="27.05 20.99 28.87 21.81 36.27 21.81 33.89 20.98 27.05 20.99" style="fill: #fff"/>
      </g>
      <g style="opacity: 0.9500000000000001">
        <rect x="18.89" y="22.51" width="7.41" height="7.41" transform="translate(-3.63 48.8) rotate(-89.99)" style="fill: #99ecff"/>
        <polygon points="28.11 21.68 28.11 29.09 26.29 29.92 26.29 22.51 28.11 21.68" style="fill: #31d2f7;opacity: 0.85"/>
        <polygon points="28.11 21.68 26.29 22.51 18.89 22.51 21.27 21.68 28.11 21.68" style="fill: #fff"/>
      </g>
      <g style="opacity: 0.9500000000000001">
        <rect x="6.57" y="14.62" width="7.41" height="7.41" transform="translate(-8.05 28.59) rotate(-89.99)" style="fill: #99ecff"/>
        <polygon points="16.38 14.01 16.38 21.42 13.98 22.02 13.98 14.62 16.38 14.01" style="fill: #31d2f7;opacity: 0.85"/>
        <polygon points="16.38 14.01 13.98 14.62 6.57 14.62 8.97 14.01 16.38 14.01" style="fill: #fff"/>
      </g>
      <g style="opacity: 0.9500000000000001">
        <rect x="29.37" y="14.16" width="7.41" height="7.41" transform="translate(15.19 50.93) rotate(-89.99)" style="fill: #99ecff"/>
        <polygon points="38.59 13.82 38.59 21.23 36.77 21.57 36.77 14.16 38.59 13.82" style="fill: #31d2f7;opacity: 0.85"/>
        <polygon points="38.59 13.82 36.77 14.16 29.37 14.16 31.75 13.82 38.59 13.82" style="fill: #fff"/>
      </g>
      <g style="opacity: 0.9500000000000001">
        <rect x="19.25" y="14.57" width="7.41" height="7.41" transform="translate(4.69 41.23) rotate(-90.01)" style="fill: #99ecff"/>
        <polygon points="17.43 14.06 17.43 21.46 19.25 21.98 19.25 14.57 17.43 14.06" style="fill: #31d2f7;opacity: 0.85"/>
        <polygon points="17.43 14.06 19.25 14.57 26.65 14.57 24.27 14.06 17.43 14.06" style="fill: #fff"/>
      </g>
      <g style="opacity: 0.9500000000000001">
        <rect x="13.81" y="7.03" width="7.41" height="7.41" transform="translate(6.78 28.26) rotate(-90.01)" style="fill: #99ecff"/>
        <polygon points="11.99 6.84 11.99 14.2 13.81 14.44 13.81 7.04 11.99 6.84" style="fill: #31d2f7;opacity: 0.85"/>
        <polygon points="11.99 6.84 13.81 7.04 21.22 7.03 18.83 6.84 11.99 6.84" style="fill: #fff"/>
      </g>
      <g style="opacity: 0.9500000000000001">
        <rect x="23.99" y="6.83" width="7.41" height="7.41" transform="translate(17.15 38.23) rotate(-89.99)" style="fill: #99ecff"/>
        <polygon points="33.22 6.69 33.22 13.99 31.4 14.24 31.4 6.83 33.22 6.69" style="fill: #31d2f7;opacity: 0.85"/>
        <polygon points="33.22 6.69 31.4 6.83 23.99 6.83 26.38 6.69 33.22 6.69" style="fill: #fff"/>
      </g>
      <g style="opacity: 0.9500000000000001">
        <polygon points="15.89 0 15.9 7.14 23.04 7.14 23.04 0.22 15.89 0" style="fill: #99ecff"/>
        <polygon points="14.14 0.45 14.14 6.91 15.9 7.14 15.89 0 14.14 0.45" style="fill: #fff"/>
      </g>
    </g>
  </g>
</svg>
