<svg viewBox="0 0 14 14" fill="none" xmlns="http://www.w3.org/2000/svg">
<g clip-path="url(#clip0_1724_41690)">
<path d="M-0.000529867 7.0003C-0.000529867 6.35374 0.0821125 5.73392 0.247397 5.14084C0.412682 4.54776 0.646025 3.98871 0.947427 3.46369C1.24883 2.93867 1.61343 2.46712 2.04122 2.04904C2.46902 1.63097 2.943 1.26637 3.46316 0.955249C3.98332 0.644124 4.53994 0.408351 5.13302 0.247927C5.7261 0.0875037 6.34835 0.00486132 6.99977 0C7.64632 0 8.26614 0.0826424 8.85922 0.247927C9.4523 0.413212 10.0114 0.646555 10.5364 0.947957C11.0614 1.24936 11.5329 1.61396 11.951 2.04175C12.3691 2.46955 12.7337 2.94353 13.0448 3.46369C13.3559 3.98385 13.5917 4.54047 13.7521 5.13355C13.9126 5.72663 13.9952 6.34888 14.0001 7.0003C14.0001 7.64685 13.9174 8.26667 13.7521 8.85975C13.5868 9.45283 13.3535 10.0119 13.0521 10.5369C12.7507 11.0619 12.3861 11.5335 11.9583 11.9515C11.5305 12.3696 11.0565 12.7342 10.5364 13.0453C10.0162 13.3565 9.45959 13.5922 8.86651 13.7527C8.27343 13.9131 7.65118 13.9957 6.99977 14.0006C6.35321 14.0006 5.73096 13.9179 5.13302 13.7527C4.53508 13.5874 3.97846 13.354 3.46316 13.0526C2.94786 12.7512 2.47631 12.3866 2.04851 11.9588C1.62072 11.531 1.25612 11.0595 0.954719 10.5442C0.653317 10.0289 0.417543 9.46984 0.247397 8.86704C0.0772512 8.26424 -0.00539118 7.64199 -0.000529867 7.0003ZM10.7041 6.53361C10.8305 6.53361 10.9399 6.48743 11.0322 6.39506C11.1246 6.3027 11.1708 6.19332 11.1708 6.06692V3.73349C11.1708 3.6071 11.1246 3.49772 11.0322 3.40535C10.9399 3.31299 10.8305 3.2668 10.7041 3.2668C10.5777 3.2668 10.4683 3.31299 10.3759 3.40535C10.2836 3.49772 10.2374 3.6071 10.2374 3.73349V4.55019C10.0429 4.29254 9.82419 4.06406 9.58112 3.86475C9.33806 3.66543 9.07798 3.49286 8.80088 3.34702C8.52379 3.20118 8.22968 3.09423 7.91855 3.02617C7.60743 2.95811 7.29144 2.92165 6.9706 2.91679C6.56225 2.91679 6.16848 2.97513 5.7893 3.0918C5.41011 3.20847 5.0601 3.37375 4.73925 3.58765C4.41841 3.80155 4.12673 4.0592 3.86422 4.3606C3.60171 4.662 3.39024 4.99743 3.22981 5.36689C3.21037 5.41064 3.19822 5.4471 3.19335 5.47627C3.18849 5.50544 3.18363 5.54676 3.17877 5.60024C3.17877 5.76066 3.23468 5.89678 3.34649 6.00859C3.4583 6.1204 3.59684 6.17873 3.76213 6.18359C3.88852 6.18359 3.99547 6.152 4.08298 6.0888C4.17048 6.0256 4.24097 5.94053 4.29444 5.83358C4.4257 5.57107 4.58126 5.33286 4.76113 5.11897C4.941 4.90507 5.14517 4.72034 5.37365 4.56478C5.60214 4.40921 5.84763 4.29011 6.11014 4.20747C6.37266 4.12483 6.65947 4.08351 6.9706 4.08351C7.23797 4.08351 7.49805 4.11753 7.75084 4.18559C8.00363 4.25365 8.2394 4.35574 8.45816 4.49186C8.67692 4.62797 8.87623 4.78597 9.0561 4.96583C9.23597 5.1457 9.39396 5.35717 9.53008 5.60024H8.37066C8.24426 5.60024 8.13488 5.64642 8.04252 5.73878C7.95015 5.83115 7.90397 5.94053 7.90397 6.06692C7.90397 6.19332 7.95015 6.3027 8.04252 6.39506C8.13488 6.48743 8.24426 6.53361 8.37066 6.53361H10.7041ZM10.7624 8.40035C10.7624 8.23993 10.7065 8.10381 10.5947 7.992C10.4829 7.88019 10.3444 7.82186 10.1791 7.817C10.0575 7.817 9.95302 7.84859 9.86551 7.91179C9.77801 7.97499 9.70509 8.06006 9.64675 8.16701C9.5155 8.42952 9.35993 8.66773 9.18007 8.88162C9.0002 9.09552 8.79602 9.28025 8.56754 9.43581C8.33906 9.59138 8.09113 9.71048 7.82376 9.79312C7.55639 9.87576 7.272 9.91708 6.9706 9.91708C6.42613 9.91708 5.93028 9.7834 5.48303 9.51603C5.03579 9.24865 4.67849 8.87676 4.41111 8.40035H5.57054C5.69693 8.40035 5.80631 8.35417 5.89868 8.26181C5.99104 8.16944 6.03722 8.06006 6.03722 7.93367C6.03722 7.80727 5.99104 7.69789 5.89868 7.60553C5.80631 7.51316 5.69693 7.46698 5.57054 7.46698H3.23711C3.11071 7.46698 3.00133 7.51316 2.90897 7.60553C2.8166 7.69789 2.77042 7.80727 2.77042 7.93367V10.2671C2.77042 10.3935 2.8166 10.5029 2.90897 10.5952C3.00133 10.6876 3.11071 10.7338 3.23711 10.7338C3.3635 10.7338 3.47288 10.6876 3.56525 10.5952C3.65761 10.5029 3.70379 10.3935 3.70379 10.2671V9.4504C4.09756 9.97056 4.5764 10.3716 5.14031 10.6536C5.70422 10.9355 6.31432 11.0789 6.9706 11.0838C7.37895 11.0838 7.77271 11.0255 8.1519 10.9088C8.53108 10.7921 8.88109 10.6268 9.20194 10.4129C9.52279 10.199 9.81447 9.94139 10.077 9.63999C10.3395 9.33859 10.551 9.00316 10.7114 8.6337C10.7308 8.58995 10.743 8.55349 10.7478 8.52432C10.7527 8.49515 10.7576 8.45383 10.7624 8.40035Z" fill="#005FB7"/>
</g>
<defs>
<clipPath id="clip0_1724_41690">
<rect width="14" height="14" fill="white"/>
</clipPath>
</defs>
</svg>
