<svg viewBox="0 0 14 14" fill="none" xmlns="http://www.w3.org/2000/svg">
<path fill-rule="evenodd" clip-rule="evenodd" d="M7 0C3.13401 0 0 3.13401 0 7C0 10.866 3.13401 14 7 14C10.866 14 14 10.866 14 7C14 3.13401 10.866 0 7 0ZM6.12329 3.99829V7.5C6.12329 7.61963 6.14551 7.73242 6.18994 7.83838C6.23779 7.94434 6.30103 8.03833 6.37964 8.12036C6.46167 8.19897 6.55566 8.26221 6.66162 8.31006C6.76758 8.35449 6.88037 8.37671 7 8.37671C7.11963 8.37671 7.23242 8.35449 7.33838 8.31006C7.44434 8.26221 7.53662 8.19897 7.61523 8.12036C7.69727 8.03833 7.7605 7.94434 7.80493 7.83838C7.85278 7.73242 7.87671 7.61963 7.87671 7.5V3.99829C7.87671 3.87866 7.85278 3.76587 7.80493 3.65991C7.7605 3.55395 7.69727 3.46167 7.61523 3.38306C7.53662 3.30444 7.44434 3.24292 7.33838 3.19849C7.23242 3.15063 7.11963 3.12671 7 3.12671C6.88037 3.12671 6.76758 3.15063 6.66162 3.19849C6.55566 3.24292 6.46167 3.30444 6.37964 3.38306C6.30103 3.46167 6.23779 3.55395 6.18994 3.65991C6.14551 3.76587 6.12329 3.87866 6.12329 3.99829ZM5.99512 10.5762C5.93701 10.7095 5.90796 10.8513 5.90796 11.0017C5.90796 11.1521 5.93701 11.2939 5.99512 11.4272C6.05322 11.5571 6.13184 11.6716 6.23096 11.7708C6.33008 11.8699 6.44458 11.9485 6.57446 12.0066C6.70776 12.0647 6.84961 12.0938 7 12.0938C7.14697 12.0938 7.28711 12.0647 7.42041 12.0066C7.55371 11.9485 7.66992 11.8699 7.76904 11.7708C7.86816 11.6716 7.94678 11.5571 8.00488 11.4272C8.06299 11.2939 8.09204 11.1521 8.09204 11.0017C8.09204 10.8513 8.06299 10.7095 8.00488 10.5762C7.94678 10.4429 7.86816 10.3267 7.76904 10.2275C7.66992 10.1284 7.55371 10.0498 7.42041 9.9917C7.29053 9.93359 7.15039 9.90454 7 9.90454C6.84961 9.90454 6.70776 9.93359 6.57446 9.9917C6.44458 10.0498 6.33008 10.1284 6.23096 10.2275C6.13184 10.3267 6.05322 10.4429 5.99512 10.5762Z" fill="#9D5D00"/>
</svg>
