<svg viewBox="0 0 14 14" fill="none" xmlns="http://www.w3.org/2000/svg">
<path d="M0 7C0 6.35833 0.0826389 5.74097 0.247917 5.14792C0.413194 4.55486 0.648958 3.99583 0.955208 3.47083C1.26146 2.94583 1.62604 2.47431 2.04896 2.05625C2.47188 1.63819 2.94583 1.27361 3.47083 0.9625C3.99583 0.651389 4.55243 0.415625 5.14063 0.255208C5.72882 0.0947917 6.34861 0.00972222 7 0C7.64167 0 8.25903 0.0826389 8.85208 0.247917C9.44514 0.413194 10.0017 0.648958 10.5219 0.955208C11.042 1.26146 11.516 1.62847 11.9438 2.05625C12.3715 2.48403 12.7361 2.95556 13.0375 3.47083C13.3389 3.98611 13.5747 4.54271 13.7448 5.14063C13.9149 5.73854 14 6.35833 14 7C14 7.64167 13.9174 8.25903 13.7521 8.85208C13.5868 9.44514 13.351 10.0042 13.0448 10.5292C12.7385 11.0542 12.374 11.5257 11.951 11.9438C11.5281 12.3618 11.0542 12.7264 10.5292 13.0375C10.0042 13.3486 9.44757 13.5844 8.85938 13.7448C8.27118 13.9052 7.65139 13.9903 7 14C6.35347 14 5.73368 13.9174 5.14063 13.7521C4.54757 13.5868 3.99097 13.351 3.47083 13.0448C2.95069 12.7385 2.47917 12.374 2.05625 11.951C1.63333 11.5281 1.26875 11.0566 0.9625 10.5365C0.65625 10.0163 0.420486 9.45729 0.255208 8.85938C0.0899306 8.26146 0.00486111 7.64167 0 7ZM10.3833 5.13333C10.3833 4.96806 10.3274 4.82951 10.2156 4.71771C10.1038 4.6059 9.96528 4.55 9.8 4.55C9.63472 4.55 9.49618 4.6059 9.38438 4.71771L6.06667 8.04271L4.61563 6.58438C4.50382 6.47257 4.36528 6.41667 4.2 6.41667C4.03472 6.41667 3.89618 6.47257 3.78438 6.58438C3.67257 6.69618 3.61667 6.83472 3.61667 7C3.61667 7.07292 3.63125 7.14583 3.66042 7.21875C3.68958 7.29167 3.7309 7.35729 3.78438 7.41563L5.65104 9.28229C5.70451 9.33576 5.76771 9.37708 5.84063 9.40625C5.91354 9.43542 5.98889 9.45 6.06667 9.45C6.13958 9.45 6.2125 9.43542 6.28542 9.40625C6.35833 9.37708 6.42396 9.33576 6.48229 9.28229L10.2156 5.54896C10.3274 5.43715 10.3833 5.29861 10.3833 5.13333Z" fill="#0F7B0F"/>
</svg>
