<?xml version="1.0" encoding="utf-8"?>
<!-- Generator: Adobe Illustrator 23.0.6, SVG Export Plug-In . SVG Version: 6.00 Build 0)  -->
<svg version="1.1" id="Layer_1" xmlns="http://www.w3.org/2000/svg" xmlns:xlink="http://www.w3.org/1999/xlink" x="0px" y="0px"
	 viewBox="0 0 179.5 110" style="enable-background:new 0 0 179.5 110;" xml:space="preserve">
<style type="text/css">
	.st0{fill:#FFFFFF;}
	.st1{fill:#869FB2;}
	.st2{fill:#E9E9E9;}
	.st3{opacity:0.5;fill:#7A7673;enable-background:new    ;}
	.st4{fill:#606060;}
	.st5{opacity:0.7;}
	.st6{fill:#323130;}
	.st7{fill:none;stroke:#323130;stroke-width:0.6261;stroke-miterlimit:10;}
	.st8{fill:none;stroke:#323130;stroke-width:0.7004;stroke-miterlimit:10;}
	.st9{fill:#D5D5D5;}
	.st10{fill:url(#SVGID_1_);}
	.st11{fill:url(#SVGID_2_);}
	.st12{fill:url(#SVGID_3_);}
	.st13{opacity:0.3;fill:#C7C5C3;enable-background:new    ;}
	.st14{opacity:0.7;fill:#FFFFFF;enable-background:new    ;}
	.st15{opacity:0.85;fill:#FFFFFF;enable-background:new    ;}
	.st16{opacity:0.5;fill:#FFFFFF;enable-background:new    ;}
	.st17{fill:url(#SVGID_4_);}
	.st18{fill:none;stroke:#FFFFFF;stroke-width:0.75;stroke-miterlimit:10;}
	.st19{fill:none;stroke:#FFFFFF;stroke-width:0.75;stroke-linejoin:round;stroke-miterlimit:10;}
	
		.st20{opacity:0.5;fill:none;stroke:#FFFFFF;stroke-width:0.75;stroke-linejoin:round;stroke-miterlimit:10;enable-background:new    ;}
</style>
<rect class="st0" width="159.8" height="98.4"/>
<rect x="0.3" y="90.4" class="st1" width="179.2" height="19.6"/>
<rect x="20.1" y="61.7" class="st2" width="139.3" height="28.5"/>
<rect x="84.9" y="15.9" class="st2" width="74.4" height="23.9"/>
<path class="st3" d="M144.8,29.5H93l0,0v-3.3h51.9C144.8,26.2,144.8,29.5,144.8,29.5z"/>
<g>
	<path class="st0" d="M149.6,46.4c-0.1,0-0.1,0-0.2,0c-0.1-0.1-0.3-0.2-0.3-0.3l-2.9-6.4l-3.9,3.8c-0.1,0.1-0.3,0.2-0.4,0.2
		c-0.1,0-0.2,0-0.2,0c-0.2-0.1-0.4-0.3-0.4-0.5V25.4c0-0.3,0.3-0.6,0.6-0.6s0.5,0,13.3,12.4c0.2,0.2,0.2,0.4,0.1,0.6
		c-0.1,0.2-0.3,0.4-0.5,0.4h-4.6l2.8,6.1c0.1,0.1,0.1,0.3,0,0.4c-0.1,0.1-0.2,0.3-0.3,0.3l-2.8,1.3
		C149.8,46.3,149.7,46.4,149.6,46.4z"/>
	<path class="st4" d="M141.9,25.4c0.2,0,12.9,12.3,12.9,12.3h-5.5l3.2,6.9l-2.8,1.3l-3.3-7.1l-4.5,4.3L141.9,25.4L141.9,25.4
		 M141.9,24.2c-0.6,0-1.2,0.5-1.2,1.2V43c0,0.5,0.3,0.9,0.7,1.1c0.1,0.1,0.3,0.1,0.4,0.1c0.3,0,0.6-0.1,0.8-0.3l3.3-3.2l2.6,5.7
		c0.2,0.4,0.6,0.7,1,0.7c0.2,0,0.3,0,0.5-0.1l2.8-1.3c0.6-0.3,0.8-0.9,0.6-1.5l-2.4-5.3h3.7c0.5,0,0.9-0.3,1.1-0.7
		c0.2-0.4,0.1-0.9-0.3-1.3C142.6,24.2,142.5,24.2,141.9,24.2L141.9,24.2z"/>
</g>
<g>
	<path class="st2" d="M21.9,4.6h135.8v84H21.9V4.6 M20.1,2.9v87.5h139.3V2.9H20.1L20.1,2.9z"/>
</g>
<g class="st5">
	<circle class="st6" cx="129.9" cy="76.2" r="1.1"/>
	<circle class="st6" cx="136.6" cy="76.2" r="1.1"/>
	<circle class="st6" cx="143.6" cy="76.2" r="1.1"/>
</g>
<g class="st5">
	<circle class="st7" cx="90.1" cy="76.6" r="6.3"/>
	<path class="st7" d="M87.3,76.6c0,5.3,2.8,6.3,2.8,6.3s2.8-0.9,2.8-6.3c0-5.3-2.8-6.3-2.8-6.3S87.3,71.3,87.3,76.6z"/>
	<line class="st7" x1="96.1" y1="74.4" x2="84.2" y2="74.4"/>
	<line class="st7" x1="96" y1="78.8" x2="84.5" y2="78.8"/>
</g>
<g class="st5">
	<path class="st8" d="M55,81.8H40.6V71.4h7.9l1.2,1.2c0.3,0.3,0.7,0.5,1.1,0.5h4.1L55,81.8z"/>
	<path class="st8" d="M55,73.1v-1.8c0-0.6-0.5-1.1-1.1-1.1h-3.2c-0.4,0-0.9,0.2-1.2,0.5l-0.9,0.9"/>
</g>
<path class="st2" d="M138.2,51.6H93.1l0,0v-3.3l0,0h45.1l0,0V51.6C138.3,51.6,138.2,51.6,138.2,51.6z"/>
<g>
	<path class="st9" d="M87,2.2h70.1v57.5H87V2.2 M84.9,0.1V62h74.4V0.1H84.9L84.9,0.1z"/>
</g>
<linearGradient id="SVGID_1_" gradientUnits="userSpaceOnUse" x1="1674.673" y1="-8408.6094" x2="1674.673" y2="-8389.0645" gradientTransform="matrix(-1 0 0 1 1764.473 8412.6641)">
	<stop  offset="0" style="stop-color:#FFFFFF"/>
	<stop  offset="1" style="stop-color:#FFFFFF;stop-opacity:0"/>
</linearGradient>
<polygon class="st10" points="159.8,23.6 19.8,23.6 19.8,4.1 159.8,4.1 "/>
<linearGradient id="SVGID_2_" gradientUnits="userSpaceOnUse" x1="1724.8149" y1="-8072.0537" x2="1724.8149" y2="-8051.8813" gradientTransform="matrix(-6.123234e-17 1 1 6.123234e-17 8072.0137 -1624.615)">
	<stop  offset="0" style="stop-color:#FFFFFF"/>
	<stop  offset="1" style="stop-color:#869FB2;stop-opacity:0"/>
</linearGradient>
<polygon class="st11" points="20.1,90.4 20.1,110 0,110 0,90.4 "/>
<linearGradient id="SVGID_3_" gradientUnits="userSpaceOnUse" x1="1724.8149" y1="-7931.9531" x2="1724.8149" y2="-7912.127" gradientTransform="matrix(6.123234e-17 -1 -1 -6.123234e-17 -7752.4136 1825.015)">
	<stop  offset="0" style="stop-color:#FFFFFF"/>
	<stop  offset="1" style="stop-color:#869FB2;stop-opacity:0"/>
</linearGradient>
<polygon class="st12" points="159.7,110 159.7,90.4 179.5,90.4 179.5,110 "/>
<rect x="75.8" y="90.4" class="st13" width="28" height="19.6"/>
<g>
	<path class="st14" d="M88,98.1L88,98.1c-0.5-0.3-1.2-0.5-2-0.5l0,0c-2,0-3.6,1.6-3.6,3.7c0,0.8,0.2,1.5,0.7,2.1l4.8-0.8l3.3-2.6
		L88,98.1z"/>
	<path class="st15" d="M94.3,99c-0.1,0-0.1,0-0.2,0c-0.4,0-0.9,0.1-1.2,0.2l0,0l-1.8,0.8l2.1,2.6l3.6,0.8c0.2-0.4,0.3-0.9,0.3-1.4
		C97.2,100.4,95.9,99.1,94.3,99z"/>
	<path class="st16" d="M86.1,97.6L86.1,97.6c0.8,0,1.4,0.2,2,0.5l0,0l3,1.8l0,0l1.8-0.8l0,0c0.3-0.1,0.8-0.2,1.2-0.2
		c0.1,0,0.1,0,0.2,0l0,0c-0.5-2-2.3-3.5-4.5-3.5C88.3,95.5,86.8,96.3,86.1,97.6L86.1,97.6z"/>
	<path class="st0" d="M91.1,100l-8,3.4c0.7,1,1.7,1.5,3,1.5h8c1.1,0,2.2-0.7,2.6-1.5L91.1,100z"/>
</g>
<rect class="st0" width="179.5" height="4.2"/>
<linearGradient id="SVGID_4_" gradientUnits="userSpaceOnUse" x1="115.6722" y1="102.7796" x2="115.6722" y2="106.0796" gradientTransform="matrix(1 0 0 -1 0 112)">
	<stop  offset="1.711310e-02" style="stop-color:#E9E9E9;stop-opacity:0.85"/>
	<stop  offset="0.445" style="stop-color:#EDEDED;stop-opacity:0.4799"/>
	<stop  offset="0.8281" style="stop-color:#F7F7F7;stop-opacity:0.1487"/>
	<stop  offset="1" style="stop-color:#FFFFFF;stop-opacity:0"/>
</linearGradient>
<path class="st17" d="M138.2,9.2H93.1l0,0V5.9l0,0h45.1l0,0V9.2C138.3,9.2,138.2,9.2,138.2,9.2z"/>
<g>
	<g>
		<rect x="117.2" y="96.6" class="st16" width="10.5" height="7.2"/>
		<rect x="117.2" y="96.6" class="st18" width="10.5" height="7.2"/>
		<line class="st18" x1="119.5" y1="105.3" x2="125.4" y2="105.3"/>
		<line class="st18" x1="122.5" y1="103.7" x2="122.5" y2="105.3"/>
	</g>
	<polyline class="st18" points="115.6,95.2 115.6,98.5 118.8,98.5 118.8,95.2 	"/>
	<line class="st18" x1="117.2" y1="94.7" x2="117.2" y2="106.1"/>
</g>
<g>
	<path class="st19" d="M150.7,102.9c1.2-1.2,1.2-3.1,0-4.2"/>
	<path class="st20" d="M152.4,104.6c2.1-2.1,2.1-5.4,0-7.5"/>
	<polygon class="st0" points="145.9,98.4 145.9,102.9 148.9,105.5 148.9,95.9 	"/>
	<rect x="143.1" y="98.4" class="st0" width="1.9" height="4.5"/>
</g>
</svg>
