<?xml version="1.0" encoding="utf-8"?>
<!-- Generator: Adobe Illustrator 23.0.2, SVG Export Plug-In . SVG Version: 6.00 Build 0)  -->
<svg version="1.1" id="Layer_1" xmlns="http://www.w3.org/2000/svg" xmlns:xlink="http://www.w3.org/1999/xlink" x="0px" y="0px"
	 viewBox="0 0 24 24" style="enable-background:new 0 0 24 24;" xml:space="preserve">
<style type="text/css">
	.st0{fill:none;}
	.st1{fill:#41A5EE;}
	.st2{fill:#2B7CD3;}
	.st3{fill:#185ABD;}
	.st4{fill:#103F91;}
	.st5{opacity:0.5;}
	.st6{fill:#FFFFFF;}
</style>
<g id="_x32_4_4_">
	<rect class="st0" width="24" height="24"/>
	<path class="st1" d="M24,7l0-5c0-0.6-0.4-1-1-1H7C6.4,1,6,1.4,6,2l0,5l9,2L24,7z"/>
	<polygon class="st2" points="24,7 6,7 6,12 15.5,14 24,12 	"/>
	<polygon class="st3" points="24,12 6,12 6,17 15,18.5 24,17 	"/>
	<path class="st4" d="M24,17L6,17l0,5c0,0.6,0.4,1,1,1l16,0c0.6,0,1-0.4,1-1L24,17z"/>
	<path class="st5" d="M13.8,6H6v14h7.6c0.7,0,1.4-0.7,1.4-1.4V7.2C15,6.5,14.5,6,13.8,6z"/>
	<path id="Back_Plate_40_" class="st3" d="M12.8,19H1.2C0.5,19,0,18.5,0,17.8V6.2C0,5.5,0.5,5,1.2,5h11.7C13.5,5,14,5.5,14,6.2v11.7
		C14,18.5,13.5,19,12.8,19z"/>
	<path id="Letter_24_" class="st6" d="M10.2,16H8.7L7,10.5L5.3,16H3.8L2.2,8h1.4l1.1,5.6l1.7-5.4h1.2l1.6,5.4L10.4,8h1.4L10.2,16z"
		/>
</g>
</svg>
