<svg width="250" height="70" viewBox="0 0 250 70" fill="none" xmlns="http://www.w3.org/2000/svg">
<path d="M25.6867 39.1446L26.0078 41.765C26.0125 41.802 26.025 41.8377 26.0442 41.8697C26.0635 41.9017 26.0892 41.9293 26.1198 41.9508C26.1503 41.9723 26.185 41.9873 26.2217 41.9947C26.2583 42.0021 26.296 42.0017 26.3325 41.9938L28.1114 41.6026C28.1756 41.5876 28.232 41.5497 28.2701 41.496C28.3082 41.4423 28.3252 41.3765 28.3181 41.311L27.986 38.4175C27.9826 38.3756 27.9692 38.3352 27.9469 38.2995C27.9246 38.2639 27.8941 38.2342 27.8579 38.2128C27.8217 38.1915 27.7809 38.1792 27.739 38.1769C27.6971 38.1746 27.6552 38.1824 27.6169 38.1997L25.8454 38.8604C25.7907 38.8829 25.7453 38.9233 25.7166 38.9748C25.6877 39.0264 25.6772 39.0863 25.6867 39.1446Z" fill="#EF8F95"/>
<path d="M11 56.7874C11 56.7874 12.5991 57.3086 13.6142 60.1848L16.002 59.1615C15.6098 57.5001 14.6495 56.0281 13.2868 55L11 56.7874Z" fill="#3CC1F4"/>
<path d="M15.8169 15C15.8169 15 15.0072 17.1629 11 18.3737L12.267 21.7136C14.5703 21.2713 16.6466 20.0382 18.1372 18.2275L15.8169 15Z" fill="#FFD590"/>
<path d="M159 65.3594C159 65.3594 160.575 64.3921 163.706 65.5979L164.557 62.8849C162.892 62.0331 160.984 61.7865 159.157 62.1875L159 65.3594Z" fill="#EF8F95"/>
<path d="M169.006 40.8359L169.615 45.8055C169.624 45.8758 169.648 45.9434 169.685 46.0041C169.721 46.0648 169.77 46.1172 169.828 46.158C169.886 46.1988 169.952 46.2272 170.021 46.2412C170.09 46.2552 170.162 46.2546 170.231 46.2395L173.605 45.4975C173.727 45.4692 173.834 45.3973 173.906 45.2954C173.978 45.1936 174.011 45.0688 173.997 44.9446L173.367 39.457C173.361 39.3776 173.335 39.3009 173.293 39.2333C173.251 39.1658 173.193 39.1094 173.124 39.0689C173.056 39.0285 172.978 39.0051 172.899 39.0007C172.819 38.9964 172.74 39.0112 172.667 39.0441L169.307 40.297C169.204 40.3397 169.118 40.4162 169.063 40.514C169.008 40.6119 168.988 40.7253 169.006 40.8359Z" fill="#F7B547"/>
<path d="M220.333 35.8412C220.333 35.8412 220.299 34.1596 222.682 32.2549L220.93 30.3367C219.49 31.2535 218.416 32.6445 217.893 34.2697L220.333 35.8412Z" fill="#3CC1F4"/>
<path d="M184 13.7361C184 13.7361 185.743 12.6657 189.208 14L190.144 10.9778C188.303 10.0338 186.189 9.7625 184.169 10.2111L184 13.7361Z" fill="#DAD7F6"/>
<path d="M52.0026 60.1162L52.3792 63.1541C52.3843 63.1969 52.398 63.2379 52.4198 63.2752C52.4421 63.3124 52.4711 63.3445 52.5062 63.3693C52.5413 63.3945 52.5815 63.4116 52.6235 63.4202C52.6658 63.4288 52.7095 63.4288 52.7514 63.4193L54.8137 62.9701C54.889 62.9538 54.9553 62.9102 55.0002 62.8477C55.0452 62.7853 55.0657 62.7087 55.0576 62.6321L54.6725 59.2776C54.6665 59.2297 54.6498 59.1844 54.6237 59.1437C54.5976 59.1035 54.5625 59.0697 54.521 59.0449C54.48 59.0201 54.4338 59.0051 54.3858 59.0012C54.3379 58.997 54.2896 59.0038 54.2446 59.0209L52.1952 59.7868C52.131 59.8129 52.0775 59.8591 52.0429 59.9186C52.0078 59.9785 51.9937 60.0478 52.0026 60.1162Z" fill="#F7B547"/>
<path d="M226.757 14.3695L229.248 17.6682C229.283 17.7147 229.327 17.7535 229.378 17.7823C229.429 17.8108 229.485 17.8287 229.542 17.8341C229.6 17.8399 229.659 17.8327 229.714 17.8144C229.769 17.7958 229.82 17.7664 229.863 17.7271L231.972 15.8091C232.049 15.7392 232.097 15.6434 232.107 15.54C232.117 15.4366 232.09 15.3332 232.029 15.2491L229.313 11.5859C229.274 11.5339 229.224 11.4922 229.166 11.4622C229.108 11.4328 229.044 11.417 228.979 11.416C228.914 11.4147 228.85 11.4284 228.791 11.4562C228.732 11.4836 228.68 11.5242 228.639 11.5746L226.76 13.8542C226.702 13.9281 226.671 14.0182 226.67 14.1112C226.67 14.2049 226.7 14.2955 226.757 14.3695Z" fill="#F7B547"/>
<path d="M56.0018 11.7514L56.2535 13.7816C56.2566 13.8101 56.266 13.8377 56.2806 13.8623C56.2955 13.887 56.3152 13.9083 56.3387 13.9248C56.3621 13.9413 56.389 13.9526 56.417 13.958C56.4453 13.9634 56.4742 13.9627 56.5022 13.956L57.8833 13.6558C57.9331 13.6442 57.9768 13.6148 58.0063 13.5732C58.0357 13.5316 58.0489 13.4806 58.0435 13.4299L57.7861 11.1881C57.7833 11.1557 57.773 11.1244 57.7555 11.0968C57.7384 11.0692 57.7149 11.0461 57.6869 11.0293C57.6592 11.0126 57.6274 11.0027 57.5951 11.0005C57.5625 10.9983 57.5302 11.0037 57.5002 11.0165L56.1276 11.5312C56.0853 11.549 56.0501 11.5802 56.0276 11.62C56.0047 11.6598 55.9958 11.706 56.0018 11.7514Z" fill="#3CC1F4"/>
<path d="M230.377 55.6722L231.61 57.3046C231.627 57.3277 231.649 57.3468 231.674 57.3609C231.699 57.3748 231.727 57.3834 231.756 57.3859C231.784 57.3885 231.813 57.3848 231.84 57.3755C231.867 57.366 231.892 57.351 231.913 57.3312L232.959 56.3807C232.996 56.3457 233.019 56.2984 233.024 56.2477C233.029 56.1969 233.015 56.1462 232.985 56.105L231.641 54.2922C231.622 54.2655 231.598 54.2436 231.569 54.2284C231.54 54.2131 231.508 54.2048 231.476 54.2043C231.443 54.2037 231.411 54.211 231.382 54.2252C231.352 54.2396 231.327 54.2605 231.307 54.2866L230.376 55.4186C230.348 55.4552 230.334 55.4998 230.334 55.5455C230.334 55.5914 230.349 55.6358 230.377 55.6722Z" fill="#EF8F95"/>
<path d="M197.204 24.1758L198.435 25.8096C198.452 25.8324 198.475 25.8511 198.5 25.8649C198.525 25.8785 198.553 25.887 198.582 25.8897C198.611 25.8922 198.64 25.8888 198.667 25.8798C198.694 25.871 198.72 25.8564 198.741 25.8373L199.783 24.8857C199.821 24.8513 199.845 24.8038 199.849 24.7527C199.854 24.7019 199.84 24.651 199.809 24.61L198.468 22.7958C198.449 22.7699 198.424 22.749 198.395 22.7344C198.366 22.72 198.335 22.7124 198.302 22.7119C198.27 22.7117 198.239 22.7187 198.21 22.7328C198.181 22.7468 198.155 22.7674 198.136 22.7927L197.203 23.9222C197.175 23.9587 197.16 24.0033 197.161 24.0493C197.161 24.0951 197.176 24.1394 197.204 24.1758Z" fill="#EF8F95"/>
<path d="M50.6899 30.4806C50.6899 30.4806 52.4514 30.5578 54.2814 33.18L56.406 31.4643C55.5416 29.8999 54.1582 28.6861 52.4943 28.033L50.6899 30.4806Z" fill="#FFD590"/>
<path d="M192.489 57.297C192.489 57.297 194.248 57.4257 196.003 60.0964L198.176 58.4523C197.358 56.8607 196.008 55.6054 194.362 54.9037L192.489 57.297Z" fill="#3CC1F4"/>
<path d="M66.996 44.6241C66.2198 37.0823 64.7853 29.6223 62.709 22.3287C62.6416 22.1061 62.5204 21.9033 62.3562 21.7382C62.1919 21.5731 61.9895 21.4506 61.7667 21.3815C61.9533 21.5521 62.0894 21.7705 62.1602 22.0128C64.2365 29.3064 65.6709 36.7665 66.4472 44.3083C66.4734 44.6463 66.373 44.982 66.1654 45.2507C65.9579 45.5194 65.6578 45.7019 65.3231 45.7632C57.9644 47.063 50.5986 48.3629 43.2259 49.6629C43.064 49.6922 42.8979 49.6884 42.7376 49.6518C42.8691 49.7885 43.033 49.8901 43.2143 49.9473C43.3955 50.0044 43.5882 50.0152 43.7747 49.9788C51.1472 48.6792 58.513 47.3793 65.872 46.079C66.2067 46.0178 66.5067 45.8352 66.7143 45.5665C66.9219 45.2979 67.0222 44.9621 66.996 44.6241V44.6241Z" fill="#737373"/>
<path d="M43.2258 49.6631C50.5988 48.3635 57.9645 47.0636 65.3231 45.7633C65.6577 45.7021 65.9578 45.5195 66.1654 45.2509C66.3729 44.9822 66.4733 44.6465 66.4471 44.3084C65.6709 36.7666 64.2364 29.3066 62.1601 22.013C62.0619 21.6865 61.8493 21.4061 61.5609 21.2229C61.2725 21.0396 60.9277 20.9658 60.5892 21.0148L38.9417 24.8807C38.7837 24.9081 38.6333 24.9684 38.5004 25.0578C38.3675 25.1472 38.2551 25.2636 38.1706 25.3993C38.0861 25.5351 38.0314 25.6872 38.0101 25.8455C37.9888 26.0038 38.0013 26.1649 38.047 26.3181C39.9761 33.6357 41.2598 41.1073 41.8836 48.6476C41.8977 48.8848 41.9885 49.111 42.1425 49.2923C42.2964 49.4737 42.5052 49.6005 42.7375 49.6538C42.898 49.6897 43.0641 49.6929 43.2258 49.6631ZM43.6254 47.5686C43.6254 47.5574 43.6229 47.5467 43.6218 47.5355C43.4775 45.9799 43.3036 44.4252 43.1 42.8715C42.3982 37.4587 41.3562 32.0952 39.9802 26.8125C46.8594 25.5668 53.7321 24.3221 60.5982 23.0784C61.282 25.5309 61.8913 27.9926 62.4262 30.4636C63.3865 34.8706 64.1155 39.3245 64.6101 43.8072C57.6221 45.061 50.6271 46.3148 43.6254 47.5686Z" fill="white"/>
<path d="M52.9316 41.2483C55.3744 38.4251 56.3773 34.9684 58.2395 32.7323C56.5566 33.0336 54.8721 33.3349 53.1858 33.636C52.7574 33.7101 52.3174 33.6808 51.9026 33.5506C51.4879 33.4203 51.1105 33.193 50.8021 32.8875C50.4042 32.4987 50.13 32.0016 50.0138 31.4585C49.9329 31.1241 49.9206 30.7768 49.9776 30.4376C50.0347 30.0983 50.1599 29.774 50.3458 29.4842C50.5317 29.1943 50.7744 28.9449 51.0595 28.7508C51.3445 28.5567 51.6659 28.4219 52.0044 28.3546C52.1903 27.8473 52.5071 27.3978 52.923 27.0513C53.3388 26.7049 53.839 26.4739 54.373 26.3816C55.1244 26.2613 55.8947 26.3814 56.5734 26.7244C57.2521 27.0675 57.8043 27.6159 58.1508 28.291C58.7106 28.2374 59.2709 28.389 59.7265 28.7175C60.1821 29.046 60.5018 29.5288 60.6257 30.0754C60.6854 30.3471 60.692 30.6277 60.6452 30.9019C61.0437 30.7383 61.4586 30.6179 61.8829 30.5426C62.0725 30.5088 62.2525 30.4843 62.427 30.4649C61.89 27.9949 61.2806 25.5332 60.5991 23.0797C53.7322 24.3225 46.8591 25.5667 39.98 26.8124C41.356 32.0951 42.3979 37.4586 43.0997 42.8714C45.2501 40.9267 46.7863 39.4355 48.3889 39.148C49.8988 38.8814 51.2522 39.9687 52.9316 41.2483ZM45.6579 37.585C45.5171 37.6092 45.3729 37.6055 45.2336 37.5741C45.0942 37.5426 44.9625 37.484 44.846 37.4017C44.7294 37.3194 44.6303 37.2149 44.5544 37.0943C44.4785 36.9737 44.4273 36.8393 44.4037 36.6989C44.3533 36.414 44.4168 36.1208 44.5808 35.8821C44.6605 35.7643 44.7632 35.6637 44.8828 35.5863C45.0023 35.5089 45.1363 35.4563 45.2767 35.4315L46.3204 35.245C46.4332 34.9315 46.6269 34.6532 46.8822 34.4381C47.1374 34.2231 47.445 34.0789 47.774 34.0201C48.2833 33.9323 48.8068 34.0484 49.2306 34.3432C49.6544 34.638 49.9442 35.0877 50.0369 35.5943C50.0416 35.6184 50.0452 35.6396 50.0477 35.664C50.0509 35.6721 50.053 35.6806 50.0542 35.6892C50.1043 35.9745 50.0395 36.2679 49.8739 36.5059C49.7934 36.6233 49.6902 36.7236 49.5704 36.8009C49.4506 36.8782 49.3166 36.931 49.1761 36.9562L46.8321 37.3748C46.4407 37.4457 46.0493 37.5157 45.6579 37.585Z" fill="#E4E4ED"/>
<path d="M52.9319 41.2485C51.2525 39.9689 49.8991 38.8816 48.3881 39.1486C46.7855 39.436 45.2507 40.9269 43.0989 42.8715C43.3003 44.4253 43.4743 45.98 43.6207 47.5356C45.7061 46.5248 50.1118 44.2244 52.4338 41.7957C52.608 41.6168 52.7721 41.4332 52.9319 41.2485Z" fill="url(#paint0_radial)"/>
<path d="M60.6248 30.0752C60.501 29.5288 60.1814 29.0461 59.726 28.7176C59.2706 28.3892 58.7106 28.2374 58.151 28.2908C57.8043 27.6161 57.2522 27.0681 56.5737 26.7253C55.8953 26.3826 55.1253 26.2626 54.3742 26.3827C53.8402 26.4751 53.3401 26.7061 52.9242 27.0525C52.5084 27.3989 52.1916 27.8485 52.0057 28.3558C51.6672 28.4231 51.3457 28.5578 51.0607 28.7519C50.7757 28.946 50.533 29.1955 50.3471 29.4854C50.1612 29.7752 50.036 30.0995 49.9789 30.4388C49.9219 30.778 49.9342 31.1253 50.0151 31.4597C50.1315 32.0023 50.4057 32.4988 50.8034 32.8873C51.1118 33.1927 51.4892 33.4201 51.9039 33.5503C52.3186 33.6805 52.7587 33.7098 53.1871 33.6357C54.8724 33.3349 56.5569 33.0336 58.2408 32.732C58.877 31.9315 59.7034 31.3016 60.6454 30.8995C60.6916 30.6259 60.6846 30.3461 60.6248 30.0752V30.0752Z" fill="#DAD9ED"/>
<path d="M49.8766 36.506C50.0422 36.268 50.107 35.9746 50.0569 35.6893C50.0557 35.6807 50.0536 35.6722 50.0504 35.6641C50.0479 35.6397 50.0443 35.6185 50.0396 35.5944C49.9469 35.0876 49.657 34.6378 49.233 34.343C48.8091 34.0482 48.2854 33.9322 47.776 34.0202C47.447 34.079 47.1394 34.2232 46.8842 34.4382C46.6289 34.6533 46.4352 34.9316 46.3224 35.2451L45.2787 35.4316C45.1383 35.4564 45.0043 35.509 44.8848 35.5864C44.7652 35.6638 44.6625 35.7644 44.5827 35.8822C44.4188 36.1209 44.3552 36.4141 44.4057 36.699C44.4293 36.8394 44.4805 36.9738 44.5564 37.0944C44.6323 37.215 44.7314 37.3195 44.8479 37.4018C44.9645 37.4841 45.0962 37.5427 45.2356 37.5742C45.3749 37.6056 45.5191 37.6093 45.6599 37.5851C46.0513 37.5154 46.4422 37.4455 46.8326 37.3756L49.1767 36.957C49.3176 36.932 49.452 36.8792 49.5722 36.8017C49.6924 36.7243 49.7959 36.6238 49.8766 36.506Z" fill="#DAD9ED"/>
<path d="M62.4263 30.4635C62.2517 30.4829 62.0718 30.5073 61.8821 30.5411C61.4578 30.6164 61.0429 30.7369 60.6445 30.9004C59.7025 31.3026 58.876 31.9324 58.2399 32.733C56.3776 34.9691 55.3747 38.4258 52.9319 41.249C52.7722 41.4337 52.6074 41.6173 52.435 41.7963C50.1133 44.2242 45.7073 46.5246 43.6218 47.5354C43.6218 47.5466 43.6243 47.5574 43.6254 47.5685C50.6272 46.3147 57.6221 45.0609 64.6102 43.8071C64.1156 39.3244 63.3866 34.8705 62.4263 30.4635V30.4635Z" fill="#9FDAE4"/>
<path d="M206.231 26.9329L206.206 26.9212C206.708 28.4115 207.224 29.9059 207.754 31.4046C204.88 37.1457 202.337 43.048 200.139 49.0818C200.109 49.1669 200.061 49.2448 199.999 49.3103C199.938 49.3759 199.863 49.4276 199.78 49.4622C199.697 49.4967 199.609 49.5134 199.519 49.5109C199.43 49.5085 199.342 49.4871 199.262 49.4481C194.283 47.2031 189.309 44.9593 184.339 42.7166C184.238 42.6699 184.149 42.6006 184.079 42.5138C184.084 42.6547 184.127 42.7912 184.205 42.9081C184.282 43.0251 184.39 43.1179 184.517 43.1763C189.487 45.4198 194.461 47.6636 199.44 49.9078C199.52 49.9467 199.608 49.9681 199.697 49.9705C199.787 49.9729 199.876 49.9563 199.958 49.9217C200.041 49.8871 200.116 49.8353 200.178 49.7698C200.239 49.7042 200.287 49.6263 200.317 49.5412C202.516 43.5074 205.059 37.6051 207.933 31.8641C207.349 30.2143 206.781 28.5705 206.231 26.9329Z" fill="#737373"/>
<path d="M199.262 49.4475C199.342 49.4865 199.43 49.5079 199.519 49.5103C199.608 49.5127 199.697 49.4961 199.78 49.4616C199.863 49.427 199.938 49.3753 199.999 49.3097C200.061 49.2442 200.109 49.1663 200.139 49.0812C202.338 43.0475 204.881 37.1453 207.755 31.4044L204.646 29.9932C204.602 29.9735 204.563 29.9449 204.53 29.9092C204.498 29.8735 204.473 29.8315 204.458 29.7856C204.442 29.7398 204.436 29.6912 204.44 29.6428C204.444 29.5944 204.457 29.5472 204.48 29.5043C204.942 28.5915 205.413 27.6828 205.894 26.7782C205.947 26.6762 206 26.5739 206.054 26.4723C202.949 25.0638 199.846 23.6554 196.743 22.2472L194.217 21.1004C194.044 21.0265 193.849 21.0204 193.671 21.0831C193.492 21.1458 193.343 21.2729 193.252 21.4398C193.123 21.6772 192.996 21.9145 192.87 22.1516C189.481 28.4947 186.501 35.0493 183.947 41.7747C183.886 41.9534 183.893 42.1483 183.965 42.3219C184.038 42.4955 184.171 42.6357 184.34 42.7155C189.31 44.9587 194.283 47.2027 199.262 49.4475ZM200.064 44.7521C195.713 42.8197 191.365 40.8876 187.019 38.9558C187.103 38.7491 187.188 38.542 187.273 38.3359C191.616 40.2663 195.962 42.1979 200.311 44.1305C200.228 44.3371 200.146 44.5441 200.064 44.7515L200.064 44.7521ZM201.218 42.3694C196.884 40.4189 192.553 38.4693 188.225 36.5207C188.313 36.3152 188.401 36.1091 188.489 35.9038C192.815 37.8519 197.144 39.8007 201.476 41.7503C201.389 41.9563 201.304 42.1624 201.219 42.3688L201.218 42.3694ZM202.216 40.007C197.882 38.0782 193.551 36.1509 189.223 34.225C189.314 34.0197 189.405 33.815 189.497 33.6107C193.823 35.5366 198.152 37.4632 202.484 39.3904C202.395 39.5959 202.306 39.8013 202.216 40.0064L202.216 40.007ZM203.238 37.6849C198.913 35.7593 194.59 33.8345 190.27 31.9108C190.364 31.7068 190.459 31.5031 190.554 31.2997C194.872 33.2232 199.193 35.1474 203.517 37.0724C203.423 37.2757 203.331 37.4797 203.239 37.6843L203.238 37.6849ZM192.177 28.6783C192.666 27.6712 193.166 26.6677 193.676 25.6676C193.75 25.5247 193.874 25.4149 194.025 25.3606C194.175 25.3062 194.34 25.3113 194.486 25.3748L197.492 26.7379C197.562 26.7694 197.624 26.8151 197.676 26.8721C197.727 26.9291 197.767 26.9962 197.791 27.0693C197.816 27.1423 197.825 27.2198 197.819 27.2969C197.813 27.374 197.791 27.4491 197.755 27.5175C197.249 28.5187 196.753 29.5235 196.267 30.5318C196.198 30.6756 196.076 30.7868 195.927 30.8423C195.779 30.8978 195.615 30.8931 195.47 30.8294L192.454 29.4622C192.383 29.4307 192.32 29.385 192.267 29.3279C192.215 29.2709 192.175 29.2037 192.149 29.1304C192.123 29.0571 192.112 28.9792 192.117 28.9014C192.122 28.8235 192.143 28.7475 192.177 28.6777L192.177 28.6783ZM204.252 33.89C204.154 34.0931 204.058 34.2962 203.962 34.4992L197.337 31.5798C197.434 31.3765 197.532 31.1737 197.63 30.9713L204.252 33.89Z" fill="#80D0DC"/>
<path d="M204.479 29.5048C204.456 29.5478 204.442 29.5949 204.438 29.6433C204.435 29.6917 204.441 29.7403 204.456 29.7861C204.472 29.832 204.496 29.874 204.529 29.9098C204.561 29.9455 204.601 29.974 204.644 29.9937L207.754 31.4049C207.223 29.9058 206.707 28.4114 206.205 26.9215C206.155 26.7723 206.103 26.6224 206.053 26.4731C205.998 26.575 205.948 26.6779 205.894 26.7796C205.414 27.6851 204.941 28.5928 204.479 29.5048Z" fill="white"/>
<path d="M192.454 29.4617L195.471 30.8288C195.615 30.8926 195.779 30.8973 195.928 30.8418C196.076 30.7863 196.198 30.675 196.268 30.5313C196.753 29.5231 197.249 28.5184 197.755 27.517C197.792 27.4486 197.813 27.3735 197.82 27.2964C197.826 27.2193 197.816 27.1418 197.792 27.0688C197.767 26.9957 197.728 26.9286 197.676 26.8716C197.625 26.8146 197.562 26.7689 197.492 26.7374L194.488 25.3747C194.342 25.3113 194.177 25.3062 194.027 25.3605C193.876 25.4149 193.752 25.5246 193.678 25.6676C193.168 26.6674 192.668 27.6709 192.179 28.6782C192.144 28.7479 192.124 28.8238 192.119 28.9014C192.114 28.9791 192.125 29.0568 192.151 29.13C192.176 29.2032 192.216 29.2703 192.268 29.3273C192.321 29.3843 192.384 29.43 192.454 29.4617V29.4617Z" fill="white"/>
<path d="M189.223 34.225C193.551 36.1513 197.882 38.0784 202.215 40.0064C202.304 39.8009 202.393 39.5955 202.482 39.3901C198.15 37.4631 193.822 35.5365 189.496 33.6103C189.404 33.815 189.313 34.0199 189.223 34.225Z" fill="white"/>
<path d="M190.27 31.9102C194.59 33.834 198.913 35.7587 203.239 37.6843C203.331 37.4802 203.423 37.2758 203.516 37.0713C199.193 35.1462 194.872 33.222 190.553 31.2987C190.459 31.5026 190.364 31.7064 190.27 31.9102Z" fill="white"/>
<path d="M188.226 36.5194C192.554 38.4684 196.885 40.418 201.219 42.368C201.304 42.1616 201.39 41.9553 201.476 41.749C197.144 39.7991 192.815 37.8503 188.491 35.9027C188.402 36.1078 188.313 36.3138 188.226 36.5194Z" fill="white"/>
<path d="M187.019 38.9552C191.365 40.887 195.713 42.8191 200.064 44.7516C200.146 44.5446 200.228 44.3374 200.311 44.1299C195.962 42.1975 191.616 40.266 187.273 38.3353C187.189 38.5403 187.103 38.7485 187.019 38.9552Z" fill="white"/>
<path d="M197.337 31.5792L203.962 34.4986C204.058 34.2956 204.155 34.0925 204.252 33.8894L197.63 30.9704C197.532 31.1731 197.434 31.376 197.337 31.5792Z" fill="white"/>
<path d="M81.6963 32.8665C81.6963 32.8665 80.4347 34.1988 77.122 33.8471L77.0126 36.6834C78.8273 37.0739 80.7218 36.8183 82.3681 35.9605L81.6963 32.8665Z" fill="#DAD7F6"/>
<path d="M104.712 11.0397L103.172 7.24093C103.151 7.18737 103.119 7.13898 103.078 7.0984C103.036 7.05796 102.987 7.02654 102.933 7.0066C102.879 6.98611 102.821 6.97792 102.764 6.98138C102.706 6.98499 102.65 7.00012 102.599 7.02683L100.087 8.32265C99.9954 8.36978 99.9248 8.44921 99.8883 8.54558C99.8519 8.64195 99.8519 8.74813 99.8889 8.84437L101.55 13.0497C101.574 13.1096 101.611 13.1624 101.659 13.206C101.707 13.2489 101.764 13.2805 101.826 13.2982C101.888 13.3161 101.953 13.3194 102.016 13.3078C102.08 13.2967 102.14 13.2711 102.192 13.2334L104.577 11.5325C104.651 11.4765 104.704 11.3982 104.729 11.3093C104.753 11.2196 104.748 11.1251 104.712 11.0397Z" fill="#F7B547"/>
<path d="M93.1461 64.8375L91.8897 61.7379C91.8726 61.6942 91.8461 61.6547 91.8126 61.6219C91.7787 61.5893 91.7385 61.564 91.6945 61.5479C91.6505 61.5318 91.6033 61.5253 91.5568 61.5287C91.5098 61.5321 91.4644 61.5454 91.423 61.5677L89.369 62.6263C89.2954 62.6656 89.2387 62.7305 89.2098 62.8087C89.1809 62.8869 89.1817 62.9729 89.2117 63.0508L90.5667 66.4821C90.585 66.5321 90.6145 66.5771 90.6537 66.6133C90.6925 66.6496 90.7393 66.6762 90.7906 66.6908C90.8415 66.7055 90.8958 66.7077 90.9478 66.6975C91.0002 66.6872 91.0489 66.6649 91.0909 66.632L93.0406 65.2384C93.0999 65.1924 93.1422 65.1282 93.161 65.0559C93.1803 64.9833 93.1748 64.9067 93.1461 64.8375Z" fill="#EF8F95"/>
<path d="M81.1407 18.3619L79.5776 14.4904C79.5546 14.4361 79.5204 14.3873 79.4775 14.3468C79.4354 14.3067 79.3846 14.275 79.3296 14.2547C79.274 14.2345 79.2155 14.226 79.1566 14.2292C79.0981 14.2321 79.0406 14.2475 78.9878 14.2738L76.4305 15.5995C76.3375 15.6474 76.2663 15.7287 76.2297 15.8268C76.1937 15.9246 76.1948 16.0325 76.2341 16.1295L77.9203 20.4152C77.9445 20.4764 77.9826 20.5308 78.0312 20.5746C78.0804 20.6182 78.1384 20.6498 78.2019 20.6679C78.2652 20.6854 78.3312 20.6882 78.3955 20.6758C78.4599 20.6634 78.5209 20.6362 78.5732 20.5968L81.009 18.8625C81.083 18.8052 81.1359 18.7251 81.1593 18.6343C81.1834 18.5438 81.1766 18.4484 81.1407 18.3619Z" fill="#EF8F95"/>
<path d="M111.269 36.4403C111.269 36.4403 109.672 36.794 107.403 34.884L105.911 36.9313C107.062 38.1255 108.592 38.8809 110.24 39.0666L111.269 36.4403Z" fill="#FFD590"/>
<path d="M113.341 54.8296C113.341 54.8296 114.137 54.7262 114.163 53.2363C114.169 52.6224 114.014 51.8098 114.462 51.3905C115.071 50.8153 117.224 51.3479 117.224 51.3479C117.224 51.3479 116.68 51.5597 116.756 52.7365C116.834 54.2066 116.121 54.6201 116.121 54.6201L113.341 54.8296Z" fill="#C3F2F4"/>
<path d="M115.432 53.2393C115.61 52.9416 115.702 52.6005 115.698 52.2537C115.69 51.5062 115.555 50.436 116.34 50.3024C116.865 50.2138 118.965 50.1483 118.965 50.1483C118.965 50.1483 118.288 50.4505 118.428 51.6924C118.537 52.6518 118.106 53.0309 118.106 53.0309L115.432 53.2393Z" fill="#C3F2F4"/>
<path d="M117.223 51.3428C116.727 51.2285 116.222 51.158 115.714 51.1321C115.684 51.5087 115.68 51.8869 115.701 52.264C115.705 52.6108 115.613 52.9519 115.435 53.2497L116.762 53.1469C116.767 53.0118 116.765 52.8766 116.757 52.7417C116.673 51.556 117.223 51.3428 117.223 51.3428Z" fill="#7BDDEF"/>
<path d="M119.969 50.8322L117.148 50.9511C117.074 50.7787 116.957 50.6287 116.806 50.5165C116.656 50.4043 116.479 50.3339 116.293 50.3125C116.969 50.0984 119.41 50.1281 119.41 50.1281C119.495 50.1321 119.578 50.1542 119.654 50.193C119.73 50.2318 119.796 50.2864 119.849 50.3531C119.902 50.4197 119.94 50.497 119.961 50.5797C119.982 50.6624 119.984 50.7485 119.969 50.8322Z" fill="#7BDDEF"/>
<path d="M101.031 52.2598C101.031 52.2598 99.4244 52.5667 97.2101 50.5952L95.6577 52.5901C96.7733 53.8196 98.2837 54.6204 99.9274 54.8538L101.031 52.2598Z" fill="#C7E0F4"/>
<g clip-path="url(#clip0)">
<path d="M117.069 25.0123C114.335 23.3111 111.108 22.3782 107.663 22.3782C98.0928 22.4879 90.3818 30.3355 90.3818 39.9392C90.3818 43.6709 91.5303 47.1282 93.499 49.9818L118.437 50.6404L131.78 33.8477L117.069 25.0123Z" fill="#0078D4"/>
<path d="M131.78 33.8477C131.78 33.8477 92.6785 50.3659 93.5535 49.9818C96.6707 54.5367 101.921 57.5001 107.882 57.5001H146.163C151.577 57.5001 156.28 54.4818 158.686 49.9818C158.139 49.7074 131.78 33.8477 131.78 33.8477Z" fill="#28A8EA"/>
<path d="M147.157 28.9558C144.805 28.7911 142.91 28.9037 140.559 30.0743L131.78 33.8475C131.78 33.8475 158.194 49.7073 158.686 50.0365C159.78 48.006 160.382 45.7012 160.382 43.2865C160.382 35.6585 154.539 29.4497 147.157 28.9558Z" fill="#1490DF"/>
<path d="M140.53 30.1159C142.554 29.2378 144.796 28.8537 147.148 28.9634C144.687 19.5244 136.155 12.5 125.929 12.5C118.273 12.5 111.546 16.4512 107.663 22.378C111.163 22.3232 114.335 23.311 117.069 25.0122L131.78 33.8476L140.53 30.1159Z" fill="#0364B8"/>
<path d="M160.372 23.8334L159.357 21.3186C159.342 21.2833 159.32 21.2516 159.292 21.2253C159.264 21.1993 159.231 21.1787 159.196 21.1655C159.16 21.1524 159.122 21.1468 159.083 21.1489C159.045 21.1508 159.008 21.1608 158.974 21.1779L157.313 22.039C157.252 22.0701 157.206 22.123 157.182 22.1866C157.159 22.2502 157.159 22.3203 157.185 22.3833L158.28 25.1672C158.296 25.2069 158.321 25.2423 158.352 25.2707C158.384 25.2991 158.422 25.3196 158.463 25.3313C158.504 25.3427 158.547 25.3445 158.589 25.3365C158.631 25.3284 158.67 25.3107 158.704 25.2851L160.287 24.1586C160.335 24.1213 160.369 24.0694 160.384 24.0103C160.4 23.9516 160.395 23.8896 160.372 23.8334Z" fill="#3CC1F4"/>
</g>
<path d="M161.614 7.72279L163.622 10.3808C163.65 10.4185 163.685 10.4496 163.726 10.4726C163.767 10.4952 163.812 10.5092 163.859 10.5134C163.905 10.5175 163.952 10.5116 163.996 10.4963C164.041 10.4809 164.081 10.4565 164.115 10.4243L165.818 8.87644C165.879 8.8196 165.917 8.74257 165.924 8.65988C165.932 8.57723 165.909 8.49463 165.86 8.42752L163.672 5.47573C163.641 5.43233 163.601 5.3966 163.554 5.37189C163.508 5.34695 163.456 5.33345 163.403 5.33264C163.35 5.33163 163.297 5.34353 163.25 5.36669C163.202 5.39008 163.161 5.42413 163.129 5.4666L161.612 7.30987C161.567 7.36944 161.543 7.44207 161.544 7.51655C161.544 7.59131 161.569 7.66364 161.614 7.72279Z" fill="#EF8F95"/>
<defs>
<radialGradient id="paint0_radial" cx="0" cy="0" r="1" gradientUnits="userSpaceOnUse" gradientTransform="translate(50.6767 48.9178) rotate(-10.1052) scale(10.2999 10.3498)">
<stop offset="0.338" stop-color="#50C5D3"/>
<stop offset="0.513" stop-color="#53C6D4"/>
<stop offset="0.701" stop-color="#83D1DC"/>
<stop offset="0.869" stop-color="#9BD9E3"/>
<stop offset="1" stop-color="#C5E8EF"/>
</radialGradient>
<clipPath id="clip0">
<rect width="70" height="45" fill="white" transform="translate(90.3818 12.5)"/>
</clipPath>
</defs>
</svg>
