<svg width="278" height="102" viewBox="0 0 278 102" fill="none" xmlns="http://www.w3.org/2000/svg">
<path d="M63.9332 40.2443L88.3144 25.5794C86.6463 19.0905 83.0978 13.2373 78.1134 8.75275C73.129 4.26822 66.9303 1.35175 60.2935 0.368611C53.6567 -0.614531 46.8769 0.379353 40.8032 3.22579C34.7295 6.07223 29.632 10.6447 26.1489 16.3705L63.9332 40.2443Z" fill="#97C3FE"/>
<path d="M41.6021 19.5164C37.2981 16.855 32.3343 15.4488 27.2718 15.4566C27.1528 15.4566 27.0388 15.4665 26.9247 15.4714C21.9711 15.5327 17.1278 16.9405 12.9152 19.5436C8.70269 22.1467 5.28018 25.8468 3.01546 30.2462C0.750737 34.6455 -0.270589 39.5779 0.0612305 44.5133C0.39305 49.4487 2.06547 54.2005 4.89878 58.2581L40.0748 52.6288L64.5007 33.2159L41.6021 19.5164Z" fill="#97C3FE"/>
<path d="M88.3873 25.6906C87.8914 25.6559 87.3956 25.6312 86.8898 25.6312C83.8693 25.6291 80.8805 26.2458 78.1082 27.4432L64.4573 33.1765L79.5214 52.2875L106.397 58.2584C108.155 54.9994 109.066 51.3522 109.047 47.6507C109.027 43.9491 108.078 40.3115 106.286 37.0711C104.494 33.8306 101.917 31.0908 98.7897 29.1026C95.6627 27.1143 92.086 25.9412 88.3873 25.6906V25.6906Z" fill="#97C3FE"/>
<path d="M64.5018 33.2352L4.8999 58.2774C7.40958 61.8801 10.7553 64.8227 14.6513 66.854C18.5473 68.8852 22.8778 69.9447 27.2729 69.942H86.9294C90.9298 69.9438 94.8562 68.864 98.2915 66.8172C101.727 64.7705 104.543 61.8331 106.441 58.317L64.5018 33.2352Z" fill="#97C3FE"/>
<path d="M236.646 71.8624L258.995 58.4196C257.466 52.4714 254.213 47.106 249.644 42.9951C245.075 38.8843 239.393 36.2109 233.309 35.3097C227.226 34.4085 221.011 35.3195 215.443 37.9288C209.876 40.538 205.203 44.7294 202.01 49.9781L236.646 71.8624Z" fill="#97C3FE"/>
<path d="M216.177 52.8606C212.232 50.421 207.682 49.1319 203.041 49.1391C202.932 49.1391 202.828 49.1481 202.723 49.1527C198.182 49.2088 193.742 50.4993 189.881 52.8855C186.019 55.2717 182.882 58.6634 180.806 62.6962C178.73 66.7289 177.794 71.2503 178.098 75.7744C178.402 80.2985 179.935 84.6543 182.533 88.3738L214.777 83.2136L237.168 65.4184L216.177 52.8606Z" fill="#97C3FE"/>
<path d="M259.062 58.5197C258.608 58.4879 258.153 58.4652 257.689 58.4652C254.921 58.4633 252.181 59.0287 249.64 60.1263L237.126 65.3818L250.935 82.9001L275.571 88.3735C277.182 85.3861 278.017 82.0428 278 78.6497C277.982 75.2566 277.112 71.9222 275.469 68.9518C273.827 65.9814 271.464 63.4699 268.598 61.6473C265.731 59.8248 262.453 58.7494 259.062 58.5197V58.5197Z" fill="#97C3FE"/>
<path d="M237.169 65.4379L182.534 88.3932C184.834 91.6957 187.901 94.3931 191.473 96.2551C195.044 98.117 199.014 99.0883 203.043 99.0858H257.728C261.395 99.0874 264.994 98.0976 268.143 96.2214C271.292 94.3452 273.873 91.6527 275.613 88.4296L237.169 65.4379Z" fill="#97C3FE"/>
<g clip-path="url(#clip0_1202_32499)">
<path d="M176.147 48.455L151.921 73.386C151.597 73.7195 151.364 74.1346 151.247 74.5892C151.13 75.0439 151.132 75.522 151.254 75.9752C151.377 76.4285 151.614 76.8409 151.942 77.1706C152.27 77.5004 152.678 77.7359 153.124 77.8533L186.387 86.8576C186.836 86.9749 187.308 86.9707 187.755 86.8455C188.202 86.7204 188.609 86.4785 188.936 86.1438C189.264 85.8091 189.5 85.3931 189.622 84.9368C189.744 84.4806 189.747 83.9998 189.631 83.5419L180.594 49.6763C180.474 49.2165 180.236 48.7973 179.907 48.4606C179.577 48.1239 179.166 47.8815 178.716 47.7578C178.265 47.6341 177.791 47.6334 177.34 47.7558C176.889 47.8781 176.478 48.1193 176.147 48.455V48.455Z" fill="#797673"/>
<path d="M105.669 20.2161L91.2614 52.1328C91.0803 52.5598 91.0095 53.027 91.0558 53.4898C91.102 53.9527 91.2639 54.3956 91.5258 54.7765C91.7877 55.1573 92.141 55.4633 92.5519 55.6651C92.9627 55.867 93.4174 55.958 93.8726 55.9294L128.122 52.6833C128.587 52.6442 129.033 52.4794 129.416 52.206C129.798 51.9325 130.102 51.5602 130.296 51.1274C130.49 50.6945 130.569 50.2166 130.522 49.7427C130.476 49.2689 130.307 48.8162 130.032 48.4312L110.185 19.7605C109.92 19.3734 109.56 19.0651 109.14 18.8676C108.72 18.6701 108.256 18.5904 107.796 18.6368C107.336 18.6833 106.896 18.8541 106.522 19.1317C106.149 19.4093 105.854 19.7837 105.669 20.2161V20.2161Z" fill="#797673"/>
<path d="M133.065 24.6808L91.4729 87.5777C90.9136 88.4266 90.583 89.4105 90.514 90.4309C90.4451 91.4513 90.6403 92.4722 91.0801 93.3914C91.5199 94.3105 92.1887 95.0955 93.0197 95.6677C93.8506 96.2399 94.8144 96.5792 95.8145 96.6516L170.031 101.986C171.029 102.053 172.026 101.852 172.924 101.403C173.821 100.954 174.587 100.271 175.145 99.4249C175.703 98.5783 176.033 97.5972 176.102 96.5796C176.171 95.5621 175.977 94.5439 175.539 93.627L142.884 25.4021C142.449 24.486 141.785 23.7028 140.959 23.1316C140.133 22.5603 139.174 22.221 138.179 22.1479C137.183 22.0748 136.187 22.2704 135.289 22.715C134.392 23.1597 133.625 23.8376 133.065 24.6808V24.6808Z" fill="#0086F0"/>
<path d="M134.48 75.8345C133.732 75.7747 133.037 75.4149 132.548 74.8339C132.058 74.2529 131.814 73.4979 131.869 72.734L133.897 43.2724C133.913 42.8852 134.006 42.5053 134.169 42.1552C134.332 41.8052 134.562 41.4921 134.846 41.2346C135.129 40.977 135.461 40.7804 135.821 40.6562C136.181 40.532 136.561 40.4829 136.94 40.5117C137.319 40.5406 137.688 40.6468 138.026 40.8241C138.364 41.0014 138.663 41.2461 138.906 41.5438C139.15 41.8414 139.332 42.1859 139.442 42.5568C139.552 42.9277 139.588 43.3173 139.548 43.7026L137.501 73.1706C137.43 73.9258 137.076 74.624 136.514 75.1202C135.951 75.6163 135.223 75.8722 134.48 75.8345Z" fill="black"/>
<path d="M134.057 85.9204C134.687 85.9216 135.303 85.7322 135.827 85.376C136.351 85.0198 136.76 84.5129 137.001 83.9195C137.243 83.3261 137.306 82.6729 137.184 82.0426C137.061 81.4123 136.758 80.8333 136.313 80.379C135.867 79.9246 135.3 79.6153 134.682 79.4903C134.064 79.3652 133.424 79.4301 132.842 79.6765C132.261 79.923 131.764 80.34 131.415 80.8748C131.066 81.4096 130.88 82.0381 130.881 82.6806C130.881 83.1061 130.963 83.5274 131.123 83.9204C131.282 84.3135 131.516 84.6707 131.811 84.9715C132.106 85.2723 132.456 85.511 132.841 85.6738C133.227 85.8366 133.64 85.9204 134.057 85.9204Z" fill="black"/>
<path d="M102.067 40.2425C101.71 40.3476 101.336 40.3787 100.968 40.334C100.599 40.2892 100.243 40.1695 99.9201 39.982C99.5975 39.7944 99.315 39.5427 99.0893 39.2418C98.8636 38.941 98.6993 38.597 98.6062 38.2303L92.8194 17.4059C92.7169 17.0399 92.6876 16.6564 92.7334 16.2785C92.7793 15.9007 92.8993 15.5361 93.0862 15.2065C93.2732 14.877 93.5233 14.5893 93.8217 14.3605C94.12 14.1318 94.4605 13.9667 94.8228 13.8751C95.18 13.771 95.5539 13.7408 95.9227 13.7863C96.2915 13.8319 96.6476 13.9523 96.9701 14.1404C97.2926 14.3284 97.575 14.5805 97.8006 14.8816C98.0261 15.1827 98.1904 15.5268 98.2837 15.8936L104.077 36.718C104.251 37.4564 104.14 38.2351 103.765 38.8917C103.391 39.5483 102.782 40.0322 102.067 40.2425Z" fill="#28C2D1"/>
<path d="M103.903 50.1137C104.531 50.1137 105.145 49.9237 105.667 49.5677C106.189 49.2118 106.596 48.7058 106.836 48.1138C107.077 47.5218 107.14 46.8704 107.017 46.2419C106.895 45.6135 106.592 45.0362 106.148 44.5831C105.704 44.13 105.138 43.8215 104.522 43.6965C103.906 43.5715 103.268 43.6356 102.687 43.8808C102.107 44.126 101.611 44.5413 101.262 45.0741C100.913 45.6068 100.727 46.2332 100.727 46.874C100.727 47.2994 100.809 47.7207 100.969 48.1138C101.128 48.5069 101.362 48.864 101.657 49.1648C101.952 49.4657 102.302 49.7043 102.687 49.8671C103.073 50.0299 103.486 50.1137 103.903 50.1137V50.1137Z" fill="#28C2D1"/>
<path d="M179.397 65.3888C178.68 65.1633 178.078 64.6599 177.721 63.9867C177.364 63.3135 177.279 62.5242 177.487 61.7883L183.559 41.1096C183.796 40.4008 184.293 39.8134 184.946 39.4705C185.599 39.1276 186.356 39.0559 187.06 39.2703C187.763 39.4847 188.358 39.9686 188.719 40.6205C189.081 41.2725 189.18 42.0419 188.998 42.7674L182.851 63.5158C182.754 63.876 182.586 64.2122 182.357 64.5037C182.128 64.7953 181.843 65.0361 181.52 65.2114C181.196 65.3867 180.841 65.4929 180.476 65.5234C180.111 65.5539 179.744 65.5081 179.397 65.3888Z" fill="#B3AFAB"/>
<path d="M177.419 75.2594C178.049 75.2594 178.664 75.0689 179.187 74.7119C179.711 74.3549 180.119 73.8476 180.359 73.2541C180.6 72.6605 180.663 72.0075 180.539 71.3777C180.416 70.7478 180.112 70.1695 179.667 69.7157C179.221 69.262 178.654 68.9534 178.036 68.8288C177.418 68.7043 176.778 68.7695 176.197 69.0161C175.616 69.2628 175.119 69.6798 174.771 70.2145C174.422 70.7491 174.236 71.3773 174.237 72.0196C174.237 72.4456 174.32 72.8674 174.48 73.2609C174.64 73.6544 174.874 74.0118 175.17 74.3127C175.465 74.6137 175.816 74.8522 176.202 75.0146C176.588 75.177 177.002 75.2602 177.419 75.2594V75.2594Z" fill="#B3AFAB"/>
<path d="M102.067 40.2425C101.71 40.3476 101.336 40.3787 100.968 40.334C100.599 40.2892 100.243 40.1695 99.9201 39.982C99.5975 39.7944 99.315 39.5427 99.0893 39.2418C98.8636 38.941 98.6993 38.597 98.6062 38.2303L92.8194 17.4059C92.7169 17.0399 92.6876 16.6564 92.7334 16.2785C92.7793 15.9007 92.8993 15.5361 93.0862 15.2065C93.2732 14.877 93.5233 14.5893 93.8217 14.3605C94.12 14.1318 94.4605 13.9667 94.8228 13.8751C95.18 13.771 95.5539 13.7408 95.9227 13.7863C96.2915 13.8319 96.6476 13.9523 96.9701 14.1404C97.2926 14.3284 97.575 14.5805 97.8006 14.8816C98.0261 15.1827 98.1904 15.5268 98.2837 15.8936L104.077 36.718C104.251 37.4564 104.14 38.2351 103.765 38.8917C103.391 39.5483 102.782 40.0322 102.067 40.2425Z" fill="#B3AFAB"/>
<path d="M103.903 50.1137C104.531 50.1137 105.145 49.9237 105.667 49.5677C106.189 49.2118 106.596 48.7058 106.836 48.1138C107.077 47.5218 107.14 46.8704 107.017 46.2419C106.895 45.6135 106.592 45.0362 106.148 44.5831C105.704 44.13 105.138 43.8215 104.522 43.6965C103.906 43.5715 103.268 43.6356 102.687 43.8808C102.107 44.126 101.611 44.5413 101.262 45.0741C100.913 45.6068 100.727 46.2332 100.727 46.874C100.727 47.2994 100.809 47.7207 100.969 48.1138C101.128 48.5069 101.362 48.864 101.657 49.1648C101.952 49.4657 102.302 49.7043 102.687 49.8671C103.073 50.0299 103.486 50.1137 103.903 50.1137V50.1137Z" fill="#B3AFAB"/>
<path d="M145.004 16.9756C144.802 17.3137 144.72 17.7121 144.771 18.1047C144.821 18.4972 145.002 18.8602 145.283 19.1333C145.358 19.2092 145.494 19.3548 145.637 19.3548C145.827 19.4742 146.039 19.5539 146.259 19.5893C146.48 19.6247 146.705 19.615 146.922 19.5608C147.139 19.5067 147.343 19.4091 147.523 19.2738C147.703 19.1385 147.854 18.9682 147.969 18.7726L150.158 15.0266C150.369 14.6053 150.443 14.1267 150.369 13.6599C150.295 13.2895 150.096 12.9578 149.805 12.7234C149.731 12.6538 149.662 12.6538 149.594 12.5778C149.404 12.459 149.193 12.3796 148.973 12.3442C148.752 12.3088 148.527 12.3181 148.311 12.3716C148.094 12.4251 147.89 12.5217 147.71 12.6559C147.53 12.7901 147.378 12.9593 147.262 13.1537L145.004 16.9756Z" fill="#33312D"/>
<path d="M151.71 24.9985C151.805 25.1809 151.924 25.3491 152.063 25.4984C152.323 25.7506 152.653 25.9141 153.007 25.9663C153.362 26.0184 153.723 25.9566 154.042 25.7894L157.714 23.8911C157.915 23.7891 158.093 23.6469 158.239 23.4729C158.385 23.299 158.496 23.0969 158.563 22.8787C158.713 22.4305 158.686 21.9405 158.489 21.5119C158.265 21.1181 157.918 20.8127 157.503 20.645C157.064 20.4925 156.583 20.5197 156.163 20.721L152.491 22.6193C152.291 22.72 152.112 22.8611 151.966 23.0339C151.82 23.2068 151.71 23.408 151.642 23.6254C151.485 24.0742 151.51 24.5681 151.71 24.9985V24.9985Z" fill="#33312D"/>
<path d="M136.378 15.3866C136.44 15.7661 136.61 16.1185 136.868 16.399C137.124 16.6654 137.457 16.8414 137.817 16.901C138.178 16.9606 138.548 16.9008 138.874 16.7304C139.199 16.5599 139.462 16.2877 139.624 15.9537C139.787 15.6197 139.84 15.2413 139.777 14.874L139.157 10.2612C139.091 9.81419 138.871 9.40583 138.537 9.10953C138.349 8.95882 138.134 8.84903 137.904 8.78698C137.673 8.72493 137.432 8.71195 137.197 8.74885C136.739 8.81779 136.326 9.06861 136.048 9.44669C135.771 9.82477 135.651 10.2995 135.715 10.7674L136.378 15.3866Z" fill="#33312D"/>
</g>
<defs>
<clipPath id="clip0_1202_32499">
<rect width="99.2366" height="93.2571" fill="white" transform="translate(90.4805 8.74292)"/>
</clipPath>
</defs>
</svg>
