<svg width="51" height="48" viewBox="0 0 51 48" fill="none" xmlns="http://www.w3.org/2000/svg">
<path d="M24.5 42.5L18.55 45.4L16 43L18.5 41.5L24.5 42.5Z" fill="url(#paint0_linear)"/>
<path d="M43.5 36.1001L37.55 39.0001L35 36.6001L37.5 35.1001L43.5 36.1001Z" fill="url(#paint1_linear)"/>
<path fill-rule="evenodd" clip-rule="evenodd" d="M35.5 5H11V39H35H36H37.5C37.7761 39 38 38.7761 38 38.5V28.4142C38 28.149 37.8946 27.8946 37.7071 27.7071L36 26V5.5C36 5.22386 35.7761 5 35.5 5Z" fill="url(#paint2_linear)"/>
<path fill-rule="evenodd" clip-rule="evenodd" d="M35.5 5H11V39H35H36H37.5C37.7761 39 38 38.7761 38 38.5V28.4142C38 28.149 37.8946 27.8946 37.7071 27.7071L36 26V5.5C36 5.22386 35.7761 5 35.5 5Z" fill="url(#paint3_linear)"/>
<path d="M20 12.5L11 5V39L18.1707 45.2744C18.494 45.5573 19 45.3277 19 44.8981V34.5L20 33V12.5Z" fill="url(#paint4_radial)"/>
<g filter="url(#filter0_dddd)">
<path d="M19.8 29.8H11.3C7.6 29.8 4.5 32.8 4.5 36.6C4.5 40.4 7.5 43.4 11.3 43.4H19.8C23.5 43.4 26.6 40.4 26.6 36.6C26.6 32.8 23.5 29.8 19.8 29.8Z" fill="white"/>
</g>
<path d="M19.8 41.8H18.1C17.7 41.8 17.3 41.5 17.3 41C17.3 40.5 17.6 40.2 18.1 40.2H19.8C21.9 40.2 23.6 38.5 23.6 36.4C23.6 34.3 21.9 32.6 19.8 32.6H18.1C17.7 32.6 17.3 32.3 17.3 31.8C17.3 31.3 17.6 31 18.1 31H19.8C22.7 31 25.1 33.4 25.1 36.3C25.1 39.2 22.7 41.8 19.8 41.8Z" fill="#005A9E"/>
<path d="M13.1001 41.8H11.3001C8.4001 41.8 6.1001 39.4 6.1001 36.5C6.1001 33.6 8.5001 31.2 11.4001 31.2H13.1001C13.5001 31.2 13.9001 31.5 13.9001 32C13.9001 32.5 13.5001 32.8 13.1001 32.8H11.3001C9.2001 32.8 7.5001 34.5 7.5001 36.6C7.5001 38.7 9.2001 40.4 11.3001 40.4H13.1001C13.5001 40.4 13.9001 40.7 13.9001 41.2C13.9001 41.7 13.5001 41.8 13.1001 41.8Z" fill="#005A9E"/>
<path d="M18.7001 37.3H12.4001C12.0001 37.3 11.6001 37 11.6001 36.5C11.6001 36 11.9001 35.7 12.4001 35.7H18.7001C19.1001 35.7 19.4001 36 19.4001 36.5C19.4001 37 19.1001 37.3 18.7001 37.3Z" fill="#005A9E"/>
<defs>
<filter id="filter0_dddd" x="0.8" y="25.8" width="30.1" height="21.6" filterUnits="userSpaceOnUse" color-interpolation-filters="sRGB">
<feFlood flood-opacity="0" result="BackgroundImageFix"/>
<feColorMatrix in="SourceAlpha" type="matrix" values="0 0 0 0 0 0 0 0 0 0 0 0 0 0 0 0 0 0 127 0"/>
<feOffset/>
<feGaussianBlur stdDeviation="0.5"/>
<feColorMatrix type="matrix" values="0 0 0 0 0 0 0 0 0 0 0 0 0 0 0 0 0 0 0.4 0"/>
<feBlend mode="normal" in2="BackgroundImageFix" result="effect1_dropShadow"/>
<feColorMatrix in="SourceAlpha" type="matrix" values="0 0 0 0 0 0 0 0 0 0 0 0 0 0 0 0 0 0 127 0"/>
<feOffset dx="0.85" dy="0.9"/>
<feGaussianBlur stdDeviation="0.5"/>
<feColorMatrix type="matrix" values="0 0 0 0 0 0 0 0 0 0 0 0 0 0 0 0 0 0 0.1 0"/>
<feBlend mode="normal" in2="effect1_dropShadow" result="effect2_dropShadow"/>
<feColorMatrix in="SourceAlpha" type="matrix" values="0 0 0 0 0 0 0 0 0 0 0 0 0 0 0 0 0 0 127 0"/>
<feOffset dx="0.4" dy="1"/>
<feGaussianBlur stdDeviation="0.75"/>
<feColorMatrix type="matrix" values="0 0 0 0 0 0 0 0 0 0 0 0 0 0 0 0 0 0 0.04 0"/>
<feBlend mode="normal" in2="effect2_dropShadow" result="effect3_dropShadow"/>
<feColorMatrix in="SourceAlpha" type="matrix" values="0 0 0 0 0 0 0 0 0 0 0 0 0 0 0 0 0 0 127 0"/>
<feOffset dx="0.3"/>
<feGaussianBlur stdDeviation="2"/>
<feColorMatrix type="matrix" values="0 0 0 0 0 0 0 0 0 0 0 0 0 0 0 0 0 0 0.1 0"/>
<feBlend mode="normal" in2="effect3_dropShadow" result="effect4_dropShadow"/>
<feBlend mode="normal" in="SourceGraphic" in2="effect4_dropShadow" result="shape"/>
</filter>
<linearGradient id="paint0_linear" x1="17.5" y1="46" x2="19.5" y2="41.5" gradientUnits="userSpaceOnUse">
<stop stop-color="#C4C4C4"/>
<stop offset="1" stop-color="white" stop-opacity="0"/>
</linearGradient>
<linearGradient id="paint1_linear" x1="36.5" y1="39.6001" x2="38.5" y2="35.1001" gradientUnits="userSpaceOnUse">
<stop stop-color="#C4C4C4"/>
<stop offset="1" stop-color="white" stop-opacity="0"/>
</linearGradient>
<linearGradient id="paint2_linear" x1="11" y1="30" x2="38" y2="30" gradientUnits="userSpaceOnUse">
<stop stop-color="#EFCD6F"/>
<stop offset="1" stop-color="#FEE181"/>
</linearGradient>
<linearGradient id="paint3_linear" x1="11" y1="31" x2="39.5" y2="23.5" gradientUnits="userSpaceOnUse">
<stop stop-color="#E8C462"/>
<stop offset="0.472042" stop-color="#F2D170" stop-opacity="0.88"/>
<stop offset="1" stop-color="#FEE181" stop-opacity="0"/>
</linearGradient>
<radialGradient id="paint4_radial" cx="0" cy="0" r="1" gradientUnits="userSpaceOnUse" gradientTransform="translate(19 45.5) rotate(-101.174) scale(41.2826 9.06203)">
<stop stop-color="#FFDF84"/>
<stop offset="1" stop-color="#FFEAA5"/>
<stop offset="1" stop-color="#FFEAA5"/>
</radialGradient>
</defs>
</svg>
