<svg width="16" height="16" viewBox="0 0 16 16" fill="none" xmlns="http://www.w3.org/2000/svg">
<path d="M6.10033 5.60002C5.47108 5.20562 4.74299 4.99759 4.00036 5.00002C3.27326 5.009 2.56233 5.21601 1.94408 5.5988C1.32584 5.98158 0.823614 6.52565 0.491447 7.1725C0.159281 7.81935 0.00981777 8.54451 0.0589521 9.27C0.108087 9.99549 0.354028 10.6939 0.770378 11.29L6.46032 11.44L9.46032 7.61002L6.10033 5.60002Z" fill="#0078D4"/>
<path d="M9.45972 7.60986L9.71973 7.75986L7.10974 12.9999H3.99976C3.35576 12.9999 2.72132 12.8445 2.15027 12.5468C1.57922 12.2491 1.08841 11.8179 0.719727 11.2899L9.45972 7.60986Z" fill="#28A8EA"/>
<path d="M9.45996 7.60993L9.89001 7.42993L9.71997 7.75993L9.45996 7.60993Z" fill="#1490DF"/>
<path d="M16.0004 9.75001C16.0019 10.288 15.8677 10.8176 15.6104 11.29L14.8004 10.8L12.6504 6.51001H12.9703C13.7919 6.56575 14.5617 6.93125 15.1241 7.53267C15.6866 8.13409 15.9997 8.92658 16.0004 9.75001V9.75001Z" fill="#1490DF"/>
<path d="M13 6.50993H12.6801L12.42 5.98993C12.3361 5.82612 12.2085 5.68866 12.0515 5.59267C11.8945 5.49668 11.7141 5.44589 11.53 5.44589C11.346 5.44589 11.1655 5.49668 11.0084 5.59267C10.8514 5.68866 10.7239 5.82612 10.64 5.98993L9.92004 7.42993L9.48999 7.60993L6.13 5.60993C5.4932 5.20652 4.75381 4.99477 4 4.99993C4.53465 4.19705 5.29007 3.56596 6.17529 3.18274C7.06051 2.79953 8.03771 2.68056 8.98901 2.84016C9.94032 2.99977 10.8252 3.43115 11.5369 4.08229C12.2485 4.73342 12.7567 5.57652 13 6.50993V6.50993Z" fill="#0364B8"/>
<path d="M11.5 7L7 16H16L11.5 7Z" fill="#FCC112"/>
<path d="M12 10H11V13H12V10Z" fill="black"/>
<path d="M12 14H11V15H12V14Z" fill="black"/>
</svg>
