<svg id="Layer_1" data-name="Layer 1" xmlns="http://www.w3.org/2000/svg" viewBox="0 0 48 48"><title>OneDrive</title><rect width="48" height="48" style="fill:none"/><path d="M18.3,16.79h0l10.08,6,6-2.52h0a9.72,9.72,0,0,1,3.87-.8l.66,0A15,15,0,0,0,11.85,15H12A12,12,0,0,1,18.3,16.79Z" style="fill:#0364b8"/><path d="M18.3,16.79h0A12,12,0,0,0,12,15h-.15A12,12,0,0,0,2.16,33.86L11,30.12l4-1.66,8.8-3.7,4.59-1.94Z" style="fill:#0078d4"/><path d="M38.91,19.52l-.66,0a9.72,9.72,0,0,0-3.87.8h0l-6,2.52,1.74,1.05,5.71,3.41,2.49,1.5,8.51,5.1a9.76,9.76,0,0,0-7.92-14.36Z" style="fill:#1490df"/><path d="M38.32,28.78l-2.49-1.5-5.71-3.41-1.74-1.05-4.59,1.94L15,28.46l-4,1.66L2.16,33.86A12,12,0,0,0,12,39H38.25a9.76,9.76,0,0,0,8.58-5.12Z" style="fill:#28a8ea"/></svg>