<svg width="93" height="69" viewBox="0 0 93 69" fill="none" xmlns="http://www.w3.org/2000/svg">
<path d="M0 6C0 2.68629 2.68629 0 6 0H32.3477C35.6614 0 38.3477 2.68629 38.3477 6V18H0V6Z" fill="#58A0D1"/>
<path d="M38 7.18628H87C90.3137 7.18628 93 9.87257 93 13.1863V17.9999H44C40.6863 17.9999 38 15.3136 38 11.9999V7.18628Z" fill="#58A0D1"/>
<path fill-rule="evenodd" clip-rule="evenodd" d="M41.6719 7.18551C41.6457 7.18607 41.6195 7.18635 41.5932 7.18635C39.7729 7.18635 38.2687 5.83273 38.0323 4.07715H38V7.43618H41.6719V7.18551Z" fill="#58A0D1"/>
<rect y="12.0288" width="93" height="56" rx="6" fill="#88CFF7"/>
<rect x="29.25" y="27.25" width="34.5" height="26.5" rx="2.75" stroke="#58A0D1" stroke-width="2.5"/>
<rect x="28.6042" y="31.6042" width="35.8472" height="1.20833" stroke="#58A0D1" stroke-width="1.20833"/>
<rect x="35" y="44.5566" width="24" height="6" rx="2" fill="#58A0D1"/>
</svg>
