<svg id="Layer_1" data-name="Layer 1" xmlns="http://www.w3.org/2000/svg" xmlns:xlink="http://www.w3.org/1999/xlink" viewBox="0 0 104 84"><defs><linearGradient id="linear-gradient" x1="0.06" y1="37.98" x2="47.07" y2="37.98" gradientUnits="userSpaceOnUse"><stop offset="0" stop-color="#dbb558"/><stop offset="0.57" stop-color="#ddb759"/><stop offset="0.67" stop-color="#e9c25c"/><stop offset="0.82" stop-color="#f3cb5f"/><stop offset="1" stop-color="#f6ce60"/></linearGradient></defs><title>desktop folder</title><path d="M103.94,78.33H30.11a3.86,3.86,0,0,1-1.2-.19l-27-8.86,81.45,1.35Z" style="fill:#231f20;opacity:0.05"/><rect x="0.06" y="5.86" width="47.01" height="64.24" rx="2.77" ry="2.77" style="fill:url(#linear-gradient)"/><path d="M20.15,75.23,2,70a2.71,2.71,0,0,1-2-2.6v-59A2.71,2.71,0,0,1,3.24,5.71L23.9,9.34A2.71,2.71,0,0,1,26.14,12V54.14A2.71,2.71,0,0,1,25,56.38l-.23.16a2.71,2.71,0,0,0-1.18,2.25l.07,13.83A2.71,2.71,0,0,1,20.15,75.23Z" style="fill:#ffe490"/><path d="M89.12,71.55A2.23,2.23,0,0,1,87.21,74H30.65c-1.15,0-1.92-1-1.92-2.45v-41c0-1.46.77-2.43,1.92-2.43H87.21a2.21,2.21,0,0,1,1.91,2.43Z" style="fill:#106ebe"/><path d="M87.21,69.12a1,1,0,0,1-.77,1H31.22a1,1,0,0,1-1-1V31.3c0-.72.39-1.2,1-1.2H86.44c.38,0,.77.48.77,1.2Z" style="fill:#1a9bf5"/><path d="M87.21,69.12a1,1,0,0,1-.77,1H31.22c-.57,0-1.12-.51-1-1,11.34-32.9,56.18-39,56.18-39,.38,0,.77.48.77,1.2Z" style="fill:#fff;opacity:0.1"/><path d="M87.21,70a3,3,0,0,1-.77.06H31.22a3.91,3.91,0,0,1-1-.06V67.71a2.89,2.89,0,0,1,1-.07H86.44a2.21,2.21,0,0,1,.77.07Z" style="fill:#106ebe;opacity:0.5"/><rect x="31.44" y="68.05" width="7.34" height="1.61" rx="0.8" ry="0.8" style="fill:#1a9bf5"/><rect x="74.79" y="68.05" width="2.58" height="1.61" rx="0.8" ry="0.8" style="fill:#1a9bf5"/><rect x="78.42" y="68.05" width="2.58" height="1.61" rx="0.8" ry="0.8" style="fill:#1a9bf5"/><rect x="82.05" y="68.05" width="2.58" height="1.61" rx="0.8" ry="0.8" style="fill:#1a9bf5"/></svg>