<svg width="93" height="69" viewBox="0 0 93 69" fill="none" xmlns="http://www.w3.org/2000/svg">
<path d="M0 6C0 2.68629 2.68629 0 6 0H32.3477C35.6614 0 38.3477 2.68629 38.3477 6V18H0V6Z" fill="#58A0D1"/>
<path d="M38 7.18628H87C90.3137 7.18628 93 9.87257 93 13.1863V17.9999H44C40.6863 17.9999 38 15.3136 38 11.9999V7.18628Z" fill="#58A0D1"/>
<path fill-rule="evenodd" clip-rule="evenodd" d="M41.6719 7.18551C41.6457 7.18607 41.6195 7.18635 41.5932 7.18635C39.7729 7.18635 38.2687 5.83273 38.0323 4.07715H38V7.43618H41.6719V7.18551Z" fill="#58A0D1"/>
<rect y="12.0288" width="93" height="56" rx="6" fill="#88CFF7"/>
<path d="M32.9844 54.125H60.0156C63.2969 54.125 64.9219 52.5 64.9219 49.2812V30.2031C64.9219 26.9844 63.2969 25.3594 60.0156 25.3594H32.9844C29.7188 25.3594 28.0781 26.9688 28.0781 30.2031V49.2812C28.0781 52.5156 29.7188 54.125 32.9844 54.125ZM54.0312 39.7031C53.3281 39.0781 52.5156 38.75 51.6719 38.75C50.8125 38.75 50.0469 39.0469 49.3281 39.6875L42.2656 46L39.375 43.375C38.7188 42.7969 38 42.4844 37.2656 42.4844C36.5625 42.4844 35.9062 42.7812 35.25 43.3594L30.5938 47.5625V30.3281C30.5938 28.7031 31.4531 27.875 33.0156 27.875H59.9844C61.5312 27.875 62.4062 28.7031 62.4062 30.3281V47.5781L54.0312 39.7031ZM39.7188 39.875C41.7344 39.875 43.3906 38.2188 43.3906 36.1875C43.3906 34.1719 41.7344 32.5 39.7188 32.5C37.6875 32.5 36.0312 34.1719 36.0312 36.1875C36.0312 38.2188 37.6875 39.875 39.7188 39.875Z" fill="#58A0D1"/>
</svg>
