<svg xmlns="http://www.w3.org/2000/svg" viewBox="0 0 470 252"><title>D Windows - LM - Pg 6 copy 2</title><g id="Layer_1" data-name="Layer 1"><path d="M272.757,193.636q-57.621,10.905-114.446,21.67c-24.118-50.513-35.064-103.838-32.836-154.927q56.1-8.744,112.72-17.391C237.268,92.093,248.789,143.854,272.757,193.636Z" style="fill:#a7cbf6;opacity:0.7000000000000001"/><path d="M155.222,100.26l-8,1.452a2.321,2.321,0,0,1-2.8-2.085q-.34-3.96-.579-7.913a3,3,0,0,1,2.453-3.009l8.063-1.446a2.222,2.222,0,0,1,2.721,2.076q.206,3.95.516,7.908A2.917,2.917,0,0,1,155.222,100.26Z" style="fill:#fff"/><path d="M158.618,126.363l-7.878,1.456a2.553,2.553,0,0,1-2.982-2.091q-.677-3.974-1.251-7.947a2.719,2.719,0,0,1,2.2-3.026l7.94-1.454a2.446,2.446,0,0,1,2.9,2.089q.543,3.971,1.189,7.945A2.649,2.649,0,0,1,158.618,126.363Z" style="fill:#fff"/><path d="M164.227,152.481l-7.756,1.452a2.811,2.811,0,0,1-3.158-2.085q-1.012-3.968-1.924-7.938a2.474,2.474,0,0,1,1.94-3.026l7.817-1.455a2.692,2.692,0,0,1,3.075,2.09q.879,3.972,1.862,7.94A2.409,2.409,0,0,1,164.227,152.481Z" style="fill:#fff"/><path d="M172.047,178.472l-7.632,1.441a3.1,3.1,0,0,1-3.336-2.069q-1.349-3.937-2.6-7.886a2.252,2.252,0,0,1,1.684-3.009l7.694-1.447a2.959,2.959,0,0,1,3.251,2.078q1.215,3.951,2.535,7.892A2.194,2.194,0,0,1,172.047,178.472Z" style="fill:#fff"/><path d="M223.023,84.028q-26.577,4.747-53,9.511a1.477,1.477,0,0,1-1.8-1.362q-.052-.844-.1-1.69a1.969,1.969,0,0,1,1.61-1.971q26.5-4.755,53.16-9.494a1.409,1.409,0,0,1,1.743,1.355q.02.843.043,1.685A2.026,2.026,0,0,1,223.023,84.028Z" style="fill:#fff"/><path d="M225.038,110.05q-26.171,4.779-52.193,9.565a1.623,1.623,0,0,1-1.917-1.368q-.125-.85-.244-1.7a1.786,1.786,0,0,1,1.442-1.981q26.1-4.782,52.35-9.559a1.55,1.55,0,0,1,1.859,1.366q.091.849.187,1.7A1.836,1.836,0,0,1,225.038,110.05Z" style="fill:#fff"/><path d="M229.266,136.175q-25.766,4.785-51.384,9.568a1.787,1.787,0,0,1-2.032-1.367q-.2-.851-.388-1.7a1.622,1.622,0,0,1,1.275-1.981q25.695-4.785,51.539-9.572a1.705,1.705,0,0,1,1.975,1.369c.109.566.219,1.134.331,1.7A1.668,1.668,0,0,1,229.266,136.175Z" style="fill:#fff"/><path d="M235.705,162.262q-25.362,4.765-50.573,9.518a1.97,1.97,0,0,1-2.15-1.359q-.267-.844-.531-1.689a1.482,1.482,0,0,1,1.107-1.971q25.292-4.76,50.73-9.532a1.876,1.876,0,0,1,2.09,1.364q.234.847.475,1.7A1.519,1.519,0,0,1,235.705,162.262Z" style="fill:#fff"/><path d="M153.91,185.364A12.685,12.685,0,0,0,134.3,175.075a14.423,14.423,0,0,0-13.071-8.311,14.415,14.415,0,0,0-11.424,5.585A14.064,14.064,0,0,0,106.838,181c0,.306.027.6.046.9-.285-.02-.571-.043-.862-.043a11.813,11.813,0,1,0,0,23.624h45.537a10.183,10.183,0,0,0,2.351-20.119Z" style="fill:#2b88d8"/><g id="Layer5_1_MEMBER_0_MEMBER_0_FILL" data-name="Layer5 1 MEMBER 0 MEMBER 0 FILL"><path d="M372.287,27.11a16.965,16.965,0,0,0-11.279-5.992l-80.425-9.956a16.014,16.014,0,0,0-18.511,13.961l-23.253,187.67a15.384,15.384,0,0,0,3.387,11.848,17.235,17.235,0,0,0,11.235,6.3l80.425,9.956a16.158,16.158,0,0,0,12.323-3.346,14.829,14.829,0,0,0,6.345-10.592l23.252-187.67A15.811,15.811,0,0,0,372.287,27.11Z" style="fill:#0078d4"/></g><g id="Layer5_1_MEMBER_0_MEMBER_1_FILL" data-name="Layer5 1 MEMBER 0 MEMBER 1 FILL"><path d="M273.88,21.785a8.832,8.832,0,0,0-3.753,6.236L247.466,211.113a8.833,8.833,0,0,0,2.065,6.981,9.5,9.5,0,0,0,6.5,3.621l77.727,9.727a9.634,9.634,0,0,0,7.31-1.856,8.832,8.832,0,0,0,3.753-6.236L367.487,40.257a8.835,8.835,0,0,0-2.064-6.98,9.867,9.867,0,0,0-6.609-3.634l-77.727-9.727A9.509,9.509,0,0,0,273.88,21.785Z" style="fill:#fff"/></g><path d="M131.484,209.2c.085-5.461,4.9-9.866,10.843-9.866a11.457,11.457,0,0,1,5.956,1.647,11.237,11.237,0,0,1,1.427-2.177,12.943,12.943,0,0,1,19.553,0,10.763,10.763,0,0,1,2.538,6.908c0,.244-.023.483-.039.723.244-.016.489-.034.738-.034,5.648,0,10.227,4.224,10.227,9.435s-4.579,9.435-10.227,9.435h-39c-4.876,0-8.83-3.647-8.83-8.146A8.315,8.315,0,0,1,131.484,209.2Z" style="fill:#a7cbf6"/><path d="M313.36,124.932l13.017-4.882a17.375,17.375,0,0,0-30.284-9.629Z" style="fill:#0364b8"/><path d="M303.2,113.527v0a13.9,13.9,0,0,0-21.318,16.919l19.512,3.328L313.765,122.1Z" style="fill:#0078d4"/><path d="M326.377,120.05a11.212,11.212,0,0,0-5.312.143h0l-7.3,1.911,4.566,10.982,14.776,4.722a11.293,11.293,0,0,0-6.73-17.757Z" style="fill:#1490df"/><path d="M313.765,122.1l-31.88,8.345a13.877,13.877,0,0,0,10.442,7.511l30.1,4.312a11.288,11.288,0,0,0,10.683-4.464Z" style="fill:#28a8ea"/><rect x="280.751" y="94.934" width="55.596" height="55.596" transform="translate(20.524 -42.518) rotate(8.153)" style="fill:none"/></g></svg>