<svg xmlns="http://www.w3.org/2000/svg" xmlns:xlink="http://www.w3.org/1999/xlink" viewBox="0 0 470 220"><defs><clipPath id="clip-path"><path d="M139.883,81.285V59.569H117.221V91.148h24.354v-9.14Z" style="fill:none"/></clipPath><clipPath id="clip-path-2"><path d="M139.883,146.485V124.769H117.221v31.579h24.354v-9.14Z" style="fill:none"/></clipPath><linearGradient id="linear-gradient" x1="445.99" y1="251.986" x2="275.023" y2="110.882" gradientUnits="userSpaceOnUse"><stop offset="0" stop-color="#1e939e"/><stop offset="0.413" stop-color="#23a9b6"/><stop offset="0.811" stop-color="#28c2d1"/></linearGradient><linearGradient id="linear-gradient-2" x1="351.14" y1="249.827" x2="356.602" y2="118.084" gradientUnits="userSpaceOnUse"><stop offset="0" stop-color="#22a4b0"/><stop offset="0.61" stop-color="#26bac8"/><stop offset="0.811" stop-color="#28c2d1"/></linearGradient><radialGradient id="radial-gradient" cx="1124.232" cy="-1397.698" r="9.966" gradientTransform="matrix(-1.198, -0.107, 0.156, -1.75, 1919.066, -2231.352)" gradientUnits="userSpaceOnUse"><stop offset="0" stop-color="#9a653d"/><stop offset="0.999" stop-color="#b5855e"/></radialGradient><radialGradient id="radial-gradient-2" cx="-730.54" cy="677.801" r="0.109" gradientTransform="matrix(-0.973, 0.231, -0.244, -1.026, -194.324, 941.286)" gradientUnits="userSpaceOnUse"><stop offset="0" stop-color="#9a653d"/><stop offset="0.271" stop-color="#a36f47" stop-opacity="0.754"/><stop offset="0.873" stop-color="#b88861" stop-opacity="0.136"/><stop offset="1" stop-color="#bd8e67" stop-opacity="0"/></radialGradient></defs><title>Dark-FRE-OneDrive-page2</title><g id="Dark_IMG_2" data-name="Dark IMG 2"><circle cx="355.614" cy="119.82" r="82.546" style="fill:#0078d4"/><path d="M355.614,202.366a82.58,82.58,0,0,0,78.863-58.1c-5.022-4.169-13.72-4.936-15.571-11.337-2.406-8.321,2.861-14.91-1.268-22.639s-13.6-7.983-19.225-15.294-6.848-23.1-6.848-23.1l-27.41-12.579-1.532,7.414-1.992-8.185L332.715,74.381s1.5,17.745-3.861,25.247-15.845,6.944-19.7,14.812,6.127,15.275,4.013,23.675-18.17,8.27-21.707,17.033a35.583,35.583,0,0,0-2.26,13.682A82.421,82.421,0,0,0,355.614,202.366Z" style="fill:#f9f9f8"/><rect x="27.077" y="16.781" width="270.256" height="187.372" style="fill:#605e5c"/><path d="M300.333,207.153H24.078V13.781H300.333Zm-270.255-6H294.333V19.781H30.078Z" style="fill:#3b3a39"/><rect x="28.944" y="29.309" width="39.972" height="14.1" rx="0.02" style="fill:#3cc1f4"/><rect x="27.311" y="42.384" width="270.022" height="6" style="fill:#3b3a39"/><rect x="76.366" y="34.714" width="22.15" height="3.29" rx="0.02" style="fill:#3b3a39"/><rect x="37.827" y="34.714" width="22.208" height="3.29" rx="0.02" style="fill:#3b3a39"/><rect x="109.314" y="34.714" width="22.216" height="3.29" rx="0.02" style="fill:#3b3a39"/><rect x="143.758" y="34.714" width="22.317" height="3.29" rx="0.02" style="fill:#3b3a39"/><rect x="28.156" y="16.781" width="269.177" height="12.528" style="fill:#3b3a39"/><rect x="98.7" y="45.384" width="6" height="158.769" style="fill:#3b3a39"/><g style="clip-path:url(#clip-path)"><rect x="117.221" y="59.569" width="0.054" height="31.579" style="fill:#f7b547"/><rect x="117.275" y="59.569" width="0.333" height="31.579" style="fill:#f7b547"/><rect x="117.608" y="59.569" width="0.333" height="31.579" style="fill:#f7b548"/><rect x="117.941" y="59.569" width="0.333" height="31.579" style="fill:#f7b649"/><rect x="118.274" y="59.569" width="0.333" height="31.579" style="fill:#f7b64a"/><rect x="118.606" y="59.569" width="0.333" height="31.579" style="fill:#f7b74b"/><rect x="118.939" y="59.569" width="0.333" height="31.579" style="fill:#f8b74c"/><rect x="119.272" y="59.569" width="0.333" height="31.579" style="fill:#f8b84d"/><rect x="119.605" y="59.569" width="0.333" height="31.579" style="fill:#f8b84e"/><rect x="119.938" y="59.569" width="0.333" height="31.579" style="fill:#f8b94f"/><rect x="120.271" y="59.569" width="0.333" height="31.579" style="fill:#f8b950"/><rect x="120.604" y="59.569" width="0.333" height="31.579" style="fill:#f8b951"/><rect x="120.937" y="59.569" width="0.333" height="31.579" style="fill:#f8ba52"/><rect x="121.27" y="59.569" width="0.333" height="31.579" style="fill:#f8ba53"/><rect x="121.602" y="59.569" width="0.333" height="31.579" style="fill:#f8bb54"/><rect x="121.935" y="59.569" width="0.333" height="31.579" style="fill:#f9bb55"/><rect x="122.268" y="59.569" width="0.333" height="31.579" style="fill:#f9bc56"/><rect x="122.601" y="59.569" width="0.333" height="31.579" style="fill:#f9bc57"/><rect x="122.934" y="59.569" width="0.333" height="31.579" style="fill:#f9bd58"/><rect x="123.267" y="59.569" width="0.333" height="31.579" style="fill:#f9bd59"/><rect x="123.6" y="59.569" width="0.333" height="31.579" style="fill:#f9bd5a"/><rect x="123.933" y="59.569" width="0.333" height="31.579" style="fill:#f9be5b"/><rect x="124.265" y="59.569" width="0.333" height="31.579" style="fill:#f9be5c"/><rect x="124.598" y="59.569" width="0.333" height="31.579" style="fill:#f9bf5d"/><rect x="124.931" y="59.569" width="0.333" height="31.579" style="fill:#fabf5e"/><rect x="125.264" y="59.569" width="0.333" height="31.579" style="fill:#fac05f"/><rect x="125.597" y="59.569" width="0.333" height="31.579" style="fill:#fac060"/><rect x="125.93" y="59.569" width="0.333" height="31.579" style="fill:#fac161"/><rect x="126.263" y="59.569" width="0.333" height="31.579" style="fill:#fac162"/><rect x="126.596" y="59.569" width="0.333" height="31.579" style="fill:#fac163"/><rect x="126.928" y="59.569" width="0.333" height="31.579" style="fill:#fac264"/><rect x="127.261" y="59.569" width="0.333" height="31.579" style="fill:#fac265"/><rect x="127.594" y="59.569" width="0.333" height="31.579" style="fill:#fac366"/><rect x="127.927" y="59.569" width="0.333" height="31.579" style="fill:#fbc367"/><rect x="128.26" y="59.569" width="0.333" height="31.579" style="fill:#fbc468"/><rect x="128.593" y="59.569" width="0.333" height="31.579" style="fill:#fbc469"/><rect x="128.926" y="59.569" width="0.333" height="31.579" style="fill:#fbc56a"/><rect x="129.259" y="59.569" width="0.333" height="31.579" style="fill:#fbc56c"/><rect x="129.591" y="59.569" width="0.333" height="31.579" style="fill:#fbc56d"/><rect x="129.924" y="59.569" width="0.333" height="31.579" style="fill:#fbc66e"/><rect x="130.257" y="59.569" width="0.333" height="31.579" style="fill:#fbc66f"/><rect x="130.59" y="59.569" width="0.333" height="31.579" style="fill:#fbc770"/><rect x="130.923" y="59.569" width="0.333" height="31.579" style="fill:#fcc771"/><rect x="131.256" y="59.569" width="0.333" height="31.579" style="fill:#fcc872"/><rect x="131.589" y="59.569" width="0.333" height="31.579" style="fill:#fcc873"/><rect x="131.922" y="59.569" width="0.333" height="31.579" style="fill:#fcc974"/><rect x="132.254" y="59.569" width="0.333" height="31.579" style="fill:#fcc975"/><rect x="132.587" y="59.569" width="0.333" height="31.579" style="fill:#fcc976"/><rect x="132.92" y="59.569" width="0.333" height="31.579" style="fill:#fcca77"/><rect x="133.253" y="59.569" width="0.333" height="31.579" style="fill:#fcca78"/><rect x="133.586" y="59.569" width="0.333" height="31.579" style="fill:#fccb79"/><rect x="133.919" y="59.569" width="0.333" height="31.579" style="fill:#fdcb7a"/><rect x="134.252" y="59.569" width="0.333" height="31.579" style="fill:#fdcc7b"/><rect x="134.585" y="59.569" width="0.333" height="31.579" style="fill:#fdcc7c"/><rect x="134.917" y="59.569" width="0.333" height="31.579" style="fill:#fdcd7d"/><rect x="135.25" y="59.569" width="0.333" height="31.579" style="fill:#fdcd7e"/><rect x="135.583" y="59.569" width="0.333" height="31.579" style="fill:#fdcd7f"/><rect x="135.916" y="59.569" width="0.333" height="31.579" style="fill:#fdce80"/><rect x="136.249" y="59.569" width="0.333" height="31.579" style="fill:#fdce81"/><rect x="136.582" y="59.569" width="0.333" height="31.579" style="fill:#fdcf82"/><rect x="136.915" y="59.569" width="0.333" height="31.579" style="fill:#fecf83"/><rect x="137.248" y="59.569" width="0.333" height="31.579" style="fill:#fed084"/><rect x="137.58" y="59.569" width="0.333" height="31.579" style="fill:#fed085"/><rect x="137.913" y="59.569" width="0.333" height="31.579" style="fill:#fed186"/><rect x="138.246" y="59.569" width="0.333" height="31.579" style="fill:#fed187"/><rect x="138.579" y="59.569" width="0.333" height="31.579" style="fill:#fed188"/><rect x="138.912" y="59.569" width="0.333" height="31.579" style="fill:#fed289"/><rect x="139.245" y="59.569" width="0.333" height="31.579" style="fill:#fed28a"/><rect x="139.578" y="59.569" width="0.333" height="31.579" style="fill:#fed38b"/><rect x="139.911" y="59.569" width="0.333" height="31.579" style="fill:#ffd38c"/><rect x="140.243" y="59.569" width="0.333" height="31.579" style="fill:#ffd48d"/><rect x="140.576" y="59.569" width="0.333" height="31.579" style="fill:#ffd48e"/><rect x="140.909" y="59.569" width="0.333" height="31.579" style="fill:#ffd58f"/><rect x="141.242" y="59.569" width="0.333" height="31.579" style="fill:#ffd590"/></g><path d="M125.972,95.754l-8.751-4.606q.018-15.789.035-31.579l8.731,5.863Z" style="fill:#ffe699"/><g style="clip-path:url(#clip-path-2)"><rect x="117.221" y="124.769" width="0.054" height="31.579" style="fill:#f7b547"/><rect x="117.275" y="124.769" width="0.333" height="31.579" style="fill:#f7b547"/><rect x="117.608" y="124.769" width="0.333" height="31.579" style="fill:#f7b548"/><rect x="117.941" y="124.769" width="0.333" height="31.579" style="fill:#f7b649"/><rect x="118.274" y="124.769" width="0.333" height="31.579" style="fill:#f7b64a"/><rect x="118.606" y="124.769" width="0.333" height="31.579" style="fill:#f7b74b"/><rect x="118.939" y="124.769" width="0.333" height="31.579" style="fill:#f8b74c"/><rect x="119.272" y="124.769" width="0.333" height="31.579" style="fill:#f8b84d"/><rect x="119.605" y="124.769" width="0.333" height="31.579" style="fill:#f8b84e"/><rect x="119.938" y="124.769" width="0.333" height="31.579" style="fill:#f8b94f"/><rect x="120.271" y="124.769" width="0.333" height="31.579" style="fill:#f8b950"/><rect x="120.604" y="124.769" width="0.333" height="31.579" style="fill:#f8b951"/><rect x="120.937" y="124.769" width="0.333" height="31.579" style="fill:#f8ba52"/><rect x="121.27" y="124.769" width="0.333" height="31.579" style="fill:#f8ba53"/><rect x="121.602" y="124.769" width="0.333" height="31.579" style="fill:#f8bb54"/><rect x="121.935" y="124.769" width="0.333" height="31.579" style="fill:#f9bb55"/><rect x="122.268" y="124.769" width="0.333" height="31.579" style="fill:#f9bc56"/><rect x="122.601" y="124.769" width="0.333" height="31.579" style="fill:#f9bc57"/><rect x="122.934" y="124.769" width="0.333" height="31.579" style="fill:#f9bd58"/><rect x="123.267" y="124.769" width="0.333" height="31.579" style="fill:#f9bd59"/><rect x="123.6" y="124.769" width="0.333" height="31.579" style="fill:#f9bd5a"/><rect x="123.933" y="124.769" width="0.333" height="31.579" style="fill:#f9be5b"/><rect x="124.265" y="124.769" width="0.333" height="31.579" style="fill:#f9be5c"/><rect x="124.598" y="124.769" width="0.333" height="31.579" style="fill:#f9bf5d"/><rect x="124.931" y="124.769" width="0.333" height="31.579" style="fill:#fabf5e"/><rect x="125.264" y="124.769" width="0.333" height="31.579" style="fill:#fac05f"/><rect x="125.597" y="124.769" width="0.333" height="31.579" style="fill:#fac060"/><rect x="125.93" y="124.769" width="0.333" height="31.579" style="fill:#fac161"/><rect x="126.263" y="124.769" width="0.333" height="31.579" style="fill:#fac162"/><rect x="126.596" y="124.769" width="0.333" height="31.579" style="fill:#fac163"/><rect x="126.928" y="124.769" width="0.333" height="31.579" style="fill:#fac264"/><rect x="127.261" y="124.769" width="0.333" height="31.579" style="fill:#fac265"/><rect x="127.594" y="124.769" width="0.333" height="31.579" style="fill:#fac366"/><rect x="127.927" y="124.769" width="0.333" height="31.579" style="fill:#fbc367"/><rect x="128.26" y="124.769" width="0.333" height="31.579" style="fill:#fbc468"/><rect x="128.593" y="124.769" width="0.333" height="31.579" style="fill:#fbc469"/><rect x="128.926" y="124.769" width="0.333" height="31.579" style="fill:#fbc56a"/><rect x="129.259" y="124.769" width="0.333" height="31.579" style="fill:#fbc56c"/><rect x="129.591" y="124.769" width="0.333" height="31.579" style="fill:#fbc56d"/><rect x="129.924" y="124.769" width="0.333" height="31.579" style="fill:#fbc66e"/><rect x="130.257" y="124.769" width="0.333" height="31.579" style="fill:#fbc66f"/><rect x="130.59" y="124.769" width="0.333" height="31.579" style="fill:#fbc770"/><rect x="130.923" y="124.769" width="0.333" height="31.579" style="fill:#fcc771"/><rect x="131.256" y="124.769" width="0.333" height="31.579" style="fill:#fcc872"/><rect x="131.589" y="124.769" width="0.333" height="31.579" style="fill:#fcc873"/><rect x="131.922" y="124.769" width="0.333" height="31.579" style="fill:#fcc974"/><rect x="132.254" y="124.769" width="0.333" height="31.579" style="fill:#fcc975"/><rect x="132.587" y="124.769" width="0.333" height="31.579" style="fill:#fcc976"/><rect x="132.92" y="124.769" width="0.333" height="31.579" style="fill:#fcca77"/><rect x="133.253" y="124.769" width="0.333" height="31.579" style="fill:#fcca78"/><rect x="133.586" y="124.769" width="0.333" height="31.579" style="fill:#fccb79"/><rect x="133.919" y="124.769" width="0.333" height="31.579" style="fill:#fdcb7a"/><rect x="134.252" y="124.769" width="0.333" height="31.579" style="fill:#fdcc7b"/><rect x="134.585" y="124.769" width="0.333" height="31.579" style="fill:#fdcc7c"/><rect x="134.917" y="124.769" width="0.333" height="31.579" style="fill:#fdcd7d"/><rect x="135.25" y="124.769" width="0.333" height="31.579" style="fill:#fdcd7e"/><rect x="135.583" y="124.769" width="0.333" height="31.579" style="fill:#fdcd7f"/><rect x="135.916" y="124.769" width="0.333" height="31.579" style="fill:#fdce80"/><rect x="136.249" y="124.769" width="0.333" height="31.579" style="fill:#fdce81"/><rect x="136.582" y="124.769" width="0.333" height="31.579" style="fill:#fdcf82"/><rect x="136.915" y="124.769" width="0.333" height="31.579" style="fill:#fecf83"/><rect x="137.248" y="124.769" width="0.333" height="31.579" style="fill:#fed084"/><rect x="137.58" y="124.769" width="0.333" height="31.579" style="fill:#fed085"/><rect x="137.913" y="124.769" width="0.333" height="31.579" style="fill:#fed186"/><rect x="138.246" y="124.769" width="0.333" height="31.579" style="fill:#fed187"/><rect x="138.579" y="124.769" width="0.333" height="31.579" style="fill:#fed188"/><rect x="138.912" y="124.769" width="0.333" height="31.579" style="fill:#fed289"/><rect x="139.245" y="124.769" width="0.333" height="31.579" style="fill:#fed28a"/><rect x="139.578" y="124.769" width="0.333" height="31.579" style="fill:#fed38b"/><rect x="139.911" y="124.769" width="0.333" height="31.579" style="fill:#ffd38c"/><rect x="140.243" y="124.769" width="0.333" height="31.579" style="fill:#ffd48d"/><rect x="140.576" y="124.769" width="0.333" height="31.579" style="fill:#ffd48e"/><rect x="140.909" y="124.769" width="0.333" height="31.579" style="fill:#ffd58f"/><rect x="141.242" y="124.769" width="0.333" height="31.579" style="fill:#ffd590"/></g><path d="M125.972,160.954l-8.751-4.606q.018-15.789.035-31.579l8.731,5.863Z" style="fill:#ffe699"/><path d="M122.7,163.775a2.251,2.251,0,0,1,2.321,2.174v.435s.4-.008.459-.008a1.747,1.747,0,1,1,0,3.488h-5.1a2.183,2.183,0,1,1,0-4.358h.044a2.29,2.29,0,0,1,2.273-1.732m.017-.821a3.331,3.331,0,0,0-2.025.68,3.031,3.031,0,0,0-.892,1.1,3.22,3.22,0,0,0-1.653.825,2.87,2.87,0,0,0,0,4.23,3.267,3.267,0,0,0,2.254.878h5.1a2.79,2.79,0,0,0,1.926-.751,2.456,2.456,0,0,0,0-3.615,2.767,2.767,0,0,0-1.542-.725,3.127,3.127,0,0,0-3.165-2.626Z" style="fill:#3cc1f4"/><rect x="34.986" y="56.213" width="57.722" height="3.586" rx="0.02" style="fill:#3b3a39"/><rect x="34.986" y="93.337" width="57.722" height="3.586" rx="0.02" style="fill:#3b3a39"/><rect x="30.078" y="67.41" width="68.623" height="17.82" style="fill:#3b3a39;opacity:0.9"/><path d="M43.068,76.687l3-1.642a4.272,4.272,0,0,0-7.706-1.287Z" style="fill:#0364b8"/><path d="M40.2,74.266h0a3.417,3.417,0,0,0-4.6,4.861l4.865.13,2.6-3.272Z" style="fill:#0078d4"/><path d="M46.066,75.045a2.778,2.778,0,0,0-1.288.22h0l-1.71.72L44.562,78.5l3.761.634a2.777,2.777,0,0,0-2.257-4.087Z" style="fill:#1490df"/><path d="M43.068,75.985,35.6,79.127a3.413,3.413,0,0,0,2.8,1.464h7.475a2.775,2.775,0,0,0,2.444-1.459Z" style="fill:#28a8ea"/><rect x="34.986" y="69.485" width="13.669" height="13.669" style="fill:none"/><path d="M92.691,78.113h-37.9a.017.017,0,0,1-.018-.014V74.541a.016.016,0,0,1,.018-.014s37.919.006,37.919.014S92.7,78.113,92.691,78.113Z" style="fill:#605e5c"/><path d="M262.361,126.307a60.46,60.46,0,0,0,27.264,13.957,5.012,5.012,0,0,1,2.837,1.676c3.33,4.221-1.171,15.961-6.866,16.492a5.943,5.943,0,0,1-4.19-1.466l-22.243-27.237Z" style="fill:#b5855e"/><path d="M281.406,156.966a43.349,43.349,0,0,0,9.218,7.123c15.153,8.712,31.295,5.536,36.844,4.168.1-1.266.621-7.706,1.3-12.644.3-2.186.587-3.708.7-4.314.375-1.962.734-3.431.887-4.044.269-1.073.549-2.087.724-2.668a34.844,34.844,0,0,1,3.02-6.795,50.389,50.389,0,0,1,8.907-11.907,65.208,65.208,0,0,1-13.236,8.411c-16.692,7.957-32.674,6.749-40.637,5.53l-4.858-1.258Q282.843,147.766,281.406,156.966Z" style="fill:url(#linear-gradient)"/><path d="M248.315,136.345l-39.065-6.662,8.534-50.045,23.154,3.948q6.632,9.12,13.264,18.238Z" style="fill:#fff"/><path d="M248.315,136.345l-39.065-6.662,8.534-50.045,23.154,3.948q6.632,9.12,13.264,18.238Z" style="fill:#3cc1f4;opacity:0.5"/><polygon points="254.202 101.824 238.29 99.111 240.938 83.586 254.202 101.824" style="fill:#3cc1f4"/><path d="M250.477,123.549c1.9,3.181,5.242,4.67,9.554,6.585l3.207-2.239s-3.092-9.689-5.857-12.979c-.015-.025-4.483-5.621-5.262-6.667a1.44,1.44,0,0,0-2.719.5c-.048.223,2.27,7.135,2.27,7.135Z" style="fill:#b5855e"/><path d="M391.636,72.22a33.041,33.041,0,0,1-.215,3.852A31.317,31.317,0,0,1,383.15,94a28.388,28.388,0,0,1-20.624,9.081l-.5,0c-14.972.049-27.356-11.778-29.1-27.065a31.8,31.8,0,0,1-.213-3.607,27.361,27.361,0,0,1,7.374-18.924,25.345,25.345,0,0,1,7.775-5.633A24.212,24.212,0,0,1,358.008,45.6l8.16-.027a24.16,24.16,0,0,1,10.381,2.3A26.833,26.833,0,0,1,391.636,72.22Z" style="fill:#f9f9f8"/><circle cx="363.451" cy="143.699" r="15.562" style="fill:#8a8bc3"/><path d="M372.41,120.443a17.051,17.051,0,0,0-11.652-3.46c-4.429.281-8.565.316-11.456,2.5-7.2,5.451-13.7,12.2-18.171,22.26-4.415,9.959-5.538,35.113-5.689,54.9A82.529,82.529,0,0,0,381.5,198.2c-.6-5.057-1.1-9.632-1.1-9.632a83.644,83.644,0,0,1,1.183-29.541C384.837,141.258,380.806,126.794,372.41,120.443Z" style="fill:url(#linear-gradient-2)"/><path d="M372.071,120.178h0a29.732,29.732,0,0,1-2.623-15.111l1.419-15.907-14.2-1.266-1.2,23.31a8.552,8.552,0,0,1-3.537,6.491.758.758,0,0,0,.39,1.38Z" style="fill:url(#radial-gradient)"/><path d="M349.567,59.7h4.473A11.852,11.852,0,0,1,365.892,71.55V90.433a15.985,15.985,0,0,1-15.985,15.985h0a12.474,12.474,0,0,1-12.474-12.474V71.831A12.134,12.134,0,0,1,349.567,59.7Z" transform="translate(-3.936 18.913) rotate(-3.064)" style="fill:#b5855e"/><ellipse cx="343.403" cy="83.029" rx="1.525" ry="3.003" transform="translate(-2.945 13.296) rotate(-2.209)" style="fill:#3a312e"/><path d="M337.616,81.586a11.841,11.841,0,0,1-3.126,7.744,2.5,2.5,0,0,0,.03,3.8c.6.533,3.778,1.715,3.9,3.4" style="fill:#b5855e"/><rect x="351.147" y="77.002" width="0.237" height="0.237" transform="translate(-3.62 18.883) rotate(-3.064)" style="fill:url(#radial-gradient-2)"/><path d="M341.753,96.72a3.822,3.822,0,0,0,1.37-.166c.337-.1.639-.213.96-.339s.644-.266.985-.422a4.565,4.565,0,0,0,1.165-.7l.15-.128a.626.626,0,0,1,.882.073.657.657,0,0,1,.084.128A2.593,2.593,0,0,1,347.1,97.6a3.771,3.771,0,0,1-1.89,1.538,3.722,3.722,0,0,1-2.486.073,2.637,2.637,0,0,1-1.738-1.683.643.643,0,0,1,.64-.814Z" style="fill:#9a653d"/><path d="M372.41,120.443c-4.311-.621-8.023.119-13.517.809-5.315.668-9.041-.766-9.591-1.764a20.649,20.649,0,0,1,12.013-4.253C365.745,114.954,369.136,117.952,372.41,120.443Z" style="fill:#b5855e"/><path d="M337.7,67.679l6.382-.043a14.743,14.743,0,0,0,14.74,13.747l17.741-.278.922-22.271-39.862.131.077,8.714" style="fill:#f9f9f8"/><path d="M340.8,62.982h0a3.291,3.291,0,0,1,3.291,3.291V67.8a0,0,0,0,1,0,0H337.5a0,0,0,0,1,0,0V66.273a3.291,3.291,0,0,1,3.291-3.291Z" style="fill:#e1dfdd"/><path d="M366.978,81.247h6.771a0,0,0,0,1,0,0V91.691a0,0,0,0,1,0,0h-6.771a5.222,5.222,0,0,1-5.222-5.222v0A5.222,5.222,0,0,1,366.978,81.247Z" transform="translate(737.004 166.299) rotate(178.968)" style="fill:#b5855e"/><path d="M347.441,145.7c-4.326,5.43-4.307,11.158-4.988,19.668a243.862,243.862,0,0,1-5.409,34.841c2.676.577,5.605,1.08,8.762,1.439a89.827,89.827,0,0,0,14.071.49c9.134-18.845,11.189-34.554,11.489-44.771.45-15.379-3.079-18.186-4.578-19.051C361.446,135.229,352.236,139.679,347.441,145.7Z" style="fill:#28c2d1"/><circle cx="355.614" cy="119.82" r="82.546" style="fill:none"/><path d="M399.348,187.557c2.257-7.283,11.906-5.632,13.129-20.465.731-8.847-20.492-10.7-19.982-18.8s5.595-12.906,4.52-20.761-15.727-9.544-18.142-17.283c-1.649-5.28-.763-14.156-.033-19.259-3.877,4.019-10.917,13.774-7.981,25.741,1.977,8.058,8.61,9.023,7.574,17.247s-10.595,10.382-13.146,18.367,11.751,12.352,8.866,21.043c-3.062,9.223-11.863,9.736-15.3,17.507-2.146,4.847.052,8.4,1.925,11.292a82.046,82.046,0,0,0,38.559-12.361A3.583,3.583,0,0,1,399.348,187.557Z" style="fill:#f9f9f8;opacity:0.7000000000000001"/><circle cx="355.109" cy="119.82" r="82.548" style="fill:none"/><path d="M126.425,103.754a4.2,4.2,0,1,1-4.2-4.2A4.2,4.2,0,0,1,126.425,103.754Z" style="fill:#56d62b"/><path d="M122.22,99.55a4.2,4.2,0,1,1-4.2,4.2,4.2,4.2,0,0,1,4.2-4.2m0-.8a4.991,4.991,0,1,0,1.947.393,4.968,4.968,0,0,0-1.947-.393Z" style="fill:#bbff8e"/><path d="M121.508,106.163a.5.5,0,0,1-.362-.157l-1.84-1.938a.5.5,0,0,1,.725-.688l1.476,1.555,2.9-3.083a.5.5,0,1,1,.728.686l-3.266,3.467a.5.5,0,0,1-.363.158Z" style="fill:#252423"/></g><g id="Dark_IMG_7" data-name="Dark IMG 7"><line x1="285.435" y1="24.262" x2="289.916" y2="19.781" style="fill:none;stroke:#605e5c;stroke-linecap:round;stroke-miterlimit:10"/><line x1="289.916" y1="24.262" x2="285.435" y2="19.781" style="fill:none;stroke:#605e5c;stroke-linecap:round;stroke-miterlimit:10"/><rect x="273.726" y="19.822" width="4.534" height="4.399" rx="0.26" transform="translate(551.986 44.043) rotate(180)" style="fill:none;stroke:#605e5c;stroke-linecap:round;stroke-linejoin:round"/><line x1="262.323" y1="22.021" x2="266.461" y2="22.021" style="fill:none;stroke:#605e5c;stroke-linecap:round;stroke-linejoin:round"/></g></svg>