<svg xmlns="http://www.w3.org/2000/svg" xmlns:xlink="http://www.w3.org/1999/xlink" viewBox="0 0 470 252"><defs><linearGradient id="linear-gradient" x1="174.648" y1="84.511" x2="206.019" y2="84.511" gradientUnits="userSpaceOnUse"><stop offset="0.002" stop-color="#f7b547"/><stop offset="1" stop-color="#ffd590"/></linearGradient><linearGradient id="linear-gradient-2" x1="174.648" y1="166.071" x2="206.019" y2="166.071" xlink:href="#linear-gradient"/><linearGradient id="linear-gradient-3" x1="249.866" y1="166.071" x2="281.238" y2="166.071" xlink:href="#linear-gradient"/></defs><title>D Windows - LM - Pg 3 copy 13</title><g id="Layer_1" data-name="Layer 1"><rect x="52.822" y="5.631" width="348.134" height="241.365" style="fill:#605e5c;stroke:#3b3a39;stroke-miterlimit:10;stroke-width:7px"/><rect x="230.609" y="56.749" width="69.885" height="73.298" style="fill:#3cc1f4;opacity:0.2"/><rect x="54.826" y="21.77" width="51.891" height="19.25" rx="0.02" style="fill:#3cc1f4"/><line x1="53.123" y1="42.477" x2="400.956" y2="42.477" style="fill:none;stroke:#3b3a39;stroke-miterlimit:10;stroke-width:7px"/><rect x="116.314" y="28.566" width="30.014" height="4.57" rx="0.02" style="fill:#3b3a39"/><rect x="66.669" y="28.566" width="28.607" height="4.571" rx="0.02" style="fill:#3b3a39"/><rect x="161.027" y="28.566" width="30.036" height="4.57" rx="0.02" style="fill:#3b3a39"/><rect x="207.668" y="28.566" width="29.992" height="4.57" rx="0.02" style="fill:#3b3a39"/><rect x="54.212" y="5.631" width="346.744" height="16.138" style="fill:#3b3a39"/><line x1="148.948" y1="42.477" x2="148.948" y2="246.997" style="fill:none;stroke:#3b3a39;stroke-miterlimit:10;stroke-width:7px"/><path d="M203.839,92.146V64.172H174.648v40.679h31.371V93.077Z" style="fill:url(#linear-gradient)"/><path d="M185.92,110.784l-11.272-5.933q.023-20.338.044-40.678l11.248,7.551Z" style="fill:#ffe699"/><path d="M203.839,173.706V145.732H174.648V186.41h31.371V174.636Z" style="fill:url(#linear-gradient-2)"/><path d="M185.92,192.344l-11.272-5.934q.023-20.338.044-40.678l11.248,7.552Z" style="fill:#ffe699"/><path d="M182.622,197.538A3.275,3.275,0,0,1,186,200.7v.632s.577-.012.668-.012a2.541,2.541,0,1,1,0,5.073h-7.413a3.175,3.175,0,1,1,0-6.339l.063,0a3.332,3.332,0,0,1,3.306-2.519m.026-1.194a4.835,4.835,0,0,0-2.946.99,4.4,4.4,0,0,0-1.3,1.6,4.693,4.693,0,0,0-2.4,1.2,4.176,4.176,0,0,0,0,6.153,4.748,4.748,0,0,0,3.279,1.277h7.413a4.062,4.062,0,0,0,2.8-1.092,3.573,3.573,0,0,0,0-5.257,4.024,4.024,0,0,0-2.243-1.056,4.55,4.55,0,0,0-4.6-3.819Z" style="fill:#3cc1f4"/><path d="M279.058,173.706V145.732H249.866V186.41h31.372V174.636Z" style="fill:url(#linear-gradient-3)"/><path d="M261.138,192.344l-11.272-5.934.045-40.678,11.247,7.552Z" style="fill:#ffe699"/><path d="M281.251,104.377H249.866v-40.2h18.6l12.784,12.472Z" style="fill:#fff"/><path d="M281.251,104.377H249.866v-40.2h18.6l12.784,12.472Z" style="fill:#3cc1f4;opacity:0.5"/><polygon points="281.251 76.644 268.467 76.644 268.467 64.172 281.251 76.644" style="fill:#3cc1f4"/><rect x="300.494" y="130.047" width="125.283" height="104.853" style="fill:#605e5c"/><rect x="300.494" y="130.047" width="125.283" height="104.853" style="fill:#3b3a39;opacity:0.9"/><rect x="311.598" y="140.253" width="71.916" height="5.884" style="fill:#605e5c"/><rect x="300.494" y="155.387" width="125.283" height="24.94" style="fill:#605e5c;opacity:0.6000000000000001"/><rect x="336.54" y="164.532" width="68.484" height="5.918" style="fill:#3b3a39"/><path d="M327.232,169.2a3.323,3.323,0,0,0-3.2-3.37,4.788,4.788,0,0,0-4.538-3.411,4.726,4.726,0,0,0-3.96,2.181,3.989,3.989,0,0,0-.015,7.972h8.743v-.015A3.333,3.333,0,0,0,327.232,169.2Z" style="fill:#605e5c"/><rect x="311.689" y="194.851" width="93.186" height="5.841" style="fill:#605e5c"/><rect x="311.689" y="216.139" width="76.227" height="5.842" style="fill:#605e5c"/><path d="M420.165,179.68s-10.05-9.765-10.05-9.575v13.747l3.489-3.382,2.555,5.574,2.164-.991-2.462-5.373Z" style="fill:#bebbb8;stroke:#3b3a39;stroke-linecap:round;stroke-linejoin:round"/><rect x="63.386" y="56.749" width="73.991" height="4.651" rx="0.02" style="fill:#3b3a39"/><rect x="63.386" y="104.749" width="73.991" height="4.651" rx="0.02" style="fill:#3b3a39"/><rect x="56.317" y="71.696" width="89.144" height="23.229" style="fill:#3b3a39;opacity:0.9"/><path d="M73.4,83.786l3.879-2.125A5.527,5.527,0,0,0,67.307,80Z" style="fill:#0364b8"/><path d="M69.686,80.653h0a4.421,4.421,0,0,0-5.95,6.289l6.3.168L73.4,82.877Z" style="fill:#0078d4"/><path d="M77.278,81.661a3.579,3.579,0,0,0-1.667.285h0l-2.212.931,1.933,3.252,4.866.82a3.594,3.594,0,0,0-2.92-5.288Z" style="fill:#1490df"/><path d="M73.4,82.877l-9.663,4.066a4.416,4.416,0,0,0,3.627,1.894h9.672A3.592,3.592,0,0,0,80.2,86.949Z" style="fill:#28a8ea"/><rect x="62.942" y="74.467" width="17.686" height="17.686" style="fill:none"/><path d="M137.6,85.63H88.563a.02.02,0,0,1-.022-.018v-4.6a.021.021,0,0,1,.022-.019s49.062.009,49.062.019S137.615,85.63,137.6,85.63Z" style="fill:#605e5c"/><path d="M320.879,167.909l3.409-1.867a4.858,4.858,0,0,0-8.763-1.464Z" style="fill:#0364b8"/><path d="M317.616,165.156h0a3.886,3.886,0,0,0-5.229,5.528l5.532.147,2.96-3.721Z" style="fill:#0078d4"/><path d="M324.288,166.042a3.139,3.139,0,0,0-1.465.25h0l-1.944.818,1.7,2.858,4.276.721a3.156,3.156,0,0,0-2.566-4.647Z" style="fill:#1490df"/><path d="M320.879,167.11l-8.492,3.574a3.878,3.878,0,0,0,3.187,1.664h8.5a3.157,3.157,0,0,0,2.78-1.659Z" style="fill:#28a8ea"/><rect x="311.689" y="159.72" width="15.543" height="15.543" style="fill:none"/><line x1="385.976" y1="15.188" x2="391.862" y2="9.303" style="fill:none;stroke:#605e5c;stroke-linecap:round;stroke-miterlimit:10"/><line x1="391.862" y1="15.188" x2="385.976" y2="9.303" style="fill:none;stroke:#605e5c;stroke-linecap:round;stroke-miterlimit:10"/><rect x="370.598" y="9.357" width="5.955" height="5.778" rx="0.26" transform="translate(747.151 24.491) rotate(180)" style="fill:none;stroke:#605e5c;stroke-linecap:round;stroke-linejoin:round"/><line x1="355.621" y1="12.245" x2="361.056" y2="12.245" style="fill:none;stroke:#605e5c;stroke-linecap:round;stroke-linejoin:round"/><path d="M256.858,115.139a5.885,5.885,0,1,1-5.884,5.885,5.885,5.885,0,0,1,5.884-5.885m0-1.115a6.978,6.978,0,1,0,2.726.55,6.965,6.965,0,0,0-2.726-.55Z" style="fill:#56d62b"/><path d="M253.286,120.982l2.574,2.713q2.287-2.427,4.573-4.855" style="fill:none;stroke:#56d62b;stroke-linecap:round;stroke-linejoin:round;stroke-width:1.5px"/><path d="M187.533,121.024a5.885,5.885,0,1,1-5.886-5.885A5.886,5.886,0,0,1,187.533,121.024Z" style="fill:#56d62b"/><path d="M181.647,115.139a5.885,5.885,0,1,1-5.884,5.885,5.885,5.885,0,0,1,5.884-5.885m0-1.115a6.978,6.978,0,1,0,2.725.55,6.966,6.966,0,0,0-2.725-.55Z" style="fill:#bbff8e"/><path d="M178.074,120.982l2.575,2.713,4.572-4.855" style="fill:none;stroke:#252423;stroke-linecap:round;stroke-linejoin:round;stroke-width:1.5px"/><path d="M256.865,196.459a5.885,5.885,0,1,1-5.884,5.885,5.885,5.885,0,0,1,5.884-5.885m0-1.115a6.978,6.978,0,1,0,2.726.55,6.961,6.961,0,0,0-2.726-.55Z" style="fill:#56d62b"/><path d="M253.293,202.3l2.574,2.713q2.286-2.427,4.573-4.855" style="fill:none;stroke:#56d62b;stroke-linecap:round;stroke-linejoin:round;stroke-width:1.5px"/></g></svg>