<svg xmlns="http://www.w3.org/2000/svg" xmlns:xlink="http://www.w3.org/1999/xlink" viewBox="0 0 470 220"><defs><linearGradient id="linear-gradient" x1="351.14" y1="249.76" x2="356.602" y2="118.016" gradientUnits="userSpaceOnUse"><stop offset="0" stop-color="#22a4b0"/><stop offset="0.61" stop-color="#26bac8"/><stop offset="0.811" stop-color="#28c2d1"/></linearGradient><radialGradient id="radial-gradient" cx="1224.489" cy="-1362.923" r="9.966" gradientTransform="matrix(-1.198, -0.107, 0.156, -1.75, 2033.756, -2159.851)" gradientUnits="userSpaceOnUse"><stop offset="0" stop-color="#9a653d"/><stop offset="0.999" stop-color="#b5855e"/></radialGradient><radialGradient id="radial-gradient-2" cx="-729.703" cy="646.568" r="0.109" gradientTransform="translate(-201.123 908.989) rotate(166.631) scale(1 1.054)" gradientUnits="userSpaceOnUse"><stop offset="0" stop-color="#9a653d"/><stop offset="0.271" stop-color="#a36f47" stop-opacity="0.754"/><stop offset="0.873" stop-color="#b88861" stop-opacity="0.136"/><stop offset="1" stop-color="#bd8e67" stop-opacity="0"/></radialGradient></defs><title>Dark-FRE-OneDrive-page1</title><g id="Dark_IMG_1" data-name="Dark IMG 1"><g style="opacity:0.8"><path d="M228.664,154.885a30.122,30.122,0,0,0,3.345-3.709" style="fill:none;stroke:#0078d4;stroke-linecap:round;stroke-linejoin:round;stroke-width:2px"/><path d="M236.863,142.279a23.73,23.73,0,0,0,1.1-11c-1.474-10.534-9.641-16.42-13.115-18.908-8.7-6.234-17.893-6.8-23.9-7.093-18.29-.892-21.1,6.739-41.474,7.847-1.942.1-16.245,1.7-30.78-5.7-4.92-2.5-10.956-5.685-14.322-12.7a22.555,22.555,0,0,1-1.38-3.668" style="fill:none;stroke:#0078d4;stroke-linecap:round;stroke-linejoin:round;stroke-width:2px;stroke-dasharray:10.179015159606934,10.179015159606934"/><path d="M112.145,86.053a27.179,27.179,0,0,1,.151-4.989" style="fill:none;stroke:#0078d4;stroke-linecap:round;stroke-linejoin:round;stroke-width:2px"/></g><circle cx="355.614" cy="119.753" r="82.546" style="fill:#0078d4"/><path d="M355.614,202.3a82.581,82.581,0,0,0,78.863-58.1c-5.022-4.169-13.72-4.936-15.571-11.337-2.406-8.321,2.861-14.91-1.268-22.639s-13.6-7.984-19.225-15.294-6.848-23.1-6.848-23.1l-27.41-12.579-1.532,7.414-1.992-8.186L332.714,74.314s1.5,17.745-3.86,25.247-15.845,6.944-19.7,14.812,6.127,15.275,4.013,23.675-18.17,8.27-21.707,17.033a35.583,35.583,0,0,0-2.26,13.682A82.421,82.421,0,0,0,355.614,202.3Z" style="fill:#f9f9f8"/><path d="M391.636,72.153a33.041,33.041,0,0,1-.215,3.852,31.317,31.317,0,0,1-8.271,17.93,28.392,28.392,0,0,1-20.624,9.081h-.5c-14.972.049-27.356-11.778-29.1-27.064a31.8,31.8,0,0,1-.213-3.607,27.365,27.365,0,0,1,7.374-18.925,25.378,25.378,0,0,1,7.775-5.633,24.211,24.211,0,0,1,10.143-2.257l8.16-.027a24.16,24.16,0,0,1,10.381,2.3A26.832,26.832,0,0,1,391.636,72.153Z" style="fill:#f9f9f8"/><circle cx="363.451" cy="143.632" r="15.562" style="fill:#8a8bc3"/><path d="M372.41,120.376a17.041,17.041,0,0,0-11.652-3.46c-4.429.281-8.565.315-11.456,2.505-7.2,5.451-13.7,12.2-18.171,22.26-4.415,9.959-5.538,35.113-5.689,54.9a82.513,82.513,0,0,0,56.058,1.55c-.6-5.056-1.1-9.631-1.1-9.631a83.644,83.644,0,0,1,1.183-29.541C384.837,141.191,380.806,126.727,372.41,120.376Z" style="fill:url(#linear-gradient)"/><path d="M372.071,120.111h0A29.732,29.732,0,0,1,369.448,105l1.419-15.907-14.2-1.266-1.2,23.31a8.552,8.552,0,0,1-3.537,6.491.758.758,0,0,0,.39,1.38Z" style="fill:url(#radial-gradient)"/><path d="M349.567,59.63h4.473a11.852,11.852,0,0,1,11.852,11.852V90.366a15.985,15.985,0,0,1-15.985,15.985h0a12.474,12.474,0,0,1-12.474-12.474V71.764A12.134,12.134,0,0,1,349.567,59.63Z" transform="translate(-3.933 18.913) rotate(-3.064)" style="fill:#b5855e"/><ellipse cx="343.403" cy="82.961" rx="1.525" ry="3.003" transform="translate(-2.942 13.296) rotate(-2.209)" style="fill:#3a312e"/><path d="M337.616,81.519a11.841,11.841,0,0,1-3.126,7.744,2.5,2.5,0,0,0,.03,3.8c.6.532,3.778,1.715,3.9,3.395" style="fill:#b5855e"/><rect x="351.147" y="76.935" width="0.237" height="0.237" transform="translate(-3.616 18.883) rotate(-3.064)" style="fill:url(#radial-gradient-2)"/><path d="M341.753,96.653a3.822,3.822,0,0,0,1.37-.166c.337-.1.639-.214.96-.34s.644-.265.985-.421a4.565,4.565,0,0,0,1.165-.7l.15-.128a.626.626,0,0,1,.882.073.657.657,0,0,1,.084.128,2.593,2.593,0,0,1-.254,2.439,3.771,3.771,0,0,1-1.89,1.538,3.728,3.728,0,0,1-2.486.073,2.639,2.639,0,0,1-1.738-1.684.644.644,0,0,1,.452-.791.677.677,0,0,1,.188-.023Z" style="fill:#9a653d"/><path d="M372.41,120.376c-4.311-.621-8.023.119-13.517.809-5.315.668-9.041-.766-9.591-1.764a20.649,20.649,0,0,1,12.013-4.253C365.745,114.887,369.136,117.884,372.41,120.376Z" style="fill:#b5855e"/><path d="M337.7,67.612l6.382-.043a14.743,14.743,0,0,0,14.74,13.747l17.741-.278.922-22.271-39.862.131.077,8.714" style="fill:#f9f9f8"/><path d="M340.8,62.915h0a3.291,3.291,0,0,1,3.291,3.291V67.73a0,0,0,0,1,0,0H337.5a0,0,0,0,1,0,0V66.206A3.291,3.291,0,0,1,340.8,62.915Z" style="fill:#e1dfdd"/><path d="M366.978,81.18h6.771a0,0,0,0,1,0,0V91.624a0,0,0,0,1,0,0h-6.771a5.222,5.222,0,0,1-5.222-5.222v0a5.222,5.222,0,0,1,5.222-5.222Z" transform="translate(737.002 166.165) rotate(178.968)" style="fill:#b5855e"/><circle cx="355.614" cy="119.753" r="82.546" style="fill:none"/><path d="M346.741,144.658c-1.8,13.83-3.527,29.265-13.72,37.257-11.832,9.277-31.583,2.649-31.583,2.649l-15.146-1.4a4.363,4.363,0,0,0-3.962,1.532l-6.024,6.721c-.731.817-1.1,2.062-.447,2.626s1.694-.149,2.054-.466l6.459-5.7,6.943,3.157c2.448,1.114,5.124.461,7.808-.452,12.892,12.408,30.423,17.984,45.439,13.045,29.514-9.709,27.859-52.987,27.75-55.069-.422-8.044-2.869-22.007-8.7-23.044C356.985,124.339,347.356,139.939,346.741,144.658Z" style="fill:#b5855e"/><path d="M343.055,145.513c-1.786,13.71-.761,27.881-9.78,35.348,1.552,6.56,1.984,18.348-.5,24.979,34.689,1.209,42.686-42.945,43.229-56.138C377.423,115.29,346.451,119.462,343.055,145.513Z" style="fill:#28c2d1"/><path d="M24.916,67.577c.105-6.759,6.068-12.211,13.419-12.211a14.177,14.177,0,0,1,7.37,2.039A13.9,13.9,0,0,1,47.47,54.71a16.02,16.02,0,0,1,24.2,0,13.322,13.322,0,0,1,3.142,8.549c0,.3-.029.6-.049.895.3-.02.605-.042.913-.042,6.99,0,12.657,5.227,12.657,11.676S82.664,87.465,75.674,87.465H27.408c-6.035,0-10.927-4.514-10.927-10.081A10.287,10.287,0,0,1,24.916,67.577Z" style="fill:#a7cbf6"/><path d="M167.244,57.759A22.789,22.789,0,0,0,144.9,34.981a33.289,33.289,0,0,0-59.322-8.319,26.948,26.948,0,0,0-.1,53.894v.005h61.029v-.1A22.8,22.8,0,0,0,167.244,57.759Z" style="fill:#0078d4"/><path d="M399.348,187.49c2.258-7.283,11.906-5.632,13.129-20.465.731-8.847-20.492-10.7-19.982-18.8s5.595-12.906,4.52-20.761-15.727-9.544-18.142-17.283c-1.649-5.28-.763-14.156-.033-19.259-3.877,4.019-10.917,13.773-7.981,25.741,1.977,8.058,8.61,9.023,7.574,17.246s-10.595,10.383-13.146,18.367,11.751,12.353,8.866,21.044c-3.062,9.223-11.864,9.736-15.3,17.507-2.146,4.846.052,8.4,1.925,11.292a82.036,82.036,0,0,0,38.559-12.362A3.58,3.58,0,0,1,399.348,187.49Z" style="fill:#f9f9f8;opacity:0.8"/><circle cx="355.109" cy="119.753" r="82.548" style="fill:none"/><path d="M303.608,196.48H245.193L225.3,137.431a3.5,3.5,0,1,0-6.635,2.234l19.136,56.815h-.574a3.5,3.5,0,0,0,0,7h66.377a3.5,3.5,0,0,0,0-7Z" style="fill:#0078d4"/></g></svg>