<?xml version="1.0" encoding="UTF-8"?><svg xmlns="http://www.w3.org/2000/svg" viewBox="0 0 2048 2048"><defs><style>.d{fill:#fff;}</style></defs><g id="a"/><g id="b"><g id="c"><path class="d" d="M1024,0c94,0,184.67,12,272,36s169,58.33,245,103c76,44.67,145,98,207,160s115.33,131.33,160,208c44.67,76.67,79,158.33,103,245s36.33,177.33,37,272c0,94-12,184.67-36,272s-58.33,169-103,245-98,145-160,207-131.33,115.33-208,160-158.33,79-245,103-177.33,36.33-272,37c-94,0-184.67-12-272-36s-169-58.33-245-103-145-98-207-160-115.33-131.33-160-208c-44.67-76.67-79-158-103-244S.67,1120,0,1024c0-94,12-184.67,36-272s58.33-169,103-245c44.67-76,98-145,160-207s131.33-115.33,208-160c76.67-44.67,158-79,244-103S928,.67,1024,0Zm809,640c-25.33-54-56-104.67-92-152-36-47.33-76-91-120-131s-91.67-75-143-105-105-55-161-75c24,33.33,45.67,68.67,65,106,19.33,37.33,36.33,75.67,51,115s27.67,79.67,39,121c11.33,41.33,20.67,81.67,28,121h333Zm87,384c0-88.67-12.33-174-37-256h-363c5.33,42.67,9.33,85,12,127s4,85,4,129-1.33,86-4,128-6.67,84.67-12,128h363c24.67-82,37-167.33,37-256Zm-896,896c32.67,0,63-9,91-27s54.33-41.67,79-71,46-62.33,64-99,35-74.33,51-113,28.33-75.33,37-110,16.33-65.33,23-92H679c5.33,26,13,56.67,23,92s22.33,72,37,110,31.33,75.33,50,112,40.33,70,65,100,50.67,53.67,78,71,58,26.33,92,27Zm367-640c5.33-42.67,9.33-85,12-127s4.33-85,5-129c0-43.33-1.33-86-4-128s-7-84.67-13-128H657c-5.33,42.67-9.33,85-12,127s-4.33,85-5,129c0,43.33,1.33,86,4,128s7,84.67,13,128h734ZM128,1024c0,88.67,12.33,174,37,256h363c-5.33-42.67-9.33-85-12-127s-4-85-4-129,1.33-86,4-128,6.67-84.67,12-128H165c-24.67,82-37,167.33-37,256ZM1024,128c-32.67,0-63,9-91,27s-54.33,41.67-79,71-46,62.33-64,99-35,74.33-51,113-28.33,75.33-37,110-16.33,65.33-23,92h690c-5.33-26-13-56.67-23-92s-22.33-72-37-110-31.33-75.33-50-112-40.33-70-65-100-50.67-53.67-78-71-58-26.33-92-27Zm-293,49c-56,19.33-109.67,44.33-161,75-51.33,30.67-99,65.67-143,105s-84,82.67-120,130c-36,47.33-66.67,98.33-92,153h333c8-40,17.33-80.33,28-121,10.67-40.67,23.33-80.67,38-120s32-78,52-116,41.67-73.33,65-106ZM215,1408c25.33,54,56,104.67,92,152s76,91,120,131,91.67,75,143,105,105,55,161,75c-24-33.33-45.67-68.67-65-106s-36.33-75.67-51-115-27.67-79.67-39-121-20.67-81.67-28-121H215Zm1102,463c56-19.33,109.67-44.33,161-75s99-65.67,143-105,84-82.67,120-130,66.67-98.33,92-153h-333c-8,40-17.33,80.33-28,121s-23.33,80.67-38,120-32,78-52,116-41.67,73.33-65,106Z"/></g></g></svg>