<svg xmlns="http://www.w3.org/2000/svg" viewBox="0 0 20 20">
  <g id="body">
    <path d="M10,0a9.89,9.89,0,0,1,2.67.36,9.81,9.81,0,0,1,2.4,1,10.4,10.4,0,0,1,2,1.56,10,10,0,0,1,2.58,4.42,10,10,0,0,1,0,5.32,10,10,0,0,1-2.58,4.42,10.4,10.4,0,0,1-2,1.56,9.81,9.81,0,0,1-2.4,1,10.08,10.08,0,0,1-5.34,0,9.81,9.81,0,0,1-2.4-1,10.4,10.4,0,0,1-2-1.56A10,10,0,0,1,.31,12.66a10,10,0,0,1,0-5.32A10,10,0,0,1,2.89,2.92a10.4,10.4,0,0,1,2-1.56A10.18,10.18,0,0,1,10,0ZM1.21,10a8.64,8.64,0,0,0,.36,2.5H5.13c0-.42-.09-.83-.12-1.25S5,10.42,5,10s0-.84,0-1.25.07-.83.12-1.25H1.57A8.64,8.64,0,0,0,1.21,10ZM7.12,1.73a9,9,0,0,0-1.58.73,8.86,8.86,0,0,0-1.4,1A9.49,9.49,0,0,0,3,4.76a8.68,8.68,0,0,0-.9,1.49H5.33c.08-.39.17-.78.27-1.18s.23-.79.38-1.18a11.47,11.47,0,0,1,.51-1.13A8.85,8.85,0,0,1,7.12,1.73Zm-5.06,12A8.68,8.68,0,0,0,3,15.24a9.49,9.49,0,0,0,1.18,1.27,8.86,8.86,0,0,0,1.4,1,9,9,0,0,0,1.58.73,8.85,8.85,0,0,1-.63-1A11.47,11.47,0,0,1,6,16.11c-.15-.39-.27-.78-.38-1.18s-.19-.79-.27-1.18ZM13.6,12.5c.05-.42.1-.83.12-1.25s0-.83,0-1.25,0-.84,0-1.25-.07-.83-.12-1.25H6.4c-.05.42-.1.83-.12,1.25s0,.83,0,1.25,0,.84,0,1.25.07.83.12,1.25ZM10,1.25a1.71,1.71,0,0,0-.9.26,3.35,3.35,0,0,0-.77.7,5.23,5.23,0,0,0-.63,1,12,12,0,0,0-.5,1.1c-.14.37-.26.73-.36,1.07s-.17.65-.23.9h6.78c-.06-.25-.13-.55-.23-.9s-.22-.7-.36-1.07a12,12,0,0,0-.5-1.1,5.23,5.23,0,0,0-.63-1,3.35,3.35,0,0,0-.77-.7A1.71,1.71,0,0,0,10,1.25Zm0,17.5a1.71,1.71,0,0,0,.9-.26,3.35,3.35,0,0,0,.77-.7,5.23,5.23,0,0,0,.63-1,12,12,0,0,0,.5-1.1c.14-.37.26-.73.36-1.07s.17-.65.23-.9H6.61c.06.25.13.55.23.9s.22.7.36,1.07a12,12,0,0,0,.5,1.1,5.23,5.23,0,0,0,.63,1,3.35,3.35,0,0,0,.77.7A1.71,1.71,0,0,0,10,18.75Zm7.94-12.5A8.68,8.68,0,0,0,17,4.76a9.49,9.49,0,0,0-1.18-1.27,8.86,8.86,0,0,0-1.4-1,8.68,8.68,0,0,0-1.58-.73,8.85,8.85,0,0,1,.63,1A11.47,11.47,0,0,1,14,3.89c.15.39.27.78.38,1.18s.19.79.27,1.18Zm-5.06,12a8.68,8.68,0,0,0,1.58-.73,8.86,8.86,0,0,0,1.4-1A9.49,9.49,0,0,0,17,15.24a8.68,8.68,0,0,0,.9-1.49H14.67c-.08.39-.17.78-.27,1.18s-.23.79-.38,1.18a11.47,11.47,0,0,1-.51,1.13A8.85,8.85,0,0,1,12.88,18.27ZM18.79,10a8.64,8.64,0,0,0-.36-2.5H14.87c.05.42.09.83.12,1.25s0,.83,0,1.25,0,.84,0,1.25-.07.83-.12,1.25h3.56A8.64,8.64,0,0,0,18.79,10Z" style="fill: #f3f2f1"/>
  </g>
</svg>
