<svg width="18" height="18" viewBox="0 0 18 18" fill="none" xmlns="http://www.w3.org/2000/svg">
<path d="M9.0413 3C12.3778 3 15.0826 5.70478 15.0826 9.0413C15.0826 12.3778 12.3778 15.0826 9.0413 15.0826C8.06363 15.0826 7.11885 14.8498 6.27007 14.4108L3.95878 15.0556C3.55708 15.1678 3.14051 14.9331 3.02834 14.5314C2.99122 14.3985 2.99123 14.2579 3.02836 14.1251L3.67337 11.8156C3.23342 10.9661 3 10.0202 3 9.0413C3 5.70478 5.70478 3 9.0413 3ZM9.0413 3.90619C6.20526 3.90619 3.90619 6.20526 3.90619 9.0413C3.90619 9.92912 4.1314 10.7832 4.55444 11.5409L4.64546 11.7038L3.97323 14.1108L6.38164 13.4389L6.54448 13.5297C7.30144 13.9517 8.15455 14.1764 9.0413 14.1764C11.8773 14.1764 14.1764 11.8773 14.1764 9.0413C14.1764 6.20526 11.8773 3.90619 9.0413 3.90619ZM9.0413 11.1557C9.37496 11.1557 9.64542 11.4262 9.64542 11.7599C9.64542 12.0935 9.37496 12.364 9.0413 12.364C8.70763 12.364 8.43717 12.0935 8.43717 11.7599C8.43717 11.4262 8.70763 11.1557 9.0413 11.1557ZM9.0413 5.86962C9.95885 5.86962 10.7027 6.61343 10.7027 7.53097C10.7027 8.14163 10.5229 8.48187 10.0677 8.95587L9.96579 9.0596C9.59009 9.43531 9.49439 9.59486 9.49439 9.94749C9.49439 10.1977 9.29153 10.4006 9.0413 10.4006C8.79106 10.4006 8.5882 10.1977 8.5882 9.94749C8.5882 9.33684 8.76793 8.99659 9.2232 8.52259L9.32505 8.41886C9.70076 8.04315 9.79646 7.8836 9.79646 7.53097C9.79646 7.1139 9.45839 6.77581 9.0413 6.77581C8.6503 6.77581 8.32872 7.07296 8.29006 7.45376L8.28613 7.53097C8.28613 7.78121 8.08327 7.98407 7.83304 7.98407C7.5828 7.98407 7.37994 7.78121 7.37994 7.53097C7.37994 6.61343 8.12374 5.86962 9.0413 5.86962Z" fill="white"/>
</svg>
