<?xml version="1.0" encoding="UTF-8"?><svg xmlns="http://www.w3.org/2000/svg" viewBox="0 0 1024 1792"><defs><style>.d{fill:#fff;}</style></defs><g id="a"/><g id="b"><g id="c"><path class="d" d="M896,504c0-52-10.33-100.67-31-146-20.67-45.33-48.33-85.33-83-120s-75.67-61.33-123-80-96.33-28.67-147-30c-53.33,0-103.33,10-150,30s-87.33,47.33-122,82-62,75.33-82,122c-20,46.67-30,96.67-30,150,0,17.33-6.33,32.33-19,45s-27.67,19-45,19c-21.33,0-37.33-7.33-48-22S0,522,0,502c0-69.33,13.67-134.33,41-195s64.67-114,112-160,101.67-81.67,163-107S442.67,1.33,512,0c68.67,0,133.67,13,195,39s115.67,62,163,108,84.67,99,112,159,41.33,125.33,42,196c0,54-5.67,101-17,141s-27.67,77-49,111-47,65.67-77,95-64.33,61.33-103,96c-19.33,17.33-38.33,34-57,50s-36.67,33.67-54,53c-22,24-39,47-51,69s-21,44.67-27,68-9.67,48-11,74-2,54.33-2,85c0,17.33-6.33,32.33-19,45s-27.67,19-45,19c-14.67,0-26-2.67-34-8s-14.33-12.33-19-21-7.67-19-9-31-2-23.33-2-34v-34c0-52.67,6.33-99,19-139s29.33-76.33,50-109c20.67-32.67,44.67-62,72-88s55-51.33,83-76,55.33-49,82-73,50.33-50,71-78,37.67-59.33,51-94,20-74.33,20-119ZM416,1696c0-26.67,9.33-49.33,28-68s41.33-28,68-28,49.33,9.33,68,28,28,41.33,28,68-9.33,49.33-28,68-41.33,28-68,28-49.33-9.33-68-28-28-41.33-28-68Z"/></g></g></svg>