<svg width="12" height="14" viewBox="0 0 12 14" fill="none" xmlns="http://www.w3.org/2000/svg">
<path d="M5.69056 0.277176C5.87207 0.13417 6.12793 0.13417 6.30944 0.277176L11.0472 4.00994C11.6489 4.48399 12 5.20769 12 5.97367V12.1699C12 12.6302 11.6269 13.0033 11.1667 13.0033H7.83333C7.3731 13.0033 7 12.6302 7 12.1699V8.83659C7 8.74454 6.92538 8.66992 6.83333 8.66992H5.16667C5.07462 8.66992 5 8.74454 5 8.83659V12.1699C5 12.6302 4.6269 13.0033 4.16667 13.0033H0.833333C0.373096 13.0033 0 12.6302 0 12.1699V5.97367C0 5.20769 0.351149 4.48399 0.95282 4.00994L5.69056 0.277176ZM6 1.30647L1.57169 4.79544C1.21069 5.07986 1 5.51409 1 5.97367V12.0033H4V8.83659C4 8.19226 4.52233 7.66992 5.16667 7.66992H6.83333C7.47767 7.66992 8 8.19226 8 8.83659V12.0033H11V5.97367C11 5.51409 10.7893 5.07986 10.4283 4.79544L6 1.30647Z" fill="white"/>
</svg>
