<?xml version="1.0" encoding="utf-8"?>
<!-- Generator: Adobe Illustrator 22.1.0, SVG Export Plug-In . SVG Version: 6.00 Build 0)  -->
<svg version="1.1" id="Layer_1" xmlns="http://www.w3.org/2000/svg" xmlns:xlink="http://www.w3.org/1999/xlink" x="0px" y="0px"
	 viewBox="0 0 48 48" style="enable-background:new 0 0 48 48;" xml:space="preserve">
<style type="text/css">
	.st0{opacity:0.85;}
	.st1{fill:#BEBBB8;}
</style>
<title>Artboard 204 copy</title>
<g id="body">
	<g class="st0">
		<path class="st1" d="M24,46.5c-4,0-7.9-1-11.4-3.1c-3.3-1.9-6.1-4.7-8.1-8.1c-4.1-7-4.1-15.7,0-22.7c1.9-3.3,4.7-6.1,8.1-8.1
			c7-4.1,15.7-4.1,22.7,0c3.3,1.9,6.1,4.7,8.1,8.1c4.1,7,4.1,15.7,0,22.7c-1.9,3.3-4.7,6.1-8.1,8.1C31.9,45.5,28,46.5,24,46.5z
			 M24,4.5c-1.8,0-3.5,0.2-5.2,0.7c-1.6,0.5-3.2,1.1-4.6,2c-2.9,1.7-5.3,4.1-7,7c-0.9,1.5-1.5,3-2,4.7c-0.9,3.4-0.9,7,0,10.3
			c0.5,1.6,1.1,3.2,2,4.7c1.7,2.9,4.1,5.3,7,7c1.5,0.9,3,1.5,4.6,2c3.4,0.9,7,0.9,10.4,0c1.6-0.5,3.2-1.1,4.7-2c2.9-1.7,5.3-4.1,7-7
			c0.9-1.5,1.5-3,2-4.6c0.9-3.4,0.9-7,0-10.4c-0.5-1.6-1.1-3.2-2-4.7c-1.7-2.9-4.1-5.3-7-7c-1.5-0.9-3-1.5-4.7-2
			C27.5,4.7,25.7,4.5,24,4.5z M23,14h3v3h-3V14z M23,19h3v15h-3V19z"/>
	</g>
</g>
</svg>
