<svg id="Layer_1" data-name="Layer 1" xmlns="http://www.w3.org/2000/svg" viewBox="0 0 48 48"><defs><style>.cls-1{fill:#0364b8;}.cls-2{fill:#0f78d4;}.cls-3{fill:#1490df;}.cls-4{fill:#28a8ea;}.cls-5{fill:#3e8eed;}.cls-6{fill:#262626;}</style></defs><path class="cls-1" d="M19.81,11.84h0l6.84,4.09,4.07-1.71h0a6.62,6.62,0,0,1,2.63-.54l.44,0a10.18,10.18,0,0,0-18.37-3.07h.11a8.12,8.12,0,0,1,4.28,1.22"/><path class="cls-2" d="M19.81,11.84h0a8.12,8.12,0,0,0-4.28-1.22h-.11a8.14,8.14,0,0,0-6.57,12.8l6-2.54,2.68-1.13,6-2.51,3.12-1.32Z"/><path class="cls-3" d="M33.79,13.7l-.44,0a6.62,6.62,0,0,0-2.63.54h0l-4.07,1.71,1.18.71L31.7,19l1.69,1,5.78,3.46a6.6,6.6,0,0,0-5.38-9.74"/><path class="cls-4" d="M33.39,20,31.7,19l-3.87-2.32-1.18-.7-3.12,1.31-6,2.51-2.68,1.13-6,2.54a8.12,8.12,0,0,0,6.68,3.49H33.35a6.6,6.6,0,0,0,5.82-3.48Z"/><circle class="cls-5" cx="33" cy="26" r="8"/><path class="cls-6" d="M33,19a7,7,0,1,0,7,7A7,7,0,0,0,33,19Z"/><path class="cls-5" d="M33,21h0a1,1,0,0,1,1,1v5a1,1,0,0,1-1,1h0a1,1,0,0,1-1-1V22A1,1,0,0,1,33,21Z"/><circle class="cls-5" cx="33" cy="30" r="1"/></svg>