<svg xmlns="http://www.w3.org/2000/svg" xmlns:xlink="http://www.w3.org/1999/xlink" viewBox="0 0 108.23 70"><defs><style>.cls-1,.cls-30{fill:none;}.cls-16,.cls-2{isolation:isolate;}.cls-3{fill:#beb8dc;}.cls-29,.cls-4,.cls-5{fill:#fff;}.cls-5{opacity:0.38;}.cls-6,.cls-7{fill:#3985c6;}.cls-7{opacity:0.8;}.cls-8{fill:#e1dfdd;}.cls-9{fill:#ffe5b9;}.cls-10{fill:#ffd590;}.cls-11{fill:#f3f2f1;}.cls-12{fill:#f7b547;}.cls-13{fill:#faf9f8;}.cls-14{fill:#dfba95;}.cls-15{fill:#5a463a;}.cls-16{opacity:0.15;fill:url(#linear-gradient);}.cls-17{fill:url(#radial-gradient);}.cls-18{fill:#8c8cc4;}.cls-19{fill:#9b653e;}.cls-20{fill:#bf8f68;}.cls-21{fill:#3b322f;}.cls-22{fill:url(#radial-gradient-2);}.cls-23{fill:url(#radial-gradient-3);}.cls-24{fill:url(#radial-gradient-4);}.cls-25{clip-path:url(#clip-path);}.cls-26{fill:#c7e0f4;}.cls-27{fill:url(#radial-gradient-5);}.cls-28{fill:#a9c9ea;}.cls-29{opacity:0.2;mix-blend-mode:multiply;}.cls-30{stroke:#fff;stroke-miterlimit:10;stroke-width:4.23px;}.cls-31{fill:#1a66b1;}.cls-32{fill:#3276bc;}.cls-33{fill:#2f8dcd;}.cls-34{fill:#39a6de;}</style><linearGradient id="linear-gradient" x1="-23.59" y1="493.27" x2="-23.59" y2="505.37" gradientTransform="translate(-107.36 -444.22) rotate(-17.25)" gradientUnits="userSpaceOnUse"><stop offset="0" stop-color="#fff" stop-opacity="0"/><stop offset="0.26" stop-color="#a6a4a4" stop-opacity="0.38"/><stop offset="0.56" stop-color="#494647" stop-opacity="0.81"/><stop offset="0.69" stop-color="#231f20"/></linearGradient><radialGradient id="radial-gradient" cx="21.42" cy="512.88" r="3.98" gradientTransform="matrix(0.93, -0.38, 0.38, 0.93, -190.48, -414.42)" gradientUnits="userSpaceOnUse"><stop offset="0" stop-color="#9b653e"/><stop offset="0.33" stop-color="#b6865f"/><stop offset="0.77" stop-color="#d5ac87"/><stop offset="1" stop-color="#dfba95"/></radialGradient><radialGradient id="radial-gradient-2" cx="74.56" cy="47.29" r="8.69" gradientUnits="userSpaceOnUse"><stop offset="0" stop-color="#f7b547"/><stop offset="1" stop-color="#ffd590"/></radialGradient><radialGradient id="radial-gradient-3" cx="-3568.42" cy="119.41" r="2.79" gradientTransform="matrix(-0.82, -0.27, -0.22, 0.69, -2828.41, -992.74)" gradientUnits="userSpaceOnUse"><stop offset="0" stop-color="#dfba95"/><stop offset="1" stop-color="#faf9f8" stop-opacity="0"/></radialGradient><radialGradient id="radial-gradient-4" cx="3781.01" cy="844.68" r="2.85" gradientTransform="matrix(0.83, 0.26, 0.29, -0.95, -3281.28, -131.06)" gradientUnits="userSpaceOnUse"><stop offset="0" stop-color="#dfba95"/><stop offset="1" stop-color="#bf8f68" stop-opacity="0"/></radialGradient><clipPath id="clip-path" transform="translate(-1.68)"><path class="cls-1" d="M85,32.18c0,.08,0,.16-.07.24s-.12.33-.19.5a2.39,2.39,0,0,1-.16.32A3.73,3.73,0,0,1,82.63,35l-.22.07a3.12,3.12,0,0,1-.59.13,3,3,0,0,1-.79,0l-.35-.09-.2-.06a3,3,0,0,1-1.41-1,3.34,3.34,0,0,1-.63-1.23,4,4,0,0,1,.06-2.41c0-.08,0-.16.08-.23a4.28,4.28,0,0,1,2-2.4h0a3.15,3.15,0,0,1,.81-.29s.09,0,.13,0h0a3.13,3.13,0,0,1,.42,0,2.79,2.79,0,0,1,1,.12l.2.06a2.8,2.8,0,0,1,1.5,1.18,4.1,4.1,0,0,1,.22.41,3.47,3.47,0,0,1,.29,1.06.1.1,0,0,1,0,0,1,1,0,0,0,0,.2,5.62,5.62,0,0,1,0,.82,1,1,0,0,1,0,.17,1.3,1.3,0,0,1,0,.21A1.39,1.39,0,0,1,85,32.18Z"/></clipPath><radialGradient id="radial-gradient-5" cx="43.72" cy="46.06" r="15.74" gradientUnits="userSpaceOnUse"><stop offset="0" stop-color="#5288c7"/><stop offset="0.82" stop-color="#a9c9ea"/></radialGradient></defs><g class="cls-2"><g id="Layer_2" data-name="Layer 2"><g id="Layer_1-2" data-name="Layer 1"><path class="cls-3" d="M48.05,26.76q-12.12,3.87-24.16,7.67a54.62,54.62,0,0,1-9.65-27.5L36.8,0A54.24,54.24,0,0,0,48.05,26.76Z" transform="translate(-1.68)"/><path class="cls-4" d="M20.88,13.91l-1.52.46a.44.44,0,0,1-.59-.32c-.11-.49-.22-1-.32-1.49a.56.56,0,0,1,.38-.62l1.52-.46a.43.43,0,0,1,.57.32c.1.5.21,1,.33,1.49A.53.53,0,0,1,20.88,13.91Z" transform="translate(-1.68)"/><path class="cls-4" d="M22.27,18.64l-1.54.48a.5.5,0,0,1-.63-.3c-.16-.48-.31-1-.45-1.45a.49.49,0,0,1,.34-.6l1.54-.48a.5.5,0,0,1,.62.31c.14.49.3,1,.45,1.44A.47.47,0,0,1,22.27,18.64Z" transform="translate(-1.68)"/><path class="cls-4" d="M24.07,23.2l-1.56.49a.57.57,0,0,1-.68-.29q-.3-.69-.57-1.38a.45.45,0,0,1,.31-.6L23.12,21a.53.53,0,0,1,.66.28c.19.47.39.93.59,1.39A.43.43,0,0,1,24.07,23.2Z" transform="translate(-1.68)"/><path class="cls-4" d="M26.26,27.56l-1.57.49A.64.64,0,0,1,24,27.8c-.23-.44-.47-.88-.69-1.33a.4.4,0,0,1,.28-.57l1.57-.49a.58.58,0,0,1,.7.27c.23.44.47.88.71,1.32A.39.39,0,0,1,26.26,27.56Z" transform="translate(-1.68)"/><path class="cls-4" d="M33.32,9.29l-9.62,3a.46.46,0,0,1-.59-.32h0a.55.55,0,0,1,.38-.62l9.59-3a.47.47,0,0,1,.6.32h0A.52.52,0,0,1,33.32,9.29Z" transform="translate(-1.68)"/><path class="cls-4" d="M34.79,14l-9.73,3a.49.49,0,0,1-.63-.3h0a.47.47,0,0,1,.34-.6l9.71-3a.52.52,0,0,1,.64.3h0A.47.47,0,0,1,34.79,14Z" transform="translate(-1.68)"/><path class="cls-4" d="M36.67,18.51l-9.84,3.06a.58.58,0,0,1-.68-.29h0a.43.43,0,0,1,.31-.58l9.82-3.05a.58.58,0,0,1,.69.28h0A.42.42,0,0,1,36.67,18.51Z" transform="translate(-1.68)"/><path class="cls-4" d="M39,22.83,29,25.94a.62.62,0,0,1-.72-.26h0a.39.39,0,0,1,.27-.57L38.48,22a.65.65,0,0,1,.73.25h0A.39.39,0,0,1,39,22.83Z" transform="translate(-1.68)"/><path class="cls-4" d="M75.39,11.88l.82-4.73L61.65,4.62,57.7,3.94a1,1,0,0,0-1.15.81l-.19,1.12L51.14,36A1,1,0,0,0,52,37.11l22.89,4A1,1,0,0,0,76,40.27l4.67-26.93-4.84-.84A.53.53,0,0,1,75.39,11.88Z" transform="translate(-1.68)"/><path class="cls-5" d="M76.21,7.15l-.82,4.73a.53.53,0,0,0,.43.62l4.84.84Z" transform="translate(-1.68)"/><rect class="cls-6" x="58.55" y="10.09" width="6.45" height="6.44" rx="0.82" transform="translate(1.51 -10.36) rotate(9.84)"/><polygon class="cls-6" points="74.72 26.16 54.67 22.81 54.5 23.75 74.56 27.1 74.72 26.16"/><polygon class="cls-6" points="75.34 22.62 55.29 19.27 55.13 20.21 75.18 23.56 75.34 22.62"/><polygon class="cls-6" points="74.09 29.75 54.05 26.31 53.89 27.25 73.93 30.69 74.09 29.75"/><polygon class="cls-6" points="73.19 33.42 53.13 30.07 52.97 31.01 73.02 34.36 73.19 33.42"/><polygon class="cls-6" points="64.75 17.26 75.01 18.93 75.17 17.99 64.92 16.32 64.75 17.26"/><path class="cls-7" d="M76.21,7.15l-.82,4.73a.53.53,0,0,0,.43.62l4.84.84Z" transform="translate(-1.68)"/><rect class="cls-8" x="79.66" y="41.37" width="27.12" height="25.16" transform="translate(18.6 -25.3) rotate(17.31)"/><rect class="cls-9" x="82.58" y="41.82" width="27.12" height="5.48" transform="translate(15.94 -26.59) rotate(17.31)"/><rect class="cls-10" x="103.15" y="41.56" width="1.87" height="5.29" rx="0.94" transform="translate(16.19 -28.97) rotate(17.31)"/><rect class="cls-10" x="98.36" y="40.07" width="1.87" height="5.29" rx="0.94" transform="translate(15.53 -27.61) rotate(17.31)"/><rect class="cls-10" x="93.58" y="38.57" width="1.87" height="5.29" rx="0.94" transform="translate(14.87 -26.26) rotate(17.31)"/><rect class="cls-10" x="88.79" y="37.08" width="1.87" height="5.29" rx="0.94" transform="translate(14.21 -24.9) rotate(17.31)"/><path class="cls-11" d="M108.28,51.2S104,65.07,99,67.74a16.64,16.64,0,0,0-8.49-3.61C80.08,63,75.73,60,73,57.42c0,0,6.11-3.77,9.35-14.29Z" transform="translate(-1.68)"/><path class="cls-12" d="M105,44.44l-.51,1.67a.94.94,0,0,1-1.79-.56l.52-1.66Z" transform="translate(-1.68)"/><path class="cls-12" d="M100.2,43l-.52,1.67a.94.94,0,0,1-1.79-.56l.52-1.67Z" transform="translate(-1.68)"/><path class="cls-12" d="M95.41,41.46l-.52,1.66a.92.92,0,0,1-1.16.62.93.93,0,0,1-.62-1.17l.52-1.67Z" transform="translate(-1.68)"/><path class="cls-12" d="M90.63,40l-.52,1.67a.93.93,0,1,1-1.78-.55l.52-1.67Z" transform="translate(-1.68)"/><path class="cls-13" d="M38.63,57.53Q25.15,62,11.21,66.32a1.34,1.34,0,0,1-1.85-1A99.91,99.91,0,0,0,1.82,38.73a1.5,1.5,0,0,1,.8-2.08q12.43-4.41,24.43-8.78a2,2,0,0,1,2.29,1A108.08,108.08,0,0,1,39.87,55.46,1.81,1.81,0,0,1,38.63,57.53Z" transform="translate(-1.68)"/><path class="cls-10" d="M27.61,30.31Q15.85,34.57,3.68,38.87A100.73,100.73,0,0,1,11,64.09q11.49-3.65,22.68-7.33l3.72-1.22A107.4,107.4,0,0,0,27.61,30.31Z" transform="translate(-1.68)"/><path class="cls-14" d="M24.32,56.52l-.84.33C21,57.84,26.77,55.57,24.32,56.52Z" transform="translate(-1.68)"/><path class="cls-15" d="M16,35.11a4.52,4.52,0,0,1,5.59,2.25,3.77,3.77,0,0,1-1.82,5.33,4.31,4.31,0,0,1-5.46-2.26A3.84,3.84,0,0,1,16,35.11Z" transform="translate(-1.68)"/><path class="cls-16" d="M16,35.11a4.52,4.52,0,0,1,5.59,2.25,3.77,3.77,0,0,1-1.82,5.33,4.31,4.31,0,0,1-5.46-2.26A3.84,3.84,0,0,1,16,35.11Z" transform="translate(-1.68)"/><path class="cls-15" d="M17.57,39.81a8.45,8.45,0,0,1,10.74,4.45A8,8,0,0,1,23.59,54.8a7.61,7.61,0,0,1-10.21-4.45C11.89,46.21,13.61,41.48,17.57,39.81Z" transform="translate(-1.68)"/><path class="cls-14" d="M19.92,51.52l4-1.6c1.07,2.87,2,5.74,2.78,8.59L22.54,60.1Q21.43,55.83,19.92,51.52Z" transform="translate(-1.68)"/><path class="cls-17" d="M26.18,52.43c0,.17.07.34.1.52l-.32.36a1.37,1.37,0,0,0-.37,1.38c.05.15.09.3.14.46a1,1,0,0,0,1.14.65l.39-.07c.11.35.21.7.31,1.05l-6.21,2.4c-.1-.37-.2-.74-.31-1.12h0a1.15,1.15,0,0,0,.6-1.32c0-.18-.1-.35-.16-.53a1.1,1.1,0,0,0-1-.81L20,55.34c-.07-.2-.15-.41-.23-.62Z" transform="translate(-1.68)"/><path class="cls-14" d="M19.11,43.46A6.17,6.17,0,1,1,23.48,55a5.83,5.83,0,0,1-7.83-3.43A6.48,6.48,0,0,1,19.11,43.46Z" transform="translate(-1.68)"/><path class="cls-18" d="M31.92,57.33c-.2-.27-1.1-.51-3.1-.68a1.62,1.62,0,0,1-1.47-1.28.33.33,0,0,0-.43-.22l-5.86,1.76a.41.41,0,0,0-.3.42A2.59,2.59,0,0,1,20,59.57a17.25,17.25,0,0,0-2.25,2.35Q24.92,59.63,31.92,57.33Z" transform="translate(-1.68)"/><path class="cls-19" d="M19,53.49a2.35,2.35,0,0,1-2.24-1.58,2.68,2.68,0,0,1,1.51-3.3A2.46,2.46,0,0,1,21.47,50a2.61,2.61,0,0,1-1.55,3.29A2.56,2.56,0,0,1,19,53.49ZM19.17,49a1.94,1.94,0,0,0-.74.14,2,2,0,0,0-1.16,2.54,1.85,1.85,0,0,0,2.47,1.08,2.13,2.13,0,0,0,1.12-1.05,2,2,0,0,0,.07-1.5A1.88,1.88,0,0,0,19.17,49Z" transform="translate(-1.68)"/><path class="cls-19" d="M24.3,51.81A2.4,2.4,0,0,1,22,50.23a2.61,2.61,0,0,1,1.45-3.3,2.46,2.46,0,0,1,1.92,0,2.53,2.53,0,0,1,1.35,1.38,2.47,2.47,0,0,1-.07,1.94,2.61,2.61,0,0,1-1.43,1.36A2.48,2.48,0,0,1,24.3,51.81Zm.12-4.49a2.06,2.06,0,0,0-.73.14,2,2,0,0,0-1.07,1,2,2,0,0,0-.05,1.5,1.88,1.88,0,0,0,2.49,1.07,2,2,0,0,0,1.1-1,1.88,1.88,0,0,0,.05-1.49,1.91,1.91,0,0,0-1-1.06A1.85,1.85,0,0,0,24.42,47.32Z" transform="translate(-1.68)"/><path class="cls-19" d="M21.1,49.94c0-.19-.09-.38-.14-.56l1-.28c0,.18.09.37.14.56Z" transform="translate(-1.68)"/><path class="cls-15" d="M13.3,50a7.7,7.7,0,0,0,4.37-.42,7.37,7.37,0,0,0,4-10.2l0-.1a7.64,7.64,0,0,0-4,.51A8.32,8.32,0,0,0,13.3,50Z" transform="translate(-1.68)"/><path class="cls-15" d="M20.64,39.24a8.83,8.83,0,0,0,.78,3.29A8.16,8.16,0,0,0,29,47.42a7.22,7.22,0,0,0-.64-3.12A8.59,8.59,0,0,0,20.64,39.24Z" transform="translate(-1.68)"/><path class="cls-20" d="M21.47,52.82c.18,0,.3,0,.43.07a3,3,0,0,0,.39,0,1.13,1.13,0,0,0,.37-.1,1.81,1.81,0,0,0,.39-.2h0c.06-.06.16,0,.22,0l0,.07a.89.89,0,0,1-.3.68,1.24,1.24,0,0,1-.66.34.94.94,0,0,1-.68-.09.66.66,0,0,1-.42-.51c0-.07,0-.17.11-.16s.05-.1.1-.08Z" transform="translate(-1.68)"/><path class="cls-21" d="M25,49.48a.75.75,0,0,0-.36-.1,1,1,0,0,0-.31,0l-.32.13c-.13.09-.26.19-.42.29l0,0c-.07,0-.1,0-.16,0l0,0a1,1,0,0,1,.12-.66,1.27,1.27,0,0,1,.56-.47,1.05,1.05,0,0,1,.78,0,1.15,1.15,0,0,1,.51.49.28.28,0,0,1-.12.33.22.22,0,0,1-.21,0Z" transform="translate(-1.68)"/><path class="cls-21" d="M18.12,51.39a1.08,1.08,0,0,1,.24-.7A1.35,1.35,0,0,1,19,50.3a.83.83,0,0,1,.7.13.78.78,0,0,1,.39.52.12.12,0,0,1-.07.15l0,0h0a1.25,1.25,0,0,0-.5,0,1.43,1.43,0,0,0-.36,0,.47.47,0,0,0-.29.12.7.7,0,0,0-.27.27l-.06.06a.21.21,0,0,1-.32,0C18.12,51.51,18.09,51.44,18.12,51.39Z" transform="translate(-1.68)"/><path class="cls-13" d="M64.64,42.92q10.49,3.16,21.17,6.31a1.52,1.52,0,0,0,2-1.14,122.21,122.21,0,0,1,5.77-21,1.63,1.63,0,0,0-1-2.17q-10-3.17-19.76-6.31a2,2,0,0,0-2.32,1.14,128.25,128.25,0,0,0-7.19,21A1.88,1.88,0,0,0,64.64,42.92Z" transform="translate(-1.68)"/><path class="cls-12" d="M91.17,26.67q-9.47-3-18.76-6l0,.06A127.8,127.8,0,0,0,65.67,41q9.85,3,19.88,6A122.26,122.26,0,0,1,91.17,26.67Z" transform="translate(-1.68)"/><path class="cls-10" d="M75.73,42.18c0,.61-.11,1.22-.15,1.84l3.32,1c.67-2.41,1.42-4.83,2.25-7.24Q79.53,39.87,78,42Z" transform="translate(-1.68)"/><path class="cls-10" d="M82.78,33l3.52,1.1v0a.63.63,0,0,0-.35-.81l-3-.92Z" transform="translate(-1.68)"/><path class="cls-10" d="M82.79,27.55l1.63.51q-1.48,4.17-2.65,8.33l-8.43.89q.66-2.4,1.42-4.81C75.94,28.74,79.66,26.55,82.79,27.55Z" transform="translate(-1.68)"/><path class="cls-22" d="M66.29,41l0,.16q5.91,1.8,11.87,3.59c1.11-2.79,2.33-5.6,3.66-8.4l-6.21-1.31C71.69,33.86,67.37,36.53,66.29,41Z" transform="translate(-1.68)"/><path class="cls-10" d="M74.49,38.85c-.24,1.55-.45,3.1-.62,4.65l3.23,1c.31-1.5.67-3,1.05-4.5l-1.38-1.35Z" transform="translate(-1.68)"/><path class="cls-10" d="M85,32.18c0,.08,0,.16-.07.24s-.12.33-.19.5a2.39,2.39,0,0,1-.16.32A3.73,3.73,0,0,1,82.63,35l-.22.07a3.12,3.12,0,0,1-.59.13,3,3,0,0,1-.79,0l-.35-.09-.2-.06a3,3,0,0,1-1.41-1,3.34,3.34,0,0,1-.63-1.23,4,4,0,0,1,.06-2.41c0-.08,0-.16.08-.23a4.28,4.28,0,0,1,2-2.4h0a3.15,3.15,0,0,1,.81-.29s.09,0,.13,0h0a3.13,3.13,0,0,1,.42,0,2.79,2.79,0,0,1,1,.12l.2.06a2.8,2.8,0,0,1,1.5,1.18,4.1,4.1,0,0,1,.22.41,3.47,3.47,0,0,1,.29,1.06.1.1,0,0,1,0,0,1,1,0,0,0,0,.2,5.62,5.62,0,0,1,0,.82,1,1,0,0,1,0,.17,1.3,1.3,0,0,1,0,.21A1.39,1.39,0,0,1,85,32.18Z" transform="translate(-1.68)"/><path class="cls-10" d="M81.24,29.26l-2-.64a.07.07,0,0,1,0-.1l.48-1.33a2.57,2.57,0,0,1,3-1.8h0s0,.05,0,.1c-.47,1.24-.92,2.47-1.35,3.71A.08.08,0,0,1,81.24,29.26Z" transform="translate(-1.68)"/><path class="cls-10" d="M84.4,30.25l-2-.64a.07.07,0,0,1,0-.1c.15-.44.3-.89.46-1.33a2.56,2.56,0,0,1,3-1.8h0a.09.09,0,0,1,0,.11c-.46,1.23-.9,2.47-1.32,3.71A.06.06,0,0,1,84.4,30.25Z" transform="translate(-1.68)"/><path class="cls-13" d="M80.09,32.14a2.32,2.32,0,0,0-2.79,1.74,2.36,2.36,0,0,0,1.38,3,.29.29,0,0,1,.17.36c-.66,2.41-1.23,4.82-1.73,7.22l1.18.36q1.58-4.23,3.48-8.46l-.65-.2c.32-1.14.65-2.27,1-3.4Z" transform="translate(-1.68)"/><path class="cls-15" d="M82.31,31.17c.14,0,.19.28.11.53s-.26.41-.4.36-.19-.28-.11-.52S82.17,31.13,82.31,31.17Z" transform="translate(-1.68)"/><path class="cls-15" d="M84.36,31.82c.14,0,.2.28.12.52s-.26.41-.4.37-.2-.28-.12-.53S84.22,31.77,84.36,31.82Z" transform="translate(-1.68)"/><path class="cls-13" d="M82.56,36.62l-.78-.24-2.91-.9c.33-1.14.67-2.27,1-3.4l6.4,2a1.87,1.87,0,0,0-.07.22A3,3,0,0,1,82.56,36.62Z" transform="translate(-1.68)"/><path class="cls-13" d="M82.44,30.83l-.56-.18a.5.5,0,0,1-.27-.66l0-.08a.52.52,0,0,1,.62-.38l.56.17a.52.52,0,0,1,.27.67l0,.08A.52.52,0,0,1,82.44,30.83Z" transform="translate(-1.68)"/><path class="cls-10" d="M72.29,43a3.9,3.9,0,0,0-.68-1.69c-2-3-5.32-.3-5.32-.3l0,.16Z" transform="translate(-1.68)"/><path class="cls-15" d="M86.2,34.41l-.06,0a.94.94,0,0,1-.53-1.2l0-.07.46.15a.46.46,0,0,1,.27.6C86.3,34.05,86.25,34.23,86.2,34.41Z" transform="translate(-1.68)"/><path class="cls-23" d="M77,37.41l3.78,1.16q.47-1.09,1-2.19l-4.09-1.27C77.46,35.88,77.25,36.64,77,37.41Z" transform="translate(-1.68)"/><path class="cls-24" d="M82.56,36.62l-.78-.24-2.91-.9c.2-.7.41-1.4.62-2.1l6.42,2S84.09,37.09,82.56,36.62Z" transform="translate(-1.68)"/><g class="cls-25"><path class="cls-13" d="M85.33,31.74l-.56-.18a.5.5,0,0,1-.27-.66l0-.08a.52.52,0,0,1,.62-.38l.56.17a.52.52,0,0,1,.28.67l0,.08A.52.52,0,0,1,85.33,31.74Z" transform="translate(-1.68)"/></g><path class="cls-13" d="M83.54,35.54a4.48,4.48,0,0,0,1.85.25l.42-.55-5-1.54S81.22,34.84,83.54,35.54Z" transform="translate(-1.68)"/><path class="cls-13" d="M54.63,40.81,32,43.09a1.48,1.48,0,0,1-1.71-1.61,77.38,77.38,0,0,0-1.95-22.81,1.56,1.56,0,0,1,1.33-2l21.84-2.28A2.25,2.25,0,0,1,53.8,16a78,78,0,0,1,2.75,22.81A2.16,2.16,0,0,1,54.63,40.81Z" transform="translate(-1.68)"/><path class="cls-26" d="M54.69,38.65A78,78,0,0,0,52,16.5L30.24,18.83a77.49,77.49,0,0,1,2,22.15Z" transform="translate(-1.68)"/><path class="cls-4" d="M49.32,21.79a4,4,0,0,0-3.92-2.3,3.07,3.07,0,0,0-2.55,1.9,2.6,2.6,0,0,0-2.23,3.11,3,3,0,0,0,.74,1.57,2.87,2.87,0,0,0,2.45,1l6.11-.63A2.18,2.18,0,0,0,51.74,25a2.34,2.34,0,0,0,.1-1.12A2.54,2.54,0,0,0,49.32,21.79Z" transform="translate(-1.68)"/><path class="cls-4" d="M40.36,28.87A2.07,2.07,0,0,0,38.1,27a2,2,0,0,0-1.61,1.18l-1.11.12a1.1,1.1,0,0,0-.76.42,1.16,1.16,0,0,0-.26.85,1.14,1.14,0,0,0,1.24,1l1.24-.13,2.5-.26a1.12,1.12,0,0,0,.77-.42,1.09,1.09,0,0,0,.25-.58.81.81,0,0,0,0-.27,0,0,0,0,0,0,0Z" transform="translate(-1.68)"/><path class="cls-27" d="M32.24,41l17.67-1.83c-6.27-1.22-8.24-7-11.61-6.66-1.72.18-3.46,1.63-5.95,3.51C32.37,37.67,32.33,39.33,32.24,41Z" transform="translate(-1.68)"/><path class="cls-28" d="M32.24,41l22.45-2.33a76.83,76.83,0,0,0-1-14.24l-.58,0c-5.37.57-6,7-10.89,11.14-2.72,2.38-7.67,4.46-10,5.35Z" transform="translate(-1.68)"/><path class="cls-29" d="M70.22,45.39A14.46,14.46,0,0,0,44.13,41a11.57,11.57,0,0,0,.15,23.13H69.59a9.4,9.4,0,0,0,.63-18.77Z" transform="translate(-1.68)"/><path class="cls-4" d="M70.22,45.39A14.46,14.46,0,0,0,44.13,41a11.57,11.57,0,0,0,.15,23.13H69.59a9.4,9.4,0,0,0,.63-18.77Z" transform="translate(-1.68)"/><path class="cls-30" d="M70.22,45.39A14.46,14.46,0,0,0,44.13,41a11.57,11.57,0,0,0,.15,23.13H69.59a9.4,9.4,0,0,0,.63-18.77Z" transform="translate(-1.68)"/><path class="cls-31" d="M50.36,42.75h0l9.71,5.82,5.79-2.44h0a9.46,9.46,0,0,1,3.73-.77q.31,0,.63,0A14.46,14.46,0,0,0,44.13,41h.15A11.56,11.56,0,0,1,50.36,42.75Z" transform="translate(-1.68)"/><path class="cls-32" d="M50.36,42.75h0A11.56,11.56,0,0,0,44.28,41h-.15a11.56,11.56,0,0,0-9.34,18.18l8.57-3.61L47.17,54l8.48-3.57,4.42-1.86Z" transform="translate(-1.68)"/><path class="cls-33" d="M70.22,45.39q-.31,0-.63,0a9.46,9.46,0,0,0-3.73.77h0l-5.79,2.44,1.68,1,5.5,3.3,2.41,1.44,8.2,4.91A9.29,9.29,0,0,0,79,54.76,9.39,9.39,0,0,0,70.22,45.39Z" transform="translate(-1.68)"/><path class="cls-34" d="M69.66,54.31l-2.41-1.44-5.5-3.3-1.68-1-4.42,1.86L47.17,54l-3.81,1.6-8.57,3.61a11.56,11.56,0,0,0,9.49,4.95H69.59a9.38,9.38,0,0,0,8.27-4.94Z" transform="translate(-1.68)"/></g></g></g></svg>