<svg width="16" height="16" viewBox="0 0 16 16" fill="none" xmlns="http://www.w3.org/2000/svg">
<path d="M8.43265 2.11567C8.16545 1.95917 7.83455 1.95916 7.56735 2.11567L2.4234 5.12853C1.85817 5.4596 1.85904 6.27695 2.42498 6.60681L7.56892 9.60499C7.83533 9.76027 8.16467 9.76027 8.43108 9.60499L13.575 6.60681C14.141 6.27695 14.1418 5.4596 13.5766 5.12853L8.43265 2.11567ZM7.56735 3.10776C7.83455 2.95125 8.16545 2.95125 8.43265 3.10776L13.1439 5.86721L8.43108 8.61414C8.16467 8.76942 7.83533 8.76942 7.56892 8.61414L2.85606 5.86721L7.56735 3.10776ZM2.06891 7.70864L7.58022 10.8096C7.84086 10.9563 8.15914 10.9563 8.41978 10.8096L13.9311 7.70866C14.0911 8.08383 13.9723 8.55567 13.575 8.78725L8.43108 11.7854C8.16467 11.9407 7.83533 11.9407 7.56892 11.7854L2.42498 8.78725C2.02766 8.55567 1.90885 8.08382 2.06891 7.70864ZM2.06891 9.8085L7.58022 12.9095C7.84086 13.0562 8.15914 13.0562 8.41978 12.9095L13.9311 9.80851C14.0911 10.1837 13.9723 10.6555 13.575 10.8871L8.43108 13.8853C8.16467 14.0406 7.83533 14.0406 7.56892 13.8853L2.42498 10.8871C2.02766 10.6555 1.90885 10.1837 2.06891 9.8085Z" fill="white"/>
</svg>
