<svg width="12" height="12" viewBox="0 0 12 12" fill="none" xmlns="http://www.w3.org/2000/svg">
<path d="M6 11.25C6.60156 11.25 7.17773 11.1582 7.72852 10.9746C8.2832 10.7871 8.78711 10.5254 9.24023 10.1895C9.69727 9.84961 10.0938 9.44336 10.4297 8.9707C10.7695 8.49414 11.0273 7.9668 11.2031 7.38867L11.918 7.61133C11.7227 8.26367 11.4316 8.85938 11.0449 9.39844C10.6582 9.93359 10.2031 10.3945 9.67969 10.7812C9.16016 11.168 8.58594 11.4688 7.95703 11.6836C7.33203 11.8945 6.67969 12 6 12C5.46484 12 4.94336 11.9336 4.43555 11.8008C3.92773 11.668 3.44727 11.4766 2.99414 11.2266C2.54492 10.9727 2.12891 10.666 1.74609 10.3066C1.36328 9.94336 1.03125 9.5332 0.75 9.07617V10.5H0V7.5H3V8.25H1.14844C1.37891 8.70703 1.66406 9.12109 2.00391 9.49219C2.34766 9.85938 2.73047 10.1738 3.15234 10.4355C3.57422 10.6934 4.02539 10.8945 4.50586 11.0391C4.99023 11.1797 5.48828 11.25 6 11.25ZM12 1.5V4.5H9V3.75H10.8516C10.6211 3.29297 10.334 2.88086 9.99023 2.51367C9.65039 2.14258 9.26953 1.82812 8.84766 1.57031C8.42578 1.30859 7.97266 1.10742 7.48828 0.966797C7.00781 0.822266 6.51172 0.75 6 0.75C5.39844 0.75 4.82031 0.84375 4.26562 1.03125C3.71484 1.21484 3.21094 1.47656 2.75391 1.81641C2.30078 2.15234 1.9043 2.55859 1.56445 3.03516C1.22852 3.50781 0.972656 4.0332 0.796875 4.61133L0.0820312 4.38867C0.277344 3.74023 0.568359 3.14648 0.955078 2.60742C1.3418 2.06836 1.79492 1.60547 2.31445 1.21875C2.83789 0.832031 3.41211 0.533203 4.03711 0.322266C4.66602 0.107422 5.32031 0 6 0C6.53516 0 7.05664 0.0664062 7.56445 0.199219C8.07227 0.332031 8.55078 0.525391 9 0.779297C9.45312 1.0293 9.87109 1.33594 10.2539 1.69922C10.6367 2.05859 10.9688 2.4668 11.25 2.92383V1.5H12Z" fill="#99EBFF"/>
</svg>
