<?xml version="1.0" encoding="utf-8"?>
<!-- Generator: Adobe Illustrator 23.0.2, SVG Export Plug-In . SVG Version: 6.00 Build 0)  -->
<svg version="1.2" baseProfile="tiny" id="Layer_1" xmlns="http://www.w3.org/2000/svg" xmlns:xlink="http://www.w3.org/1999/xlink"
	 x="0px" y="0px" viewBox="0 0 52 52" xml:space="preserve">
<path fill="#31B4ED" d="M20.5,28c0,1.3807125-1.1192875,2.5-2.5,2.5s-2.5-1.1192875-2.5-2.5V15
	c0-5.7989883,4.7010098-10.5,10.5-10.5S36.5,9.2010117,36.5,15v13c0,1.3807125-1.1192894,2.5-2.5,2.5s-2.5-1.1192875-2.5-2.5V15
	c0-3.0375671-2.4624348-5.5-5.5-5.5s-5.5,2.4624329-5.5,5.5V28z"/>
<path fill="none" d="M20.5,28c0,1.3807125-1.1192875,2.5-2.5,2.5s-2.5-1.1192875-2.5-2.5V15c0-5.7989883,4.7010098-10.5,10.5-10.5
	S36.5,9.2010117,36.5,15v13c0,1.3807125-1.1192894,2.5-2.5,2.5s-2.5-1.1192875-2.5-2.5V15c0-3.0375671-2.4624348-5.5-5.5-5.5
	s-5.5,2.4624329-5.5,5.5V28z"/>
<path fill="#B0E7FA" d="M13,22h26c1.6568527,0,3,1.3431454,3,3v19c0,1.6568527-1.3431473,3-3,3H13c-1.6568546,0-3-1.3431473-3-3V25
	C10,23.3431454,11.3431454,22,13,22z"/>
</svg>
