<svg xmlns="http://www.w3.org/2000/svg" xmlns:xlink="http://www.w3.org/1999/xlink" width="120" height="120" viewBox="0 0 120 120">
  <defs>
    <clipPath id="clip-allowAccess">
      <rect width="120" height="120"/>
    </clipPath>
  </defs>
  <g id="allowAccess" clip-path="url(#clip-allowAccess)">
    <g id="allowAccess-2" data-name="allowAccess" transform="translate(-0.328 -0.004)">
      <g id="Layer_1" data-name="Layer 1" transform="translate(0.328 0.003)">
        <path id="Path_38992" data-name="Path 38992" d="M21.33,1.13A29,29,0,0,1,57.18,21l2.33,8.11a5.8,5.8,0,1,1-11.15,3.2l-.52-1.84a4.17,4.17,0,0,0-2.46-7.91A17.34,17.34,0,0,0,12.61,33.78L20.87,62.6A5.794,5.794,0,1,1,9.73,65.79L1.46,37A29,29,0,0,1,21.33,1.13Z" transform="translate(-0.328 -0.003)" fill="#f3f2f1"/>
        <rect id="Rectangle_47555" data-name="Rectangle 47555" width="77.28" height="54.1" rx="1.93" transform="matrix(0.961, -0.276, 0.276, 0.961, 0.119, 67.996)" fill="#e1dfdd"/>
        <rect id="Rectangle_47556" data-name="Rectangle 47556" width="77.28" height="3.08" transform="matrix(-0.961, 0.276, -0.276, -0.961, 77.558, 57.882)" fill="#c8c6c4"/>
        <rect id="Rectangle_47557" data-name="Rectangle 47557" width="77.28" height="3.08" transform="matrix(-0.961, 0.276, -0.276, -0.961, 80.708, 68.814)" fill="#c8c6c4"/>
        <rect id="Rectangle_47558" data-name="Rectangle 47558" width="77.28" height="3.08" transform="matrix(-0.961, 0.276, -0.276, -0.961, 83.86, 79.756)" fill="#c8c6c4"/>
        <rect id="Rectangle_47559" data-name="Rectangle 47559" width="77.28" height="3.08" transform="matrix(-0.961, 0.276, -0.276, -0.961, 87.004, 90.672)" fill="#c8c6c4"/>
        <path id="Path_38993" data-name="Path 38993" d="M41.61,71.89a7.72,7.72,0,0,0-.4,14.72L43.91,96a1,1,0,0,0,1.19.66l6.69-1.91a1,1,0,0,0,.66-1.2l-2.7-9.41a7.72,7.72,0,0,0-8.14-12.27Z" transform="translate(-0.093 -0.347)" fill="#b3afab"/>
        <circle id="Ellipse_2335" data-name="Ellipse 2335" cx="27.13" cy="27.13" r="27.13" transform="translate(65.74 13.037)" fill="#ffd590"/>
        <path id="Path_38994" data-name="Path 38994" d="M89.93,49.21a3.62,3.62,0,1,1-4.62,2.45,3.46,3.46,0,0,1,4.62-2.45ZM100.14,25,93.59,46l-5-1.45L94.1,23.24Z" transform="translate(0.223 -0.125)" fill="#fff"/>
      </g>
    </g>
  </g>
</svg>
