<?xml version="1.0" encoding="UTF-8"?><svg xmlns="http://www.w3.org/2000/svg" viewBox="0 0 1792 2048"><defs><style>.d{fill:#fff;}</style></defs><g id="a"/><g id="b"><g id="c"><path class="d" d="M1792,784v1013c0,33.33-6.67,65-20,95s-31.67,56.67-55,80-50,41.67-80,55-62,20.33-96,21h-507c23.33-18.67,45.67-38.67,67-60s41-44,59-68h376c18,0,34.67-3.33,50-10s28.67-15.67,40-27,20.67-25,28-41,10.67-32.67,10-50V776c0-2.67-.33-5.33-1-8h-388c-34.67,0-67-7-97-21s-56.67-32.67-80-56-41.33-50.33-54-81-19.33-63.33-20-98V129c-2.67-.67-5.33-1-8-1h-504c-18,0-34.67,3.33-50,10s-28.67,15.67-40,27-20.67,25-28,41-10.67,32.67-10,50v505c-44.67,12-87.33,28-128,48V251c0-33.33,6.67-65,20-95s31.67-56.67,55-80c23.33-23.33,50-41.67,80-55C441,7.67,473,.67,507,0h501c34,0,66.67,6.33,98,19,31.33,12.67,59,31.33,83,56l528,528c24,24,42.33,51.67,55,83s19.33,64,20,98Zm-640-272c0,18,3.33,34.67,10,50s15.67,29,27,41,24.67,21,40,27,32.33,9.33,51,10h294l-422-422v294Zm0,960c0,79.33-15,154-45,224s-71.33,131-124,183c-52.67,52-113.67,93-183,123s-144,45.33-224,46c-80,0-155-15-225-45s-131-71-183-123-93-113-123-183S0,1552,0,1472s15-154,45-224,71.33-131,124-183c52.67-52,113.67-93,183-123s144-45.33,224-46c52.67,0,103.33,6.67,152,20s94.67,32.67,138,58,82.33,55.67,117,91,64.67,74.33,90,117,44.67,88.33,58,137,20.33,99.67,21,153Zm-256-256c0-17.33-6.33-32.33-19-45s-27.67-19-45-19H448c-17.33,0-32.33,6.33-45,19s-19,27.67-19,45,6.33,32.33,19,45,27.67,19,45,19h222l-335,335c-13.33,13.33-20,29.67-20,49s6.67,35.67,20,49,29.67,20,49,20,35.67-6.67,49-20l335-335v222c0,17.33,6.33,32.33,19,45s27.67,19,45,19,32.33-6.33,45-19,19-27.67,19-45v-384Z"/></g></g></svg>