<svg xmlns="http://www.w3.org/2000/svg" xmlns:xlink="http://www.w3.org/1999/xlink" viewBox="0 0 405 190"><defs><linearGradient id="linear-gradient" x1="61.375" y1="107.149" x2="108.983" y2="107.149" gradientUnits="userSpaceOnUse"><stop offset="0" stop-color="#0086f0"/><stop offset="0.809" stop-color="#007bdc"/><stop offset="1" stop-color="#0078d6"/></linearGradient><radialGradient id="radial-gradient" cx="3738.713" cy="-97.675" r="18.374" gradientTransform="matrix(-0.996, 0.089, 0.089, 0.996, 3820.986, -172.97)" gradientUnits="userSpaceOnUse"><stop offset="0" stop-color="#724937"/><stop offset="0.358" stop-color="#88583a"/><stop offset="0.7" stop-color="#96613c"/><stop offset="1" stop-color="#9b643d"/></radialGradient><linearGradient id="linear-gradient-2" x1="276.494" y1="104.062" x2="287.681" y2="131.807" gradientUnits="userSpaceOnUse"><stop offset="0.217" stop-color="#0086f0"/><stop offset="0.221" stop-color="#0086f0"/><stop offset="0.409" stop-color="#007de1"/><stop offset="0.635" stop-color="#0078d9"/><stop offset="1" stop-color="#0077d6"/></linearGradient><radialGradient id="radial-gradient-2" cx="472.159" cy="-111.557" r="19.649" gradientTransform="translate(-142.132 220.241) rotate(-5.46)" gradientUnits="userSpaceOnUse"><stop offset="0" stop-color="#33312d"/><stop offset="0.059" stop-color="#38332e"/><stop offset="0.356" stop-color="#4a3d34"/><stop offset="0.664" stop-color="#554338"/><stop offset="1" stop-color="#594539"/></radialGradient><linearGradient id="linear-gradient-3" x1="443.79" y1="-111.054" x2="443.79" y2="-90.003" gradientTransform="translate(-142.132 220.241) rotate(-5.46)" xlink:href="#radial-gradient-2"/><radialGradient id="radial-gradient-3" cx="305.357" cy="128.473" r="27.854" gradientUnits="userSpaceOnUse"><stop offset="0" stop-color="#007cde"/><stop offset="0.023" stop-color="#0079d8"/><stop offset="0.028" stop-color="#0078d6"/><stop offset="0.28" stop-color="#007bdc"/><stop offset="0.62" stop-color="#0085ed"/><stop offset="0.664" stop-color="#0086f0"/></radialGradient><radialGradient id="radial-gradient-4" cx="456.759" cy="-96.203" r="12.561" gradientTransform="translate(-142.132 220.241) rotate(-5.46)" gradientUnits="userSpaceOnUse"><stop offset="0" stop-color="#9a6541"/><stop offset="1" stop-color="#be906b"/></radialGradient><radialGradient id="radial-gradient-5" cx="455.858" cy="-97.935" r="6.178" gradientTransform="translate(-142.132 220.241) rotate(-5.46)" gradientUnits="userSpaceOnUse"><stop offset="0" stop-color="#9b643d"/><stop offset="1" stop-color="#bf8f68"/></radialGradient></defs><title>ODD - Win - Light_1</title><g id="Layer_6" data-name="Layer 6"><circle cx="313.106" cy="118.199" r="52.496" style="fill:#797673"/><circle cx="91.894" cy="81.883" r="52.496" style="fill:#797673"/><rect x="122.167" y="29.431" width="160.808" height="127.611" style="fill:#605e5c"/><rect x="196.55" y="-27.719" width="11.7" height="151.558" transform="translate(250.46 -154.34) rotate(90)" style="fill:#3b3a39"/><path d="M243.273,113.957l-7.814-7.548L234.09,105.2a2.243,2.243,0,0,0-2.1.255l-2.07,1.454-1.883-2.834,2.252-2.507a3.071,3.071,0,0,1,2.544-1.008l3.357.283-3.252-1.366-3.1.791-2.082-.9,5.879-1.93,5.01,2.351,5.326,8.966Z" style="fill:#bf8f68"/><circle cx="255.215" cy="35.497" r="2.759" style="fill:#3b3a39"/><circle cx="264.487" cy="35.497" r="2.759" style="fill:#3b3a39"/><circle cx="273.759" cy="35.497" r="2.759" style="fill:#3b3a39"/><rect x="127.965" y="59.559" width="107.907" height="87.641" style="fill:#3b3a39"/><rect x="171.999" y="46.787" width="18.932" height="2.771" style="fill:#605e5c"/><rect x="197.224" y="46.787" width="18.932" height="2.771" style="fill:#605e5c"/><rect x="138.195" y="107.019" width="31.238" height="3.08" style="fill:#605e5c"/><rect x="162.834" y="78.285" width="54.116" height="14.079" style="fill:#605e5c"/><rect x="168.219" y="83.785" width="43.344" height="3.08" style="fill:#3b3a39"/><path d="M269.928,77.22l-1.7-1.138a10.2,10.2,0,0,0-.138-4.323l1.835-1.23a1.324,1.324,0,0,0,.361-1.838l-2.421-3.609a1.324,1.324,0,0,0-1.837-.362l-1.854,1.243a10.226,10.226,0,0,0-2.522-1.344V62.232a1.324,1.324,0,0,0-1.324-1.324h-4.346a1.324,1.324,0,0,0-1.324,1.324v2.387a10.194,10.194,0,0,0-2.669,1.452l-2.014-1.351a1.325,1.325,0,0,0-1.838.362l-2.421,3.609a1.326,1.326,0,0,0,.362,1.838l2.1,1.409a10.18,10.18,0,0,0-.13,3.96l-1.971,1.322a1.326,1.326,0,0,0-.362,1.838l2.421,3.609a1.326,1.326,0,0,0,1.838.362l1.512-1.014a10.227,10.227,0,0,0,3.171,1.859v1.643a1.324,1.324,0,0,0,1.324,1.324h4.346a1.324,1.324,0,0,0,1.324-1.324V83.874a10.226,10.226,0,0,0,3.037-1.743l1.339.9a1.324,1.324,0,0,0,1.837-.362l2.421-3.609A1.324,1.324,0,0,0,269.928,77.22ZM258,79.361a5.487,5.487,0,1,1,5.486-5.487A5.487,5.487,0,0,1,258,79.361Z" style="fill:#3b3a39"/><rect x="155.941" y="53.805" width="38.777" height="10.266" transform="translate(-6.039 22.612) rotate(-7.255)" style="fill:#0086f0"/><rect x="161.44" y="57.508" width="27.778" height="2.86" transform="translate(-6.039 22.612) rotate(-7.255)" style="fill:#fff"/><circle cx="91.894" cy="81.883" r="52.496" style="fill:none"/><path d="M108.721,110.448c0-.031,0-.062,0-.092-.068-16.864-10.833-30.49-24.044-30.437s-22.951,9.333-23.294,26.192c-.145,7.1,1.494,11.187,1.693,19.645a52.468,52.468,0,0,0,45.906,5.764l-.123-21.072Z" style="fill:url(#linear-gradient)"/><circle cx="84.989" cy="24.322" r="5.017" style="fill:#594539"/><circle cx="93.035" cy="27.649" r="5.017" style="fill:#594539"/><circle cx="75.531" cy="25.72" r="5.017" style="fill:#594539"/><circle cx="67.482" cy="30.42" r="5.017" style="fill:#594539"/><circle cx="97.111" cy="33.699" r="5.017" style="fill:#594539"/><circle cx="63.321" cy="36.705" r="5.017" style="fill:#594539"/><circle cx="95.531" cy="39.754" r="5.017" style="fill:#594539"/><circle cx="64.337" cy="44.917" r="5.017" style="fill:#594539"/><path d="M73.849,25.819h1.109A18.774,18.774,0,0,1,93.732,44.593v2.183A17.751,17.751,0,0,1,75.98,64.528H72.819A10.132,10.132,0,0,1,62.687,54.4V36.982A11.162,11.162,0,0,1,73.849,25.819Z" transform="translate(160.113 83.241) rotate(174.917)" style="fill:#594539"/><path d="M71.686,83.71s3.689-1.9,3.144-8.021L72.909,54.018,88.3,52.649l1.934,21.669a12.292,12.292,0,0,0,5.338,9.014s-2.429,3.455-9.74,1.872C75.687,83.008,71.686,83.71,71.686,83.71Z" style="fill:url(#radial-gradient)"/><path d="M84.268,30.677h.842A13.282,13.282,0,0,1,98.392,43.959V72.036a0,0,0,0,1,0,0H86.266A11.447,11.447,0,0,1,74.819,60.589V40.127A9.449,9.449,0,0,1,84.268,30.677Z" transform="translate(177.421 94.838) rotate(174.917)" style="fill:#9b643d"/><path d="M98.255,49.338a4.671,4.671,0,0,0,.963,2.436l2.606,2.923a1.1,1.1,0,0,1-.185,1.544l-1.707,1.077a2.083,2.083,0,0,0-.78,1.8l.054.864-1.594-1.843-.687-8.682Z" style="fill:#9b643d"/><ellipse cx="93.565" cy="49.055" rx="1.164" ry="2.399" transform="translate(-4.202 9.025) rotate(-5.401)" style="fill:#3a312e"/><path d="M68.49,54.293A4.935,4.935,0,0,0,73.819,58.8c.184-.015,2.566-.236,2.743-.271,2.438-.477,1.977-2.526,1.766-5.058-.209-2.509-.059-4.618-2.511-4.718-.2-.008-2.61.192-2.818.209A4.935,4.935,0,0,0,68.49,54.293Z" style="fill:#9b643d"/><path d="M91.845,61.443c.614.235,1.02.438,1.357.531a6.26,6.26,0,0,0,.681.151c.166.035.369.122.726.2l1.465.279.064.013a.793.793,0,0,1,.631.929.743.743,0,0,1-.023.093,2.742,2.742,0,0,1-1.366,1.58,3.311,3.311,0,0,1-4.319-1.193,2.755,2.755,0,0,1-.342-2.075.777.777,0,0,1,.941-.569.641.641,0,0,1,.088.027Z" style="fill:#7a442c"/><path d="M69.2,29.445l24.367-2.167.606,6.848-9.477.843a5.769,5.769,0,0,0-5.22,5.083l-.513,6.117a2.9,2.9,0,0,1-2.632,2.646l-5.5.489Z" style="fill:#594539"/><circle cx="87.72" cy="35.534" r="5.017" style="fill:#594539"/><circle cx="83.526" cy="35.438" r="5.017" style="fill:#594539"/><circle cx="82.234" cy="41.727" r="4.049" style="fill:#594539"/><path d="M149.817,71.941s-1.006,7.029-3.52,11.8c-5.062,9.617-11.839,19.452-27.684,26.742-18.414,8.472-45.33,4.487-50.234-6.786-2.386-5.485-1.657-16.788,13.146-18.5,3.915-.924,18.249,5.928,31.041.961,13.427-5.212,24.024-15.537,26.87-17.239a27.208,27.208,0,0,1,7.294-2.451Z" style="fill:#0086f0"/><path d="M283.577,115.1c15.264-.248,20.65,15.957-1.869,12.16-18.98-3.2-35.694-11.949-38.618-13.379l.762-5.326S265.6,115.4,283.577,115.1Z" style="fill:#bf8f68"/><path d="M297.9,106.405s-18,10.119-32.374,7.186c-.257,2.291-1.063,12.062-1.063,12.062a69.3,69.3,0,0,0,23.831.312c12.1-2.2,9.706-19.987,9.706-19.987" style="fill:url(#linear-gradient-2)"/><path d="M149.783,71.968l7.652-8.717,1.386-1.389a2.411,2.411,0,0,1,2.268.133l2.315,1.418,1.827-3.161-2.58-2.534a3.3,3.3,0,0,0-2.792-.91l-3.577.528,3.391-1.681,3.373.64,2.168-1.106-6.426-1.673-5.207,2.855L146.8,66.7Z" style="fill:#9b643d"/><circle cx="313.106" cy="118.199" r="52.496" style="fill:none"/><path d="M313.106,170.7a52.238,52.238,0,0,0,28.963-8.717c-.168-3.242-.337-6.32-.427-7.434l-42.415,3.124a36.63,36.63,0,0,1-.986,7.437l-.786,3.217A52.473,52.473,0,0,0,313.106,170.7Z" style="fill:#605d5a"/><path d="M307.327,53.505a32.242,32.242,0,0,1-7.121,12.352c-4.421,4.714-8.372,7.237-8.536,12.059-.242,7.076,2.889,7.042-.534,15.115,0,0,.57-1.77-2.759-5.554S274.9,74.83,279.7,63.033C285.988,47.58,307.327,53.505,307.327,53.505Z" style="fill:#59453c"/><path d="M338.975,52.71c11.719,12.239-5.71,33.588,6.467,39.549,0,0-10.668,6.513-17.842-1.423-7.344-8.126-1.616-18.407-3.3-27.682-1.26-6.953-9.933-10.693-9.933-10.693S327.652,40.884,338.975,52.71Z" style="fill:url(#radial-gradient-2)"/><ellipse cx="307.974" cy="69.033" rx="19.978" ry="20.622" transform="matrix(0.995, -0.095, 0.095, 0.995, -5.171, 29.618)" style="fill:#59453c"/><path d="M288.9,68.316s-3.143,2.677-3.717,5.48c-.762,3.717,1.7,6.176,3.444,9.319a32.921,32.921,0,0,1,2.636,6.82l3.4-14.252Z" style="fill:url(#linear-gradient-3)"/><path d="M341.642,154.654a327.515,327.515,0,0,0-4.693-32.576c-2.884-14.419-12.883-24.7-25.147-23.528s-21.07,13.989-19.671,28.627a31.6,31.6,0,0,0,1.262,6.315h0l.013.038c.208.671.44,1.328.69,1.973l3.036,8.682a42.756,42.756,0,0,1,2.037,14.026C299.173,158.112,341.572,154.781,341.642,154.654Z" style="fill:url(#radial-gradient-3)"/><path d="M282.3,129.3c15.029-2.678,22.93,12.461.093,12.3-19.248-.134-38.792-6.424-41.907-7.37l1.553-5.06S264.6,132.453,282.3,129.3Z" style="fill:#bf8f68"/><path d="M283.383,124.4c13.685-6.764,15.949-11.008,24.563-18.851s22.069-2.082,20.387,8.147c-2.408,14.639-23.5,24.828-42.907,28.561a81.715,81.715,0,0,1-16.232,1.547l-2.534-13.425S279.732,126.2,283.383,124.4Z" style="fill:#0086f0"/><path d="M317.721,94.619,316,76.573l-12.067,4.056,1.45,15.17c.348,3.643-4.055,7.124-4.055,7.124l21.595-2.064S318.07,98.262,317.721,94.619Z" style="fill:url(#radial-gradient-4)"/><g id="Layer1_18_FILL" data-name="Layer1 18 FILL"><path d="M301.2,68.437l-9.372.9,1.623,16.979,9.372-.9Z" style="fill:url(#radial-gradient-5)"/></g><path d="M311.117,85.239a3.237,3.237,0,0,1-.728,1.735,3.652,3.652,0,0,1-1.581,1.141,3.445,3.445,0,0,1-1.945.189,2.93,2.93,0,0,1-1.61-.85.832.832,0,0,1,.326-1.361l.142-.048c.5-.171.888-.23,1.226-.329.344-.061.609-.184.894-.244a6.828,6.828,0,0,0,.879-.347c.312-.139.673-.375,1.049-.529l.321-.132a.748.748,0,0,1,1.027.775Z" style="fill:#9a6541"/><ellipse cx="295.476" cy="75.536" rx="1.318" ry="2.457" transform="matrix(0.995, -0.095, 0.095, 0.995, -5.847, 28.458)" style="fill:#3a312e"/><ellipse cx="308.18" cy="74.391" rx="1.318" ry="2.457" transform="translate(-5.68 29.661) rotate(-5.46)" style="fill:#3a312e"/><path d="M298.837,79.827c.076,1.1,2.971,2.172,3.815,3.756,2.535-3.442-.832-12.692-.832-12.692s-.2,3.765-1.227,5.726C299.719,78.287,298.762,78.725,298.837,79.827Z" style="fill:#be906b"/><path d="M299.914,54.933c-8.4.8-11.7,7.454-10.9,15.854,1.02,10.668.621,22.362,9.832,22.5,11.484.169,15.624-12.516,14.6-23.184C312.651,61.7,308.314,54.13,299.914,54.933Z" style="fill:#be906b"/><path d="M285.879,81.065c.135,1.416,4.032,2.071,4.876,3.655,2.535-3.442-1.618-12.617-1.618-12.617a12.925,12.925,0,0,1-1.5,5.753C286.706,79.5,285.774,79.966,285.879,81.065Z" style="fill:#be906b"/><path d="M299.218,85.413a2.713,2.713,0,0,1-.252,1.741,3.083,3.083,0,0,1-1.3,1.343,3.223,3.223,0,0,1-1.76.375,2.775,2.775,0,0,1-1.514-.58.724.724,0,0,1-.118-1.018.711.711,0,0,1,.232-.193l.129-.066a3.2,3.2,0,0,1,.606-.226c.178-.081.356-.115.508-.176.312-.1.548-.211.775-.3a3.867,3.867,0,0,0,.649-.4c.231-.164.478-.452.752-.681l.248-.206a.644.644,0,0,1,.908.083A.655.655,0,0,1,299.218,85.413Z" style="fill:#9a6541"/><ellipse cx="294.504" cy="75.628" rx="1.318" ry="2.457" transform="translate(-5.86 28.366) rotate(-5.46)" style="fill:#3a312e"/><path d="M308.778,72.808h4.516a4.012,4.012,0,0,1,4.012,4.012v.3a4.012,4.012,0,0,1-4.012,4.012h-4.516a0,0,0,0,1,0,0V72.808A0,0,0,0,1,308.778,72.808Z" transform="translate(-5.903 30.136) rotate(-5.46)" style="fill:#be906b"/><path d="M294.75,55.887c-1.194,2.564.788,8.251,7.926,11.777,5.468,2.7,4.9,8.732,4.9,8.732s5.563-1.792,7.494-6.088c1.859-4.136,1.656-12.585-2.541-16.58C307.021,48.485,298.061,48.771,294.75,55.887Z" style="fill:#59453c"/><path d="M301.084,53.214a33.7,33.7,0,0,1-7.445,12.914,67.2,67.2,0,0,1-6.7,5.753c-2.661,2.184-8.55.534-5.025-8.333C288.357,47.34,301.084,53.214,301.084,53.214Z" style="fill:#59453c"/><path d="M240.6,134.232l-7.813-7.548-1.37-1.211a2.244,2.244,0,0,0-2.1.255l-2.071,1.454-1.883-2.834,2.252-2.507a3.072,3.072,0,0,1,2.544-1.008l3.357.283-3.252-1.366-3.1.791-2.081-.9,5.879-1.93,5.009,2.352,6.9,9.215Z" style="fill:#bf8f68"/></g></svg>