<svg xmlns="http://www.w3.org/2000/svg" viewBox="0 0 36 36">
  <title>ActivityCenter_R10_overflowIcon_June2017</title>
  <g id="body">
    <g style="opacity: 1.0">
      <path d="M18,12.69a1,1,0,0,1-.42-.08A1.09,1.09,0,0,1,17,12a1.08,1.08,0,0,1,0-.83,1.1,1.1,0,0,1,.23-.34,1.09,1.09,0,0,1,.34-.23,1.09,1.09,0,0,1,.83,0,1.09,1.09,0,0,1,.34.23,1.1,1.1,0,0,1,.23.34A1.08,1.08,0,0,1,19,12a1.09,1.09,0,0,1-.56.56A1,1,0,0,1,18,12.69Zm0,4.25a1,1,0,0,1,.42.08,1.09,1.09,0,0,1,.34.23,1.1,1.1,0,0,1,.23.34,1.08,1.08,0,0,1,0,.83,1.09,1.09,0,0,1-.56.56,1.07,1.07,0,0,1-.83,0,1.09,1.09,0,0,1-.56-.56,1.08,1.08,0,0,1,0-.83,1.1,1.1,0,0,1,.23-.34,1.09,1.09,0,0,1,.34-.23A1,1,0,0,1,18,16.94Zm0,6.38a1,1,0,0,1,.42.08,1.09,1.09,0,0,1,.34.23A1.1,1.1,0,0,1,19,24a1.08,1.08,0,0,1,0,.83,1.09,1.09,0,0,1-.56.56,1.07,1.07,0,0,1-.83,0,1.09,1.09,0,0,1-.56-.56A1.08,1.08,0,0,1,17,24a1.1,1.1,0,0,1,.23-.34,1.09,1.09,0,0,1,.34-.23A1,1,0,0,1,18,23.31Z" style="fill: #fff"/>
    </g>
  </g>
</svg>