<svg xmlns="http://www.w3.org/2000/svg" viewBox="0 0 2048 2048">
  <path d="M1152 757q-29-10-52-28t-41-42-26-52-9-59V192q0-39 15-74t41-61 62-42 74-15h640q39 0 74 15t61 41 42 62 15 74v384q0 39-15 74t-41 61-62 42-74 15h-358l-182 183q-28 28-68 28-18 0-37-8-28-11-43-35t-16-53V757zm128 48l165-165h411q26 0 45-19t19-45V192q0-26-19-45t-45-19h-640q-26 0-45 19t-19 45v384q0 22 8 35t22 19 30 9 34 2h17q8 0 17-1v165zM256 768v-8q0-78 31-146t84-120 122-80 147-30q80 0 150 30t122 82 82 122 30 150q0 80-30 150t-82 122-122 82-150 30q-80 0-150-30t-122-82-82-122-30-150zm640 0v-5q0-52-21-97t-56-80-81-54-98-20q-53 0-99 20t-81 55-55 82-21 99q0 53 20 99t55 81 81 55 100 21q52 0 99-20t81-55 55-81 21-100zM0 1504q0-41 14-81t40-72 62-51 81-20h886q44 0 80 19t63 51 40 72 14 82q0 155-69 273t-205 193q-84 46-178 62t-188 16q-84 0-168-14t-161-46-140-86-106-133q-32-62-48-129T0 1504zm1152 0q0-14-4-31t-13-31-22-24-30-10H197q-17 0-30 9t-21 24-13 32-5 31q0 114 42 193t112 129 163 72 195 22q102 0 194-22t163-71 113-129 42-194z" fill="white" />
</svg>