<?xml version="1.0" encoding="UTF-8"?><svg xmlns="http://www.w3.org/2000/svg" viewBox="0 0 14.25 13.5"><defs><style>.d{fill:#fff;}</style></defs><g id="a"/><g id="b"><g id="c"><path class="d" d="M2.81,.75h2.6c.31,0,.56,.25,.56,.56,0,.28-.21,.52-.49,.56H2.81c-.89,0-1.62,.7-1.68,1.58v7.24c0,.89,.69,1.62,1.57,1.68h7.24c.89,0,1.62-.69,1.68-1.57v-.49c0-.31,.26-.56,.57-.56,.28,0,.52,.21,.56,.49v.45c0,1.5-1.17,2.73-2.66,2.81H2.81c-1.5,0-2.73-1.18-2.81-2.66V3.56c0-1.5,1.18-2.73,2.66-2.81h.15Zm5.82,1.89V.56c0-.47,.53-.72,.89-.46l.06,.05,4.5,4.31c.21,.2,.23,.52,.06,.75l-.06,.06-4.5,4.31c-.34,.32-.89,.12-.95-.33v-2.12l-.26,.02c-1.8,.19-3.52,1-5.19,2.45-.39,.34-.99,.02-.93-.49,.5-3.99,2.58-6.19,6.15-6.46h.22v-.01Zm1.12-.76v1.31c0,.31-.25,.56-.56,.56-2.91,0-4.71,1.26-5.48,3.87l-.06,.21,.26-.18c1.68-1.1,3.44-1.65,5.28-1.65,.28,0,.52,.21,.56,.49v1.38l3.13-2.99-3.12-2.99Z"/></g></g></svg>