<?xml version="1.0" encoding="utf-8"?>
<!-- Generator: Adobe Illustrator 22.1.0, SVG Export Plug-In . SVG Version: 6.00 Build 0)  -->
<svg version="1.1" id="Layer_1" xmlns="http://www.w3.org/2000/svg" xmlns:xlink="http://www.w3.org/1999/xlink" x="0px" y="0px"
	 viewBox="0 0 32 32" style="enable-background:new 0 0 32 32;" xml:space="preserve">
<style type="text/css">
	.st0{fill:#E81123;}
	.st1{fill:#FFFFFF;}
</style>
<title>Artboard 3</title>
<path class="st0" d="M29.3,3.9c-0.9-0.1-1.7-0.2-2.5-0.3c-0.8-0.2-1.6-0.4-2.4-0.7c-0.8-0.3-1.6-0.7-2.4-1.2c-0.5-0.3-1-0.5-1.4-0.7
	c-0.5-0.2-0.9-0.4-1.4-0.5c-0.5-0.1-1-0.2-1.5-0.3C17.1,0,16.5,0,16,0c-1.1,0-2.1,0.1-3.1,0.4c-1,0.3-1.9,0.7-2.8,1.3
	C9.3,2.1,8.5,2.5,7.6,2.8C6.9,3.1,6,3.4,5.2,3.6C4.4,3.7,3.5,3.8,2.7,3.9C1.8,4,0.9,4.1,0,4.1V12c0,1.5,0.2,3,0.7,4.4
	c0.4,1.4,1,2.7,1.7,3.9c0.8,1.3,1.7,2.4,2.7,3.5c1,1.1,2.2,2.1,3.3,3c1.2,1,2.4,1.9,3.7,2.7c1.2,0.8,2.5,1.7,3.9,2.4
	c1.3-0.7,2.6-1.7,3.9-2.5c1.3-0.8,2.5-1.7,3.7-2.7c1.2-0.9,2.3-2,3.3-3c1-1.1,1.9-2.2,2.7-3.5c0.7-1.2,1.3-2.6,1.7-3.9
	C31.8,15,32,13.5,32,12V4.1C31.1,4.1,30.2,4,29.3,3.9z"/>
<polygon class="st1" points="24,20 22,22 16,16 10,22 8,20 14,14 8,8 10,6 16,12 22,6 24,8 18,14 "/>
</svg>
