<svg width="69" height="64" viewBox="0 0 69 64" fill="none" xmlns="http://www.w3.org/2000/svg">
<path d="M59.4965 26.9936L42.6982 43.9358C41.7187 44.9151 42.1595 46.629 43.5308 46.9717L66.5978 53.0925C67.9691 53.4352 69.1935 52.2111 68.8507 50.84L62.5819 27.826C62.1411 26.455 60.476 25.9653 59.4965 26.9936Z" fill="url(#paint0_linear)"/>
<path d="M10.6197 7.79876L0.628859 29.4907C0.041163 30.7638 1.06963 32.1838 2.44092 32.0859L26.1937 29.8824C27.6139 29.7355 28.3485 28.1686 27.516 26.9934L13.7541 7.50497C12.9215 6.32979 11.2074 6.52565 10.6197 7.79876Z" fill="url(#paint1_linear)"/>
<path d="M29.6218 10.8331L0.775676 53.5803C-0.938439 56.0776 0.726701 59.5052 3.76313 59.75L55.2355 63.3735C58.272 63.5694 60.3779 60.4356 59.0556 57.6935L36.4293 11.3227C35.1069 8.58065 31.3359 8.33582 29.6218 10.8331Z" fill="#FFD590"/>
<path d="M30.6016 45.5987C29.5242 45.5007 28.6916 44.5704 28.7896 43.4931L30.2098 23.4661C30.3078 22.3888 31.2383 21.5564 32.3158 21.6543C33.3932 21.7523 34.2258 22.6826 34.1278 23.7599L32.7075 43.7869C32.6096 44.8642 31.6791 45.6476 30.6016 45.5987Z" fill="white"/>
<path d="M30.3074 52.4538C31.5245 52.4538 32.5112 51.4673 32.5112 50.2503C32.5112 49.0334 31.5245 48.0469 30.3074 48.0469C29.0902 48.0469 28.1035 49.0334 28.1035 50.2503C28.1035 51.4673 29.0902 52.4538 30.3074 52.4538Z" fill="white"/>
<path d="M8.12193 21.411C7.09346 21.7048 6.01602 21.1172 5.72217 20.0399L1.70624 5.88876C1.4124 4.86048 2.00009 3.78323 3.07754 3.48943C4.106 3.19564 5.18345 3.78323 5.4773 4.86048L9.49322 19.0116C9.7381 20.0399 9.1504 21.1172 8.12193 21.411Z" fill="#28C2D1"/>
<path d="M9.39527 28.1198C10.6124 28.1198 11.5991 27.1333 11.5991 25.9164C11.5991 24.6994 10.6124 23.7129 9.39527 23.7129C8.17811 23.7129 7.19141 24.6994 7.19141 25.9164C7.19141 27.1333 8.17811 28.1198 9.39527 28.1198Z" fill="#28C2D1"/>
<path d="M61.7495 38.4988C60.7211 38.205 60.1334 37.0788 60.4272 36.0505L64.639 21.9973C64.9329 20.969 66.0593 20.3814 67.0878 20.6752C68.1162 20.969 68.7039 22.0952 68.4101 23.1235L64.1493 37.2257C63.8554 38.254 62.778 38.8416 61.7495 38.4988Z" fill="#3E8EED"/>
<path d="M60.3782 45.2077C61.5953 45.2077 62.582 44.2212 62.582 43.0042C62.582 41.7873 61.5953 40.8008 60.3782 40.8008C59.161 40.8008 58.1743 41.7873 58.1743 43.0042C58.1743 44.2212 59.161 45.2077 60.3782 45.2077Z" fill="#3E8EED"/>
<path d="M8.12193 21.411C7.09346 21.7048 6.01602 21.1172 5.72217 20.0399L1.70624 5.88876C1.4124 4.86048 2.00009 3.78323 3.07754 3.48943C4.106 3.19564 5.18345 3.78323 5.4773 4.86048L9.49322 19.0116C9.7381 20.0399 9.1504 21.1172 8.12193 21.411Z" fill="#28C2D1"/>
<path d="M9.39527 28.1198C10.6124 28.1198 11.5991 27.1333 11.5991 25.9164C11.5991 24.6994 10.6124 23.7129 9.39527 23.7129C8.17811 23.7129 7.19141 24.6994 7.19141 25.9164C7.19141 27.1333 8.17811 28.1198 9.39527 28.1198Z" fill="#28C2D1"/>
<path d="M37.8984 5.59494C37.6045 6.0846 37.7025 6.67219 38.0943 7.06392C38.1433 7.11289 38.2412 7.21082 38.3392 7.21082C38.9269 7.55358 39.6615 7.35772 39.9553 6.81909L41.4735 4.27286C41.6205 3.97907 41.6694 3.68527 41.6205 3.34251C41.5715 3.09768 41.4246 2.85285 41.2287 2.70595C41.1797 2.65699 41.1307 2.65699 41.0817 2.60802C40.4941 2.26526 39.7594 2.46112 39.4656 2.99975L37.8984 5.59494Z" fill="#E1DFDD"/>
<path d="M42.5508 11.0296C42.5998 11.1276 42.6978 11.2745 42.7957 11.3724C43.1875 11.7152 43.7262 11.8131 44.167 11.5683L46.7137 10.2952C47.0075 10.1483 47.2034 9.90343 47.3014 9.60963C47.3993 9.31584 47.3993 8.97308 47.2524 8.67928C47.1545 8.53238 47.0565 8.38549 46.9096 8.28755C46.8116 8.18962 46.6647 8.14066 46.5668 8.09169C46.2729 7.99376 45.9301 7.99376 45.6362 8.14066L43.0896 9.41377C42.7957 9.56067 42.5998 9.8055 42.5019 10.0993C42.4039 10.4421 42.4039 10.7358 42.5508 11.0296Z" fill="#E1DFDD"/>
<path d="M31.9236 4.51734C31.9726 4.76217 32.0706 5.007 32.2665 5.20287C32.5113 5.4477 32.9031 5.59459 33.246 5.54563C33.8826 5.4477 34.3724 4.86011 34.2744 4.17458L33.8337 1.04076C33.7847 0.746967 33.6378 0.453172 33.3929 0.257308C33.148 0.0614441 32.8052 -0.0364877 32.4624 0.0124782C31.8257 0.11041 31.3359 0.698001 31.4339 1.38352L31.9236 4.51734Z" fill="#E1DFDD"/>
<defs>
<linearGradient id="paint0_linear" x1="41.1857" y1="44.5108" x2="59.3489" y2="40.7302" gradientUnits="userSpaceOnUse">
<stop offset="0.000984252" stop-color="#72ACF1"/>
<stop offset="1" stop-color="#A7CBF6"/>
</linearGradient>
<linearGradient id="paint1_linear" x1="25.8969" y1="30.5286" x2="12.3169" y2="22.399" gradientUnits="userSpaceOnUse">
<stop offset="0.000984252" stop-color="#7BDDEF"/>
<stop offset="1" stop-color="#C3F2F4"/>
</linearGradient>
</defs>
</svg>
