<svg width="18" height="18" viewBox="0 0 18 18" fill="none" xmlns="http://www.w3.org/2000/svg">
<path d="M3 3H11.25C12.0784 3 12.75 3.67157 12.75 4.5V9.75C12.75 10.5784 12.0784 11.25 11.25 11.25H3C2.17157 11.25 1.5 10.5784 1.5 9.75V4.5C1.5 3.67157 2.17157 3 3 3ZM11.25 4.125H3C2.79289 4.125 2.625 4.29289 2.625 4.5V9.75C2.625 9.95708 2.79289 10.125 3 10.125H11.25C11.4571 10.125 11.625 9.95708 11.625 9.75V4.5C11.625 4.29289 11.4571 4.125 11.25 4.125ZM3.42227 12C3.58878 12.647 4.17607 13.125 4.87501 13.125H11.625C13.2818 13.125 14.625 11.7818 14.625 10.125V6.37498C14.625 5.67604 14.147 5.08876 13.5 4.92224V10.125C13.5 11.1605 12.6605 12 11.625 12H3.42227ZM5.29727 13.875C5.46378 14.522 6.05107 15 6.75001 15H12.1875C14.5692 15 16.5 13.0692 16.5 10.6875V8.25C16.5 7.55107 16.022 6.96376 15.375 6.79724V10.6875C15.375 12.4479 13.9479 13.875 12.1875 13.875H5.29727Z" fill="white"/>
</svg>
