<svg viewBox="0 0 14 14" fill="none" xmlns="http://www.w3.org/2000/svg">
<path fill-rule="evenodd" clip-rule="evenodd" d="M7 0C3.13401 0 0 3.13401 0 7C0 10.866 3.13401 14 7 14C10.866 14 14 10.866 14 7C14 3.13401 10.866 0 7 0ZM6.24854 3.99854V7C6.24854 7.10254 6.26758 7.19922 6.30566 7.29004C6.34668 7.38086 6.40088 7.46143 6.46826 7.53174C6.53857 7.59912 6.61914 7.65332 6.70996 7.69434C6.80078 7.73242 6.89746 7.75146 7 7.75146C7.10254 7.75146 7.19922 7.73242 7.29004 7.69434C7.38086 7.65332 7.45996 7.59912 7.52734 7.53174C7.59766 7.46143 7.65186 7.38086 7.68994 7.29004C7.73096 7.19922 7.75146 7.10254 7.75146 7V3.99854C7.75146 3.896 7.73096 3.79932 7.68994 3.7085C7.65186 3.61768 7.59766 3.53857 7.52734 3.47119C7.45996 3.40381 7.38086 3.35107 7.29004 3.31299C7.19922 3.27197 7.10254 3.25146 7 3.25146C6.89746 3.25146 6.80078 3.27197 6.70996 3.31299C6.61914 3.35107 6.53857 3.40381 6.46826 3.47119C6.40088 3.53857 6.34668 3.61768 6.30566 3.7085C6.26758 3.79932 6.24854 3.896 6.24854 3.99854ZM6.13867 9.63672C6.08887 9.75098 6.06396 9.87256 6.06396 10.0015C6.06396 10.1304 6.08887 10.252 6.13867 10.3662C6.18848 10.4775 6.25586 10.5757 6.34082 10.6606C6.42578 10.7456 6.52393 10.813 6.63525 10.8628C6.74951 10.9126 6.87109 10.9375 7 10.9375C7.12598 10.9375 7.24609 10.9126 7.36035 10.8628C7.47461 10.813 7.57422 10.7456 7.65918 10.6606C7.74414 10.5757 7.81152 10.4775 7.86133 10.3662C7.91113 10.252 7.93604 10.1304 7.93604 10.0015C7.93604 9.87256 7.91113 9.75098 7.86133 9.63672C7.81152 9.52246 7.74414 9.42285 7.65918 9.33789C7.57422 9.25293 7.47461 9.18555 7.36035 9.13574C7.24902 9.08594 7.12891 9.06104 7 9.06104C6.87109 9.06104 6.74951 9.08594 6.63525 9.13574C6.52393 9.18555 6.42578 9.25293 6.34082 9.33789C6.25586 9.42285 6.18848 9.52246 6.13867 9.63672Z" fill="#FCE100"/>
</svg>
