<svg viewBox="0 0 14 14" fill="none" xmlns="http://www.w3.org/2000/svg">
<path d="M6.93164 14C6.29362 13.9954 5.68066 13.9089 5.09277 13.7402C4.50488 13.5716 3.95345 13.3346 3.43848 13.0293C2.9235 12.724 2.4541 12.3571 2.03027 11.9287C1.60645 11.5003 1.24414 11.0286 0.943359 10.5137C0.642578 9.9987 0.410156 9.44271 0.246094 8.8457C0.0820312 8.2487 0 7.63346 0 7C0 6.35742 0.0820312 5.73763 0.246094 5.14062C0.410156 4.54362 0.647135 3.98763 0.957031 3.47266C1.26693 2.95768 1.63151 2.486 2.05078 2.05762C2.47005 1.62923 2.94173 1.26237 3.46582 0.957031C3.98991 0.651693 4.54818 0.416992 5.14062 0.25293C5.73307 0.0888672 6.35286 0.00455729 7 0C7.63346 0 8.24642 0.0820312 8.83887 0.246094C9.43132 0.410156 9.98503 0.644857 10.5 0.950195C11.015 1.25553 11.4889 1.61556 11.9219 2.03027C12.3548 2.44499 12.7217 2.91211 13.0225 3.43164C13.3232 3.95117 13.5602 4.5026 13.7334 5.08594C13.9066 5.66927 13.9954 6.28451 14 6.93164C13.8587 6.75846 13.7106 6.59668 13.5557 6.44629C13.4007 6.2959 13.2298 6.15234 13.043 6.01562C13.0202 5.88346 12.9951 5.75586 12.9678 5.63281C12.9404 5.50977 12.9062 5.38216 12.8652 5.25H12.4209C12.2705 5.25 12.1224 5.25228 11.9766 5.25684H11.7578C11.6895 5.25684 11.6143 5.25456 11.5322 5.25C11.5094 5.25 11.4775 5.24544 11.4365 5.23633C11.3955 5.22721 11.3522 5.21582 11.3066 5.20215C11.2611 5.18848 11.2132 5.1748 11.1631 5.16113C11.113 5.14746 11.0765 5.13607 11.0537 5.12695C10.8896 5.09505 10.7256 5.07227 10.5615 5.05859C10.3975 5.04492 10.2311 5.03581 10.0625 5.03125H10.0557C9.95996 5.03125 9.86426 5.03353 9.76855 5.03809C9.67285 5.04264 9.57715 5.05176 9.48145 5.06543C9.27637 5.08822 9.07585 5.1224 8.87988 5.16797C8.82975 5.18164 8.7819 5.19759 8.73633 5.21582C8.69076 5.23405 8.6429 5.24544 8.59277 5.25H4.49121C4.45475 5.54167 4.42741 5.83105 4.40918 6.11816C4.39095 6.40527 4.37956 6.69922 4.375 7C4.375 7.29622 4.38411 7.58789 4.40234 7.875C4.42057 8.16211 4.4502 8.45378 4.49121 8.75H5.20215C5.16113 8.89583 5.12923 9.04167 5.10645 9.1875C5.08366 9.33333 5.06543 9.47917 5.05176 9.625H4.6416C4.69173 9.85742 4.7487 10.0853 4.8125 10.3086C4.8763 10.5319 4.9515 10.7552 5.03809 10.9785C5.06543 11.0469 5.09505 11.1152 5.12695 11.1836C5.15885 11.252 5.1862 11.3203 5.20898 11.3887C5.23633 11.4616 5.25911 11.5345 5.27734 11.6074C5.29557 11.6803 5.32064 11.7555 5.35254 11.833C5.43001 12.0518 5.52344 12.2614 5.63281 12.4619C5.74219 12.6624 5.86751 12.8561 6.00879 13.043H6.01562C6.14779 13.2253 6.28906 13.3939 6.43945 13.5488C6.58984 13.7038 6.75391 13.8542 6.93164 14ZM9.3584 4.375C9.32194 4.20638 9.26953 4.00358 9.20117 3.7666C9.13281 3.52962 9.0485 3.28125 8.94824 3.02148C8.84798 2.76172 8.73177 2.50423 8.59961 2.24902C8.46745 1.99382 8.31934 1.76367 8.15527 1.55859C7.99121 1.35352 7.81348 1.18945 7.62207 1.06641C7.43066 0.943359 7.22331 0.879557 7 0.875C6.77669 0.875 6.56934 0.936523 6.37793 1.05957C6.18652 1.18262 6.00879 1.34668 5.84473 1.55176C5.68066 1.75684 5.53255 1.98698 5.40039 2.24219C5.26823 2.4974 5.15202 2.75488 5.05176 3.01465C4.9515 3.27441 4.86719 3.52279 4.79883 3.75977C4.73047 3.99674 4.67806 4.20182 4.6416 4.375H9.3584ZM1.46973 4.375H3.74609C3.80078 4.10612 3.86458 3.83268 3.9375 3.55469C4.01042 3.27669 4.09928 2.9987 4.2041 2.7207C4.30892 2.44271 4.42741 2.17839 4.55957 1.92773C4.69173 1.67708 4.84212 1.43783 5.01074 1.20996C4.62337 1.34212 4.25423 1.51074 3.90332 1.71582C3.55241 1.9209 3.22656 2.16016 2.92578 2.43359C2.625 2.70703 2.34928 3.00553 2.09863 3.3291C1.84798 3.65267 1.63835 4.0013 1.46973 4.375ZM12.5303 4.375C12.3525 4.0013 12.1406 3.65267 11.8945 3.3291C11.6484 3.00553 11.375 2.70703 11.0742 2.43359C10.7734 2.16016 10.4476 1.92318 10.0967 1.72266C9.74577 1.52214 9.37663 1.35124 8.98926 1.20996C9.15788 1.43327 9.30827 1.67253 9.44043 1.92773C9.57259 2.18294 9.6888 2.44727 9.78906 2.7207C9.88932 2.99414 9.97819 3.26986 10.0557 3.54785C10.1331 3.82585 10.1992 4.10156 10.2539 4.375H12.5303ZM3.60254 8.75C3.53418 8.17122 3.5 7.58789 3.5 7C3.5 6.70378 3.50684 6.41211 3.52051 6.125C3.53418 5.83789 3.5638 5.54622 3.60938 5.25H1.12793C0.95931 5.81055 0.875 6.39388 0.875 7C0.875 7.60612 0.95931 8.18945 1.12793 8.75H3.60254ZM14 10.0625C14 10.6048 13.8975 11.1152 13.6924 11.5938C13.4873 12.0723 13.2048 12.4893 12.8447 12.8447C12.4847 13.2002 12.0677 13.4805 11.5938 13.6855C11.1198 13.8906 10.6094 13.9954 10.0625 14C9.51562 14 9.00293 13.8975 8.52441 13.6924C8.0459 13.4873 7.62891 13.207 7.27344 12.8516C6.91797 12.4961 6.6377 12.0791 6.43262 11.6006C6.22754 11.1221 6.125 10.6094 6.125 10.0625C6.125 9.52018 6.22754 9.00977 6.43262 8.53125C6.6377 8.05273 6.92025 7.63574 7.28027 7.28027C7.6403 6.9248 8.05729 6.64453 8.53125 6.43945C9.00521 6.23438 9.51562 6.12956 10.0625 6.125C10.4225 6.125 10.7689 6.17057 11.1016 6.26172C11.4342 6.35286 11.7487 6.48503 12.0449 6.6582C12.3411 6.83138 12.6077 7.03874 12.8447 7.28027C13.0817 7.52181 13.2868 7.78841 13.46 8.08008C13.6331 8.37174 13.7653 8.68392 13.8564 9.0166C13.9476 9.34928 13.9954 9.69792 14 10.0625ZM7.61523 11.8945L11.8945 7.61523C11.6165 7.40104 11.3203 7.24609 11.0059 7.15039C10.6914 7.05469 10.3587 7.00456 10.0078 7C9.60677 7 9.22624 7.08203 8.86621 7.24609C8.50618 7.41016 8.18717 7.62891 7.90918 7.90234C7.63118 8.17578 7.41016 8.49479 7.24609 8.85938C7.08203 9.22396 7 9.60677 7 10.0078C7 10.3587 7.04785 10.6914 7.14355 11.0059C7.23926 11.3203 7.39648 11.6165 7.61523 11.8945ZM12.5098 8.23047L8.23047 12.5098C8.50846 12.724 8.80469 12.8789 9.11914 12.9746C9.43359 13.0703 9.76628 13.1204 10.1172 13.125C10.5182 13.125 10.8988 13.043 11.2588 12.8789C11.6188 12.7148 11.9378 12.4961 12.2158 12.2227C12.4938 11.9492 12.7148 11.6302 12.8789 11.2656C13.043 10.901 13.125 10.5182 13.125 10.1172C13.125 9.76628 13.0771 9.43359 12.9814 9.11914C12.8857 8.80469 12.7285 8.50846 12.5098 8.23047ZM1.46973 9.625C1.6429 9.99414 1.85254 10.3405 2.09863 10.6641C2.34473 10.9876 2.61816 11.2861 2.91895 11.5596C3.21973 11.833 3.54557 12.0723 3.89648 12.2773C4.2474 12.4824 4.61654 12.6533 5.00391 12.79C4.83984 12.5622 4.69173 12.3206 4.55957 12.0654C4.42741 11.8102 4.3112 11.5482 4.21094 11.2793C4.11068 11.0104 4.02181 10.7347 3.94434 10.4521C3.86686 10.1696 3.80078 9.89388 3.74609 9.625H1.46973Z" fill="#9D9D9D"/>
</svg>
