<svg viewBox="0 0 14 14" fill="none" xmlns="http://www.w3.org/2000/svg">
<g clip-path="url(#clip0_1724_41692)">
<path d="M-0.000774008 7.0003C-0.000774008 6.35374 0.0818684 5.73392 0.247153 5.14084C0.412438 4.54776 0.645781 3.98871 0.947183 3.46369C1.24858 2.93867 1.61318 2.46712 2.04098 2.04904C2.46877 1.63097 2.94275 1.26637 3.46291 0.955249C3.98307 0.644124 4.5397 0.408351 5.13278 0.247927C5.72586 0.0875037 6.3481 0.00486132 6.99952 0C7.64608 0 8.26589 0.0826424 8.85897 0.247927C9.45206 0.413212 10.0111 0.646555 10.5361 0.947957C11.0612 1.24936 11.5327 1.61396 11.9508 2.04175C12.3688 2.46955 12.7334 2.94353 13.0446 3.46369C13.3557 3.98385 13.5915 4.54047 13.7519 5.13355C13.9123 5.72663 13.995 6.34888 13.9998 7.0003C13.9998 7.64685 13.9172 8.26667 13.7519 8.85975C13.5866 9.45283 13.3533 10.0119 13.0519 10.5369C12.7505 11.0619 12.3859 11.5335 11.9581 11.9515C11.5303 12.3696 11.0563 12.7342 10.5361 13.0453C10.016 13.3565 9.45935 13.5922 8.86627 13.7527C8.27319 13.9131 7.65094 13.9957 6.99952 14.0006C6.35297 14.0006 5.73072 13.9179 5.13278 13.7527C4.53483 13.5874 3.97821 13.354 3.46291 13.0526C2.94761 12.7512 2.47607 12.3866 2.04827 11.9588C1.62047 11.531 1.25588 11.0595 0.954475 10.5442C0.653073 10.0289 0.417299 9.46984 0.247153 8.86704C0.0770071 8.26424 -0.00563532 7.64199 -0.000774008 7.0003ZM10.7038 6.53361C10.8302 6.53361 10.9396 6.48743 11.032 6.39506C11.1243 6.3027 11.1705 6.19332 11.1705 6.06692V3.73349C11.1705 3.6071 11.1243 3.49772 11.032 3.40535C10.9396 3.31299 10.8302 3.2668 10.7038 3.2668C10.5775 3.2668 10.4681 3.31299 10.3757 3.40535C10.2833 3.49772 10.2372 3.6071 10.2372 3.73349V4.55019C10.0427 4.29254 9.82395 4.06406 9.58088 3.86475C9.33781 3.66543 9.07773 3.49286 8.80064 3.34702C8.52354 3.20118 8.22943 3.09423 7.91831 3.02617C7.60719 2.95811 7.2912 2.92165 6.97035 2.91679C6.562 2.91679 6.16824 2.97513 5.78905 3.0918C5.40987 3.20847 5.05986 3.37375 4.73901 3.58765C4.41816 3.80155 4.12648 4.0592 3.86397 4.3606C3.60146 4.662 3.38999 4.99743 3.22957 5.36689C3.21013 5.41065 3.19797 5.4471 3.19311 5.47627C3.18825 5.50544 3.18339 5.54676 3.17853 5.60024C3.17853 5.76066 3.23443 5.89678 3.34624 6.00859C3.45805 6.1204 3.5966 6.17873 3.76188 6.18359C3.88828 6.18359 3.99523 6.152 4.08273 6.0888C4.17024 6.0256 4.24072 5.94053 4.2942 5.83358C4.42545 5.57107 4.58102 5.33286 4.76088 5.11897C4.94075 4.90507 5.14493 4.72034 5.37341 4.56478C5.60189 4.40921 5.84739 4.29011 6.1099 4.20747C6.37241 4.12483 6.65923 4.08351 6.97035 4.08351C7.23773 4.08351 7.49781 4.11753 7.75059 4.18559C8.00338 4.25365 8.23916 4.35574 8.45792 4.49186C8.67668 4.62797 8.87599 4.78597 9.05586 4.96583C9.23573 5.1457 9.39372 5.35717 9.52984 5.60024H8.37041C8.24402 5.60024 8.13464 5.64642 8.04227 5.73878C7.94991 5.83115 7.90373 5.94053 7.90373 6.06692C7.90373 6.19332 7.94991 6.3027 8.04227 6.39506C8.13464 6.48743 8.24402 6.53361 8.37041 6.53361H10.7038ZM10.7622 8.40035C10.7622 8.23993 10.7063 8.10381 10.5945 7.992C10.4827 7.88019 10.3441 7.82186 10.1788 7.817C10.0573 7.817 9.95277 7.8486 9.86527 7.91179C9.77776 7.97499 9.70484 8.06006 9.64651 8.16701C9.51525 8.42952 9.35969 8.66773 9.17982 8.88162C8.99995 9.09552 8.79578 9.28025 8.5673 9.43582C8.33881 9.59138 8.09089 9.71048 7.82351 9.79312C7.55614 9.87576 7.27175 9.91709 6.97035 9.91709C6.42589 9.91709 5.93003 9.7834 5.48279 9.51603C5.03555 9.24865 4.67824 8.87676 4.41087 8.40035H5.57029C5.69669 8.40035 5.80607 8.35417 5.89843 8.26181C5.9908 8.16944 6.03698 8.06006 6.03698 7.93367C6.03698 7.80727 5.9908 7.69789 5.89843 7.60553C5.80607 7.51316 5.69669 7.46698 5.57029 7.46698H3.23686C3.11047 7.46698 3.00109 7.51316 2.90872 7.60553C2.81636 7.69789 2.77018 7.80727 2.77018 7.93367V10.2671C2.77018 10.3935 2.81636 10.5029 2.90872 10.5952C3.00109 10.6876 3.11047 10.7338 3.23686 10.7338C3.36326 10.7338 3.47264 10.6876 3.565 10.5952C3.65737 10.5029 3.70355 10.3935 3.70355 10.2671V9.4504C4.09732 9.97056 4.57615 10.3716 5.14007 10.6536C5.70398 10.9355 6.31408 11.0789 6.97035 11.0838C7.3787 11.0838 7.77247 11.0255 8.15165 10.9088C8.53084 10.7921 8.88085 10.6268 9.2017 10.4129C9.52254 10.199 9.81422 9.94139 10.0767 9.63999C10.3392 9.33859 10.5507 9.00316 10.7111 8.6337C10.7306 8.58995 10.7427 8.55349 10.7476 8.52432C10.7525 8.49515 10.7573 8.45383 10.7622 8.40035Z" fill="#60CDFF"/>
</g>
<defs>
<clipPath id="clip0_1724_41692">
<rect width="14" height="14" fill="white"/>
</clipPath>
</defs>
</svg>
