<svg viewBox="0 0 14 14" fill="none" xmlns="http://www.w3.org/2000/svg">
<path d="M0 7C0 6.35833 0.0826389 5.74097 0.247917 5.14792C0.413194 4.55486 0.648958 3.99583 0.955208 3.47083C1.26146 2.94583 1.62604 2.47431 2.04896 2.05625C2.47188 1.63819 2.94583 1.27361 3.47083 0.9625C3.99583 0.651389 4.55243 0.415625 5.14063 0.255208C5.72882 0.0947917 6.34861 0.00972222 7 0C7.64167 0 8.25903 0.0826389 8.85208 0.247917C9.44514 0.413194 10.0017 0.648958 10.5219 0.955208C11.042 1.26146 11.516 1.62847 11.9438 2.05625C12.3715 2.48403 12.7361 2.95556 13.0375 3.47083C13.3389 3.98611 13.5747 4.54271 13.7448 5.14063C13.9149 5.73854 14 6.35833 14 7C14 7.64167 13.9174 8.25903 13.7521 8.85208C13.5868 9.44514 13.351 10.0042 13.0448 10.5292C12.7385 11.0542 12.374 11.5257 11.951 11.9438C11.5281 12.3618 11.0542 12.7264 10.5292 13.0375C10.0042 13.3486 9.44757 13.5844 8.85938 13.7448C8.27118 13.9052 7.65139 13.9903 7 14C6.35347 14 5.73368 13.9174 5.14063 13.7521C4.54757 13.5868 3.99097 13.351 3.47083 13.0448C2.95069 12.7385 2.47917 12.374 2.05625 11.951C1.63333 11.5281 1.26875 11.0566 0.9625 10.5365C0.65625 10.0163 0.420486 9.45729 0.255208 8.85938C0.0899306 8.26146 0.00486111 7.64167 0 7ZM4.43333 10.15C4.50625 10.15 4.57917 10.1354 4.65208 10.1063C4.725 10.0771 4.79063 10.0358 4.84896 9.98229L7 7.82396L9.15104 9.98229C9.20451 10.0358 9.26771 10.0771 9.34063 10.1063C9.41354 10.1354 9.48889 10.15 9.56667 10.15C9.73194 10.15 9.87049 10.0941 9.98229 9.98229C10.0941 9.87049 10.15 9.73194 10.15 9.56667C10.15 9.40139 10.0941 9.26285 9.98229 9.15104L7.82396 7L9.98229 4.84896C10.0941 4.73715 10.15 4.59861 10.15 4.43333C10.15 4.26806 10.0941 4.12951 9.98229 4.01771C9.87049 3.9059 9.73194 3.85 9.56667 3.85C9.40139 3.85 9.26285 3.9059 9.15104 4.01771L7 6.17604L4.84896 4.01771C4.73715 3.9059 4.59861 3.85 4.43333 3.85C4.26806 3.85 4.12951 3.9059 4.01771 4.01771C3.9059 4.12951 3.85 4.26806 3.85 4.43333C3.85 4.50625 3.86458 4.57917 3.89375 4.65208C3.92292 4.725 3.96424 4.79063 4.01771 4.84896L6.17604 7L4.01771 9.15104C3.96424 9.20451 3.92292 9.26771 3.89375 9.34063C3.86458 9.41354 3.85 9.48889 3.85 9.56667C3.85 9.72708 3.9059 9.86319 4.01771 9.975C4.12951 10.0868 4.26806 10.1451 4.43333 10.15Z" fill="#FF99A4"/>
</svg>
