<svg xmlns="http://www.w3.org/2000/svg" xmlns:xlink="http://www.w3.org/1999/xlink" width="955" height="329" viewBox="0 0 955 329">
  <defs>
    <clipPath id="clip-welcomeIllustration">
      <rect width="955" height="329"/>
    </clipPath>
  </defs>
  <g id="welcomeIllustration" clip-path="url(#clip-welcomeIllustration)">
    <g id="Group_57649" data-name="Group 57649" transform="translate(2539.636 27.385)">
      <g id="Layer_2" data-name="Layer 2" transform="translate(-2345.111 13.615)">
        <g id="Group_57639" data-name="Group 57639" transform="translate(414.454)">
          <rect id="Rectangle_47587" data-name="Rectangle 47587" width="151.209" height="111.092" rx="0.999" transform="translate(0 145.351) rotate(-74)" fill="#f3f2f1"/>
          <g id="Group_57637" data-name="Group 57637" transform="translate(19.107 94.806)">
            <path id="Path_39129" data-name="Path 39129" d="M-2310.606,45.449l-25.375-7.276a3.554,3.554,0,0,0-4.4,2.438A3.554,3.554,0,0,0-2337.937,45l25.37,7.276a3.555,3.555,0,0,0,4.4-2.438A3.55,3.55,0,0,0-2310.606,45.449Z" transform="translate(2345.412 -20.952)" fill="#e1dfdd"/>
            <path id="Path_39130" data-name="Path 39130" d="M-2311.675,49.177l-25.376-7.276a3.554,3.554,0,0,0-4.394,2.433,3.556,3.556,0,0,0,2.438,4.4l25.371,7.276a3.557,3.557,0,0,0,4.4-2.438A3.553,3.553,0,0,0-2311.675,49.177Z" transform="translate(2341.584 -7.598)" fill="#e1dfdd"/>
            <path id="Path_39131" data-name="Path 39131" d="M-2300.5,48.348l-25.373-7.276a3.553,3.553,0,0,0-4.394,2.438,3.55,3.55,0,0,0,2.434,4.394l25.375,7.276a3.552,3.552,0,0,0,4.394-2.433A3.557,3.557,0,0,0-2300.5,48.348Z" transform="translate(2381.634 -10.567)" fill="#e1dfdd"/>
            <path id="Path_39132" data-name="Path 39132" d="M-2309.537,41.721l-25.376-7.276a3.554,3.554,0,0,0-4.394,2.438,3.552,3.552,0,0,0,2.438,4.394l25.371,7.276a3.557,3.557,0,0,0,4.4-2.438A3.554,3.554,0,0,0-2309.537,41.721Z" transform="translate(2349.242 -34.306)" fill="#e1dfdd"/>
            <path id="Path_39133" data-name="Path 39133" d="M-2326.758,44.179l25.375,7.272a3.55,3.55,0,0,0,4.4-2.433,3.557,3.557,0,0,0-2.439-4.4l-25.37-7.276a3.561,3.561,0,0,0-4.4,2.438A3.555,3.555,0,0,0-2326.758,44.179Z" transform="translate(2385.461 -23.921)" fill="#e1dfdd"/>
            <path id="Path_39134" data-name="Path 39134" d="M-2301.568,52.076l-25.37-7.276a3.551,3.551,0,0,0-4.394,2.438,3.552,3.552,0,0,0,2.433,4.394l25.375,7.276a3.551,3.551,0,0,0,4.394-2.438A3.553,3.553,0,0,0-2301.568,52.076Z" transform="translate(2377.806 2.787)" fill="#e1dfdd"/>
          </g>
          <g id="Group_57638" data-name="Group 57638" transform="translate(57.746 31.811)">
            <path id="Path_39135" data-name="Path 39135" d="M-2315.819,73.785a6.613,6.613,0,0,1-3.459-2.383c-5.251-6.919-17.036-24.551-13.073-38.888A16.414,16.414,0,0,1-2315.69,20.6a16.356,16.356,0,0,1,12.875,7.84,16.354,16.354,0,0,1,15.071.174h0a16.422,16.422,0,0,1,7.818,18.938c-4.235,14.25-23.58,22.965-31.7,26.049A6.6,6.6,0,0,1-2315.819,73.785Zm2.016-47.072a11.525,11.525,0,0,0-2.3-.408,10.6,10.6,0,0,0-10.731,7.735c-3.372,12.207,8.427,29.037,12.12,33.9a.9.9,0,0,0,1.058.312c5.715-2.172,24.638-10.2,28.244-22.333a10.614,10.614,0,0,0-5-12.248h0a10.513,10.513,0,0,0-11.772,1.164l-3.235,2.694-1.314-4A10.384,10.384,0,0,0-2313.8,26.714Z" transform="translate(2333.151 -20.557)" fill="#28c2d1"/>
          </g>
        </g>
        <g id="Group_57641" data-name="Group 57641" transform="translate(0 0)">
          <rect id="Rectangle_47588" data-name="Rectangle 47588" width="111.092" height="151.209" rx="0.999" transform="translate(0 30.621) rotate(-16)" fill="#f3f2f1"/>
          <g id="Group_57640" data-name="Group 57640" transform="translate(56.63 110.765)">
            <path id="Path_39136" data-name="Path 39136" d="M-2365.539,40.952l-55.731,15.982a3.551,3.551,0,0,0-2.438,4.394,3.551,3.551,0,0,0,4.394,2.438l55.731-15.982a3.551,3.551,0,0,0,2.438-4.394A3.554,3.554,0,0,0-2365.539,40.952Z" transform="translate(2423.846 -26.953)" fill="#e1dfdd"/>
            <path id="Path_39137" data-name="Path 39137" d="M-2418.231,54.528l34.054-9.764a3.558,3.558,0,0,0,2.437-4.4,3.551,3.551,0,0,0-4.394-2.438l-34.057,9.769a3.552,3.552,0,0,0-2.434,4.394A3.551,3.551,0,0,0-2418.231,54.528Z" transform="translate(2427.722 -37.789)" fill="#e1dfdd"/>
          </g>
          <path id="Path_39138" data-name="Path 39138" d="M-2406.244,22.5a30.369,30.369,0,0,0-20.8,37.527,30.37,30.37,0,0,0,37.522,20.8,30.375,30.375,0,0,0,20.8-37.527A30.373,30.373,0,0,0-2406.244,22.5Zm25.567,11.726-9.439,2.708a43.762,43.762,0,0,0-6.053-9.732A24.563,24.563,0,0,1-2380.677,34.225Zm6.456,10.653a24.152,24.152,0,0,1,.852,6.3L-2384.4,54.35c-.412-2.044-.9-4.1-1.484-6.126s-1.256-4.032-1.985-5.98l11.033-3.162A24.432,24.432,0,0,1-2374.22,44.879ZM-2391.1,75.327c-1.379.394-5.247-2.983-8.972-10.53l11-3.152C-2388.229,70.016-2389.717,74.928-2391.1,75.327ZM-2402.377,59.5c-.7-1.837-1.375-3.8-2-5.98s-1.091-4.2-1.476-6.126l12.463-3.574c.7,1.837,1.375,3.8,2,5.98s1.091,4.2,1.476,6.126Zm-19.167-1.054a24.494,24.494,0,0,1-.851-6.31l11.033-3.162c.407,2.044.9,4.1,1.484,6.126s1.251,4.032,1.984,5.98l-11.029,3.162A24.326,24.326,0,0,1-2421.544,58.451ZM-2404.663,28c1.379-.394,5.242,2.983,8.967,10.53l-11,3.152C-2407.532,33.314-2406.048,28.4-2404.663,28Zm-7.635,3.821a43.752,43.752,0,0,0,.023,11.46l-9.439,2.708A24.594,24.594,0,0,1-2412.3,31.824Zm-2.789,37.28,9.437-2.708a43.8,43.8,0,0,0,6.054,9.732A24.581,24.581,0,0,1-2415.087,69.1Zm31.62,2.4a43.779,43.779,0,0,0-.022-11.46l9.443-2.708A24.587,24.587,0,0,1-2383.467,71.505Z" transform="translate(2464.795 13.991)" fill="#28c2d1"/>
        </g>
        <g id="Group_57642" data-name="Group 57642" transform="translate(134.994 34.405)">
          <rect id="Rectangle_47589" data-name="Rectangle 47589" width="293.253" height="191.138" rx="1" fill="#c8c6c4"/>
          <path id="Rectangle-Copy-223" d="M-2161.4,31.15V178.729h-235.322V31.15H-2161.4m6.74-6.745h-248.8V185.47h248.8V24.4Z" transform="translate(2418.499 -9.369)" fill="#b3afab"/>
          <path id="Path_39139" data-name="Path 39139" d="M-2373.126,70.8h-26.965l-3.371-7.963h33.708Z" transform="translate(2418.5 128.3)" fill="#a19f9d"/>
          <path id="Path_39140" data-name="Path 39140" d="M-2323.045,70.8h-26.966l-3.37-7.963h33.707Z" transform="translate(2597.89 128.3)" fill="#a19f9d"/>
          <path id="Path_39141" data-name="Path 39141" d="M-2333.9,57.816A25.313,25.313,0,0,1-2308.614,83.1a25.31,25.31,0,0,1-25.283,25.284A25.31,25.31,0,0,1-2359.181,83.1,25.313,25.313,0,0,1-2333.9,57.816m0-26.966A52.25,52.25,0,0,0-2386.146,83.1a52.247,52.247,0,0,0,52.249,52.249A52.248,52.248,0,0,0-2281.648,83.1,52.251,52.251,0,0,0-2333.9,30.85Z" transform="translate(2480.523 13.717)" fill="#a19f9d"/>
          <rect id="Rectangle_47590" data-name="Rectangle 47590" width="34.065" height="20.963" rx="1" transform="translate(243.082 37.457)" fill="#a19f9d"/>
          <rect id="Rectangle_47591" data-name="Rectangle 47591" width="34.065" height="20.963" rx="1" transform="translate(243.082 135.216)" fill="#a19f9d"/>
          <path id="Path_39142" data-name="Path 39142" d="M-2384.926,32.817h.023c7.248,0,12.989,5.746,12.522,12.527l-4.633,67.013a7.715,7.715,0,0,1-7.894,6.933h-.014a7.716,7.716,0,0,1-7.894-6.933l-4.633-67.013C-2397.921,38.563-2392.176,32.817-2384.926,32.817Z" transform="translate(2439.943 20.763)" fill="#a19f9d"/>
        </g>
        <path id="Path_39143" data-name="Path 39143" d="M-2340.451,39.337l-2.292,7.993V99.389l2.292.657,2.29.657V31.351Z" transform="translate(2770.991 49.918)" fill="#f3f2f1"/>
        <path id="Path_39144" data-name="Path 39144" d="M-2405.452,39.589l-2.292-7.994v68.14l2.292-.657,2.29-.657V47.575Z" transform="translate(2538.156 50.793)" fill="#f3f2f1"/>
        <path id="Path_39145" data-name="Path 39145" d="M-2325.348,51.743l40.835-10.181-12.478,43.516a4.581,4.581,0,0,1-5.663,3.139l-20.217-5.8-6.13-24.6A5.009,5.009,0,0,1-2325.348,51.743Z" transform="translate(2819.677 86.493)" fill="#f3f2f1"/>
        <g id="Group_57645" data-name="Group 57645" transform="translate(493.933 98.383)">
          <rect id="Rectangle_47592" data-name="Rectangle 47592" width="165.607" height="111.092" rx="1.095" transform="translate(0 40.064) rotate(-14)" fill="#f3f2f1"/>
          <g id="Group_57643" data-name="Group 57643" transform="translate(22.445 44.726)">
            <circle id="Ellipse_2336" data-name="Ellipse 2336" cx="22.57" cy="22.57" r="22.57" fill="#0078d4"/>
          </g>
          <g id="Group_57644" data-name="Group 57644" transform="translate(82.016 20.336)">
            <path id="Path_39146" data-name="Path 39146" d="M-2254.307,50.581-2302.125,62.5a3.884,3.884,0,0,0-2.832,4.715,3.884,3.884,0,0,0,4.715,2.836l47.818-11.923a3.893,3.893,0,0,0,2.836-4.72A3.893,3.893,0,0,0-2254.307,50.581Z" transform="translate(2329.975 -0.34)" fill="#e1dfdd"/>
            <path id="Path_39147" data-name="Path 39147" d="M-2299.368,55l31.319-7.808a3.888,3.888,0,0,0,2.832-4.72,3.885,3.885,0,0,0-4.714-2.832l-31.319,7.808a3.886,3.886,0,0,0-2.833,4.715A3.885,3.885,0,0,0-2299.368,55Z" transform="translate(2333.106 -39.524)" fill="#e1dfdd"/>
            <path id="Path_39148" data-name="Path 39148" d="M-2230.13,54.7l-77.428,19.3a3.893,3.893,0,0,0-2.836,4.72,3.891,3.891,0,0,0,4.718,2.832l77.429-19.3a3.889,3.889,0,0,0,2.831-4.72A3.885,3.885,0,0,0-2230.13,54.7Z" transform="translate(2310.509 14.422)" fill="#e1dfdd"/>
          </g>
        </g>
      </g>
      <g id="Layer_3" data-name="Layer 3" transform="translate(-2461.636 113.385)">
        <path id="Path_39149" data-name="Path 39149" d="M-2391.173,80.052a5.72,5.72,0,0,1-4.183-6.9,5.736,5.736,0,0,1,6.95-4.216l.006,0,2.6-10.406h-.009a5.89,5.89,0,0,1-2.021-.981,5,5,0,0,1-1.48-1.64,5.252,5.252,0,0,1-.746-2.126,5.124,5.124,0,0,1,.086-2.218l-40.135-10.007,12.472,43.5a4.581,4.581,0,0,0,5.664,3.143l20.21-5.8.592-2.36Z" transform="translate(2574.575 -13.273)" fill="#f3f2f1"/>
        <g id="Group_57648" data-name="Group 57648">
          <path id="Path_39150" data-name="Path 39150" d="M-2279.444,90.044l.009,0,2.594-10.406h-.005a5.867,5.867,0,0,1-2.025-.981,5,5,0,0,1-1.48-1.64,5.154,5.154,0,0,1-.741-2.121,5.129,5.129,0,0,1,.081-2.222l-149.567-37.289a5.452,5.452,0,0,1-6.947,4.193l-.005,0-2.593,10.406h0a5.737,5.737,0,0,1,4.161,6.988,5.717,5.717,0,0,1-6.928,4.128l-.009,0-2.6,10.452h.005a5.733,5.733,0,0,1,4.175,6.942,5.736,5.736,0,0,1-6.947,4.174l-.005,0-2.607,10.452h.01a5.733,5.733,0,0,1,4.17,6.946,5.731,5.731,0,0,1-6.943,4.17l-.009,0-2.6,10.452h.005a5.729,5.729,0,0,1,4.174,6.942,5.729,5.729,0,0,1-6.942,4.174l-.009,0-2.612,10.484a5.877,5.877,0,0,1,3.514,2.584,4.906,4.906,0,0,1,.5,1.026,6.909,6.909,0,0,1,.257,1.054,5.148,5.148,0,0,1,.041,1.146,4.556,4.556,0,0,1-.128,1.1l0,0,149.563,37.289v0a4.624,4.624,0,0,1,.4-1.031,5.047,5.047,0,0,1,.578-.99,6.112,6.112,0,0,1,.724-.811,4.406,4.406,0,0,1,.92-.669,5.622,5.622,0,0,1,4.307-.591l2.626-10.525h-.005a5.732,5.732,0,0,1-4.174-6.946,5.733,5.733,0,0,1,6.947-4.17h0l2.6-10.447h-.005a5.73,5.73,0,0,1-4.17-6.942,5.727,5.727,0,0,1,6.942-4.174l.005,0,2.607-10.452h-.01a5.733,5.733,0,0,1-4.17-6.946,5.73,5.73,0,0,1,6.942-4.17h.006l2.606-10.447h-.005a5.72,5.72,0,0,1-4.184-6.9A5.738,5.738,0,0,1-2279.444,90.044Z" transform="translate(2461.636 -35.389)" fill="#f3f2f1"/>
          <path id="Path_39151" data-name="Path 39151" d="M-2406.4,64.769l-12.128-3.29a1.382,1.382,0,0,1-1.013-1.205l-1.132-12.514a1.381,1.381,0,0,0-2.529-.632l-6.874,10.52a1.381,1.381,0,0,1-1.461.591l-12.249-2.79a1.379,1.379,0,0,0-1.384,2.209l7.876,9.787a1.373,1.373,0,0,1,.11,1.572l-6.437,10.791a1.378,1.378,0,0,0,1.677,1.993l11.744-4.468a1.38,1.38,0,0,1,1.526.38l8.27,9.462a1.382,1.382,0,0,0,2.419-.981l-.668-13.5,12.431-5.324A1.378,1.378,0,0,0-2406.4,64.769Z" transform="translate(2519.498 4.42)" fill="#0078d4"/>
          <g id="Group_57646" data-name="Group 57646" transform="translate(28.248 24.438)">
            <path id="Path_39152" data-name="Path 39152" d="M-2452.514,110.639a3.9,3.9,0,0,1-2.841-4.72l15.519-62.243a3.9,3.9,0,0,1,4.724-2.836,3.89,3.89,0,0,1,2.837,4.72l-15.519,62.243A3.9,3.9,0,0,1-2452.514,110.639Z" transform="translate(2455.47 -40.722)" fill="#e1dfdd"/>
          </g>
          <g id="Group_57647" data-name="Group 57647" transform="translate(133.244 50.617)">
            <path id="Path_39153" data-name="Path 39153" d="M-2429.6,116.35a3.891,3.891,0,0,1-2.836-4.72l15.52-62.243a3.894,3.894,0,0,1,4.719-2.836,3.9,3.9,0,0,1,2.842,4.72l-15.521,62.243A3.894,3.894,0,0,1-2429.6,116.35Z" transform="translate(2432.556 -46.436)" fill="#e1dfdd"/>
          </g>
        </g>
      </g>
    </g>
  </g>
</svg>
