<svg xmlns="http://www.w3.org/2000/svg" viewBox="0 0 48 53">
  <title>ActivityCenter_quotaGraphics_2_R7_August2016</title>
  <g id="body">
    <g>
      <path d="M24,48.68c-9.95,0-24,1-24,2.15S15.05,53,24,53s24-1,24-2.15S33.92,48.68,24,48.68Z" style="fill: #f8bdbe"/>
      <polygon points="38.4 50.83 9.6 50.83 3.86 0 44.14 0 38.4 50.83" style="fill: #fff"/>
      <path d="M35.56,4.46a4.83,4.83,0,0,1-2.89.83,4.83,4.83,0,0,1-2.89-.83,4.83,4.83,0,0,1-2.89.83A4.83,4.83,0,0,1,24,4.46a4.83,4.83,0,0,1-2.89.83,4.83,4.83,0,0,1-2.89-.83,4.83,4.83,0,0,1-2.89.83,4.83,4.83,0,0,1-2.89-.83,4.83,4.83,0,0,1-2.89.83,4.83,4.83,0,0,1-2.88-.83l4.86,44.29H36.45L41.33,4.47a4.83,4.83,0,0,1-2.88.83A4.83,4.83,0,0,1,35.56,4.46Z" style="fill: #4bc6eb"/>
      <polygon points="44.15 0 24.01 0 24.01 50.83 38.41 50.83 44.15 0" style="fill: #fff;opacity: 0.30000000000000004"/>
      <polygon points="15.5 27.61 19.18 19.07 27.4 22.84 24.04 31.3 15.5 27.61" style="fill: #83d2ea"/>
      <polygon points="11.25 29.08 14.74 20.6 19.18 19.07 15.5 27.61 11.25 29.08" style="fill: #fff"/>
      <g style="opacity: 0.85">
        <polygon points="27.96 8.86 22.27 16.8 30.11 22.15 35.9 14.55 27.96 8.86" style="fill: #fff"/>
        <polygon points="26.98 4.24 21.24 11.97 22.27 16.8 27.96 8.86 26.98 4.24" style="fill: #83d2ea"/>
        <polygon points="26.98 4.24 27.96 8.86 35.9 14.55 34.88 9.73 26.98 4.24" style="fill: #a3ddf1"/>
      </g>
      <g style="opacity: 0.85">
        <polygon points="25.28 42.28 21.24 33.39 29.98 29.66 34.18 38.24 25.28 42.28" style="fill: #fff"/>
        <polygon points="23.42 46.62 19.3 37.92 21.24 33.39 25.28 42.28 23.42 46.62" style="fill: #83d2ea"/>
        <polygon points="23.42 46.62 25.28 42.28 34.18 38.24 32.24 42.77 23.42 46.62" style="fill: #a3ddf1"/>
      </g>
    </g>
  </g>
</svg>
