<?xml version="1.0" encoding="utf-8"?>
<!-- Generator: Adobe Illustrator 23.0.6, SVG Export Plug-In . SVG Version: 6.00 Build 0)  -->
<svg version="1.1" id="Layer_1" xmlns="http://www.w3.org/2000/svg" xmlns:xlink="http://www.w3.org/1999/xlink" x="0px" y="0px"
	 viewBox="0 0 256.6 110" style="enable-background:new 0 0 256.6 110;" xml:space="preserve">
<style type="text/css">
	.st0{fill:#252423;}
	.st1{fill:#323130;}
	.st2{fill:#FFFFFF;}
	.st3{fill:#27AEEA;}
	.st4{fill:#0090F2;}
	.st5{fill:#484644;}
	.st6{fill:#0077DA;}
	.st7{fill:#969592;}
	.st8{opacity:0.5;fill:#7A7673;enable-background:new    ;}
	.st9{fill:#2899F5;}
	.st10{fill:url(#SVGID_1_);}
	.st11{fill:url(#SVGID_2_);}
	.st12{opacity:0.7;fill:#FFFFFF;enable-background:new    ;}
	.st13{opacity:0.85;fill:#FFFFFF;enable-background:new    ;}
	.st14{opacity:0.5;fill:#FFFFFF;enable-background:new    ;}
	.st15{fill:url(#SVGID_3_);}
</style>
<g>
	<rect x="0" y="0" class="st0" width="256.6" height="109.8"/>
	<rect x="0" y="42.9" class="st1" width="140" height="61.2"/>
	<g>
		<g>
			<g>
				<path class="st2" d="M34.8,98.9H21V81.2c2.7,0,5.4,0,8.2,0c1.9,1.8,3.7,3.7,5.6,5.5C34.8,90.8,34.8,94.8,34.8,98.9z"/>
				<path class="st3" d="M34.8,98.9H21V81.2c2.7,0,5.4,0,8.2,0c1.9,1.8,3.7,3.7,5.6,5.5C34.8,90.8,34.8,94.8,34.8,98.9z"/>
				<polygon class="st4" points="34.8,86.7 29.1,86.7 29.1,81.2 				"/>
			</g>
			<g>
				<path class="st2" d="M34.8,69.4H21V51.7c2.7,0,5.4,0,8.2,0c1.9,1.8,3.7,3.7,5.6,5.5C34.8,61.2,34.8,65.3,34.8,69.4z"/>
				<path class="st3" d="M34.8,69.4H21V51.7c2.7,0,5.4,0,8.2,0c1.9,1.8,3.7,3.7,5.6,5.5C34.8,61.2,34.8,65.3,34.8,69.4z"/>
				<polygon class="st4" points="34.8,57.2 29.1,57.2 29.1,51.7 				"/>
			</g>
			<rect x="0.1" y="34.2" class="st5" width="139.7" height="8.7"/>
			<g>
				<path class="st5" d="M1.9,9.8h136.2v96.3H1.9V9.8 M0.1,8v99.8h139.7V8H0.1L0.1,8z"/>
			</g>
			<rect x="0.1" y="8" class="st6" width="139.7" height="26.4"/>
			<path class="st7" d="M123.5,58.6h-73l0,0v-3.3l0,0h73.1C123.5,55.3,123.5,58.6,123.5,58.6z"/>
			<path class="st8" d="M123.5,63.8c0,0.4-0.4,0.8-0.8,0.8c-4.8,0-66.5,0-71.4,0c-0.5,0-0.8-0.4-0.8-0.8l0,0c0-0.4,0.4-0.8,0.8-0.8
				c4.8,0,66.5,0,71.4,0C123.2,63,123.5,63.3,123.5,63.8L123.5,63.8z"/>
			<rect x="50.5" y="20.6" class="st2" width="59.1" height="2"/>
			<g>
				<path class="st2" d="M34.3,22c-0.7,2.7-3.1,4.7-5.9,4.7c-2.4,0-4.4-1.3-5.5-3.3h4.1V22h-4.5h-1.3l0,0v6h1.3V25
					c1.3,1.9,3.6,3.1,6,3.1c3.6,0,6.7-2.5,7.3-6H34.3z"/>
				<path class="st2" d="M34.4,13.4v3.2c-1.3-1.9-3.6-3.2-6.1-3.2c-3.6,0-6.7,2.7-7.3,6h1.3c0.7-2.7,3.1-4.7,5.9-4.7
					c2.4,0,4.4,1.3,5.5,3.3h-4v1.3h4.5h1.3h0.1v-6L34.4,13.4z"/>
			</g>
			<path class="st9" d="M89.3,64.6h-38c-0.5,0-0.8-0.4-0.8-0.8l0,0c0-0.5,0.4-0.8,0.8-0.8h38.1C89.3,63,89.3,64.6,89.3,64.6z"/>
			<path class="st7" d="M123.5,88.1h-73l0,0v-3.3l0,0h73.1C123.5,84.7,123.5,88.1,123.5,88.1z"/>
			<path class="st8" d="M123.5,93.2c0,0.4-0.4,0.8-0.8,0.8c-4.8,0-66.5,0-71.4,0c-0.5,0-0.8-0.4-0.8-0.8l0,0c0-0.4,0.4-0.8,0.8-0.8
				c4.8,0,66.5,0,71.4,0C123.2,92.4,123.5,92.8,123.5,93.2L123.5,93.2z"/>
			<path class="st9" d="M73.6,94.1H51.3c-0.5,0-0.8-0.4-0.8-0.8l0,0c0-0.5,0.4-0.8,0.8-0.8h22.3C73.6,92.4,73.6,94.1,73.6,94.1z"/>
		</g>
		
			<linearGradient id="SVGID_1_" gradientUnits="userSpaceOnUse" x1="711.9998" y1="583.5264" x2="711.9998" y2="562.0264" gradientTransform="matrix(1 0 0 1 -641.9998 -479.4264)">
			<stop  offset="0" style="stop-color:#252423"/>
			<stop  offset="1" style="stop-color:#252423;stop-opacity:0"/>
		</linearGradient>
		<rect y="82.6" class="st10" width="140" height="21.5"/>
		<rect y="104.1" class="st0" width="140" height="5.9"/>
	</g>
</g>
<linearGradient id="SVGID_2_" gradientUnits="userSpaceOnUse" x1="742.4205" y1="505.283" x2="742.4205" y2="492.8321" gradientTransform="matrix(6.123234e-17 -1 1 6.123234e-17 -400.243 796.8157)">
	<stop  offset="0" style="stop-color:#252423"/>
	<stop  offset="1" style="stop-color:#252423;stop-opacity:0"/>
</linearGradient>
<rect x="92.6" y="0.8" class="st11" width="12.5" height="107.2"/>
<rect x="105" y="0" class="st0" width="43.9" height="109.8"/>
<g>
	<rect x="116.8" y="41" class="st1" width="139.8" height="68.8"/>
	<g>
		<g>
			<g>
				<path class="st2" d="M151.6,98.9h-13.8V81.2c2.7,0,5.4,0,8.2,0c1.9,1.8,3.7,3.7,5.6,5.5C151.6,90.8,151.6,94.8,151.6,98.9z"/>
				<path class="st3" d="M151.6,98.9h-13.8V81.2c2.7,0,5.4,0,8.2,0c1.9,1.8,3.7,3.7,5.6,5.5C151.6,90.8,151.6,94.8,151.6,98.9z"/>
				<polygon class="st4" points="151.6,86.7 145.9,86.7 145.9,81.2 				"/>
			</g>
			<g>
				<path class="st2" d="M151.6,69.4h-13.8V51.7c2.7,0,5.4,0,8.2,0c1.9,1.8,3.7,3.7,5.6,5.5C151.6,61.2,151.6,65.3,151.6,69.4z"/>
				<path class="st3" d="M151.6,69.4h-13.8V51.7c2.7,0,5.4,0,8.2,0c1.9,1.8,3.7,3.7,5.6,5.5C151.6,61.2,151.6,65.3,151.6,69.4z"/>
				<polygon class="st4" points="151.6,57.2 145.9,57.2 145.9,51.7 				"/>
			</g>
			<rect x="116.9" y="34.2" class="st5" width="139.7" height="8.7"/>
			<g>
				<path class="st5" d="M118.7,9.8h136.2v96.3H118.7V9.8 M116.9,8v99.8h139.7V8H116.9L116.9,8z"/>
			</g>
			<rect x="116.9" y="8" class="st6" width="139.7" height="26.4"/>
			<path class="st7" d="M240.3,58.6h-73l0,0v-3.3l0,0h73.1C240.3,55.3,240.3,58.6,240.3,58.6z"/>
			<rect x="167.3" y="20.6" class="st2" width="59.1" height="2"/>
			<path class="st7" d="M240.3,88.1h-73l0,0v-3.3l0,0h73.1C240.3,84.7,240.3,88.1,240.3,88.1z"/>
			<path class="st8" d="M231.3,65.3h-64v1V63l0,0h64.1C231.3,63,231.3,65.3,231.3,65.3z"/>
			<path class="st8" d="M231.3,94.8h-64v1v-3.3l0,0h64.1C231.3,92.4,231.3,94.8,231.3,94.8z"/>
			<g>
				<path class="st12" d="M142.3,18.1L142.3,18.1c-0.7-0.4-1.6-0.7-2.6-0.7l0,0c-2.6,0-4.8,2.2-4.8,5c0,1,0.3,2.1,0.9,2.8l6.5-1
					l4.4-3.5L142.3,18.1z"/>
				<path class="st13" d="M150.8,19.3c-0.1,0-0.1,0-0.3,0c-0.6,0-1.2,0.1-1.6,0.3l0,0l-2.5,1l2.8,3.5l4.8,1c0.3-0.6,0.4-1.2,0.4-1.9
					C154.6,21.2,152.9,19.5,150.8,19.3z"/>
				<path class="st14" d="M139.7,17.4L139.7,17.4c1,0,1.9,0.3,2.6,0.7l0,0l4.1,2.5l0,0l2.5-1l0,0c0.4-0.1,1-0.3,1.6-0.3
					c0.1,0,0.1,0,0.3,0l0,0c-0.7-2.6-3.1-4.7-6-4.7C142.6,14.6,140.7,15.6,139.7,17.4L139.7,17.4z"/>
				<path class="st2" d="M146.4,20.6l-10.9,4.6c0.9,1.3,2.3,2.1,4.1,2.1h10.9c1.5,0,2.9-0.9,3.5-2.1L146.4,20.6z"/>
			</g>
		</g>
		
			<linearGradient id="SVGID_3_" gradientUnits="userSpaceOnUse" x1="828.6655" y1="583.5264" x2="828.6655" y2="562.0264" gradientTransform="matrix(1 0 0 1 -641.9998 -479.4264)">
			<stop  offset="0" style="stop-color:#252423"/>
			<stop  offset="1" style="stop-color:#252423;stop-opacity:0"/>
		</linearGradient>
		<rect x="116.8" y="82.6" class="st15" width="139.8" height="21.5"/>
		<rect x="116.8" y="104.1" class="st0" width="139.8" height="5.9"/>
	</g>
</g>
</svg>
