<?xml version="1.0" encoding="utf-8"?>
<!-- Generator: Adobe Illustrator 23.0.6, SVG Export Plug-In . SVG Version: 6.00 Build 0)  -->
<svg version="1.1" id="Layer_1" xmlns="http://www.w3.org/2000/svg" xmlns:xlink="http://www.w3.org/1999/xlink" x="0px" y="0px"
	 viewBox="0 0 179.5 110" style="enable-background:new 0 0 179.5 110;" xml:space="preserve">
<style type="text/css">
	.st0{fill:#252423;}
	.st1{fill:#323130;}
	.st2{fill:#484644;}
	.st3{opacity:0.2;fill:#C7C5C3;enable-background:new    ;}
	.st4{fill:#D5D5D5;}
	.st5{fill:#FFFFFF;}
	.st6{fill:#1B1A19;}
	.st7{opacity:0.7;}
	.st8{fill:#E9E9E9;}
	.st9{fill:#979693;}
	.st10{fill:#797775;}
	.st11{fill:url(#SVGID_1_);}
	.st12{fill:#8A969E;}
	.st13{fill:url(#SVGID_2_);}
	.st14{fill:url(#SVGID_3_);}
	.st15{opacity:0.45;fill:#C7C5C3;enable-background:new    ;}
	.st16{opacity:0.7;fill:#FFFFFF;enable-background:new    ;}
	.st17{opacity:0.85;fill:#FFFFFF;enable-background:new    ;}
	.st18{opacity:0.5;fill:#FFFFFF;enable-background:new    ;}
	.st19{fill:none;stroke:#FFFFFF;stroke-width:0.75;stroke-miterlimit:10;}
	.st20{fill:none;stroke:#FFFFFF;stroke-width:0.75;stroke-linejoin:round;stroke-miterlimit:10;}
	
		.st21{opacity:0.5;fill:none;stroke:#FFFFFF;stroke-width:0.75;stroke-linejoin:round;stroke-miterlimit:10;enable-background:new    ;}
</style>
<rect class="st0" width="179.5" height="98.4"/>
<rect x="20.3" y="0.1" class="st1" width="139" height="90.3"/>
<rect x="20.1" y="61.7" class="st2" width="139.3" height="28.5"/>
<rect x="86.1" y="15.9" class="st3" width="73.3" height="23.9"/>
<path class="st4" d="M144.8,29.5H93l0,0v-3.3h51.9C144.8,26.2,144.8,29.5,144.8,29.5z"/>
<g>
	<path class="st5" d="M150.6,46.4c-0.1,0-0.1,0-0.2,0c-0.1-0.1-0.3-0.2-0.3-0.3l-2.9-6.4l-3.9,3.8c-0.1,0.1-0.3,0.2-0.4,0.2
		c-0.1,0-0.2,0-0.2,0c-0.2-0.1-0.4-0.3-0.4-0.5V25.4c0-0.3,0.3-0.6,0.6-0.6s0.5,0,13.3,12.4c0.2,0.2,0.2,0.4,0.1,0.6
		c-0.1,0.2-0.3,0.4-0.5,0.4h-4.6l2.8,6.1c0.1,0.1,0.1,0.3,0,0.4c-0.1,0.1-0.2,0.3-0.3,0.3l-2.8,1.3
		C150.8,46.3,150.7,46.4,150.6,46.4z"/>
	<path class="st6" d="M142.9,25.4c0.2,0,12.9,12.3,12.9,12.3h-5.5l3.2,6.9l-2.8,1.3l-3.3-7.1l-4.5,4.3L142.9,25.4L142.9,25.4
		 M142.9,24.2c-0.6,0-1.2,0.5-1.2,1.2V43c0,0.5,0.3,0.9,0.7,1.1c0.1,0.1,0.3,0.1,0.4,0.1c0.3,0,0.6-0.1,0.8-0.3l3.3-3.2l2.6,5.7
		c0.2,0.4,0.6,0.7,1,0.7c0.2,0,0.3,0,0.5-0.1l2.8-1.3c0.6-0.3,0.8-0.9,0.6-1.5l-2.4-5.3h3.7c0.5,0,0.9-0.3,1.1-0.7
		c0.2-0.4,0.1-0.9-0.3-1.3C143.6,24.2,143.5,24.2,142.9,24.2L142.9,24.2z"/>
</g>
<g>
	<path class="st2" d="M21.9,4.6h135.8v84H21.9V4.6 M20.1,2.9v87.5h139.3V2.9H20.1L20.1,2.9z"/>
</g>
<g class="st7">
	<circle class="st8" cx="129.9" cy="76.2" r="1.1"/>
	<circle class="st8" cx="136.6" cy="76.2" r="1.1"/>
	<circle class="st8" cx="143.6" cy="76.2" r="1.1"/>
</g>
<g>
	<path class="st8" d="M90.1,83.2c-3.6,0-6.6-3-6.6-6.6s3-6.6,6.6-6.6s6.6,3,6.6,6.6S93.8,83.2,90.1,83.2z M90.1,70.6
		c-3.3,0-6,2.7-6,6s2.7,6,6,6s6-2.7,6-6S93.4,70.6,90.1,70.6z"/>
	<path class="st8" d="M90.1,83.3L90.1,83.3c-0.2,0-3.1-1.1-3.1-6.6s2.9-6.6,3-6.6h0.1h0.1c0.1,0,3,1.1,3,6.6
		C93.2,82.3,90.3,83.3,90.1,83.3L90.1,83.3z M90.1,70.7c-0.5,0.2-2.5,1.5-2.5,6s2,5.7,2.5,6c0.5-0.2,2.5-1.4,2.5-6
		C92.6,72.2,90.6,70.9,90.1,70.7z"/>
	<rect x="84.2" y="74.1" class="st8" width="11.9" height="0.6"/>
	<rect x="84.5" y="78.5" class="st8" width="11.5" height="0.6"/>
</g>
<g>
	<path class="st8" d="M55.4,82.2H40.3V71.1h8.4l1.3,1.3c0.2,0.2,0.6,0.4,0.9,0.4h4.4L55.4,82.2z M41,81.5h13.7l-0.1-8h-3.8
		c-0.5,0-1-0.2-1.3-0.6l-1.1-1.1H41V81.5z"/>
	<path class="st8" d="M55.4,73.1h-0.7v-1.8c0-0.4-0.3-0.8-0.8-0.8h-3.2c-0.3,0-0.7,0.2-1,0.4l-0.9,0.9l-0.5-0.5l0.9-0.9
		c0.4-0.4,0.9-0.6,1.4-0.6h3.2c0.8,0,1.5,0.7,1.5,1.5L55.4,73.1L55.4,73.1z"/>
</g>
<path class="st9" d="M138.2,51.6H93.1l0,0v-3.3l0,0h45.1l0,0V51.6C138.3,51.6,138.2,51.6,138.2,51.6z"/>
<path class="st9" d="M138.2,8.7H93.1l0,0V5.4l0,0h45.1l0,0V8.7C138.3,8.7,138.2,8.7,138.2,8.7z"/>
<g>
	<path class="st10" d="M87.1,2.2h70.1v57.5H87.1V2.2 M85,0.1V62h74.4V0.1H85L85,0.1z"/>
</g>
<linearGradient id="SVGID_1_" gradientUnits="userSpaceOnUse" x1="1732.7731" y1="-7928.2402" x2="1732.7731" y2="-7908.6953" gradientTransform="matrix(-1 0 0 1 1822.473 7932.6641)">
	<stop  offset="1.260747e-03" style="stop-color:#252423"/>
	<stop  offset="0.9987" style="stop-color:#252423;stop-opacity:0"/>
</linearGradient>
<polygon class="st11" points="159.7,24 19.7,24 19.7,4.5 159.7,4.5 "/>
<rect class="st0" width="179.5" height="4.5"/>
<rect x="0.3" y="90.4" class="st12" width="179.2" height="19.6"/>
<linearGradient id="SVGID_2_" gradientUnits="userSpaceOnUse" x1="1724.8149" y1="-8072.0537" x2="1724.8149" y2="-8051.8813" gradientTransform="matrix(-6.123234e-17 1 1 6.123234e-17 8072.0137 -1624.615)">
	<stop  offset="0" style="stop-color:#252423"/>
	<stop  offset="1" style="stop-color:#869FB2;stop-opacity:0"/>
</linearGradient>
<polygon class="st13" points="20.1,90.4 20.1,110 0,110 0,90.4 "/>
<linearGradient id="SVGID_3_" gradientUnits="userSpaceOnUse" x1="1724.8149" y1="-7931.9531" x2="1724.8149" y2="-7912.127" gradientTransform="matrix(6.123234e-17 -1 -1 -6.123234e-17 -7752.4136 1825.015)">
	<stop  offset="0" style="stop-color:#252423"/>
	<stop  offset="1" style="stop-color:#869FB2;stop-opacity:0"/>
</linearGradient>
<polygon class="st14" points="159.7,110 159.7,90.4 179.5,90.4 179.5,110 "/>
<rect x="75.8" y="90.4" class="st15" width="28" height="19.6"/>
<g>
	<path class="st16" d="M88,98.1L88,98.1c-0.5-0.3-1.2-0.5-2-0.5l0,0c-2,0-3.6,1.6-3.6,3.7c0,0.8,0.2,1.5,0.7,2.1l4.8-0.8l3.3-2.6
		L88,98.1z"/>
	<path class="st17" d="M94.3,99c-0.1,0-0.1,0-0.2,0c-0.4,0-0.9,0.1-1.2,0.2l0,0l-1.8,0.8l2.1,2.6l3.6,0.8c0.2-0.4,0.3-0.9,0.3-1.4
		C97.2,100.4,95.9,99.1,94.3,99z"/>
	<path class="st18" d="M86.1,97.6L86.1,97.6c0.8,0,1.4,0.2,2,0.5l0,0l3,1.8l0,0l1.8-0.8l0,0c0.3-0.1,0.8-0.2,1.2-0.2
		c0.1,0,0.1,0,0.2,0l0,0c-0.5-2-2.3-3.5-4.5-3.5C88.3,95.5,86.8,96.3,86.1,97.6L86.1,97.6z"/>
	<path class="st5" d="M91.1,100l-8,3.4c0.7,1,1.7,1.5,3,1.5h8c1.1,0,2.2-0.7,2.6-1.5L91.1,100z"/>
</g>
<g>
	<g>
		<rect x="117.2" y="96.6" class="st18" width="10.5" height="7.2"/>
		<rect x="117.2" y="96.6" class="st19" width="10.5" height="7.2"/>
		<line class="st19" x1="119.5" y1="105.3" x2="125.4" y2="105.3"/>
		<line class="st19" x1="122.5" y1="103.7" x2="122.5" y2="105.3"/>
	</g>
	<polyline class="st19" points="115.6,95.2 115.6,98.5 118.8,98.5 118.8,95.2 	"/>
	<line class="st19" x1="117.2" y1="94.7" x2="117.2" y2="106.1"/>
</g>
<g>
	<path class="st20" d="M150.7,102.9c1.2-1.2,1.2-3.1,0-4.2"/>
	<path class="st21" d="M152.4,104.6c2.1-2.1,2.1-5.4,0-7.5"/>
	<polygon class="st5" points="145.9,98.4 145.9,102.9 148.9,105.5 148.9,95.9 	"/>
	<rect x="143.1" y="98.4" class="st5" width="1.9" height="4.5"/>
</g>
</svg>
