<svg id="Layer_1" data-name="Layer 1" xmlns="http://www.w3.org/2000/svg" viewBox="0 0 16 16"><title>Artboard 1</title><g id="YellowFolder"><g id="Group-Copy-24"><path id="Rectangle-Copy-75" d="M.5,2H5.586a1,1,0,0,1,.707.293L7.927,3.927A.249.249,0,0,0,8.1,4h7.4a.5.5,0,0,1,.5.5v9a.5.5,0,0,1-.5.5H.5a.5.5,0,0,1-.5-.5V2.5A.5.5,0,0,1,.5,2Z" style="fill:#ffb900;fill-rule:evenodd"/><path id="Rectangle-Copy-76" d="M0,6H5.586a1,1,0,0,0,.707-.293L7.927,4.073A.249.249,0,0,1,8.1,4h7.4a.5.5,0,0,1,.5.5v9a.5.5,0,0,1-.5.5H.5a.5.5,0,0,1-.5-.5Z" style="fill:#ffd75e;fill-rule:evenodd"/><path id="Rectangle" d="M0,13H16v.5a.5.5,0,0,1-.5.5H.5a.5.5,0,0,1-.5-.5Z" style="fill:#da7b16;fill-rule:evenodd"/></g></g></svg>