<svg width="1440" height="800" viewBox="0 0 1440 800" fill="none" xmlns="http://www.w3.org/2000/svg">
<g opacity="0.6">
<path opacity="0.6" d="M33.2419 338.824V351.1H45.7077V338.824H33.2419ZM44.2533 349.668H34.4885V340.051H44.2533V349.668Z" fill="#D157A7"/>
<path opacity="0.6" d="M23.4771 351.1V349.668V338.824H11.0114V349.668V351.1V361.944H22.0228V372.788H34.4885V360.512H23.4771V351.1ZM12.4657 340.256H22.2306V349.872H12.4657V340.256ZM12.4657 360.716V351.1H22.2306V360.716H12.4657ZM33.242 361.944V371.56H23.4771V361.944H33.242Z" fill="#D157A7"/>
<path opacity="0.6" d="M11.0114 329.207H23.4771V316.931H11.0114V329.207ZM12.4657 318.363H22.2306V327.98H12.4657V318.363Z" fill="#D157A7"/>
<path opacity="0.6" d="M12.4657 295.243H0V307.519H12.4657V295.243ZM11.0114 306.087H1.45434V296.471H11.2192V306.087H11.0114Z" fill="#D157A7"/>
</g>
<g opacity="0.5">
<path opacity="0.5" d="M1123.16 163.478H1135.63V151.202H1123.16V163.478ZM1124.41 152.634H1134.17V162.251H1124.41V152.634Z" fill="#D157A7"/>
<path opacity="0.5" d="M1145.19 151.202V152.634V163.478H1157.65V152.634V151.202V140.358H1146.64V129.514H1134.17V141.79H1145.19V151.202ZM1156.4 162.251H1146.64V152.634H1156.4V162.251ZM1156.4 141.79V151.407H1146.64V141.79H1156.4ZM1135.63 140.358V130.742H1145.39V140.358H1135.63Z" fill="#D157A7"/>
<path opacity="0.5" d="M1157.65 173.095H1145.19V185.371H1157.65V173.095ZM1156.4 183.939H1146.64V174.322H1156.4V183.939Z" fill="#D157A7"/>
<path opacity="0.5" d="M1156.4 194.987V207.263H1168.87V194.987H1156.4ZM1167.42 205.831H1157.65V196.215H1167.42V205.831Z" fill="#D157A7"/>
</g>
<path d="M723.101 200.187V212.463H735.567V200.187H723.101ZM734.113 211.235H724.348V201.619H734.113V211.235Z" fill="#D157A7"/>
<path d="M587.466 127.276V125.844V115H575V125.844V127.276V138.12H586.011V148.964H598.477V136.688H587.466V127.276ZM576.454 116.432H586.219V126.049H576.454V116.432ZM576.454 136.893V127.276H586.219V136.893H576.454ZM597.231 138.12V147.737H587.466V138.12H597.231Z" fill="#D157A7"/>
<path d="M646.141 96.9821H658.606V84.7059H646.141V96.9821ZM647.595 85.9335H657.36V95.5499H647.595V85.9335Z" fill="#D157A7"/>
<path d="M702.325 156.606H689.859V168.882H702.325V156.606ZM700.871 167.45H691.106V157.834H700.871V167.45Z" fill="#D157A7"/>
<g opacity="0.5">
<path opacity="0.8" d="M1310.98 481.637H1299.97V492.481H1310.98V481.637Z" fill="#D157A7"/>
<path opacity="0.8" d="M1299.76 503.325H1288.75V514.169H1299.76V503.325Z" fill="#D157A7"/>
<path opacity="0.8" d="M1288.75 492.481H1277.74V503.325H1288.75V492.481Z" fill="#D157A7"/>
<path opacity="0.8" d="M1288.75 470.588H1277.74V481.432H1288.75V470.588Z" fill="#D157A7"/>
<path opacity="0.8" d="M1266.52 448.9H1255.51V459.744H1266.52V448.9Z" fill="#D157A7"/>
</g>
<g opacity="0.4">
<path opacity="0.8" d="M453.753 690.128H442.741V700.972H453.753V690.128Z" fill="#D157A7"/>
<path opacity="0.8" d="M464.972 668.44H453.96V679.284H464.972V668.44Z" fill="#D157A7"/>
<path opacity="0.8" d="M475.983 679.284H464.972V690.128H475.983V679.284Z" fill="#D157A7"/>
<path opacity="0.8" d="M475.983 701.177H464.972V712.021H475.983V701.177Z" fill="#D157A7"/>
<path opacity="0.8" d="M498.214 722.864H487.202V733.708H498.214V722.864Z" fill="#D157A7"/>
</g>
<g opacity="0.4">
<path opacity="0.8" d="M659.022 428.031H647.595V438.67H659.022V428.031Z" fill="#D157A7"/>
<path opacity="0.8" d="M659.022 448.491H647.595V459.13H659.022V448.491Z" fill="#D157A7"/>
<path opacity="0.8" d="M659.022 468.951H647.595V479.591H659.022V468.951Z" fill="#D157A7"/>
</g>
<path opacity="0.8" d="M31.5799 69.9744H20.153V80.6138H31.5799V69.9744Z" fill="#D157A7"/>
<path opacity="0.8" d="M31.5799 90.4348H20.153V101.074H31.5799V90.4348Z" fill="#D157A7"/>
<path opacity="0.8" d="M31.5799 110.895H20.153V121.535H31.5799V110.895Z" fill="#D157A7"/>
<g opacity="0.5">
<path opacity="0.8" d="M283.595 445.422V410.026H318.915V424.143H298.139V445.422H283.595Z" fill="#D157A7"/>
</g>
<g opacity="0.5">
<g opacity="0.5">
<path opacity="0.5" d="M468.712 192.532H455.207V161.637H485.956V174.936H468.712V192.532ZM456.454 191.304H467.257V173.708H484.501V163.069H456.454V191.304Z" fill="#D157A7"/>
</g>
</g>
<g opacity="0.8">
<path opacity="0.8" d="M160.812 164.731H141.906V273.376H160.812V164.731Z" fill="#D157A7"/>
</g>
<g opacity="0.4">
<g opacity="0.4">
<path opacity="0.4" d="M663.385 670.077H643.232V560.205H663.385V670.077ZM644.479 668.645H661.931V561.432H644.479V668.645Z" fill="#D157A7"/>
</g>
</g>
<path opacity="0.8" d="M1288.54 96.9821H1277.11V107.621H1288.54V96.9821Z" fill="#D157A7"/>
<path opacity="0.8" d="M1288.54 117.442H1277.11V128.082H1288.54V117.442Z" fill="#D157A7"/>
<path opacity="0.8" d="M1288.54 137.903H1277.11V148.542H1288.54V137.903Z" fill="#D157A7"/>
<g opacity="0.6">
<g opacity="0.6">
<path opacity="0.6" d="M1292.9 314.476H1272.75V204.604H1292.9V314.476ZM1274 313.248H1291.45V206.036H1274V313.248Z" fill="#D157A7"/>
</g>
</g>
<path d="M1020.32 395.141H1000.17V285.269H1020.32V395.141ZM1001.41 393.708H1018.87V286.496H1001.41V393.708Z" fill="#D157A7"/>
<path d="M1427.53 591.918V604.194H1440V591.918H1427.53ZM1438.75 602.762H1428.99V593.146H1438.75V602.762Z" fill="#D157A7"/>
<path d="M1417.98 604.194V602.762V591.918H1405.51V602.762V604.194V615.038H1416.52V625.882H1428.99V613.606H1417.98V604.194ZM1406.76 593.146H1416.52V602.762H1406.76V593.146ZM1406.76 613.606V603.99H1416.52V613.606H1406.76ZM1427.53 615.038V624.655H1417.77V615.038H1427.53Z" fill="#D157A7"/>
<path d="M1405.51 582.302H1417.98V570.026H1405.51V582.302ZM1406.76 571.458H1416.52V581.074H1406.76V571.458Z" fill="#D157A7"/>
<path d="M1406.76 548.133H1394.29V560.409H1406.76V548.133ZM1405.51 559.182H1395.75V549.565H1405.51V559.182Z" fill="#D157A7"/>
<path d="M157.696 81.867H144.815V70H157.696V81.867ZM146.269 80.6394H156.242V71.4322H146.269V80.6394Z" fill="#D157A7"/>
<path d="M157.696 102.532H144.815V90.4604H157.696V102.532ZM146.269 101.1H156.242V91.8926H146.269V101.1Z" fill="#D157A7"/>
<path d="M157.696 122.992H144.815V110.921H157.696V122.992ZM146.269 121.56H156.242V112.353H146.269V121.56Z" fill="#D157A7"/>
<path d="M476.814 283.785H463.933V271.918H476.814V283.785ZM465.595 282.353H475.568V273.146H465.595V282.353Z" fill="#D157A7"/>
<path d="M476.814 304.246H463.933V292.379H476.814V304.246ZM465.595 302.813H475.568V293.606H465.595V302.813Z" fill="#D157A7"/>
<path d="M476.814 324.706H463.933V312.839H476.814V324.706ZM465.595 323.478H475.568V314.271H465.595V323.478Z" fill="#D157A7"/>
<g opacity="0.5">
<g opacity="0.5">
<path opacity="0.5" d="M173.066 272.327H142.317V259.028H159.561V241.432H173.066V272.327ZM143.771 271.1H171.819V242.864H161.016V260.46H143.771V271.1Z" fill="#D157A7"/>
</g>
</g>
<path opacity="0.8" d="M163.509 336.368H152.082V347.008H163.509V336.368Z" fill="#D157A7"/>
<path opacity="0.8" d="M163.509 356.829H152.082V367.468H163.509V356.829Z" fill="#D157A7"/>
<path opacity="0.8" d="M163.509 377.289H152.082V387.928H163.509V377.289Z" fill="#D157A7"/>
<path d="M32.2032 656.368H19.5297V644.501H32.4109V656.368H32.2032ZM20.7762 655.141H30.7488V645.934H20.7762V655.141Z" fill="#D157A7"/>
<path d="M32.2032 677.033H19.5297V664.962H32.4109V677.033H32.2032ZM20.7762 675.601H30.7488V666.394H20.7762V675.601Z" fill="#D157A7"/>
<path d="M32.2032 697.494H19.5297V685.422H32.4109V697.494H32.2032ZM20.7762 696.061H30.7488V686.854H20.7762V696.061Z" fill="#D157A7"/>
<g opacity="0.6">
<g opacity="0.6">
<path opacity="0.6" d="M1152.46 566.343H1139.58V554.476H1152.46V566.343ZM1141.03 565.115H1151V555.908H1141.03V565.115Z" fill="#D157A7"/>
</g>
<g opacity="0.6">
<path opacity="0.6" d="M1152.46 587.008H1139.58V574.936H1152.46V587.008ZM1141.03 585.575H1151V576.368H1141.03V585.575Z" fill="#D157A7"/>
</g>
<g opacity="0.6">
<path opacity="0.6" d="M1152.46 607.468H1139.58V595.396H1152.46V607.468ZM1141.03 606.036H1151V596.829H1141.03V606.036Z" fill="#D157A7"/>
</g>
</g>
<path d="M1016.58 196.88H1003.7V185.013H1016.58V196.88ZM1005.15 195.652H1015.13V186.445H1005.15V195.652Z" fill="#D157A7"/>
<path d="M1016.58 217.545H1003.7V205.473H1016.58V217.545ZM1005.15 216.113H1015.13V206.905H1005.15V216.113Z" fill="#D157A7"/>
<path d="M1016.58 238.005H1003.7V225.934H1016.58V238.005ZM1005.15 236.573H1015.13V227.366H1005.15V236.573Z" fill="#D157A7"/>
<g opacity="0.5">
<g opacity="0.5">
<path opacity="0.8" d="M284.634 550.384H273.623V561.228H284.634V550.384Z" fill="#D157A7"/>
<path opacity="0.8" d="M295.646 561.432H284.634V572.276H295.646V561.432Z" fill="#D157A7"/>
<path opacity="0.8" d="M306.657 572.276H295.646V583.12H306.657V572.276Z" fill="#D157A7"/>
<path opacity="0.8" d="M317.876 583.12H306.865V593.964H317.876V583.12Z" fill="#D157A7"/>
<path opacity="0.8" d="M328.888 594.169H317.876V605.013H328.888V594.169Z" fill="#D157A7"/>
</g>
<g opacity="0.5">
<path opacity="0.8" d="M328.888 550.384H317.876V561.228H328.888V550.384Z" fill="#D157A7"/>
<path opacity="0.8" d="M317.876 561.432H306.865V572.276H317.876V561.432Z" fill="#D157A7"/>
<path opacity="0.8" d="M295.646 583.12H284.634V593.964H295.646V583.12Z" fill="#D157A7"/>
<path opacity="0.8" d="M284.634 594.169H273.623V605.013H284.634V594.169Z" fill="#D157A7"/>
</g>
</g>
<g opacity="0.6">
<g opacity="0.6">
<path opacity="0.8" d="M639.908 239.386H630.974V248.184H639.908V239.386Z" fill="#D157A7"/>
<path opacity="0.8" d="M648.841 248.184H639.908V256.982H648.841V248.184Z" fill="#D157A7"/>
<path opacity="0.8" d="M657.775 256.982H648.841V265.78H657.775V256.982Z" fill="#D157A7"/>
<path opacity="0.8" d="M666.501 265.575H657.568V274.373H666.501V265.575Z" fill="#D157A7"/>
<path opacity="0.8" d="M675.435 274.373H666.501V283.171H675.435V274.373Z" fill="#D157A7"/>
</g>
<g opacity="0.6">
<path opacity="0.8" d="M675.435 239.386H666.501V248.184H675.435V239.386Z" fill="#D157A7"/>
<path opacity="0.8" d="M666.501 248.184H657.568V256.982H666.501V248.184Z" fill="#D157A7"/>
<path opacity="0.8" d="M648.841 265.575H639.908V274.373H648.841V265.575Z" fill="#D157A7"/>
<path opacity="0.8" d="M639.908 274.373H630.974V283.171H639.908V274.373Z" fill="#D157A7"/>
</g>
</g>
<path opacity="0.8" d="M831.672 533.402H820.661V544.246H831.672V533.402Z" fill="#D157A7"/>
<path opacity="0.8" d="M842.684 544.246H831.672V555.09H842.684V544.246Z" fill="#D157A7"/>
<path opacity="0.8" d="M853.903 555.294H842.891V566.138H853.903V555.294Z" fill="#D157A7"/>
<path opacity="0.8" d="M864.914 566.138H853.903V576.982H864.914V566.138Z" fill="#D157A7"/>
<path opacity="0.8" d="M875.926 576.982H864.914V587.826H875.926V576.982Z" fill="#D157A7"/>
<path opacity="0.8" d="M875.926 533.402H864.914V544.246H875.926V533.402Z" fill="#D157A7"/>
<path opacity="0.8" d="M864.914 544.246H853.903V555.09H864.914V544.246Z" fill="#D157A7"/>
<path opacity="0.8" d="M842.684 566.138H831.672V576.982H842.684V566.138Z" fill="#D157A7"/>
<path opacity="0.8" d="M831.672 576.982H820.661V587.826H831.672V576.982Z" fill="#D157A7"/>
<path opacity="0.8" d="M1134.38 285.831H1126.69V293.401H1134.38V285.831Z" fill="#D157A7"/>
<path opacity="0.8" d="M1142.07 293.401H1134.38V300.972H1142.07V293.401Z" fill="#D157A7"/>
<path opacity="0.8" d="M1149.76 301.176H1142.07V308.747H1149.76V301.176Z" fill="#D157A7"/>
<path opacity="0.8" d="M1157.44 308.747H1149.76V316.317H1157.44V308.747Z" fill="#D157A7"/>
<path opacity="0.8" d="M1165.34 316.317H1157.65V323.887H1165.34V316.317Z" fill="#D157A7"/>
<path opacity="0.8" d="M1165.34 285.831H1157.65V293.401H1165.34V285.831Z" fill="#D157A7"/>
<path opacity="0.8" d="M1157.44 293.401H1149.76V300.972H1157.44V293.401Z" fill="#D157A7"/>
<path opacity="0.8" d="M1142.07 308.747H1134.38V316.317H1142.07V308.747Z" fill="#D157A7"/>
<path opacity="0.8" d="M1134.38 316.317H1126.69V323.887H1134.38V316.317Z" fill="#D157A7"/>
<path opacity="0.8" d="M1405.51 184.962H1397.82V192.532H1405.51V184.962Z" fill="#D157A7"/>
<path opacity="0.8" d="M1413.2 192.532H1405.51V200.102H1413.2V192.532Z" fill="#D157A7"/>
<path opacity="0.8" d="M1421.09 200.307H1413.41V207.877H1421.09V200.307Z" fill="#D157A7"/>
<path opacity="0.8" d="M1428.78 207.877H1421.09V215.448H1428.78V207.877Z" fill="#D157A7"/>
<path opacity="0.8" d="M1436.47 215.448H1428.78V223.018H1436.47V215.448Z" fill="#D157A7"/>
<path opacity="0.8" d="M1436.47 184.962H1428.78V192.532H1436.47V184.962Z" fill="#D157A7"/>
<path opacity="0.8" d="M1428.78 192.532H1421.09V200.102H1428.78V192.532Z" fill="#D157A7"/>
<path opacity="0.8" d="M1413.2 207.877H1405.51V215.448H1413.2V207.877Z" fill="#D157A7"/>
<path opacity="0.8" d="M1405.51 215.448H1397.82V223.018H1405.51V215.448Z" fill="#D157A7"/>
<path opacity="0.8" d="M458.739 395.294H451.052V402.864H458.739V395.294Z" fill="#D157A7"/>
<path opacity="0.8" d="M466.634 402.864H458.947V410.435H466.634V402.864Z" fill="#D157A7"/>
<path opacity="0.8" d="M474.321 410.435H466.634V418.005H474.321V410.435Z" fill="#D157A7"/>
<path opacity="0.8" d="M482.008 418.21H474.321V425.78H482.008V418.21Z" fill="#D157A7"/>
<path opacity="0.8" d="M489.903 425.78H482.216V433.35H489.903V425.78Z" fill="#D157A7"/>
<path opacity="0.8" d="M489.903 395.294H482.216V402.864H489.903V395.294Z" fill="#D157A7"/>
<path opacity="0.8" d="M482.008 402.864H474.321V410.435H482.008V402.864Z" fill="#D157A7"/>
<path opacity="0.8" d="M466.634 418.21H458.947V425.78H466.634V418.21Z" fill="#D157A7"/>
<path opacity="0.8" d="M458.739 425.78H451.052V433.35H458.739V425.78Z" fill="#D157A7"/>
<path opacity="0.8" d="M14.1278 179.847H6.44061V187.417H14.1278V179.847Z" fill="#D157A7"/>
<path opacity="0.8" d="M22.0228 187.417H14.3356V194.987H22.0228V187.417Z" fill="#D157A7"/>
<path opacity="0.8" d="M29.71 195.192H22.0228V202.762H29.71V195.192Z" fill="#D157A7"/>
<path opacity="0.8" d="M37.3972 202.762H29.71V210.332H37.3972V202.762Z" fill="#D157A7"/>
<path opacity="0.8" d="M45.2922 210.332H37.605V217.903H45.2922V210.332Z" fill="#D157A7"/>
<path opacity="0.8" d="M45.2922 179.847H37.605V187.417H45.2922V179.847Z" fill="#D157A7"/>
<path opacity="0.8" d="M37.3972 187.417H29.71V194.987H37.3972V187.417Z" fill="#D157A7"/>
<path opacity="0.8" d="M22.0228 202.762H14.3356V210.332H22.0228V202.762Z" fill="#D157A7"/>
<path opacity="0.8" d="M14.1278 210.332H6.44061V217.903H14.1278V210.332Z" fill="#D157A7"/>
<path d="M864.914 308.542V299.744H873.848V289.923H863.875V298.721H854.942V307.519H847.254V298.721H838.321V289.923H828.348V299.744H837.282V308.542H846.216V316.113H837.282V324.91H828.348V334.731H838.321V325.933H847.254V317.136H854.942V325.933H863.875V334.731H873.848V324.91H864.914V316.113H855.98V308.542H864.914ZM864.914 291.151H872.601V298.721H864.914V291.151ZM856.188 299.949H863.875V307.519H856.188V299.949ZM829.595 298.721V291.151H837.282V298.721H829.595ZM838.321 307.519V299.949H846.008V307.519H838.321ZM837.282 333.708H829.595V326.138H837.282V333.708ZM846.216 324.91H838.528V317.34H846.216V324.91ZM872.809 325.933V333.504H865.122V325.933H872.809ZM863.875 317.34V324.91H856.188V317.34H863.875ZM854.942 316.317H847.254V308.747H854.942V316.317Z" fill="#D157A7"/>
<path opacity="0.8" d="M1295.4 670.281H1277.11V628.542H1266.93V620.358H1285.22V662.097H1295.4V670.281Z" fill="#D157A7"/>
<g opacity="0.4">
<path opacity="0.8" d="M859.097 213.811H840.814V172.072H830.633V164.092H849.124V205.831H859.097V213.811Z" fill="#D157A7"/>
</g>
<g opacity="0.5">
<path opacity="0.8" d="M1403.02 72.0204H1421.3V113.76H1431.48V121.739H1412.99V80H1403.02V72.0204Z" fill="#D157A7"/>
</g>
<g opacity="0.5">
<path opacity="0.5" d="M1021.57 462.199H1008.89V404.706H998.921V403.274H1010.35V460.972H1021.57V462.199Z" fill="#D157A7"/>
</g>
<g opacity="0.5">
<path opacity="0.5" d="M166.002 508.645H153.329V474.066H143.148V472.634H154.783V507.212H166.002V508.645Z" fill="#D157A7"/>
</g>
<rect width="1440" height="783" fill="url(#paint0_linear_29:170)"/>
<defs>
<linearGradient id="paint0_linear_29:170" x1="720" y1="0" x2="720" y2="783" gradientUnits="userSpaceOnUse">
<stop stop-color="#091F31" stop-opacity="0"/>
<stop offset="0.520833" stop-color="#091F31"/>
</linearGradient>
</defs>
</svg>
